%TF.GenerationSoftware,KiCad,Pcbnew,(5.1.10)-1*%
%TF.CreationDate,2021-09-21T16:53:37-04:00*%
%TF.ProjectId,CC_PCB_V1,43435f50-4342-45f5-9631-2e6b69636164,09/18/2021*%
%TF.SameCoordinates,Original*%
%TF.FileFunction,Legend,Top*%
%TF.FilePolarity,Positive*%
%FSLAX46Y46*%
G04 Gerber Fmt 4.6, Leading zero omitted, Abs format (unit mm)*
G04 Created by KiCad (PCBNEW (5.1.10)-1) date 2021-09-21 16:53:37*
%MOMM*%
%LPD*%
G01*
G04 APERTURE LIST*
%ADD10C,0.150000*%
%ADD11C,0.127000*%
%ADD12C,0.200000*%
%ADD13C,0.152400*%
%ADD14C,0.120000*%
G04 APERTURE END LIST*
D10*
X142438095Y-132800000D02*
X142342857Y-132752380D01*
X142200000Y-132752380D01*
X142057142Y-132800000D01*
X141961904Y-132895238D01*
X141914285Y-132990476D01*
X141866666Y-133180952D01*
X141866666Y-133323809D01*
X141914285Y-133514285D01*
X141961904Y-133609523D01*
X142057142Y-133704761D01*
X142200000Y-133752380D01*
X142295238Y-133752380D01*
X142438095Y-133704761D01*
X142485714Y-133657142D01*
X142485714Y-133323809D01*
X142295238Y-133323809D01*
X142914285Y-133752380D02*
X142914285Y-132752380D01*
X143485714Y-133752380D01*
X143485714Y-132752380D01*
X143961904Y-133752380D02*
X143961904Y-132752380D01*
X144200000Y-132752380D01*
X144342857Y-132800000D01*
X144438095Y-132895238D01*
X144485714Y-132990476D01*
X144533333Y-133180952D01*
X144533333Y-133323809D01*
X144485714Y-133514285D01*
X144438095Y-133609523D01*
X144342857Y-133704761D01*
X144200000Y-133752380D01*
X143961904Y-133752380D01*
X140600000Y-128071428D02*
X141361904Y-128071428D01*
X140980952Y-128452380D02*
X140980952Y-127690476D01*
X141742857Y-127452380D02*
X142361904Y-127452380D01*
X142028571Y-127833333D01*
X142171428Y-127833333D01*
X142266666Y-127880952D01*
X142314285Y-127928571D01*
X142361904Y-128023809D01*
X142361904Y-128261904D01*
X142314285Y-128357142D01*
X142266666Y-128404761D01*
X142171428Y-128452380D01*
X141885714Y-128452380D01*
X141790476Y-128404761D01*
X141742857Y-128357142D01*
X142790476Y-128357142D02*
X142838095Y-128404761D01*
X142790476Y-128452380D01*
X142742857Y-128404761D01*
X142790476Y-128357142D01*
X142790476Y-128452380D01*
X143171428Y-127452380D02*
X143790476Y-127452380D01*
X143457142Y-127833333D01*
X143600000Y-127833333D01*
X143695238Y-127880952D01*
X143742857Y-127928571D01*
X143790476Y-128023809D01*
X143790476Y-128261904D01*
X143742857Y-128357142D01*
X143695238Y-128404761D01*
X143600000Y-128452380D01*
X143314285Y-128452380D01*
X143219047Y-128404761D01*
X143171428Y-128357142D01*
X144076190Y-127452380D02*
X144409523Y-128452380D01*
X144742857Y-127452380D01*
X69114285Y-160371428D02*
X69876190Y-160371428D01*
X69495238Y-160752380D02*
X69495238Y-159990476D01*
X70828571Y-159752380D02*
X70352380Y-159752380D01*
X70304761Y-160228571D01*
X70352380Y-160180952D01*
X70447619Y-160133333D01*
X70685714Y-160133333D01*
X70780952Y-160180952D01*
X70828571Y-160228571D01*
X70876190Y-160323809D01*
X70876190Y-160561904D01*
X70828571Y-160657142D01*
X70780952Y-160704761D01*
X70685714Y-160752380D01*
X70447619Y-160752380D01*
X70352380Y-160704761D01*
X70304761Y-160657142D01*
X71161904Y-159752380D02*
X71495238Y-160752380D01*
X71828571Y-159752380D01*
X64638095Y-159800000D02*
X64542857Y-159752380D01*
X64400000Y-159752380D01*
X64257142Y-159800000D01*
X64161904Y-159895238D01*
X64114285Y-159990476D01*
X64066666Y-160180952D01*
X64066666Y-160323809D01*
X64114285Y-160514285D01*
X64161904Y-160609523D01*
X64257142Y-160704761D01*
X64400000Y-160752380D01*
X64495238Y-160752380D01*
X64638095Y-160704761D01*
X64685714Y-160657142D01*
X64685714Y-160323809D01*
X64495238Y-160323809D01*
X65114285Y-160752380D02*
X65114285Y-159752380D01*
X65685714Y-160752380D01*
X65685714Y-159752380D01*
X66161904Y-160752380D02*
X66161904Y-159752380D01*
X66400000Y-159752380D01*
X66542857Y-159800000D01*
X66638095Y-159895238D01*
X66685714Y-159990476D01*
X66733333Y-160180952D01*
X66733333Y-160323809D01*
X66685714Y-160514285D01*
X66638095Y-160609523D01*
X66542857Y-160704761D01*
X66400000Y-160752380D01*
X66161904Y-160752380D01*
X142757142Y-112852380D02*
X142757142Y-111852380D01*
X143138095Y-111852380D01*
X143233333Y-111900000D01*
X143280952Y-111947619D01*
X143328571Y-112042857D01*
X143328571Y-112185714D01*
X143280952Y-112280952D01*
X143233333Y-112328571D01*
X143138095Y-112376190D01*
X142757142Y-112376190D01*
X143947619Y-111852380D02*
X144138095Y-111852380D01*
X144233333Y-111900000D01*
X144328571Y-111995238D01*
X144376190Y-112185714D01*
X144376190Y-112519047D01*
X144328571Y-112709523D01*
X144233333Y-112804761D01*
X144138095Y-112852380D01*
X143947619Y-112852380D01*
X143852380Y-112804761D01*
X143757142Y-112709523D01*
X143709523Y-112519047D01*
X143709523Y-112185714D01*
X143757142Y-111995238D01*
X143852380Y-111900000D01*
X143947619Y-111852380D01*
X144661904Y-111852380D02*
X145233333Y-111852380D01*
X144947619Y-112852380D02*
X144947619Y-111852380D01*
X146090476Y-112852380D02*
X145519047Y-112852380D01*
X145804761Y-112852380D02*
X145804761Y-111852380D01*
X145709523Y-111995238D01*
X145614285Y-112090476D01*
X145519047Y-112138095D01*
X142557142Y-110052380D02*
X142557142Y-109052380D01*
X142938095Y-109052380D01*
X143033333Y-109100000D01*
X143080952Y-109147619D01*
X143128571Y-109242857D01*
X143128571Y-109385714D01*
X143080952Y-109480952D01*
X143033333Y-109528571D01*
X142938095Y-109576190D01*
X142557142Y-109576190D01*
X143747619Y-109052380D02*
X143938095Y-109052380D01*
X144033333Y-109100000D01*
X144128571Y-109195238D01*
X144176190Y-109385714D01*
X144176190Y-109719047D01*
X144128571Y-109909523D01*
X144033333Y-110004761D01*
X143938095Y-110052380D01*
X143747619Y-110052380D01*
X143652380Y-110004761D01*
X143557142Y-109909523D01*
X143509523Y-109719047D01*
X143509523Y-109385714D01*
X143557142Y-109195238D01*
X143652380Y-109100000D01*
X143747619Y-109052380D01*
X144461904Y-109052380D02*
X145033333Y-109052380D01*
X144747619Y-110052380D02*
X144747619Y-109052380D01*
X145319047Y-109147619D02*
X145366666Y-109100000D01*
X145461904Y-109052380D01*
X145700000Y-109052380D01*
X145795238Y-109100000D01*
X145842857Y-109147619D01*
X145890476Y-109242857D01*
X145890476Y-109338095D01*
X145842857Y-109480952D01*
X145271428Y-110052380D01*
X145890476Y-110052380D01*
X140638095Y-106452380D02*
X141209523Y-106452380D01*
X140923809Y-107452380D02*
X140923809Y-106452380D01*
X141542857Y-107452380D02*
X141542857Y-106452380D01*
X141971428Y-107452380D02*
X141971428Y-106928571D01*
X141923809Y-106833333D01*
X141828571Y-106785714D01*
X141685714Y-106785714D01*
X141590476Y-106833333D01*
X141542857Y-106880952D01*
X142447619Y-107452380D02*
X142447619Y-106785714D01*
X142447619Y-106976190D02*
X142495238Y-106880952D01*
X142542857Y-106833333D01*
X142638095Y-106785714D01*
X142733333Y-106785714D01*
X143209523Y-107452380D02*
X143114285Y-107404761D01*
X143066666Y-107357142D01*
X143019047Y-107261904D01*
X143019047Y-106976190D01*
X143066666Y-106880952D01*
X143114285Y-106833333D01*
X143209523Y-106785714D01*
X143352380Y-106785714D01*
X143447619Y-106833333D01*
X143495238Y-106880952D01*
X143542857Y-106976190D01*
X143542857Y-107261904D01*
X143495238Y-107357142D01*
X143447619Y-107404761D01*
X143352380Y-107452380D01*
X143209523Y-107452380D01*
X143828571Y-106785714D02*
X144209523Y-106785714D01*
X143971428Y-106452380D02*
X143971428Y-107309523D01*
X144019047Y-107404761D01*
X144114285Y-107452380D01*
X144209523Y-107452380D01*
X144400000Y-106785714D02*
X144780952Y-106785714D01*
X144542857Y-106452380D02*
X144542857Y-107309523D01*
X144590476Y-107404761D01*
X144685714Y-107452380D01*
X144780952Y-107452380D01*
X145257142Y-107452380D02*
X145161904Y-107404761D01*
X145114285Y-107309523D01*
X145114285Y-106452380D01*
X146019047Y-107404761D02*
X145923809Y-107452380D01*
X145733333Y-107452380D01*
X145638095Y-107404761D01*
X145590476Y-107309523D01*
X145590476Y-106928571D01*
X145638095Y-106833333D01*
X145733333Y-106785714D01*
X145923809Y-106785714D01*
X146019047Y-106833333D01*
X146066666Y-106928571D01*
X146066666Y-107023809D01*
X145590476Y-107119047D01*
X141452380Y-104052380D02*
X141642857Y-104052380D01*
X141738095Y-104100000D01*
X141833333Y-104195238D01*
X141880952Y-104385714D01*
X141880952Y-104719047D01*
X141833333Y-104909523D01*
X141738095Y-105004761D01*
X141642857Y-105052380D01*
X141452380Y-105052380D01*
X141357142Y-105004761D01*
X141261904Y-104909523D01*
X141214285Y-104719047D01*
X141214285Y-104385714D01*
X141261904Y-104195238D01*
X141357142Y-104100000D01*
X141452380Y-104052380D01*
X142309523Y-104385714D02*
X142309523Y-105052380D01*
X142309523Y-104480952D02*
X142357142Y-104433333D01*
X142452380Y-104385714D01*
X142595238Y-104385714D01*
X142690476Y-104433333D01*
X142738095Y-104528571D01*
X142738095Y-105052380D01*
X143928571Y-104004761D02*
X143071428Y-105290476D01*
X144452380Y-104052380D02*
X144642857Y-104052380D01*
X144738095Y-104100000D01*
X144833333Y-104195238D01*
X144880952Y-104385714D01*
X144880952Y-104719047D01*
X144833333Y-104909523D01*
X144738095Y-105004761D01*
X144642857Y-105052380D01*
X144452380Y-105052380D01*
X144357142Y-105004761D01*
X144261904Y-104909523D01*
X144214285Y-104719047D01*
X144214285Y-104385714D01*
X144261904Y-104195238D01*
X144357142Y-104100000D01*
X144452380Y-104052380D01*
X145166666Y-104385714D02*
X145547619Y-104385714D01*
X145309523Y-105052380D02*
X145309523Y-104195238D01*
X145357142Y-104100000D01*
X145452380Y-104052380D01*
X145547619Y-104052380D01*
X145738095Y-104385714D02*
X146119047Y-104385714D01*
X145880952Y-105052380D02*
X145880952Y-104195238D01*
X145928571Y-104100000D01*
X146023809Y-104052380D01*
X146119047Y-104052380D01*
X144000000Y-102452380D02*
X144000000Y-101452380D01*
X144238095Y-101452380D01*
X144380952Y-101500000D01*
X144476190Y-101595238D01*
X144523809Y-101690476D01*
X144571428Y-101880952D01*
X144571428Y-102023809D01*
X144523809Y-102214285D01*
X144476190Y-102309523D01*
X144380952Y-102404761D01*
X144238095Y-102452380D01*
X144000000Y-102452380D01*
X145000000Y-102452380D02*
X145000000Y-101452380D01*
X146047619Y-102452380D02*
X145714285Y-101976190D01*
X145476190Y-102452380D02*
X145476190Y-101452380D01*
X145857142Y-101452380D01*
X145952380Y-101500000D01*
X146000000Y-101547619D01*
X146047619Y-101642857D01*
X146047619Y-101785714D01*
X146000000Y-101880952D01*
X145952380Y-101928571D01*
X145857142Y-101976190D01*
X145476190Y-101976190D01*
X143347619Y-100004761D02*
X143490476Y-100052380D01*
X143728571Y-100052380D01*
X143823809Y-100004761D01*
X143871428Y-99957142D01*
X143919047Y-99861904D01*
X143919047Y-99766666D01*
X143871428Y-99671428D01*
X143823809Y-99623809D01*
X143728571Y-99576190D01*
X143538095Y-99528571D01*
X143442857Y-99480952D01*
X143395238Y-99433333D01*
X143347619Y-99338095D01*
X143347619Y-99242857D01*
X143395238Y-99147619D01*
X143442857Y-99100000D01*
X143538095Y-99052380D01*
X143776190Y-99052380D01*
X143919047Y-99100000D01*
X144204761Y-99385714D02*
X144585714Y-99385714D01*
X144347619Y-99052380D02*
X144347619Y-99909523D01*
X144395238Y-100004761D01*
X144490476Y-100052380D01*
X144585714Y-100052380D01*
X145300000Y-100004761D02*
X145204761Y-100052380D01*
X145014285Y-100052380D01*
X144919047Y-100004761D01*
X144871428Y-99909523D01*
X144871428Y-99528571D01*
X144919047Y-99433333D01*
X145014285Y-99385714D01*
X145204761Y-99385714D01*
X145300000Y-99433333D01*
X145347619Y-99528571D01*
X145347619Y-99623809D01*
X144871428Y-99719047D01*
X145776190Y-99385714D02*
X145776190Y-100385714D01*
X145776190Y-99433333D02*
X145871428Y-99385714D01*
X146061904Y-99385714D01*
X146157142Y-99433333D01*
X146204761Y-99480952D01*
X146252380Y-99576190D01*
X146252380Y-99861904D01*
X146204761Y-99957142D01*
X146157142Y-100004761D01*
X146061904Y-100052380D01*
X145871428Y-100052380D01*
X145776190Y-100004761D01*
X148600000Y-93871428D02*
X149361904Y-93871428D01*
X148980952Y-94252380D02*
X148980952Y-93490476D01*
X149742857Y-93252380D02*
X150361904Y-93252380D01*
X150028571Y-93633333D01*
X150171428Y-93633333D01*
X150266666Y-93680952D01*
X150314285Y-93728571D01*
X150361904Y-93823809D01*
X150361904Y-94061904D01*
X150314285Y-94157142D01*
X150266666Y-94204761D01*
X150171428Y-94252380D01*
X149885714Y-94252380D01*
X149790476Y-94204761D01*
X149742857Y-94157142D01*
X150790476Y-94157142D02*
X150838095Y-94204761D01*
X150790476Y-94252380D01*
X150742857Y-94204761D01*
X150790476Y-94157142D01*
X150790476Y-94252380D01*
X151171428Y-93252380D02*
X151790476Y-93252380D01*
X151457142Y-93633333D01*
X151600000Y-93633333D01*
X151695238Y-93680952D01*
X151742857Y-93728571D01*
X151790476Y-93823809D01*
X151790476Y-94061904D01*
X151742857Y-94157142D01*
X151695238Y-94204761D01*
X151600000Y-94252380D01*
X151314285Y-94252380D01*
X151219047Y-94204761D01*
X151171428Y-94157142D01*
X152076190Y-93252380D02*
X152409523Y-94252380D01*
X152742857Y-93252380D01*
D11*
%TO.C,Screw_Terminal2*%
X147300000Y-125420000D02*
X147300000Y-135580000D01*
X147300000Y-125420000D02*
X154500000Y-125420000D01*
X146300000Y-125420000D02*
X147300000Y-125420000D01*
X146300000Y-135580000D02*
X146300000Y-125420000D01*
X147300000Y-135580000D02*
X146300000Y-135580000D01*
X154500000Y-135580000D02*
X147300000Y-135580000D01*
X154500000Y-125420000D02*
X154500000Y-135580000D01*
D12*
%TO.C,J3*%
X83500000Y-145600000D02*
G75*
G03*
X83500000Y-145600000I-100000J0D01*
G01*
X93900000Y-146120000D02*
X80100000Y-146120000D01*
X80100000Y-160280000D02*
X93900000Y-160280000D01*
X80100000Y-146120000D02*
X80100000Y-147780000D01*
X80100000Y-152370000D02*
X80100000Y-160280000D01*
X93900000Y-146120000D02*
X93900000Y-147780000D01*
X93900000Y-152370000D02*
X93900000Y-160280000D01*
D13*
%TO.C,U2*%
X112647200Y-150145800D02*
X112647200Y-153854200D01*
X112647200Y-153854200D02*
X119352800Y-153854200D01*
X119352800Y-153854200D02*
X119352800Y-150145800D01*
X119352800Y-150145800D02*
X112647200Y-150145800D01*
D14*
%TO.C,U1*%
X126500000Y-34000000D02*
X147500000Y-34000000D01*
X133300000Y-85000000D02*
X126500000Y-85000000D01*
X126500000Y-36667000D02*
X129507000Y-36667000D01*
X129507000Y-36667000D02*
X129507000Y-34000000D01*
X126500000Y-34000000D02*
X126500000Y-34300000D01*
X126500000Y-36400000D02*
X126500000Y-36800000D01*
X126500000Y-39000000D02*
X126500000Y-39400000D01*
X126500000Y-41500000D02*
X126500000Y-41900000D01*
X126500000Y-44100000D02*
X126500000Y-44500000D01*
X126500000Y-46600000D02*
X126500000Y-47000000D01*
X126500000Y-49100000D02*
X126500000Y-49500000D01*
X126500000Y-51700000D02*
X126500000Y-52100000D01*
X126500000Y-54200000D02*
X126500000Y-54600000D01*
X126500000Y-56800000D02*
X126500000Y-57200000D01*
X126500000Y-59300000D02*
X126500000Y-59700000D01*
X126500000Y-61800000D02*
X126500000Y-62200000D01*
X126500000Y-64400000D02*
X126500000Y-64800000D01*
X126500000Y-66900000D02*
X126500000Y-67300000D01*
X126500000Y-69500000D02*
X126500000Y-69900000D01*
X126500000Y-72000000D02*
X126500000Y-72400000D01*
X126500000Y-74600000D02*
X126500000Y-75000000D01*
X126500000Y-77100000D02*
X126500000Y-77500000D01*
X126500000Y-79600000D02*
X126500000Y-80000000D01*
X126500000Y-82200000D02*
X126500000Y-82600000D01*
X147500000Y-49100000D02*
X147500000Y-49500000D01*
X147500000Y-54200000D02*
X147500000Y-54600000D01*
X147500000Y-61800000D02*
X147500000Y-62200000D01*
X147500000Y-69500000D02*
X147500000Y-69900000D01*
X147500000Y-39000000D02*
X147500000Y-39400000D01*
X147500000Y-36400000D02*
X147500000Y-36800000D01*
X147500000Y-44100000D02*
X147500000Y-44500000D01*
X147500000Y-77100000D02*
X147500000Y-77500000D01*
X147500000Y-82200000D02*
X147500000Y-82600000D01*
X147500000Y-79600000D02*
X147500000Y-80000000D01*
X147500000Y-64400000D02*
X147500000Y-64800000D01*
X147500000Y-59300000D02*
X147500000Y-59700000D01*
X147500000Y-46600000D02*
X147500000Y-47000000D01*
X147500000Y-51700000D02*
X147500000Y-52100000D01*
X147500000Y-72000000D02*
X147500000Y-72400000D01*
X147500000Y-56800000D02*
X147500000Y-57200000D01*
X147500000Y-34000000D02*
X147500000Y-34300000D01*
X147500000Y-41500000D02*
X147500000Y-41900000D01*
X147500000Y-66900000D02*
X147500000Y-67300000D01*
X147500000Y-74600000D02*
X147500000Y-75000000D01*
X147500000Y-85000000D02*
X140700000Y-85000000D01*
X135500000Y-85000000D02*
X135900000Y-85000000D01*
X138100000Y-85000000D02*
X138500000Y-85000000D01*
%TO.C,C2*%
X100785000Y-141509698D02*
X101585000Y-141509698D01*
X101185000Y-141909698D02*
X101185000Y-141109698D01*
X102967000Y-133419000D02*
X104033000Y-133419000D01*
X102732000Y-133459000D02*
X104268000Y-133459000D01*
X102552000Y-133499000D02*
X104448000Y-133499000D01*
X102402000Y-133539000D02*
X104598000Y-133539000D01*
X102271000Y-133579000D02*
X104729000Y-133579000D01*
X102154000Y-133619000D02*
X104846000Y-133619000D01*
X102047000Y-133659000D02*
X104953000Y-133659000D01*
X101948000Y-133699000D02*
X105052000Y-133699000D01*
X101855000Y-133739000D02*
X105145000Y-133739000D01*
X101769000Y-133779000D02*
X105231000Y-133779000D01*
X101687000Y-133819000D02*
X105313000Y-133819000D01*
X101610000Y-133859000D02*
X105390000Y-133859000D01*
X101536000Y-133899000D02*
X105464000Y-133899000D01*
X101466000Y-133939000D02*
X105534000Y-133939000D01*
X104540000Y-133979000D02*
X105602000Y-133979000D01*
X101398000Y-133979000D02*
X102460000Y-133979000D01*
X104540000Y-134019000D02*
X105666000Y-134019000D01*
X101334000Y-134019000D02*
X102460000Y-134019000D01*
X104540000Y-134059000D02*
X105728000Y-134059000D01*
X101272000Y-134059000D02*
X102460000Y-134059000D01*
X104540000Y-134099000D02*
X105787000Y-134099000D01*
X101213000Y-134099000D02*
X102460000Y-134099000D01*
X104540000Y-134139000D02*
X105845000Y-134139000D01*
X101155000Y-134139000D02*
X102460000Y-134139000D01*
X104540000Y-134179000D02*
X105900000Y-134179000D01*
X101100000Y-134179000D02*
X102460000Y-134179000D01*
X104540000Y-134219000D02*
X105954000Y-134219000D01*
X101046000Y-134219000D02*
X102460000Y-134219000D01*
X104540000Y-134259000D02*
X106005000Y-134259000D01*
X100995000Y-134259000D02*
X102460000Y-134259000D01*
X104540000Y-134299000D02*
X106056000Y-134299000D01*
X100944000Y-134299000D02*
X102460000Y-134299000D01*
X104540000Y-134339000D02*
X106104000Y-134339000D01*
X100896000Y-134339000D02*
X102460000Y-134339000D01*
X104540000Y-134379000D02*
X106151000Y-134379000D01*
X100849000Y-134379000D02*
X102460000Y-134379000D01*
X104540000Y-134419000D02*
X106197000Y-134419000D01*
X100803000Y-134419000D02*
X102460000Y-134419000D01*
X104540000Y-134459000D02*
X106241000Y-134459000D01*
X100759000Y-134459000D02*
X102460000Y-134459000D01*
X104540000Y-134499000D02*
X106284000Y-134499000D01*
X100716000Y-134499000D02*
X102460000Y-134499000D01*
X104540000Y-134539000D02*
X106326000Y-134539000D01*
X100674000Y-134539000D02*
X102460000Y-134539000D01*
X104540000Y-134579000D02*
X106367000Y-134579000D01*
X100633000Y-134579000D02*
X102460000Y-134579000D01*
X104540000Y-134619000D02*
X106407000Y-134619000D01*
X100593000Y-134619000D02*
X102460000Y-134619000D01*
X104540000Y-134659000D02*
X106445000Y-134659000D01*
X100555000Y-134659000D02*
X102460000Y-134659000D01*
X104540000Y-134699000D02*
X106483000Y-134699000D01*
X100517000Y-134699000D02*
X102460000Y-134699000D01*
X104540000Y-134739000D02*
X106519000Y-134739000D01*
X100481000Y-134739000D02*
X102460000Y-134739000D01*
X104540000Y-134779000D02*
X106555000Y-134779000D01*
X100445000Y-134779000D02*
X102460000Y-134779000D01*
X104540000Y-134819000D02*
X106590000Y-134819000D01*
X100410000Y-134819000D02*
X102460000Y-134819000D01*
X104540000Y-134859000D02*
X106624000Y-134859000D01*
X100376000Y-134859000D02*
X102460000Y-134859000D01*
X104540000Y-134899000D02*
X106656000Y-134899000D01*
X100344000Y-134899000D02*
X102460000Y-134899000D01*
X104540000Y-134939000D02*
X106689000Y-134939000D01*
X100311000Y-134939000D02*
X102460000Y-134939000D01*
X104540000Y-134979000D02*
X106720000Y-134979000D01*
X100280000Y-134979000D02*
X102460000Y-134979000D01*
X104540000Y-135019000D02*
X106750000Y-135019000D01*
X100250000Y-135019000D02*
X102460000Y-135019000D01*
X104540000Y-135059000D02*
X106780000Y-135059000D01*
X100220000Y-135059000D02*
X102460000Y-135059000D01*
X104540000Y-135099000D02*
X106809000Y-135099000D01*
X100191000Y-135099000D02*
X102460000Y-135099000D01*
X104540000Y-135139000D02*
X106838000Y-135139000D01*
X100162000Y-135139000D02*
X102460000Y-135139000D01*
X104540000Y-135179000D02*
X106865000Y-135179000D01*
X100135000Y-135179000D02*
X102460000Y-135179000D01*
X104540000Y-135219000D02*
X106892000Y-135219000D01*
X100108000Y-135219000D02*
X102460000Y-135219000D01*
X104540000Y-135259000D02*
X106918000Y-135259000D01*
X100082000Y-135259000D02*
X102460000Y-135259000D01*
X104540000Y-135299000D02*
X106944000Y-135299000D01*
X100056000Y-135299000D02*
X102460000Y-135299000D01*
X104540000Y-135339000D02*
X106969000Y-135339000D01*
X100031000Y-135339000D02*
X102460000Y-135339000D01*
X104540000Y-135379000D02*
X106993000Y-135379000D01*
X100007000Y-135379000D02*
X102460000Y-135379000D01*
X104540000Y-135419000D02*
X107017000Y-135419000D01*
X99983000Y-135419000D02*
X102460000Y-135419000D01*
X104540000Y-135459000D02*
X107040000Y-135459000D01*
X99960000Y-135459000D02*
X102460000Y-135459000D01*
X104540000Y-135499000D02*
X107062000Y-135499000D01*
X99938000Y-135499000D02*
X102460000Y-135499000D01*
X104540000Y-135539000D02*
X107084000Y-135539000D01*
X99916000Y-135539000D02*
X102460000Y-135539000D01*
X104540000Y-135579000D02*
X107106000Y-135579000D01*
X99894000Y-135579000D02*
X102460000Y-135579000D01*
X104540000Y-135619000D02*
X107127000Y-135619000D01*
X99873000Y-135619000D02*
X102460000Y-135619000D01*
X104540000Y-135659000D02*
X107147000Y-135659000D01*
X99853000Y-135659000D02*
X102460000Y-135659000D01*
X104540000Y-135699000D02*
X107166000Y-135699000D01*
X99834000Y-135699000D02*
X102460000Y-135699000D01*
X104540000Y-135739000D02*
X107186000Y-135739000D01*
X99814000Y-135739000D02*
X102460000Y-135739000D01*
X104540000Y-135779000D02*
X107204000Y-135779000D01*
X99796000Y-135779000D02*
X102460000Y-135779000D01*
X104540000Y-135819000D02*
X107222000Y-135819000D01*
X99778000Y-135819000D02*
X102460000Y-135819000D01*
X104540000Y-135859000D02*
X107240000Y-135859000D01*
X99760000Y-135859000D02*
X102460000Y-135859000D01*
X104540000Y-135899000D02*
X107257000Y-135899000D01*
X99743000Y-135899000D02*
X102460000Y-135899000D01*
X104540000Y-135939000D02*
X107274000Y-135939000D01*
X99726000Y-135939000D02*
X102460000Y-135939000D01*
X104540000Y-135979000D02*
X107290000Y-135979000D01*
X99710000Y-135979000D02*
X102460000Y-135979000D01*
X104540000Y-136019000D02*
X107305000Y-136019000D01*
X99695000Y-136019000D02*
X102460000Y-136019000D01*
X99679000Y-136059000D02*
X107321000Y-136059000D01*
X99665000Y-136099000D02*
X107335000Y-136099000D01*
X99650000Y-136139000D02*
X107350000Y-136139000D01*
X99637000Y-136179000D02*
X107363000Y-136179000D01*
X99623000Y-136219000D02*
X107377000Y-136219000D01*
X99611000Y-136259000D02*
X107389000Y-136259000D01*
X99598000Y-136299000D02*
X107402000Y-136299000D01*
X99586000Y-136339000D02*
X107414000Y-136339000D01*
X99575000Y-136379000D02*
X107425000Y-136379000D01*
X99564000Y-136419000D02*
X107436000Y-136419000D01*
X99553000Y-136459000D02*
X107447000Y-136459000D01*
X99543000Y-136499000D02*
X107457000Y-136499000D01*
X99533000Y-136539000D02*
X107467000Y-136539000D01*
X99524000Y-136579000D02*
X107476000Y-136579000D01*
X99515000Y-136619000D02*
X107485000Y-136619000D01*
X99506000Y-136659000D02*
X107494000Y-136659000D01*
X99498000Y-136699000D02*
X107502000Y-136699000D01*
X99490000Y-136739000D02*
X107510000Y-136739000D01*
X99483000Y-136779000D02*
X107517000Y-136779000D01*
X99476000Y-136820000D02*
X107524000Y-136820000D01*
X99470000Y-136860000D02*
X107530000Y-136860000D01*
X99463000Y-136900000D02*
X107537000Y-136900000D01*
X99458000Y-136940000D02*
X107542000Y-136940000D01*
X99452000Y-136980000D02*
X107548000Y-136980000D01*
X99448000Y-137020000D02*
X107552000Y-137020000D01*
X99443000Y-137060000D02*
X107557000Y-137060000D01*
X99439000Y-137100000D02*
X107561000Y-137100000D01*
X99435000Y-137140000D02*
X107565000Y-137140000D01*
X99432000Y-137180000D02*
X107568000Y-137180000D01*
X99429000Y-137220000D02*
X107571000Y-137220000D01*
X99426000Y-137260000D02*
X107574000Y-137260000D01*
X99424000Y-137300000D02*
X107576000Y-137300000D01*
X99423000Y-137340000D02*
X107577000Y-137340000D01*
X99421000Y-137380000D02*
X107579000Y-137380000D01*
X99420000Y-137420000D02*
X107580000Y-137420000D01*
X99420000Y-137460000D02*
X107580000Y-137460000D01*
X99420000Y-137500000D02*
X107580000Y-137500000D01*
X107620000Y-137500000D02*
G75*
G03*
X107620000Y-137500000I-4120000J0D01*
G01*
%TO.C,C1*%
X115490302Y-134685000D02*
X115490302Y-135485000D01*
X115090302Y-135085000D02*
X115890302Y-135085000D01*
X123581000Y-136867000D02*
X123581000Y-137933000D01*
X123541000Y-136632000D02*
X123541000Y-138168000D01*
X123501000Y-136452000D02*
X123501000Y-138348000D01*
X123461000Y-136302000D02*
X123461000Y-138498000D01*
X123421000Y-136171000D02*
X123421000Y-138629000D01*
X123381000Y-136054000D02*
X123381000Y-138746000D01*
X123341000Y-135947000D02*
X123341000Y-138853000D01*
X123301000Y-135848000D02*
X123301000Y-138952000D01*
X123261000Y-135755000D02*
X123261000Y-139045000D01*
X123221000Y-135669000D02*
X123221000Y-139131000D01*
X123181000Y-135587000D02*
X123181000Y-139213000D01*
X123141000Y-135510000D02*
X123141000Y-139290000D01*
X123101000Y-135436000D02*
X123101000Y-139364000D01*
X123061000Y-135366000D02*
X123061000Y-139434000D01*
X123021000Y-138440000D02*
X123021000Y-139502000D01*
X123021000Y-135298000D02*
X123021000Y-136360000D01*
X122981000Y-138440000D02*
X122981000Y-139566000D01*
X122981000Y-135234000D02*
X122981000Y-136360000D01*
X122941000Y-138440000D02*
X122941000Y-139628000D01*
X122941000Y-135172000D02*
X122941000Y-136360000D01*
X122901000Y-138440000D02*
X122901000Y-139687000D01*
X122901000Y-135113000D02*
X122901000Y-136360000D01*
X122861000Y-138440000D02*
X122861000Y-139745000D01*
X122861000Y-135055000D02*
X122861000Y-136360000D01*
X122821000Y-138440000D02*
X122821000Y-139800000D01*
X122821000Y-135000000D02*
X122821000Y-136360000D01*
X122781000Y-138440000D02*
X122781000Y-139854000D01*
X122781000Y-134946000D02*
X122781000Y-136360000D01*
X122741000Y-138440000D02*
X122741000Y-139905000D01*
X122741000Y-134895000D02*
X122741000Y-136360000D01*
X122701000Y-138440000D02*
X122701000Y-139956000D01*
X122701000Y-134844000D02*
X122701000Y-136360000D01*
X122661000Y-138440000D02*
X122661000Y-140004000D01*
X122661000Y-134796000D02*
X122661000Y-136360000D01*
X122621000Y-138440000D02*
X122621000Y-140051000D01*
X122621000Y-134749000D02*
X122621000Y-136360000D01*
X122581000Y-138440000D02*
X122581000Y-140097000D01*
X122581000Y-134703000D02*
X122581000Y-136360000D01*
X122541000Y-138440000D02*
X122541000Y-140141000D01*
X122541000Y-134659000D02*
X122541000Y-136360000D01*
X122501000Y-138440000D02*
X122501000Y-140184000D01*
X122501000Y-134616000D02*
X122501000Y-136360000D01*
X122461000Y-138440000D02*
X122461000Y-140226000D01*
X122461000Y-134574000D02*
X122461000Y-136360000D01*
X122421000Y-138440000D02*
X122421000Y-140267000D01*
X122421000Y-134533000D02*
X122421000Y-136360000D01*
X122381000Y-138440000D02*
X122381000Y-140307000D01*
X122381000Y-134493000D02*
X122381000Y-136360000D01*
X122341000Y-138440000D02*
X122341000Y-140345000D01*
X122341000Y-134455000D02*
X122341000Y-136360000D01*
X122301000Y-138440000D02*
X122301000Y-140383000D01*
X122301000Y-134417000D02*
X122301000Y-136360000D01*
X122261000Y-138440000D02*
X122261000Y-140419000D01*
X122261000Y-134381000D02*
X122261000Y-136360000D01*
X122221000Y-138440000D02*
X122221000Y-140455000D01*
X122221000Y-134345000D02*
X122221000Y-136360000D01*
X122181000Y-138440000D02*
X122181000Y-140490000D01*
X122181000Y-134310000D02*
X122181000Y-136360000D01*
X122141000Y-138440000D02*
X122141000Y-140524000D01*
X122141000Y-134276000D02*
X122141000Y-136360000D01*
X122101000Y-138440000D02*
X122101000Y-140556000D01*
X122101000Y-134244000D02*
X122101000Y-136360000D01*
X122061000Y-138440000D02*
X122061000Y-140589000D01*
X122061000Y-134211000D02*
X122061000Y-136360000D01*
X122021000Y-138440000D02*
X122021000Y-140620000D01*
X122021000Y-134180000D02*
X122021000Y-136360000D01*
X121981000Y-138440000D02*
X121981000Y-140650000D01*
X121981000Y-134150000D02*
X121981000Y-136360000D01*
X121941000Y-138440000D02*
X121941000Y-140680000D01*
X121941000Y-134120000D02*
X121941000Y-136360000D01*
X121901000Y-138440000D02*
X121901000Y-140709000D01*
X121901000Y-134091000D02*
X121901000Y-136360000D01*
X121861000Y-138440000D02*
X121861000Y-140738000D01*
X121861000Y-134062000D02*
X121861000Y-136360000D01*
X121821000Y-138440000D02*
X121821000Y-140765000D01*
X121821000Y-134035000D02*
X121821000Y-136360000D01*
X121781000Y-138440000D02*
X121781000Y-140792000D01*
X121781000Y-134008000D02*
X121781000Y-136360000D01*
X121741000Y-138440000D02*
X121741000Y-140818000D01*
X121741000Y-133982000D02*
X121741000Y-136360000D01*
X121701000Y-138440000D02*
X121701000Y-140844000D01*
X121701000Y-133956000D02*
X121701000Y-136360000D01*
X121661000Y-138440000D02*
X121661000Y-140869000D01*
X121661000Y-133931000D02*
X121661000Y-136360000D01*
X121621000Y-138440000D02*
X121621000Y-140893000D01*
X121621000Y-133907000D02*
X121621000Y-136360000D01*
X121581000Y-138440000D02*
X121581000Y-140917000D01*
X121581000Y-133883000D02*
X121581000Y-136360000D01*
X121541000Y-138440000D02*
X121541000Y-140940000D01*
X121541000Y-133860000D02*
X121541000Y-136360000D01*
X121501000Y-138440000D02*
X121501000Y-140962000D01*
X121501000Y-133838000D02*
X121501000Y-136360000D01*
X121461000Y-138440000D02*
X121461000Y-140984000D01*
X121461000Y-133816000D02*
X121461000Y-136360000D01*
X121421000Y-138440000D02*
X121421000Y-141006000D01*
X121421000Y-133794000D02*
X121421000Y-136360000D01*
X121381000Y-138440000D02*
X121381000Y-141027000D01*
X121381000Y-133773000D02*
X121381000Y-136360000D01*
X121341000Y-138440000D02*
X121341000Y-141047000D01*
X121341000Y-133753000D02*
X121341000Y-136360000D01*
X121301000Y-138440000D02*
X121301000Y-141066000D01*
X121301000Y-133734000D02*
X121301000Y-136360000D01*
X121261000Y-138440000D02*
X121261000Y-141086000D01*
X121261000Y-133714000D02*
X121261000Y-136360000D01*
X121221000Y-138440000D02*
X121221000Y-141104000D01*
X121221000Y-133696000D02*
X121221000Y-136360000D01*
X121181000Y-138440000D02*
X121181000Y-141122000D01*
X121181000Y-133678000D02*
X121181000Y-136360000D01*
X121141000Y-138440000D02*
X121141000Y-141140000D01*
X121141000Y-133660000D02*
X121141000Y-136360000D01*
X121101000Y-138440000D02*
X121101000Y-141157000D01*
X121101000Y-133643000D02*
X121101000Y-136360000D01*
X121061000Y-138440000D02*
X121061000Y-141174000D01*
X121061000Y-133626000D02*
X121061000Y-136360000D01*
X121021000Y-138440000D02*
X121021000Y-141190000D01*
X121021000Y-133610000D02*
X121021000Y-136360000D01*
X120981000Y-138440000D02*
X120981000Y-141205000D01*
X120981000Y-133595000D02*
X120981000Y-136360000D01*
X120941000Y-133579000D02*
X120941000Y-141221000D01*
X120901000Y-133565000D02*
X120901000Y-141235000D01*
X120861000Y-133550000D02*
X120861000Y-141250000D01*
X120821000Y-133537000D02*
X120821000Y-141263000D01*
X120781000Y-133523000D02*
X120781000Y-141277000D01*
X120741000Y-133511000D02*
X120741000Y-141289000D01*
X120701000Y-133498000D02*
X120701000Y-141302000D01*
X120661000Y-133486000D02*
X120661000Y-141314000D01*
X120621000Y-133475000D02*
X120621000Y-141325000D01*
X120581000Y-133464000D02*
X120581000Y-141336000D01*
X120541000Y-133453000D02*
X120541000Y-141347000D01*
X120501000Y-133443000D02*
X120501000Y-141357000D01*
X120461000Y-133433000D02*
X120461000Y-141367000D01*
X120421000Y-133424000D02*
X120421000Y-141376000D01*
X120381000Y-133415000D02*
X120381000Y-141385000D01*
X120341000Y-133406000D02*
X120341000Y-141394000D01*
X120301000Y-133398000D02*
X120301000Y-141402000D01*
X120261000Y-133390000D02*
X120261000Y-141410000D01*
X120221000Y-133383000D02*
X120221000Y-141417000D01*
X120180000Y-133376000D02*
X120180000Y-141424000D01*
X120140000Y-133370000D02*
X120140000Y-141430000D01*
X120100000Y-133363000D02*
X120100000Y-141437000D01*
X120060000Y-133358000D02*
X120060000Y-141442000D01*
X120020000Y-133352000D02*
X120020000Y-141448000D01*
X119980000Y-133348000D02*
X119980000Y-141452000D01*
X119940000Y-133343000D02*
X119940000Y-141457000D01*
X119900000Y-133339000D02*
X119900000Y-141461000D01*
X119860000Y-133335000D02*
X119860000Y-141465000D01*
X119820000Y-133332000D02*
X119820000Y-141468000D01*
X119780000Y-133329000D02*
X119780000Y-141471000D01*
X119740000Y-133326000D02*
X119740000Y-141474000D01*
X119700000Y-133324000D02*
X119700000Y-141476000D01*
X119660000Y-133323000D02*
X119660000Y-141477000D01*
X119620000Y-133321000D02*
X119620000Y-141479000D01*
X119580000Y-133320000D02*
X119580000Y-141480000D01*
X119540000Y-133320000D02*
X119540000Y-141480000D01*
X119500000Y-133320000D02*
X119500000Y-141480000D01*
X123620000Y-137400000D02*
G75*
G03*
X123620000Y-137400000I-4120000J0D01*
G01*
%TO.C,J1*%
X147390000Y-95140000D02*
X147390000Y-95540000D01*
X148030000Y-95140000D02*
X147390000Y-95140000D01*
X154370000Y-113860000D02*
X147630000Y-113860000D01*
X154370000Y-95380000D02*
X147630000Y-95380000D01*
X147630000Y-95380000D02*
X147630000Y-113860000D01*
X154370000Y-95380000D02*
X154370000Y-113860000D01*
X153250000Y-95380000D02*
X153250000Y-113860000D01*
X148150000Y-95380000D02*
X148150000Y-113860000D01*
D11*
%TO.C,Screw_Terminal1*%
X72620000Y-151900000D02*
X62460000Y-151900000D01*
X72620000Y-151900000D02*
X72620000Y-159100000D01*
X72620000Y-150900000D02*
X72620000Y-151900000D01*
X62460000Y-150900000D02*
X72620000Y-150900000D01*
X62460000Y-151900000D02*
X62460000Y-150900000D01*
X62460000Y-159100000D02*
X62460000Y-151900000D01*
X72620000Y-159100000D02*
X62460000Y-159100000D01*
D14*
%TO.C,J5*%
X104060000Y-55060000D02*
X103000000Y-55060000D01*
X104060000Y-54000000D02*
X104060000Y-55060000D01*
X104060000Y-53000000D02*
X101940000Y-53000000D01*
X101940000Y-53000000D02*
X101940000Y-42940000D01*
X104060000Y-53000000D02*
X104060000Y-42940000D01*
X104060000Y-42940000D02*
X101940000Y-42940000D01*
%TO.C,J2*%
X100060000Y-117060000D02*
X99000000Y-117060000D01*
X100060000Y-116000000D02*
X100060000Y-117060000D01*
X98000000Y-117060000D02*
X95940000Y-117060000D01*
X98000000Y-115000000D02*
X98000000Y-117060000D01*
X100060000Y-115000000D02*
X98000000Y-115000000D01*
X95940000Y-117060000D02*
X95940000Y-108940000D01*
X100060000Y-115000000D02*
X100060000Y-108940000D01*
X100060000Y-108940000D02*
X95940000Y-108940000D01*
%TO.C,Screw_Terminal2*%
D10*
X144063907Y-124005587D02*
X144207056Y-124053303D01*
X144445637Y-124053303D01*
X144541069Y-124005587D01*
X144588785Y-123957871D01*
X144636501Y-123862438D01*
X144636501Y-123767006D01*
X144588785Y-123671574D01*
X144541069Y-123623858D01*
X144445637Y-123576141D01*
X144254772Y-123528425D01*
X144159340Y-123480709D01*
X144111624Y-123432993D01*
X144063907Y-123337561D01*
X144063907Y-123242128D01*
X144111624Y-123146696D01*
X144159340Y-123098980D01*
X144254772Y-123051264D01*
X144493353Y-123051264D01*
X144636501Y-123098980D01*
X145495392Y-124005587D02*
X145399959Y-124053303D01*
X145209095Y-124053303D01*
X145113663Y-124005587D01*
X145065946Y-123957871D01*
X145018230Y-123862438D01*
X145018230Y-123576141D01*
X145065946Y-123480709D01*
X145113663Y-123432993D01*
X145209095Y-123385277D01*
X145399959Y-123385277D01*
X145495392Y-123432993D01*
X145924837Y-124053303D02*
X145924837Y-123385277D01*
X145924837Y-123576141D02*
X145972553Y-123480709D01*
X146020269Y-123432993D01*
X146115702Y-123385277D01*
X146211134Y-123385277D01*
X146926876Y-124005587D02*
X146831444Y-124053303D01*
X146640579Y-124053303D01*
X146545147Y-124005587D01*
X146497431Y-123910154D01*
X146497431Y-123528425D01*
X146545147Y-123432993D01*
X146640579Y-123385277D01*
X146831444Y-123385277D01*
X146926876Y-123432993D01*
X146974592Y-123528425D01*
X146974592Y-123623858D01*
X146497431Y-123719290D01*
X147308605Y-123385277D02*
X147499470Y-124053303D01*
X147690334Y-123576141D01*
X147881199Y-124053303D01*
X148072063Y-123385277D01*
X148215212Y-124148735D02*
X148978670Y-124148735D01*
X149074102Y-123051264D02*
X149646696Y-123051264D01*
X149360399Y-124053303D02*
X149360399Y-123051264D01*
X150362438Y-124005587D02*
X150267006Y-124053303D01*
X150076141Y-124053303D01*
X149980709Y-124005587D01*
X149932993Y-123910154D01*
X149932993Y-123528425D01*
X149980709Y-123432993D01*
X150076141Y-123385277D01*
X150267006Y-123385277D01*
X150362438Y-123432993D01*
X150410154Y-123528425D01*
X150410154Y-123623858D01*
X149932993Y-123719290D01*
X150839600Y-124053303D02*
X150839600Y-123385277D01*
X150839600Y-123576141D02*
X150887316Y-123480709D01*
X150935032Y-123432993D01*
X151030464Y-123385277D01*
X151125897Y-123385277D01*
X151459910Y-124053303D02*
X151459910Y-123385277D01*
X151459910Y-123480709D02*
X151507626Y-123432993D01*
X151603058Y-123385277D01*
X151746206Y-123385277D01*
X151841639Y-123432993D01*
X151889355Y-123528425D01*
X151889355Y-124053303D01*
X151889355Y-123528425D02*
X151937071Y-123432993D01*
X152032503Y-123385277D01*
X152175652Y-123385277D01*
X152271084Y-123432993D01*
X152318800Y-123528425D01*
X152318800Y-124053303D01*
X152795962Y-124053303D02*
X152795962Y-123385277D01*
X152795962Y-123051264D02*
X152748245Y-123098980D01*
X152795962Y-123146696D01*
X152843678Y-123098980D01*
X152795962Y-123051264D01*
X152795962Y-123146696D01*
X153273123Y-123385277D02*
X153273123Y-124053303D01*
X153273123Y-123480709D02*
X153320839Y-123432993D01*
X153416271Y-123385277D01*
X153559420Y-123385277D01*
X153654852Y-123432993D01*
X153702568Y-123528425D01*
X153702568Y-124053303D01*
X154609175Y-124053303D02*
X154609175Y-123528425D01*
X154561459Y-123432993D01*
X154466027Y-123385277D01*
X154275162Y-123385277D01*
X154179730Y-123432993D01*
X154609175Y-124005587D02*
X154513743Y-124053303D01*
X154275162Y-124053303D01*
X154179730Y-124005587D01*
X154132014Y-123910154D01*
X154132014Y-123814722D01*
X154179730Y-123719290D01*
X154275162Y-123671574D01*
X154513743Y-123671574D01*
X154609175Y-123623858D01*
X155229485Y-124053303D02*
X155134053Y-124005587D01*
X155086336Y-123910154D01*
X155086336Y-123051264D01*
X155563498Y-123146696D02*
X155611214Y-123098980D01*
X155706646Y-123051264D01*
X155945227Y-123051264D01*
X156040659Y-123098980D01*
X156088375Y-123146696D01*
X156136092Y-123242128D01*
X156136092Y-123337561D01*
X156088375Y-123480709D01*
X155515782Y-124053303D01*
X156136092Y-124053303D01*
%TO.C,J3*%
X87333333Y-144361904D02*
X87333333Y-144933333D01*
X87295238Y-145047619D01*
X87219047Y-145123809D01*
X87104761Y-145161904D01*
X87028571Y-145161904D01*
X87638095Y-144361904D02*
X88133333Y-144361904D01*
X87866666Y-144666666D01*
X87980952Y-144666666D01*
X88057142Y-144704761D01*
X88095238Y-144742857D01*
X88133333Y-144819047D01*
X88133333Y-145009523D01*
X88095238Y-145085714D01*
X88057142Y-145123809D01*
X87980952Y-145161904D01*
X87752380Y-145161904D01*
X87676190Y-145123809D01*
X87638095Y-145085714D01*
%TO.C,U2*%
X119398893Y-151660683D02*
X119398893Y-152988385D01*
X119476993Y-153144585D01*
X119555093Y-153222685D01*
X119711293Y-153300785D01*
X120023694Y-153300785D01*
X120179894Y-153222685D01*
X120257994Y-153144585D01*
X120336094Y-152988385D01*
X120336094Y-151660683D01*
X121038995Y-151816884D02*
X121117095Y-151738784D01*
X121273295Y-151660683D01*
X121663796Y-151660683D01*
X121819996Y-151738784D01*
X121898096Y-151816884D01*
X121976196Y-151973084D01*
X121976196Y-152129284D01*
X121898096Y-152363584D01*
X120960895Y-153300785D01*
X121976196Y-153300785D01*
%TO.C,U1*%
X136238095Y-58952380D02*
X136238095Y-59761904D01*
X136285714Y-59857142D01*
X136333333Y-59904761D01*
X136428571Y-59952380D01*
X136619047Y-59952380D01*
X136714285Y-59904761D01*
X136761904Y-59857142D01*
X136809523Y-59761904D01*
X136809523Y-58952380D01*
X137809523Y-59952380D02*
X137238095Y-59952380D01*
X137523809Y-59952380D02*
X137523809Y-58952380D01*
X137428571Y-59095238D01*
X137333333Y-59190476D01*
X137238095Y-59238095D01*
X140904761Y-86023809D02*
X141019047Y-86061904D01*
X141209523Y-86061904D01*
X141285714Y-86023809D01*
X141323809Y-85985714D01*
X141361904Y-85909523D01*
X141361904Y-85833333D01*
X141323809Y-85757142D01*
X141285714Y-85719047D01*
X141209523Y-85680952D01*
X141057142Y-85642857D01*
X140980952Y-85604761D01*
X140942857Y-85566666D01*
X140904761Y-85490476D01*
X140904761Y-85414285D01*
X140942857Y-85338095D01*
X140980952Y-85300000D01*
X141057142Y-85261904D01*
X141247619Y-85261904D01*
X141361904Y-85300000D01*
X141628571Y-85261904D02*
X141819047Y-86061904D01*
X141971428Y-85490476D01*
X142123809Y-86061904D01*
X142314285Y-85261904D01*
X142619047Y-86061904D02*
X142619047Y-85261904D01*
X142809523Y-85261904D01*
X142923809Y-85300000D01*
X143000000Y-85376190D01*
X143038095Y-85452380D01*
X143076190Y-85604761D01*
X143076190Y-85719047D01*
X143038095Y-85871428D01*
X143000000Y-85947619D01*
X142923809Y-86023809D01*
X142809523Y-86061904D01*
X142619047Y-86061904D01*
X143419047Y-86061904D02*
X143419047Y-85261904D01*
X143952380Y-85261904D02*
X144104761Y-85261904D01*
X144180952Y-85300000D01*
X144257142Y-85376190D01*
X144295238Y-85528571D01*
X144295238Y-85795238D01*
X144257142Y-85947619D01*
X144180952Y-86023809D01*
X144104761Y-86061904D01*
X143952380Y-86061904D01*
X143876190Y-86023809D01*
X143800000Y-85947619D01*
X143761904Y-85795238D01*
X143761904Y-85528571D01*
X143800000Y-85376190D01*
X143876190Y-85300000D01*
X143952380Y-85261904D01*
X129490476Y-86023809D02*
X129604761Y-86061904D01*
X129795238Y-86061904D01*
X129871428Y-86023809D01*
X129909523Y-85985714D01*
X129947619Y-85909523D01*
X129947619Y-85833333D01*
X129909523Y-85757142D01*
X129871428Y-85719047D01*
X129795238Y-85680952D01*
X129642857Y-85642857D01*
X129566666Y-85604761D01*
X129528571Y-85566666D01*
X129490476Y-85490476D01*
X129490476Y-85414285D01*
X129528571Y-85338095D01*
X129566666Y-85300000D01*
X129642857Y-85261904D01*
X129833333Y-85261904D01*
X129947619Y-85300000D01*
X130214285Y-85261904D02*
X130404761Y-86061904D01*
X130557142Y-85490476D01*
X130709523Y-86061904D01*
X130900000Y-85261904D01*
X131661904Y-85985714D02*
X131623809Y-86023809D01*
X131509523Y-86061904D01*
X131433333Y-86061904D01*
X131319047Y-86023809D01*
X131242857Y-85947619D01*
X131204761Y-85871428D01*
X131166666Y-85719047D01*
X131166666Y-85604761D01*
X131204761Y-85452380D01*
X131242857Y-85376190D01*
X131319047Y-85300000D01*
X131433333Y-85261904D01*
X131509523Y-85261904D01*
X131623809Y-85300000D01*
X131661904Y-85338095D01*
X132385714Y-86061904D02*
X132004761Y-86061904D01*
X132004761Y-85261904D01*
X132652380Y-86061904D02*
X132652380Y-85261904D01*
X133109523Y-86061904D02*
X132766666Y-85604761D01*
X133109523Y-85261904D02*
X132652380Y-85719047D01*
X149151597Y-54240964D02*
X149420971Y-53971590D01*
X149259346Y-54456463D02*
X148882223Y-53702216D01*
X149636470Y-54079340D01*
X149582595Y-53055719D02*
X149501783Y-53082656D01*
X149420971Y-53163468D01*
X149367096Y-53271218D01*
X149367096Y-53378967D01*
X149394033Y-53459780D01*
X149474845Y-53594467D01*
X149555658Y-53675279D01*
X149690345Y-53756091D01*
X149771157Y-53783028D01*
X149878906Y-53783028D01*
X149986656Y-53729154D01*
X150040531Y-53675279D01*
X150094406Y-53567529D01*
X150094406Y-53513654D01*
X149905844Y-53325093D01*
X149798094Y-53432842D01*
X150390717Y-53325093D02*
X149825032Y-52759407D01*
X150713966Y-53001844D01*
X150148280Y-52436158D01*
X150983340Y-52732470D02*
X150417654Y-52166784D01*
X150552341Y-52032097D01*
X150660091Y-51978223D01*
X150767841Y-51978223D01*
X150848653Y-52005160D01*
X150983340Y-52085972D01*
X151064152Y-52166784D01*
X151144964Y-52301471D01*
X151171902Y-52382284D01*
X151171902Y-52490033D01*
X151118027Y-52597783D01*
X150983340Y-52732470D01*
X149086158Y-40598155D02*
X149005346Y-40625093D01*
X148924534Y-40705905D01*
X148870659Y-40813654D01*
X148870659Y-40921404D01*
X148897597Y-41002216D01*
X148978409Y-41136903D01*
X149059221Y-41217715D01*
X149193908Y-41298528D01*
X149274720Y-41325465D01*
X149382470Y-41325465D01*
X149490219Y-41271590D01*
X149544094Y-41217715D01*
X149597969Y-41109966D01*
X149597969Y-41056091D01*
X149409407Y-40867529D01*
X149301658Y-40975279D01*
X149894280Y-40867529D02*
X149328595Y-40301844D01*
X150217529Y-40544280D01*
X149651844Y-39978595D01*
X150486903Y-40274906D02*
X149921218Y-39709221D01*
X150055905Y-39574534D01*
X150163654Y-39520659D01*
X150271404Y-39520659D01*
X150352216Y-39547597D01*
X150486903Y-39628409D01*
X150567715Y-39709221D01*
X150648528Y-39843908D01*
X150675465Y-39924720D01*
X150675465Y-40032470D01*
X150621590Y-40140219D01*
X150486903Y-40274906D01*
X149086158Y-65998155D02*
X149005346Y-66025093D01*
X148924534Y-66105905D01*
X148870659Y-66213654D01*
X148870659Y-66321404D01*
X148897597Y-66402216D01*
X148978409Y-66536903D01*
X149059221Y-66617715D01*
X149193908Y-66698528D01*
X149274720Y-66725465D01*
X149382470Y-66725465D01*
X149490219Y-66671590D01*
X149544094Y-66617715D01*
X149597969Y-66509966D01*
X149597969Y-66456091D01*
X149409407Y-66267529D01*
X149301658Y-66375279D01*
X149894280Y-66267529D02*
X149328595Y-65701844D01*
X150217529Y-65944280D01*
X149651844Y-65378595D01*
X150486903Y-65674906D02*
X149921218Y-65109221D01*
X150055905Y-64974534D01*
X150163654Y-64920659D01*
X150271404Y-64920659D01*
X150352216Y-64947597D01*
X150486903Y-65028409D01*
X150567715Y-65109221D01*
X150648528Y-65243908D01*
X150675465Y-65324720D01*
X150675465Y-65432470D01*
X150621590Y-65540219D01*
X150486903Y-65674906D01*
X149086158Y-78698155D02*
X149005346Y-78725093D01*
X148924534Y-78805905D01*
X148870659Y-78913654D01*
X148870659Y-79021404D01*
X148897597Y-79102216D01*
X148978409Y-79236903D01*
X149059221Y-79317715D01*
X149193908Y-79398528D01*
X149274720Y-79425465D01*
X149382470Y-79425465D01*
X149490219Y-79371590D01*
X149544094Y-79317715D01*
X149597969Y-79209966D01*
X149597969Y-79156091D01*
X149409407Y-78967529D01*
X149301658Y-79075279D01*
X149894280Y-78967529D02*
X149328595Y-78401844D01*
X150217529Y-78644280D01*
X149651844Y-78078595D01*
X150486903Y-78374906D02*
X149921218Y-77809221D01*
X150055905Y-77674534D01*
X150163654Y-77620659D01*
X150271404Y-77620659D01*
X150352216Y-77647597D01*
X150486903Y-77728409D01*
X150567715Y-77809221D01*
X150648528Y-77943908D01*
X150675465Y-78024720D01*
X150675465Y-78132470D01*
X150621590Y-78240219D01*
X150486903Y-78374906D01*
X123486158Y-78698155D02*
X123405346Y-78725093D01*
X123324534Y-78805905D01*
X123270659Y-78913654D01*
X123270659Y-79021404D01*
X123297597Y-79102216D01*
X123378409Y-79236903D01*
X123459221Y-79317715D01*
X123593908Y-79398528D01*
X123674720Y-79425465D01*
X123782470Y-79425465D01*
X123890219Y-79371590D01*
X123944094Y-79317715D01*
X123997969Y-79209966D01*
X123997969Y-79156091D01*
X123809407Y-78967529D01*
X123701658Y-79075279D01*
X124294280Y-78967529D02*
X123728595Y-78401844D01*
X124617529Y-78644280D01*
X124051844Y-78078595D01*
X124886903Y-78374906D02*
X124321218Y-77809221D01*
X124455905Y-77674534D01*
X124563654Y-77620659D01*
X124671404Y-77620659D01*
X124752216Y-77647597D01*
X124886903Y-77728409D01*
X124967715Y-77809221D01*
X125048528Y-77943908D01*
X125075465Y-78024720D01*
X125075465Y-78132470D01*
X125021590Y-78240219D01*
X124886903Y-78374906D01*
X123486158Y-65998155D02*
X123405346Y-66025093D01*
X123324534Y-66105905D01*
X123270659Y-66213654D01*
X123270659Y-66321404D01*
X123297597Y-66402216D01*
X123378409Y-66536903D01*
X123459221Y-66617715D01*
X123593908Y-66698528D01*
X123674720Y-66725465D01*
X123782470Y-66725465D01*
X123890219Y-66671590D01*
X123944094Y-66617715D01*
X123997969Y-66509966D01*
X123997969Y-66456091D01*
X123809407Y-66267529D01*
X123701658Y-66375279D01*
X124294280Y-66267529D02*
X123728595Y-65701844D01*
X124617529Y-65944280D01*
X124051844Y-65378595D01*
X124886903Y-65674906D02*
X124321218Y-65109221D01*
X124455905Y-64974534D01*
X124563654Y-64920659D01*
X124671404Y-64920659D01*
X124752216Y-64947597D01*
X124886903Y-65028409D01*
X124967715Y-65109221D01*
X125048528Y-65243908D01*
X125075465Y-65324720D01*
X125075465Y-65432470D01*
X125021590Y-65540219D01*
X124886903Y-65674906D01*
X123486158Y-53298155D02*
X123405346Y-53325093D01*
X123324534Y-53405905D01*
X123270659Y-53513654D01*
X123270659Y-53621404D01*
X123297597Y-53702216D01*
X123378409Y-53836903D01*
X123459221Y-53917715D01*
X123593908Y-53998528D01*
X123674720Y-54025465D01*
X123782470Y-54025465D01*
X123890219Y-53971590D01*
X123944094Y-53917715D01*
X123997969Y-53809966D01*
X123997969Y-53756091D01*
X123809407Y-53567529D01*
X123701658Y-53675279D01*
X124294280Y-53567529D02*
X123728595Y-53001844D01*
X124617529Y-53244280D01*
X124051844Y-52678595D01*
X124886903Y-52974906D02*
X124321218Y-52409221D01*
X124455905Y-52274534D01*
X124563654Y-52220659D01*
X124671404Y-52220659D01*
X124752216Y-52247597D01*
X124886903Y-52328409D01*
X124967715Y-52409221D01*
X125048528Y-52543908D01*
X125075465Y-52624720D01*
X125075465Y-52732470D01*
X125021590Y-52840219D01*
X124886903Y-52974906D01*
X123486158Y-40598155D02*
X123405346Y-40625093D01*
X123324534Y-40705905D01*
X123270659Y-40813654D01*
X123270659Y-40921404D01*
X123297597Y-41002216D01*
X123378409Y-41136903D01*
X123459221Y-41217715D01*
X123593908Y-41298528D01*
X123674720Y-41325465D01*
X123782470Y-41325465D01*
X123890219Y-41271590D01*
X123944094Y-41217715D01*
X123997969Y-41109966D01*
X123997969Y-41056091D01*
X123809407Y-40867529D01*
X123701658Y-40975279D01*
X124294280Y-40867529D02*
X123728595Y-40301844D01*
X124617529Y-40544280D01*
X124051844Y-39978595D01*
X124886903Y-40274906D02*
X124321218Y-39709221D01*
X124455905Y-39574534D01*
X124563654Y-39520659D01*
X124671404Y-39520659D01*
X124752216Y-39547597D01*
X124886903Y-39628409D01*
X124967715Y-39709221D01*
X125048528Y-39843908D01*
X125075465Y-39924720D01*
X125075465Y-40032470D01*
X125021590Y-40140219D01*
X124886903Y-40274906D01*
X148953129Y-36027309D02*
X149707377Y-36404433D01*
X149330253Y-35650186D01*
X149976751Y-35542436D02*
X150084500Y-35488561D01*
X150138375Y-35488561D01*
X150219187Y-35515499D01*
X150300000Y-35596311D01*
X150326937Y-35677123D01*
X150326937Y-35730998D01*
X150300000Y-35811810D01*
X150084500Y-36027309D01*
X149518815Y-35461624D01*
X149707377Y-35273062D01*
X149788189Y-35246125D01*
X149842064Y-35246125D01*
X149922876Y-35273062D01*
X149976751Y-35326937D01*
X150003688Y-35407749D01*
X150003688Y-35461624D01*
X149976751Y-35542436D01*
X149788189Y-35730998D01*
X150084500Y-34895938D02*
X150542436Y-35353874D01*
X150623248Y-35380812D01*
X150677123Y-35380812D01*
X150757935Y-35353874D01*
X150865685Y-35246125D01*
X150892622Y-35165312D01*
X150892622Y-35111438D01*
X150865685Y-35030625D01*
X150407749Y-34572690D01*
X151188934Y-34869001D02*
X151296683Y-34815126D01*
X151431370Y-34680439D01*
X151458308Y-34599627D01*
X151458308Y-34545752D01*
X151431370Y-34464940D01*
X151377496Y-34411065D01*
X151296683Y-34384128D01*
X151242809Y-34384128D01*
X151161996Y-34411065D01*
X151027309Y-34491877D01*
X150946497Y-34518815D01*
X150892622Y-34518815D01*
X150811810Y-34491877D01*
X150757935Y-34438003D01*
X150730998Y-34357190D01*
X150730998Y-34303316D01*
X150757935Y-34222503D01*
X150892622Y-34087816D01*
X151000372Y-34033942D01*
X148920473Y-38569966D02*
X149674720Y-38947089D01*
X149297597Y-38192842D01*
X149997969Y-38569966D02*
X150105719Y-38516091D01*
X150240406Y-38381404D01*
X150267343Y-38300592D01*
X150267343Y-38246717D01*
X150240406Y-38165905D01*
X150186531Y-38112030D01*
X150105719Y-38085093D01*
X150051844Y-38085093D01*
X149971032Y-38112030D01*
X149836345Y-38192842D01*
X149755532Y-38219780D01*
X149701658Y-38219780D01*
X149620845Y-38192842D01*
X149566971Y-38138967D01*
X149540033Y-38058155D01*
X149540033Y-38004280D01*
X149566971Y-37923468D01*
X149701658Y-37788781D01*
X149809407Y-37734906D01*
X150428967Y-37654094D02*
X150698341Y-37923468D01*
X149944094Y-37546345D02*
X150428967Y-37654094D01*
X150321218Y-37169221D01*
X151021590Y-37546345D02*
X151129340Y-37492470D01*
X151264027Y-37357783D01*
X151290964Y-37276971D01*
X151290964Y-37223096D01*
X151264027Y-37142284D01*
X151210152Y-37088409D01*
X151129340Y-37061471D01*
X151075465Y-37061471D01*
X150994653Y-37088409D01*
X150859966Y-37169221D01*
X150779154Y-37196158D01*
X150725279Y-37196158D01*
X150644467Y-37169221D01*
X150590592Y-37115346D01*
X150563654Y-37034534D01*
X150563654Y-36980659D01*
X150590592Y-36899847D01*
X150725279Y-36765160D01*
X150833028Y-36711285D01*
X148922131Y-43458308D02*
X149272317Y-43108122D01*
X149299255Y-43512183D01*
X149380067Y-43431370D01*
X149460879Y-43404433D01*
X149514754Y-43404433D01*
X149595566Y-43431370D01*
X149730253Y-43566057D01*
X149757190Y-43646870D01*
X149757190Y-43700744D01*
X149730253Y-43781557D01*
X149568629Y-43943181D01*
X149487816Y-43970118D01*
X149433942Y-43970118D01*
X149433942Y-42946497D02*
X150188189Y-43323621D01*
X149811065Y-42569374D01*
X149945752Y-42434687D02*
X150295938Y-42084500D01*
X150322876Y-42488561D01*
X150403688Y-42407749D01*
X150484500Y-42380812D01*
X150538375Y-42380812D01*
X150619187Y-42407749D01*
X150753874Y-42542436D01*
X150780812Y-42623248D01*
X150780812Y-42677123D01*
X150753874Y-42757935D01*
X150592250Y-42919560D01*
X150511438Y-42946497D01*
X150457563Y-42946497D01*
X151023248Y-42596311D02*
X151454247Y-42165312D01*
X151238748Y-41680439D02*
X151427309Y-41491877D01*
X151804433Y-41707377D02*
X151535059Y-41976751D01*
X150969374Y-41411065D01*
X151238748Y-41141691D01*
X152046870Y-41464940D02*
X151481184Y-40899255D01*
X152370118Y-41141691D01*
X151804433Y-40576006D01*
X148889847Y-45990592D02*
X149240033Y-45640406D01*
X149266971Y-46044467D01*
X149347783Y-45963654D01*
X149428595Y-45936717D01*
X149482470Y-45936717D01*
X149563282Y-45963654D01*
X149697969Y-46098341D01*
X149724906Y-46179154D01*
X149724906Y-46233028D01*
X149697969Y-46313841D01*
X149536345Y-46475465D01*
X149455532Y-46502402D01*
X149401658Y-46502402D01*
X149401658Y-45478781D02*
X150155905Y-45855905D01*
X149778781Y-45101658D01*
X149913468Y-44966971D02*
X150263654Y-44616784D01*
X150290592Y-45020845D01*
X150371404Y-44940033D01*
X150452216Y-44913096D01*
X150506091Y-44913096D01*
X150586903Y-44940033D01*
X150721590Y-45074720D01*
X150748528Y-45155532D01*
X150748528Y-45209407D01*
X150721590Y-45290219D01*
X150559966Y-45451844D01*
X150479154Y-45478781D01*
X150425279Y-45478781D01*
X149154788Y-49033773D02*
X149424162Y-48764399D01*
X149262537Y-49249272D02*
X148885414Y-48495025D01*
X149639661Y-48872149D01*
X149828223Y-48683587D02*
X149262537Y-48117902D01*
X149397224Y-47983215D01*
X149504974Y-47929340D01*
X149612723Y-47929340D01*
X149693536Y-47956277D01*
X149828223Y-48037089D01*
X149909035Y-48117902D01*
X149989847Y-48252589D01*
X150016784Y-48333401D01*
X150016784Y-48441150D01*
X149962910Y-48548900D01*
X149828223Y-48683587D01*
X150663282Y-47740778D02*
X150663282Y-47794653D01*
X150609407Y-47902402D01*
X150555532Y-47956277D01*
X150447783Y-48010152D01*
X150340033Y-48010152D01*
X150259221Y-47983215D01*
X150124534Y-47902402D01*
X150043722Y-47821590D01*
X149962910Y-47686903D01*
X149935972Y-47606091D01*
X149935972Y-47498341D01*
X149989847Y-47390592D01*
X150043722Y-47336717D01*
X150151471Y-47282842D01*
X150205346Y-47282842D01*
X150878781Y-47740778D02*
X151309780Y-47309780D01*
X150744094Y-46636345D02*
X151498341Y-47013468D01*
X151121218Y-46259221D01*
X152198714Y-46313096D02*
X151740778Y-46232284D01*
X151875465Y-46636345D02*
X151309780Y-46070659D01*
X151525279Y-45855160D01*
X151606091Y-45828223D01*
X151659966Y-45828223D01*
X151740778Y-45855160D01*
X151821590Y-45935972D01*
X151848528Y-46016784D01*
X151848528Y-46070659D01*
X151821590Y-46151471D01*
X151606091Y-46366971D01*
X152144839Y-45774348D02*
X152333401Y-45585786D01*
X152710524Y-45801285D02*
X152441150Y-46070659D01*
X151875465Y-45504974D01*
X152144839Y-45235600D01*
X152845211Y-45073975D02*
X152656650Y-45262537D01*
X152952961Y-45558849D02*
X152387276Y-44993163D01*
X152656650Y-44723789D01*
X149097722Y-50746592D02*
X149016910Y-50773529D01*
X148936097Y-50854341D01*
X148882223Y-50962091D01*
X148882223Y-51069841D01*
X148909160Y-51150653D01*
X148989972Y-51285340D01*
X149070784Y-51366152D01*
X149205471Y-51446964D01*
X149286284Y-51473902D01*
X149394033Y-51473902D01*
X149501783Y-51420027D01*
X149555658Y-51366152D01*
X149609532Y-51258402D01*
X149609532Y-51204528D01*
X149420971Y-51015966D01*
X149313221Y-51123715D01*
X149905844Y-51015966D02*
X149340158Y-50450280D01*
X149555658Y-50234781D01*
X149636470Y-50207844D01*
X149690345Y-50207844D01*
X149771157Y-50234781D01*
X149851969Y-50315593D01*
X149878906Y-50396406D01*
X149878906Y-50450280D01*
X149851969Y-50531093D01*
X149636470Y-50746592D01*
X149932781Y-49965407D02*
X149932781Y-49911532D01*
X149959719Y-49830720D01*
X150094406Y-49696033D01*
X150175218Y-49669096D01*
X150229093Y-49669096D01*
X150309905Y-49696033D01*
X150363780Y-49749908D01*
X150417654Y-49857658D01*
X150417654Y-50504155D01*
X150767841Y-50153969D01*
X150767841Y-49507471D02*
X150687028Y-49534409D01*
X150633154Y-49534409D01*
X150552341Y-49507471D01*
X150525404Y-49480534D01*
X150498467Y-49399722D01*
X150498467Y-49345847D01*
X150525404Y-49265035D01*
X150633154Y-49157285D01*
X150713966Y-49130348D01*
X150767841Y-49130348D01*
X150848653Y-49157285D01*
X150875590Y-49184223D01*
X150902528Y-49265035D01*
X150902528Y-49318910D01*
X150875590Y-49399722D01*
X150767841Y-49507471D01*
X150740903Y-49588284D01*
X150740903Y-49642158D01*
X150767841Y-49722971D01*
X150875590Y-49830720D01*
X150956402Y-49857658D01*
X151010277Y-49857658D01*
X151091089Y-49830720D01*
X151198839Y-49722971D01*
X151225776Y-49642158D01*
X151225776Y-49588284D01*
X151198839Y-49507471D01*
X151091089Y-49399722D01*
X151010277Y-49372784D01*
X150956402Y-49372784D01*
X150875590Y-49399722D01*
X149097722Y-56090592D02*
X149016910Y-56117529D01*
X148936097Y-56198341D01*
X148882223Y-56306091D01*
X148882223Y-56413841D01*
X148909160Y-56494653D01*
X148989972Y-56629340D01*
X149070784Y-56710152D01*
X149205471Y-56790964D01*
X149286284Y-56817902D01*
X149394033Y-56817902D01*
X149501783Y-56764027D01*
X149555658Y-56710152D01*
X149609532Y-56602402D01*
X149609532Y-56548528D01*
X149420971Y-56359966D01*
X149313221Y-56467715D01*
X149905844Y-56359966D02*
X149340158Y-55794280D01*
X149555658Y-55578781D01*
X149636470Y-55551844D01*
X149690345Y-55551844D01*
X149771157Y-55578781D01*
X149851969Y-55659593D01*
X149878906Y-55740406D01*
X149878906Y-55794280D01*
X149851969Y-55875093D01*
X149636470Y-56090592D01*
X149932781Y-55309407D02*
X149932781Y-55255532D01*
X149959719Y-55174720D01*
X150094406Y-55040033D01*
X150175218Y-55013096D01*
X150229093Y-55013096D01*
X150309905Y-55040033D01*
X150363780Y-55093908D01*
X150417654Y-55201658D01*
X150417654Y-55848155D01*
X150767841Y-55497969D01*
X150390717Y-54743722D02*
X150767841Y-54366598D01*
X151091089Y-55174720D01*
X149097722Y-58620592D02*
X149016910Y-58647529D01*
X148936097Y-58728341D01*
X148882223Y-58836091D01*
X148882223Y-58943841D01*
X148909160Y-59024653D01*
X148989972Y-59159340D01*
X149070784Y-59240152D01*
X149205471Y-59320964D01*
X149286284Y-59347902D01*
X149394033Y-59347902D01*
X149501783Y-59294027D01*
X149555658Y-59240152D01*
X149609532Y-59132402D01*
X149609532Y-59078528D01*
X149420971Y-58889966D01*
X149313221Y-58997715D01*
X149905844Y-58889966D02*
X149340158Y-58324280D01*
X149555658Y-58108781D01*
X149636470Y-58081844D01*
X149690345Y-58081844D01*
X149771157Y-58108781D01*
X149851969Y-58189593D01*
X149878906Y-58270406D01*
X149878906Y-58324280D01*
X149851969Y-58405093D01*
X149636470Y-58620592D01*
X149932781Y-57839407D02*
X149932781Y-57785532D01*
X149959719Y-57704720D01*
X150094406Y-57570033D01*
X150175218Y-57543096D01*
X150229093Y-57543096D01*
X150309905Y-57570033D01*
X150363780Y-57623908D01*
X150417654Y-57731658D01*
X150417654Y-58378155D01*
X150767841Y-58027969D01*
X150687028Y-56977410D02*
X150579279Y-57085160D01*
X150552341Y-57165972D01*
X150552341Y-57219847D01*
X150579279Y-57354534D01*
X150660091Y-57489221D01*
X150875590Y-57704720D01*
X150956402Y-57731658D01*
X151010277Y-57731658D01*
X151091089Y-57704720D01*
X151198839Y-57596971D01*
X151225776Y-57516158D01*
X151225776Y-57462284D01*
X151198839Y-57381471D01*
X151064152Y-57246784D01*
X150983340Y-57219847D01*
X150929465Y-57219847D01*
X150848653Y-57246784D01*
X150740903Y-57354534D01*
X150713966Y-57435346D01*
X150713966Y-57489221D01*
X150740903Y-57570033D01*
X149838375Y-61443435D02*
X149380439Y-61362622D01*
X149515126Y-61766683D02*
X148949441Y-61200998D01*
X149164940Y-60985499D01*
X149245752Y-60958561D01*
X149299627Y-60958561D01*
X149380439Y-60985499D01*
X149461251Y-61066311D01*
X149488189Y-61147123D01*
X149488189Y-61200998D01*
X149461251Y-61281810D01*
X149245752Y-61497309D01*
X149515126Y-60635312D02*
X149973062Y-61093248D01*
X150053874Y-61120186D01*
X150107749Y-61120186D01*
X150188561Y-61093248D01*
X150296311Y-60985499D01*
X150323248Y-60904687D01*
X150323248Y-60850812D01*
X150296311Y-60769999D01*
X149838375Y-60312064D01*
X150673435Y-60608375D02*
X150107749Y-60042690D01*
X150996683Y-60285126D01*
X150430998Y-59719441D01*
X149097722Y-63700592D02*
X149016910Y-63727529D01*
X148936097Y-63808341D01*
X148882223Y-63916091D01*
X148882223Y-64023841D01*
X148909160Y-64104653D01*
X148989972Y-64239340D01*
X149070784Y-64320152D01*
X149205471Y-64400964D01*
X149286284Y-64427902D01*
X149394033Y-64427902D01*
X149501783Y-64374027D01*
X149555658Y-64320152D01*
X149609532Y-64212402D01*
X149609532Y-64158528D01*
X149420971Y-63969966D01*
X149313221Y-64077715D01*
X149905844Y-63969966D02*
X149340158Y-63404280D01*
X149555658Y-63188781D01*
X149636470Y-63161844D01*
X149690345Y-63161844D01*
X149771157Y-63188781D01*
X149851969Y-63269593D01*
X149878906Y-63350406D01*
X149878906Y-63404280D01*
X149851969Y-63485093D01*
X149636470Y-63700592D01*
X149932781Y-62919407D02*
X149932781Y-62865532D01*
X149959719Y-62784720D01*
X150094406Y-62650033D01*
X150175218Y-62623096D01*
X150229093Y-62623096D01*
X150309905Y-62650033D01*
X150363780Y-62703908D01*
X150417654Y-62811658D01*
X150417654Y-63458155D01*
X150767841Y-63107969D01*
X150471529Y-62380659D02*
X150471529Y-62326784D01*
X150498467Y-62245972D01*
X150633154Y-62111285D01*
X150713966Y-62084348D01*
X150767841Y-62084348D01*
X150848653Y-62111285D01*
X150902528Y-62165160D01*
X150956402Y-62272910D01*
X150956402Y-62919407D01*
X151306589Y-62569221D01*
X149097722Y-68790592D02*
X149016910Y-68817529D01*
X148936097Y-68898341D01*
X148882223Y-69006091D01*
X148882223Y-69113841D01*
X148909160Y-69194653D01*
X148989972Y-69329340D01*
X149070784Y-69410152D01*
X149205471Y-69490964D01*
X149286284Y-69517902D01*
X149394033Y-69517902D01*
X149501783Y-69464027D01*
X149555658Y-69410152D01*
X149609532Y-69302402D01*
X149609532Y-69248528D01*
X149420971Y-69059966D01*
X149313221Y-69167715D01*
X149905844Y-69059966D02*
X149340158Y-68494280D01*
X149555658Y-68278781D01*
X149636470Y-68251844D01*
X149690345Y-68251844D01*
X149771157Y-68278781D01*
X149851969Y-68359593D01*
X149878906Y-68440406D01*
X149878906Y-68494280D01*
X149851969Y-68575093D01*
X149636470Y-68790592D01*
X149932781Y-68009407D02*
X149932781Y-67955532D01*
X149959719Y-67874720D01*
X150094406Y-67740033D01*
X150175218Y-67713096D01*
X150229093Y-67713096D01*
X150309905Y-67740033D01*
X150363780Y-67793908D01*
X150417654Y-67901658D01*
X150417654Y-68548155D01*
X150767841Y-68197969D01*
X151306589Y-67659221D02*
X150983340Y-67982470D01*
X151144964Y-67820845D02*
X150579279Y-67255160D01*
X150606216Y-67389847D01*
X150606216Y-67497597D01*
X150579279Y-67578409D01*
X149097722Y-71320592D02*
X149016910Y-71347529D01*
X148936097Y-71428341D01*
X148882223Y-71536091D01*
X148882223Y-71643841D01*
X148909160Y-71724653D01*
X148989972Y-71859340D01*
X149070784Y-71940152D01*
X149205471Y-72020964D01*
X149286284Y-72047902D01*
X149394033Y-72047902D01*
X149501783Y-71994027D01*
X149555658Y-71940152D01*
X149609532Y-71832402D01*
X149609532Y-71778528D01*
X149420971Y-71589966D01*
X149313221Y-71697715D01*
X149905844Y-71589966D02*
X149340158Y-71024280D01*
X149555658Y-70808781D01*
X149636470Y-70781844D01*
X149690345Y-70781844D01*
X149771157Y-70808781D01*
X149851969Y-70889593D01*
X149878906Y-70970406D01*
X149878906Y-71024280D01*
X149851969Y-71105093D01*
X149636470Y-71320592D01*
X149932781Y-70539407D02*
X149932781Y-70485532D01*
X149959719Y-70404720D01*
X150094406Y-70270033D01*
X150175218Y-70243096D01*
X150229093Y-70243096D01*
X150309905Y-70270033D01*
X150363780Y-70323908D01*
X150417654Y-70431658D01*
X150417654Y-71078155D01*
X150767841Y-70727969D01*
X150552341Y-69812097D02*
X150606216Y-69758223D01*
X150687028Y-69731285D01*
X150740903Y-69731285D01*
X150821715Y-69758223D01*
X150956402Y-69839035D01*
X151091089Y-69973722D01*
X151171902Y-70108409D01*
X151198839Y-70189221D01*
X151198839Y-70243096D01*
X151171902Y-70323908D01*
X151118027Y-70377783D01*
X151037215Y-70404720D01*
X150983340Y-70404720D01*
X150902528Y-70377783D01*
X150767841Y-70296971D01*
X150633154Y-70162284D01*
X150552341Y-70027597D01*
X150525404Y-69946784D01*
X150525404Y-69892910D01*
X150552341Y-69812097D01*
X149097722Y-73860592D02*
X149016910Y-73887529D01*
X148936097Y-73968341D01*
X148882223Y-74076091D01*
X148882223Y-74183841D01*
X148909160Y-74264653D01*
X148989972Y-74399340D01*
X149070784Y-74480152D01*
X149205471Y-74560964D01*
X149286284Y-74587902D01*
X149394033Y-74587902D01*
X149501783Y-74534027D01*
X149555658Y-74480152D01*
X149609532Y-74372402D01*
X149609532Y-74318528D01*
X149420971Y-74129966D01*
X149313221Y-74237715D01*
X149905844Y-74129966D02*
X149340158Y-73564280D01*
X149555658Y-73348781D01*
X149636470Y-73321844D01*
X149690345Y-73321844D01*
X149771157Y-73348781D01*
X149851969Y-73429593D01*
X149878906Y-73510406D01*
X149878906Y-73564280D01*
X149851969Y-73645093D01*
X149636470Y-73860592D01*
X150767841Y-73267969D02*
X150444592Y-73591218D01*
X150606216Y-73429593D02*
X150040531Y-72863908D01*
X150067468Y-72998595D01*
X150067468Y-73106345D01*
X150040531Y-73187157D01*
X151037215Y-72998595D02*
X151144964Y-72890845D01*
X151171902Y-72810033D01*
X151171902Y-72756158D01*
X151144964Y-72621471D01*
X151064152Y-72486784D01*
X150848653Y-72271285D01*
X150767841Y-72244348D01*
X150713966Y-72244348D01*
X150633154Y-72271285D01*
X150525404Y-72379035D01*
X150498467Y-72459847D01*
X150498467Y-72513722D01*
X150525404Y-72594534D01*
X150660091Y-72729221D01*
X150740903Y-72756158D01*
X150794778Y-72756158D01*
X150875590Y-72729221D01*
X150983340Y-72621471D01*
X151010277Y-72540659D01*
X151010277Y-72486784D01*
X150983340Y-72405972D01*
X149097722Y-76400592D02*
X149016910Y-76427529D01*
X148936097Y-76508341D01*
X148882223Y-76616091D01*
X148882223Y-76723841D01*
X148909160Y-76804653D01*
X148989972Y-76939340D01*
X149070784Y-77020152D01*
X149205471Y-77100964D01*
X149286284Y-77127902D01*
X149394033Y-77127902D01*
X149501783Y-77074027D01*
X149555658Y-77020152D01*
X149609532Y-76912402D01*
X149609532Y-76858528D01*
X149420971Y-76669966D01*
X149313221Y-76777715D01*
X149905844Y-76669966D02*
X149340158Y-76104280D01*
X149555658Y-75888781D01*
X149636470Y-75861844D01*
X149690345Y-75861844D01*
X149771157Y-75888781D01*
X149851969Y-75969593D01*
X149878906Y-76050406D01*
X149878906Y-76104280D01*
X149851969Y-76185093D01*
X149636470Y-76400592D01*
X150767841Y-75807969D02*
X150444592Y-76131218D01*
X150606216Y-75969593D02*
X150040531Y-75403908D01*
X150067468Y-75538595D01*
X150067468Y-75646345D01*
X150040531Y-75727157D01*
X150767841Y-75161471D02*
X150687028Y-75188409D01*
X150633154Y-75188409D01*
X150552341Y-75161471D01*
X150525404Y-75134534D01*
X150498467Y-75053722D01*
X150498467Y-74999847D01*
X150525404Y-74919035D01*
X150633154Y-74811285D01*
X150713966Y-74784348D01*
X150767841Y-74784348D01*
X150848653Y-74811285D01*
X150875590Y-74838223D01*
X150902528Y-74919035D01*
X150902528Y-74972910D01*
X150875590Y-75053722D01*
X150767841Y-75161471D01*
X150740903Y-75242284D01*
X150740903Y-75296158D01*
X150767841Y-75376971D01*
X150875590Y-75484720D01*
X150956402Y-75511658D01*
X151010277Y-75511658D01*
X151091089Y-75484720D01*
X151198839Y-75376971D01*
X151225776Y-75296158D01*
X151225776Y-75242284D01*
X151198839Y-75161471D01*
X151091089Y-75053722D01*
X151010277Y-75026784D01*
X150956402Y-75026784D01*
X150875590Y-75053722D01*
X149097722Y-81480592D02*
X149016910Y-81507529D01*
X148936097Y-81588341D01*
X148882223Y-81696091D01*
X148882223Y-81803841D01*
X148909160Y-81884653D01*
X148989972Y-82019340D01*
X149070784Y-82100152D01*
X149205471Y-82180964D01*
X149286284Y-82207902D01*
X149394033Y-82207902D01*
X149501783Y-82154027D01*
X149555658Y-82100152D01*
X149609532Y-81992402D01*
X149609532Y-81938528D01*
X149420971Y-81749966D01*
X149313221Y-81857715D01*
X149905844Y-81749966D02*
X149340158Y-81184280D01*
X149555658Y-80968781D01*
X149636470Y-80941844D01*
X149690345Y-80941844D01*
X149771157Y-80968781D01*
X149851969Y-81049593D01*
X149878906Y-81130406D01*
X149878906Y-81184280D01*
X149851969Y-81265093D01*
X149636470Y-81480592D01*
X150767841Y-80887969D02*
X150444592Y-81211218D01*
X150606216Y-81049593D02*
X150040531Y-80483908D01*
X150067468Y-80618595D01*
X150067468Y-80726345D01*
X150040531Y-80807157D01*
X150390717Y-80133722D02*
X150767841Y-79756598D01*
X151091089Y-80564720D01*
X149097722Y-84020592D02*
X149016910Y-84047529D01*
X148936097Y-84128341D01*
X148882223Y-84236091D01*
X148882223Y-84343841D01*
X148909160Y-84424653D01*
X148989972Y-84559340D01*
X149070784Y-84640152D01*
X149205471Y-84720964D01*
X149286284Y-84747902D01*
X149394033Y-84747902D01*
X149501783Y-84694027D01*
X149555658Y-84640152D01*
X149609532Y-84532402D01*
X149609532Y-84478528D01*
X149420971Y-84289966D01*
X149313221Y-84397715D01*
X149905844Y-84289966D02*
X149340158Y-83724280D01*
X149555658Y-83508781D01*
X149636470Y-83481844D01*
X149690345Y-83481844D01*
X149771157Y-83508781D01*
X149851969Y-83589593D01*
X149878906Y-83670406D01*
X149878906Y-83724280D01*
X149851969Y-83805093D01*
X149636470Y-84020592D01*
X150767841Y-83427969D02*
X150444592Y-83751218D01*
X150606216Y-83589593D02*
X150040531Y-83023908D01*
X150067468Y-83158595D01*
X150067468Y-83266345D01*
X150040531Y-83347157D01*
X150687028Y-82377410D02*
X150579279Y-82485160D01*
X150552341Y-82565972D01*
X150552341Y-82619847D01*
X150579279Y-82754534D01*
X150660091Y-82889221D01*
X150875590Y-83104720D01*
X150956402Y-83131658D01*
X151010277Y-83131658D01*
X151091089Y-83104720D01*
X151198839Y-82996971D01*
X151225776Y-82916158D01*
X151225776Y-82862284D01*
X151198839Y-82781471D01*
X151064152Y-82646784D01*
X150983340Y-82619847D01*
X150929465Y-82619847D01*
X150848653Y-82646784D01*
X150740903Y-82754534D01*
X150713966Y-82835346D01*
X150713966Y-82889221D01*
X150740903Y-82970033D01*
X122989722Y-84020592D02*
X122908910Y-84047529D01*
X122828097Y-84128341D01*
X122774223Y-84236091D01*
X122774223Y-84343841D01*
X122801160Y-84424653D01*
X122881972Y-84559340D01*
X122962784Y-84640152D01*
X123097471Y-84720964D01*
X123178284Y-84747902D01*
X123286033Y-84747902D01*
X123393783Y-84694027D01*
X123447658Y-84640152D01*
X123501532Y-84532402D01*
X123501532Y-84478528D01*
X123312971Y-84289966D01*
X123205221Y-84397715D01*
X123797844Y-84289966D02*
X123232158Y-83724280D01*
X123447658Y-83508781D01*
X123528470Y-83481844D01*
X123582345Y-83481844D01*
X123663157Y-83508781D01*
X123743969Y-83589593D01*
X123770906Y-83670406D01*
X123770906Y-83724280D01*
X123743969Y-83805093D01*
X123528470Y-84020592D01*
X124659841Y-83427969D02*
X124336592Y-83751218D01*
X124498216Y-83589593D02*
X123932531Y-83023908D01*
X123959468Y-83158595D01*
X123959468Y-83266345D01*
X123932531Y-83347157D01*
X124605966Y-82350473D02*
X124336592Y-82619847D01*
X124579028Y-82916158D01*
X124579028Y-82862284D01*
X124605966Y-82781471D01*
X124740653Y-82646784D01*
X124821465Y-82619847D01*
X124875340Y-82619847D01*
X124956152Y-82646784D01*
X125090839Y-82781471D01*
X125117776Y-82862284D01*
X125117776Y-82916158D01*
X125090839Y-82996971D01*
X124956152Y-83131658D01*
X124875340Y-83158595D01*
X124821465Y-83158595D01*
X122943722Y-81480592D02*
X122862910Y-81507529D01*
X122782097Y-81588341D01*
X122728223Y-81696091D01*
X122728223Y-81803841D01*
X122755160Y-81884653D01*
X122835972Y-82019340D01*
X122916784Y-82100152D01*
X123051471Y-82180964D01*
X123132284Y-82207902D01*
X123240033Y-82207902D01*
X123347783Y-82154027D01*
X123401658Y-82100152D01*
X123455532Y-81992402D01*
X123455532Y-81938528D01*
X123266971Y-81749966D01*
X123159221Y-81857715D01*
X123751844Y-81749966D02*
X123186158Y-81184280D01*
X123401658Y-80968781D01*
X123482470Y-80941844D01*
X123536345Y-80941844D01*
X123617157Y-80968781D01*
X123697969Y-81049593D01*
X123724906Y-81130406D01*
X123724906Y-81184280D01*
X123697969Y-81265093D01*
X123482470Y-81480592D01*
X124613841Y-80887969D02*
X124290592Y-81211218D01*
X124452216Y-81049593D02*
X123886531Y-80483908D01*
X123913468Y-80618595D01*
X123913468Y-80726345D01*
X123886531Y-80807157D01*
X124721590Y-80025972D02*
X125098714Y-80403096D01*
X124371404Y-79945160D02*
X124640778Y-80483908D01*
X124990964Y-80133722D01*
X122989722Y-76400592D02*
X122908910Y-76427529D01*
X122828097Y-76508341D01*
X122774223Y-76616091D01*
X122774223Y-76723841D01*
X122801160Y-76804653D01*
X122881972Y-76939340D01*
X122962784Y-77020152D01*
X123097471Y-77100964D01*
X123178284Y-77127902D01*
X123286033Y-77127902D01*
X123393783Y-77074027D01*
X123447658Y-77020152D01*
X123501532Y-76912402D01*
X123501532Y-76858528D01*
X123312971Y-76669966D01*
X123205221Y-76777715D01*
X123797844Y-76669966D02*
X123232158Y-76104280D01*
X123447658Y-75888781D01*
X123528470Y-75861844D01*
X123582345Y-75861844D01*
X123663157Y-75888781D01*
X123743969Y-75969593D01*
X123770906Y-76050406D01*
X123770906Y-76104280D01*
X123743969Y-76185093D01*
X123528470Y-76400592D01*
X124659841Y-75807969D02*
X124336592Y-76131218D01*
X124498216Y-75969593D02*
X123932531Y-75403908D01*
X123959468Y-75538595D01*
X123959468Y-75646345D01*
X123932531Y-75727157D01*
X124282717Y-75053722D02*
X124632903Y-74703536D01*
X124659841Y-75107597D01*
X124740653Y-75026784D01*
X124821465Y-74999847D01*
X124875340Y-74999847D01*
X124956152Y-75026784D01*
X125090839Y-75161471D01*
X125117776Y-75242284D01*
X125117776Y-75296158D01*
X125090839Y-75376971D01*
X124929215Y-75538595D01*
X124848402Y-75565532D01*
X124794528Y-75565532D01*
X122843722Y-73860592D02*
X122762910Y-73887529D01*
X122682097Y-73968341D01*
X122628223Y-74076091D01*
X122628223Y-74183841D01*
X122655160Y-74264653D01*
X122735972Y-74399340D01*
X122816784Y-74480152D01*
X122951471Y-74560964D01*
X123032284Y-74587902D01*
X123140033Y-74587902D01*
X123247783Y-74534027D01*
X123301658Y-74480152D01*
X123355532Y-74372402D01*
X123355532Y-74318528D01*
X123166971Y-74129966D01*
X123059221Y-74237715D01*
X123651844Y-74129966D02*
X123086158Y-73564280D01*
X123301658Y-73348781D01*
X123382470Y-73321844D01*
X123436345Y-73321844D01*
X123517157Y-73348781D01*
X123597969Y-73429593D01*
X123624906Y-73510406D01*
X123624906Y-73564280D01*
X123597969Y-73645093D01*
X123382470Y-73860592D01*
X124513841Y-73267969D02*
X124190592Y-73591218D01*
X124352216Y-73429593D02*
X123786531Y-72863908D01*
X123813468Y-72998595D01*
X123813468Y-73106345D01*
X123786531Y-73187157D01*
X124217529Y-72540659D02*
X124217529Y-72486784D01*
X124244467Y-72405972D01*
X124379154Y-72271285D01*
X124459966Y-72244348D01*
X124513841Y-72244348D01*
X124594653Y-72271285D01*
X124648528Y-72325160D01*
X124702402Y-72432910D01*
X124702402Y-73079407D01*
X125052589Y-72729221D01*
X122843722Y-71320592D02*
X122762910Y-71347529D01*
X122682097Y-71428341D01*
X122628223Y-71536091D01*
X122628223Y-71643841D01*
X122655160Y-71724653D01*
X122735972Y-71859340D01*
X122816784Y-71940152D01*
X122951471Y-72020964D01*
X123032284Y-72047902D01*
X123140033Y-72047902D01*
X123247783Y-71994027D01*
X123301658Y-71940152D01*
X123355532Y-71832402D01*
X123355532Y-71778528D01*
X123166971Y-71589966D01*
X123059221Y-71697715D01*
X123651844Y-71589966D02*
X123086158Y-71024280D01*
X123301658Y-70808781D01*
X123382470Y-70781844D01*
X123436345Y-70781844D01*
X123517157Y-70808781D01*
X123597969Y-70889593D01*
X123624906Y-70970406D01*
X123624906Y-71024280D01*
X123597969Y-71105093D01*
X123382470Y-71320592D01*
X124513841Y-70727969D02*
X124190592Y-71051218D01*
X124352216Y-70889593D02*
X123786531Y-70323908D01*
X123813468Y-70458595D01*
X123813468Y-70566345D01*
X123786531Y-70647157D01*
X125052589Y-70189221D02*
X124729340Y-70512470D01*
X124890964Y-70350845D02*
X124325279Y-69785160D01*
X124352216Y-69919847D01*
X124352216Y-70027597D01*
X124325279Y-70108409D01*
X122989722Y-68780592D02*
X122908910Y-68807529D01*
X122828097Y-68888341D01*
X122774223Y-68996091D01*
X122774223Y-69103841D01*
X122801160Y-69184653D01*
X122881972Y-69319340D01*
X122962784Y-69400152D01*
X123097471Y-69480964D01*
X123178284Y-69507902D01*
X123286033Y-69507902D01*
X123393783Y-69454027D01*
X123447658Y-69400152D01*
X123501532Y-69292402D01*
X123501532Y-69238528D01*
X123312971Y-69049966D01*
X123205221Y-69157715D01*
X123797844Y-69049966D02*
X123232158Y-68484280D01*
X123447658Y-68268781D01*
X123528470Y-68241844D01*
X123582345Y-68241844D01*
X123663157Y-68268781D01*
X123743969Y-68349593D01*
X123770906Y-68430406D01*
X123770906Y-68484280D01*
X123743969Y-68565093D01*
X123528470Y-68780592D01*
X124659841Y-68187969D02*
X124336592Y-68511218D01*
X124498216Y-68349593D02*
X123932531Y-67783908D01*
X123959468Y-67918595D01*
X123959468Y-68026345D01*
X123932531Y-68107157D01*
X124444341Y-67272097D02*
X124498216Y-67218223D01*
X124579028Y-67191285D01*
X124632903Y-67191285D01*
X124713715Y-67218223D01*
X124848402Y-67299035D01*
X124983089Y-67433722D01*
X125063902Y-67568409D01*
X125090839Y-67649221D01*
X125090839Y-67703096D01*
X125063902Y-67783908D01*
X125010027Y-67837783D01*
X124929215Y-67864720D01*
X124875340Y-67864720D01*
X124794528Y-67837783D01*
X124659841Y-67756971D01*
X124525154Y-67622284D01*
X124444341Y-67487597D01*
X124417404Y-67406784D01*
X124417404Y-67352910D01*
X124444341Y-67272097D01*
X123513096Y-63431218D02*
X123432284Y-63458155D01*
X123351471Y-63538967D01*
X123297597Y-63646717D01*
X123297597Y-63754467D01*
X123324534Y-63835279D01*
X123405346Y-63969966D01*
X123486158Y-64050778D01*
X123620845Y-64131590D01*
X123701658Y-64158528D01*
X123809407Y-64158528D01*
X123917157Y-64104653D01*
X123971032Y-64050778D01*
X124024906Y-63943028D01*
X124024906Y-63889154D01*
X123836345Y-63700592D01*
X123728595Y-63808341D01*
X124321218Y-63700592D02*
X123755532Y-63134906D01*
X123971032Y-62919407D01*
X124051844Y-62892470D01*
X124105719Y-62892470D01*
X124186531Y-62919407D01*
X124267343Y-63000219D01*
X124294280Y-63081032D01*
X124294280Y-63134906D01*
X124267343Y-63215719D01*
X124051844Y-63431218D01*
X124913841Y-63107969D02*
X125021590Y-63000219D01*
X125048528Y-62919407D01*
X125048528Y-62865532D01*
X125021590Y-62730845D01*
X124940778Y-62596158D01*
X124725279Y-62380659D01*
X124644467Y-62353722D01*
X124590592Y-62353722D01*
X124509780Y-62380659D01*
X124402030Y-62488409D01*
X124375093Y-62569221D01*
X124375093Y-62623096D01*
X124402030Y-62703908D01*
X124536717Y-62838595D01*
X124617529Y-62865532D01*
X124671404Y-62865532D01*
X124752216Y-62838595D01*
X124859966Y-62730845D01*
X124886903Y-62650033D01*
X124886903Y-62596158D01*
X124859966Y-62515346D01*
X123513096Y-60891218D02*
X123432284Y-60918155D01*
X123351471Y-60998967D01*
X123297597Y-61106717D01*
X123297597Y-61214467D01*
X123324534Y-61295279D01*
X123405346Y-61429966D01*
X123486158Y-61510778D01*
X123620845Y-61591590D01*
X123701658Y-61618528D01*
X123809407Y-61618528D01*
X123917157Y-61564653D01*
X123971032Y-61510778D01*
X124024906Y-61403028D01*
X124024906Y-61349154D01*
X123836345Y-61160592D01*
X123728595Y-61268341D01*
X124321218Y-61160592D02*
X123755532Y-60594906D01*
X123971032Y-60379407D01*
X124051844Y-60352470D01*
X124105719Y-60352470D01*
X124186531Y-60379407D01*
X124267343Y-60460219D01*
X124294280Y-60541032D01*
X124294280Y-60594906D01*
X124267343Y-60675719D01*
X124051844Y-60891218D01*
X124644467Y-60190845D02*
X124563654Y-60217783D01*
X124509780Y-60217783D01*
X124428967Y-60190845D01*
X124402030Y-60163908D01*
X124375093Y-60083096D01*
X124375093Y-60029221D01*
X124402030Y-59948409D01*
X124509780Y-59840659D01*
X124590592Y-59813722D01*
X124644467Y-59813722D01*
X124725279Y-59840659D01*
X124752216Y-59867597D01*
X124779154Y-59948409D01*
X124779154Y-60002284D01*
X124752216Y-60083096D01*
X124644467Y-60190845D01*
X124617529Y-60271658D01*
X124617529Y-60325532D01*
X124644467Y-60406345D01*
X124752216Y-60514094D01*
X124833028Y-60541032D01*
X124886903Y-60541032D01*
X124967715Y-60514094D01*
X125075465Y-60406345D01*
X125102402Y-60325532D01*
X125102402Y-60271658D01*
X125075465Y-60190845D01*
X124967715Y-60083096D01*
X124886903Y-60056158D01*
X124833028Y-60056158D01*
X124752216Y-60083096D01*
X123613096Y-58321218D02*
X123532284Y-58348155D01*
X123451471Y-58428967D01*
X123397597Y-58536717D01*
X123397597Y-58644467D01*
X123424534Y-58725279D01*
X123505346Y-58859966D01*
X123586158Y-58940778D01*
X123720845Y-59021590D01*
X123801658Y-59048528D01*
X123909407Y-59048528D01*
X124017157Y-58994653D01*
X124071032Y-58940778D01*
X124124906Y-58833028D01*
X124124906Y-58779154D01*
X123936345Y-58590592D01*
X123828595Y-58698341D01*
X124421218Y-58590592D02*
X123855532Y-58024906D01*
X124071032Y-57809407D01*
X124151844Y-57782470D01*
X124205719Y-57782470D01*
X124286531Y-57809407D01*
X124367343Y-57890219D01*
X124394280Y-57971032D01*
X124394280Y-58024906D01*
X124367343Y-58105719D01*
X124151844Y-58321218D01*
X124367343Y-57513096D02*
X124744467Y-57135972D01*
X125067715Y-57944094D01*
X123513096Y-55811218D02*
X123432284Y-55838155D01*
X123351471Y-55918967D01*
X123297597Y-56026717D01*
X123297597Y-56134467D01*
X123324534Y-56215279D01*
X123405346Y-56349966D01*
X123486158Y-56430778D01*
X123620845Y-56511590D01*
X123701658Y-56538528D01*
X123809407Y-56538528D01*
X123917157Y-56484653D01*
X123971032Y-56430778D01*
X124024906Y-56323028D01*
X124024906Y-56269154D01*
X123836345Y-56080592D01*
X123728595Y-56188341D01*
X124321218Y-56080592D02*
X123755532Y-55514906D01*
X123971032Y-55299407D01*
X124051844Y-55272470D01*
X124105719Y-55272470D01*
X124186531Y-55299407D01*
X124267343Y-55380219D01*
X124294280Y-55461032D01*
X124294280Y-55514906D01*
X124267343Y-55595719D01*
X124051844Y-55811218D01*
X124563654Y-54706784D02*
X124455905Y-54814534D01*
X124428967Y-54895346D01*
X124428967Y-54949221D01*
X124455905Y-55083908D01*
X124536717Y-55218595D01*
X124752216Y-55434094D01*
X124833028Y-55461032D01*
X124886903Y-55461032D01*
X124967715Y-55434094D01*
X125075465Y-55326345D01*
X125102402Y-55245532D01*
X125102402Y-55191658D01*
X125075465Y-55110845D01*
X124940778Y-54976158D01*
X124859966Y-54949221D01*
X124806091Y-54949221D01*
X124725279Y-54976158D01*
X124617529Y-55083908D01*
X124590592Y-55164720D01*
X124590592Y-55218595D01*
X124617529Y-55299407D01*
X123513096Y-50731218D02*
X123432284Y-50758155D01*
X123351471Y-50838967D01*
X123297597Y-50946717D01*
X123297597Y-51054467D01*
X123324534Y-51135279D01*
X123405346Y-51269966D01*
X123486158Y-51350778D01*
X123620845Y-51431590D01*
X123701658Y-51458528D01*
X123809407Y-51458528D01*
X123917157Y-51404653D01*
X123971032Y-51350778D01*
X124024906Y-51243028D01*
X124024906Y-51189154D01*
X123836345Y-51000592D01*
X123728595Y-51108341D01*
X124321218Y-51000592D02*
X123755532Y-50434906D01*
X123971032Y-50219407D01*
X124051844Y-50192470D01*
X124105719Y-50192470D01*
X124186531Y-50219407D01*
X124267343Y-50300219D01*
X124294280Y-50381032D01*
X124294280Y-50434906D01*
X124267343Y-50515719D01*
X124051844Y-50731218D01*
X124590592Y-49599847D02*
X124321218Y-49869221D01*
X124563654Y-50165532D01*
X124563654Y-50111658D01*
X124590592Y-50030845D01*
X124725279Y-49896158D01*
X124806091Y-49869221D01*
X124859966Y-49869221D01*
X124940778Y-49896158D01*
X125075465Y-50030845D01*
X125102402Y-50111658D01*
X125102402Y-50165532D01*
X125075465Y-50246345D01*
X124940778Y-50381032D01*
X124859966Y-50407969D01*
X124806091Y-50407969D01*
X123513096Y-48191218D02*
X123432284Y-48218155D01*
X123351471Y-48298967D01*
X123297597Y-48406717D01*
X123297597Y-48514467D01*
X123324534Y-48595279D01*
X123405346Y-48729966D01*
X123486158Y-48810778D01*
X123620845Y-48891590D01*
X123701658Y-48918528D01*
X123809407Y-48918528D01*
X123917157Y-48864653D01*
X123971032Y-48810778D01*
X124024906Y-48703028D01*
X124024906Y-48649154D01*
X123836345Y-48460592D01*
X123728595Y-48568341D01*
X124321218Y-48460592D02*
X123755532Y-47894906D01*
X123971032Y-47679407D01*
X124051844Y-47652470D01*
X124105719Y-47652470D01*
X124186531Y-47679407D01*
X124267343Y-47760219D01*
X124294280Y-47841032D01*
X124294280Y-47894906D01*
X124267343Y-47975719D01*
X124051844Y-48191218D01*
X124752216Y-47275346D02*
X125129340Y-47652470D01*
X124402030Y-47194534D02*
X124671404Y-47733282D01*
X125021590Y-47383096D01*
X123513096Y-45651218D02*
X123432284Y-45678155D01*
X123351471Y-45758967D01*
X123297597Y-45866717D01*
X123297597Y-45974467D01*
X123324534Y-46055279D01*
X123405346Y-46189966D01*
X123486158Y-46270778D01*
X123620845Y-46351590D01*
X123701658Y-46378528D01*
X123809407Y-46378528D01*
X123917157Y-46324653D01*
X123971032Y-46270778D01*
X124024906Y-46163028D01*
X124024906Y-46109154D01*
X123836345Y-45920592D01*
X123728595Y-46028341D01*
X124321218Y-45920592D02*
X123755532Y-45354906D01*
X123971032Y-45139407D01*
X124051844Y-45112470D01*
X124105719Y-45112470D01*
X124186531Y-45139407D01*
X124267343Y-45220219D01*
X124294280Y-45301032D01*
X124294280Y-45354906D01*
X124267343Y-45435719D01*
X124051844Y-45651218D01*
X124267343Y-44843096D02*
X124617529Y-44492910D01*
X124644467Y-44896971D01*
X124725279Y-44816158D01*
X124806091Y-44789221D01*
X124859966Y-44789221D01*
X124940778Y-44816158D01*
X125075465Y-44950845D01*
X125102402Y-45031658D01*
X125102402Y-45085532D01*
X125075465Y-45166345D01*
X124913841Y-45327969D01*
X124833028Y-45354906D01*
X124779154Y-45354906D01*
X123513096Y-35491218D02*
X123432284Y-35518155D01*
X123351471Y-35598967D01*
X123297597Y-35706717D01*
X123297597Y-35814467D01*
X123324534Y-35895279D01*
X123405346Y-36029966D01*
X123486158Y-36110778D01*
X123620845Y-36191590D01*
X123701658Y-36218528D01*
X123809407Y-36218528D01*
X123917157Y-36164653D01*
X123971032Y-36110778D01*
X124024906Y-36003028D01*
X124024906Y-35949154D01*
X123836345Y-35760592D01*
X123728595Y-35868341D01*
X124321218Y-35760592D02*
X123755532Y-35194906D01*
X123971032Y-34979407D01*
X124051844Y-34952470D01*
X124105719Y-34952470D01*
X124186531Y-34979407D01*
X124267343Y-35060219D01*
X124294280Y-35141032D01*
X124294280Y-35194906D01*
X124267343Y-35275719D01*
X124051844Y-35491218D01*
X124428967Y-34521471D02*
X124482842Y-34467597D01*
X124563654Y-34440659D01*
X124617529Y-34440659D01*
X124698341Y-34467597D01*
X124833028Y-34548409D01*
X124967715Y-34683096D01*
X125048528Y-34817783D01*
X125075465Y-34898595D01*
X125075465Y-34952470D01*
X125048528Y-35033282D01*
X124994653Y-35087157D01*
X124913841Y-35114094D01*
X124859966Y-35114094D01*
X124779154Y-35087157D01*
X124644467Y-35006345D01*
X124509780Y-34871658D01*
X124428967Y-34736971D01*
X124402030Y-34656158D01*
X124402030Y-34602284D01*
X124428967Y-34521471D01*
X123413096Y-43111218D02*
X123332284Y-43138155D01*
X123251471Y-43218967D01*
X123197597Y-43326717D01*
X123197597Y-43434467D01*
X123224534Y-43515279D01*
X123305346Y-43649966D01*
X123386158Y-43730778D01*
X123520845Y-43811590D01*
X123601658Y-43838528D01*
X123709407Y-43838528D01*
X123817157Y-43784653D01*
X123871032Y-43730778D01*
X123924906Y-43623028D01*
X123924906Y-43569154D01*
X123736345Y-43380592D01*
X123628595Y-43488341D01*
X124221218Y-43380592D02*
X123655532Y-42814906D01*
X123871032Y-42599407D01*
X123951844Y-42572470D01*
X124005719Y-42572470D01*
X124086531Y-42599407D01*
X124167343Y-42680219D01*
X124194280Y-42761032D01*
X124194280Y-42814906D01*
X124167343Y-42895719D01*
X123951844Y-43111218D01*
X124248155Y-42330033D02*
X124248155Y-42276158D01*
X124275093Y-42195346D01*
X124409780Y-42060659D01*
X124490592Y-42033722D01*
X124544467Y-42033722D01*
X124625279Y-42060659D01*
X124679154Y-42114534D01*
X124733028Y-42222284D01*
X124733028Y-42868781D01*
X125083215Y-42518595D01*
X123413096Y-38021218D02*
X123332284Y-38048155D01*
X123251471Y-38128967D01*
X123197597Y-38236717D01*
X123197597Y-38344467D01*
X123224534Y-38425279D01*
X123305346Y-38559966D01*
X123386158Y-38640778D01*
X123520845Y-38721590D01*
X123601658Y-38748528D01*
X123709407Y-38748528D01*
X123817157Y-38694653D01*
X123871032Y-38640778D01*
X123924906Y-38533028D01*
X123924906Y-38479154D01*
X123736345Y-38290592D01*
X123628595Y-38398341D01*
X124221218Y-38290592D02*
X123655532Y-37724906D01*
X123871032Y-37509407D01*
X123951844Y-37482470D01*
X124005719Y-37482470D01*
X124086531Y-37509407D01*
X124167343Y-37590219D01*
X124194280Y-37671032D01*
X124194280Y-37724906D01*
X124167343Y-37805719D01*
X123951844Y-38021218D01*
X125083215Y-37428595D02*
X124759966Y-37751844D01*
X124921590Y-37590219D02*
X124355905Y-37024534D01*
X124382842Y-37159221D01*
X124382842Y-37266971D01*
X124355905Y-37347783D01*
%TO.C,C2*%
X98083333Y-137857142D02*
X98035714Y-137904761D01*
X97892857Y-137952380D01*
X97797619Y-137952380D01*
X97654761Y-137904761D01*
X97559523Y-137809523D01*
X97511904Y-137714285D01*
X97464285Y-137523809D01*
X97464285Y-137380952D01*
X97511904Y-137190476D01*
X97559523Y-137095238D01*
X97654761Y-137000000D01*
X97797619Y-136952380D01*
X97892857Y-136952380D01*
X98035714Y-137000000D01*
X98083333Y-137047619D01*
X98464285Y-137047619D02*
X98511904Y-137000000D01*
X98607142Y-136952380D01*
X98845238Y-136952380D01*
X98940476Y-137000000D01*
X98988095Y-137047619D01*
X99035714Y-137142857D01*
X99035714Y-137238095D01*
X98988095Y-137380952D01*
X98416666Y-137952380D01*
X99035714Y-137952380D01*
%TO.C,C1*%
X119333333Y-132507142D02*
X119285714Y-132554761D01*
X119142857Y-132602380D01*
X119047619Y-132602380D01*
X118904761Y-132554761D01*
X118809523Y-132459523D01*
X118761904Y-132364285D01*
X118714285Y-132173809D01*
X118714285Y-132030952D01*
X118761904Y-131840476D01*
X118809523Y-131745238D01*
X118904761Y-131650000D01*
X119047619Y-131602380D01*
X119142857Y-131602380D01*
X119285714Y-131650000D01*
X119333333Y-131697619D01*
X120285714Y-132602380D02*
X119714285Y-132602380D01*
X120000000Y-132602380D02*
X120000000Y-131602380D01*
X119904761Y-131745238D01*
X119809523Y-131840476D01*
X119714285Y-131888095D01*
%TO.C,Screw_Terminal1*%
X61103907Y-149405587D02*
X61247056Y-149453303D01*
X61485637Y-149453303D01*
X61581069Y-149405587D01*
X61628785Y-149357871D01*
X61676501Y-149262438D01*
X61676501Y-149167006D01*
X61628785Y-149071574D01*
X61581069Y-149023858D01*
X61485637Y-148976141D01*
X61294772Y-148928425D01*
X61199340Y-148880709D01*
X61151624Y-148832993D01*
X61103907Y-148737561D01*
X61103907Y-148642128D01*
X61151624Y-148546696D01*
X61199340Y-148498980D01*
X61294772Y-148451264D01*
X61533353Y-148451264D01*
X61676501Y-148498980D01*
X62535392Y-149405587D02*
X62439959Y-149453303D01*
X62249095Y-149453303D01*
X62153663Y-149405587D01*
X62105946Y-149357871D01*
X62058230Y-149262438D01*
X62058230Y-148976141D01*
X62105946Y-148880709D01*
X62153663Y-148832993D01*
X62249095Y-148785277D01*
X62439959Y-148785277D01*
X62535392Y-148832993D01*
X62964837Y-149453303D02*
X62964837Y-148785277D01*
X62964837Y-148976141D02*
X63012553Y-148880709D01*
X63060269Y-148832993D01*
X63155702Y-148785277D01*
X63251134Y-148785277D01*
X63966876Y-149405587D02*
X63871444Y-149453303D01*
X63680579Y-149453303D01*
X63585147Y-149405587D01*
X63537431Y-149310154D01*
X63537431Y-148928425D01*
X63585147Y-148832993D01*
X63680579Y-148785277D01*
X63871444Y-148785277D01*
X63966876Y-148832993D01*
X64014592Y-148928425D01*
X64014592Y-149023858D01*
X63537431Y-149119290D01*
X64348605Y-148785277D02*
X64539470Y-149453303D01*
X64730334Y-148976141D01*
X64921199Y-149453303D01*
X65112063Y-148785277D01*
X65255212Y-149548735D02*
X66018670Y-149548735D01*
X66114102Y-148451264D02*
X66686696Y-148451264D01*
X66400399Y-149453303D02*
X66400399Y-148451264D01*
X67402438Y-149405587D02*
X67307006Y-149453303D01*
X67116141Y-149453303D01*
X67020709Y-149405587D01*
X66972993Y-149310154D01*
X66972993Y-148928425D01*
X67020709Y-148832993D01*
X67116141Y-148785277D01*
X67307006Y-148785277D01*
X67402438Y-148832993D01*
X67450154Y-148928425D01*
X67450154Y-149023858D01*
X66972993Y-149119290D01*
X67879600Y-149453303D02*
X67879600Y-148785277D01*
X67879600Y-148976141D02*
X67927316Y-148880709D01*
X67975032Y-148832993D01*
X68070464Y-148785277D01*
X68165897Y-148785277D01*
X68499910Y-149453303D02*
X68499910Y-148785277D01*
X68499910Y-148880709D02*
X68547626Y-148832993D01*
X68643058Y-148785277D01*
X68786206Y-148785277D01*
X68881639Y-148832993D01*
X68929355Y-148928425D01*
X68929355Y-149453303D01*
X68929355Y-148928425D02*
X68977071Y-148832993D01*
X69072503Y-148785277D01*
X69215652Y-148785277D01*
X69311084Y-148832993D01*
X69358800Y-148928425D01*
X69358800Y-149453303D01*
X69835962Y-149453303D02*
X69835962Y-148785277D01*
X69835962Y-148451264D02*
X69788245Y-148498980D01*
X69835962Y-148546696D01*
X69883678Y-148498980D01*
X69835962Y-148451264D01*
X69835962Y-148546696D01*
X70313123Y-148785277D02*
X70313123Y-149453303D01*
X70313123Y-148880709D02*
X70360839Y-148832993D01*
X70456271Y-148785277D01*
X70599420Y-148785277D01*
X70694852Y-148832993D01*
X70742568Y-148928425D01*
X70742568Y-149453303D01*
X71649175Y-149453303D02*
X71649175Y-148928425D01*
X71601459Y-148832993D01*
X71506027Y-148785277D01*
X71315162Y-148785277D01*
X71219730Y-148832993D01*
X71649175Y-149405587D02*
X71553743Y-149453303D01*
X71315162Y-149453303D01*
X71219730Y-149405587D01*
X71172014Y-149310154D01*
X71172014Y-149214722D01*
X71219730Y-149119290D01*
X71315162Y-149071574D01*
X71553743Y-149071574D01*
X71649175Y-149023858D01*
X72269485Y-149453303D02*
X72174053Y-149405587D01*
X72126336Y-149310154D01*
X72126336Y-148451264D01*
X73176092Y-149453303D02*
X72603498Y-149453303D01*
X72889795Y-149453303D02*
X72889795Y-148451264D01*
X72794362Y-148594412D01*
X72698930Y-148689845D01*
X72603498Y-148737561D01*
%TO.C,J5*%
X105266666Y-48252380D02*
X105266666Y-48966666D01*
X105219047Y-49109523D01*
X105123809Y-49204761D01*
X104980952Y-49252380D01*
X104885714Y-49252380D01*
X106219047Y-48252380D02*
X105742857Y-48252380D01*
X105695238Y-48728571D01*
X105742857Y-48680952D01*
X105838095Y-48633333D01*
X106076190Y-48633333D01*
X106171428Y-48680952D01*
X106219047Y-48728571D01*
X106266666Y-48823809D01*
X106266666Y-49061904D01*
X106219047Y-49157142D01*
X106171428Y-49204761D01*
X106076190Y-49252380D01*
X105838095Y-49252380D01*
X105742857Y-49204761D01*
X105695238Y-49157142D01*
%TO.C,J2*%
X94066666Y-112452380D02*
X94066666Y-113166666D01*
X94019047Y-113309523D01*
X93923809Y-113404761D01*
X93780952Y-113452380D01*
X93685714Y-113452380D01*
X94495238Y-112547619D02*
X94542857Y-112500000D01*
X94638095Y-112452380D01*
X94876190Y-112452380D01*
X94971428Y-112500000D01*
X95019047Y-112547619D01*
X95066666Y-112642857D01*
X95066666Y-112738095D01*
X95019047Y-112880952D01*
X94447619Y-113452380D01*
X95066666Y-113452380D01*
%TD*%
M02*
