%TF.GenerationSoftware,KiCad,Pcbnew,(5.1.10-1-10_14)*%
%TF.CreationDate,2021-09-06T17:53:20-04:00*%
%TF.ProjectId,CC_PCB_V1,43435f50-4342-45f5-9631-2e6b69636164,rev?*%
%TF.SameCoordinates,Original*%
%TF.FileFunction,Legend,Top*%
%TF.FilePolarity,Positive*%
%FSLAX46Y46*%
G04 Gerber Fmt 4.6, Leading zero omitted, Abs format (unit mm)*
G04 Created by KiCad (PCBNEW (5.1.10-1-10_14)) date 2021-09-06 17:53:20*
%MOMM*%
%LPD*%
G01*
G04 APERTURE LIST*
%ADD10C,0.127000*%
%ADD11C,0.120000*%
%ADD12C,0.200000*%
%ADD13C,0.150000*%
G04 APERTURE END LIST*
D10*
%TO.C,Screw_Terminal1*%
X64480000Y-43180000D02*
X64480000Y-33020000D01*
X64480000Y-33020000D02*
X71680000Y-33020000D01*
X71680000Y-33020000D02*
X72680000Y-33020000D01*
X72680000Y-33020000D02*
X72680000Y-43180000D01*
X72680000Y-43180000D02*
X71680000Y-43180000D01*
X71680000Y-43180000D02*
X64480000Y-43180000D01*
X71680000Y-43180000D02*
X71680000Y-33020000D01*
D11*
%TO.C,U1*%
X138260000Y-76300000D02*
X138660000Y-76300000D01*
X135660000Y-76300000D02*
X136060000Y-76300000D01*
X147660000Y-76300000D02*
X140860000Y-76300000D01*
X147660000Y-65900000D02*
X147660000Y-66300000D01*
X147660000Y-58200000D02*
X147660000Y-58600000D01*
X147660000Y-32800000D02*
X147660000Y-33200000D01*
X147660000Y-25300000D02*
X147660000Y-25600000D01*
X147660000Y-48100000D02*
X147660000Y-48500000D01*
X147660000Y-63300000D02*
X147660000Y-63700000D01*
X147660000Y-43000000D02*
X147660000Y-43400000D01*
X147660000Y-37900000D02*
X147660000Y-38300000D01*
X147660000Y-50600000D02*
X147660000Y-51000000D01*
X147660000Y-55700000D02*
X147660000Y-56100000D01*
X147660000Y-70900000D02*
X147660000Y-71300000D01*
X147660000Y-73500000D02*
X147660000Y-73900000D01*
X147660000Y-68400000D02*
X147660000Y-68800000D01*
X147660000Y-35400000D02*
X147660000Y-35800000D01*
X147660000Y-27700000D02*
X147660000Y-28100000D01*
X147660000Y-30300000D02*
X147660000Y-30700000D01*
X147660000Y-60800000D02*
X147660000Y-61200000D01*
X147660000Y-53100000D02*
X147660000Y-53500000D01*
X147660000Y-45500000D02*
X147660000Y-45900000D01*
X147660000Y-40400000D02*
X147660000Y-40800000D01*
X126660000Y-73500000D02*
X126660000Y-73900000D01*
X126660000Y-70900000D02*
X126660000Y-71300000D01*
X126660000Y-68400000D02*
X126660000Y-68800000D01*
X126660000Y-65900000D02*
X126660000Y-66300000D01*
X126660000Y-63300000D02*
X126660000Y-63700000D01*
X126660000Y-60800000D02*
X126660000Y-61200000D01*
X126660000Y-58200000D02*
X126660000Y-58600000D01*
X126660000Y-55700000D02*
X126660000Y-56100000D01*
X126660000Y-53100000D02*
X126660000Y-53500000D01*
X126660000Y-50600000D02*
X126660000Y-51000000D01*
X126660000Y-48100000D02*
X126660000Y-48500000D01*
X126660000Y-45500000D02*
X126660000Y-45900000D01*
X126660000Y-43000000D02*
X126660000Y-43400000D01*
X126660000Y-40400000D02*
X126660000Y-40800000D01*
X126660000Y-37900000D02*
X126660000Y-38300000D01*
X126660000Y-35400000D02*
X126660000Y-35800000D01*
X126660000Y-32800000D02*
X126660000Y-33200000D01*
X126660000Y-30300000D02*
X126660000Y-30700000D01*
X126660000Y-27700000D02*
X126660000Y-28100000D01*
X126660000Y-25300000D02*
X126660000Y-25600000D01*
X129667000Y-27967000D02*
X129667000Y-25300000D01*
X126660000Y-27967000D02*
X129667000Y-27967000D01*
X133460000Y-76300000D02*
X126660000Y-76300000D01*
X126660000Y-25300000D02*
X147660000Y-25300000D01*
D10*
%TO.C,VR1*%
X113350000Y-31560000D02*
X108650000Y-31560000D01*
X108650000Y-31560000D02*
X108650000Y-42100000D01*
X108650000Y-42100000D02*
X113350000Y-42100000D01*
X113350000Y-42100000D02*
X113350000Y-31560000D01*
D12*
X110590000Y-30990000D02*
G75*
G03*
X110590000Y-30990000I-100000J0D01*
G01*
D11*
%TO.C,J5*%
X109430000Y-77100000D02*
X111550000Y-77100000D01*
X109430000Y-67040000D02*
X109430000Y-77100000D01*
X111550000Y-67040000D02*
X111550000Y-77100000D01*
X109430000Y-67040000D02*
X111550000Y-67040000D01*
X109430000Y-66040000D02*
X109430000Y-64980000D01*
X109430000Y-64980000D02*
X110490000Y-64980000D01*
D12*
%TO.C,J3*%
X94920000Y-39960000D02*
G75*
G03*
X94920000Y-39960000I-100000J0D01*
G01*
X84320000Y-39440000D02*
X98120000Y-39440000D01*
X98120000Y-25280000D02*
X84320000Y-25280000D01*
X98120000Y-39440000D02*
X98120000Y-37780000D01*
X98120000Y-33190000D02*
X98120000Y-25280000D01*
X84320000Y-39440000D02*
X84320000Y-37780000D01*
X84320000Y-33190000D02*
X84320000Y-25280000D01*
D11*
%TO.C,J2*%
X141680000Y-114090000D02*
X141680000Y-109970000D01*
X135620000Y-114090000D02*
X141680000Y-114090000D01*
X133560000Y-109970000D02*
X141680000Y-109970000D01*
X135620000Y-114090000D02*
X135620000Y-112030000D01*
X135620000Y-112030000D02*
X133560000Y-112030000D01*
X133560000Y-112030000D02*
X133560000Y-109970000D01*
X134620000Y-114090000D02*
X133560000Y-114090000D01*
X133560000Y-114090000D02*
X133560000Y-113030000D01*
D10*
%TO.C,U2*%
X127865000Y-84775000D02*
X143915000Y-84775000D01*
X143915000Y-84775000D02*
X143915000Y-98105000D01*
X143915000Y-98105000D02*
X127865000Y-98105000D01*
X127865000Y-98105000D02*
X127865000Y-84775000D01*
%TO.C,REF\u002A\u002A*%
D13*
X153606666Y-25852380D02*
X153273333Y-25376190D01*
X153035238Y-25852380D02*
X153035238Y-24852380D01*
X153416190Y-24852380D01*
X153511428Y-24900000D01*
X153559047Y-24947619D01*
X153606666Y-25042857D01*
X153606666Y-25185714D01*
X153559047Y-25280952D01*
X153511428Y-25328571D01*
X153416190Y-25376190D01*
X153035238Y-25376190D01*
X154035238Y-25328571D02*
X154368571Y-25328571D01*
X154511428Y-25852380D02*
X154035238Y-25852380D01*
X154035238Y-24852380D01*
X154511428Y-24852380D01*
X155273333Y-25328571D02*
X154940000Y-25328571D01*
X154940000Y-25852380D02*
X154940000Y-24852380D01*
X155416190Y-24852380D01*
X155940000Y-24852380D02*
X155940000Y-25090476D01*
X155701904Y-24995238D02*
X155940000Y-25090476D01*
X156178095Y-24995238D01*
X155797142Y-25280952D02*
X155940000Y-25090476D01*
X156082857Y-25280952D01*
X156701904Y-24852380D02*
X156701904Y-25090476D01*
X156463809Y-24995238D02*
X156701904Y-25090476D01*
X156940000Y-24995238D01*
X156559047Y-25280952D02*
X156701904Y-25090476D01*
X156844761Y-25280952D01*
X58356666Y-25852380D02*
X58023333Y-25376190D01*
X57785238Y-25852380D02*
X57785238Y-24852380D01*
X58166190Y-24852380D01*
X58261428Y-24900000D01*
X58309047Y-24947619D01*
X58356666Y-25042857D01*
X58356666Y-25185714D01*
X58309047Y-25280952D01*
X58261428Y-25328571D01*
X58166190Y-25376190D01*
X57785238Y-25376190D01*
X58785238Y-25328571D02*
X59118571Y-25328571D01*
X59261428Y-25852380D02*
X58785238Y-25852380D01*
X58785238Y-24852380D01*
X59261428Y-24852380D01*
X60023333Y-25328571D02*
X59690000Y-25328571D01*
X59690000Y-25852380D02*
X59690000Y-24852380D01*
X60166190Y-24852380D01*
X60690000Y-24852380D02*
X60690000Y-25090476D01*
X60451904Y-24995238D02*
X60690000Y-25090476D01*
X60928095Y-24995238D01*
X60547142Y-25280952D02*
X60690000Y-25090476D01*
X60832857Y-25280952D01*
X61451904Y-24852380D02*
X61451904Y-25090476D01*
X61213809Y-24995238D02*
X61451904Y-25090476D01*
X61690000Y-24995238D01*
X61309047Y-25280952D02*
X61451904Y-25090476D01*
X61594761Y-25280952D01*
X153606666Y-153732380D02*
X153273333Y-153256190D01*
X153035238Y-153732380D02*
X153035238Y-152732380D01*
X153416190Y-152732380D01*
X153511428Y-152780000D01*
X153559047Y-152827619D01*
X153606666Y-152922857D01*
X153606666Y-153065714D01*
X153559047Y-153160952D01*
X153511428Y-153208571D01*
X153416190Y-153256190D01*
X153035238Y-153256190D01*
X154035238Y-153208571D02*
X154368571Y-153208571D01*
X154511428Y-153732380D02*
X154035238Y-153732380D01*
X154035238Y-152732380D01*
X154511428Y-152732380D01*
X155273333Y-153208571D02*
X154940000Y-153208571D01*
X154940000Y-153732380D02*
X154940000Y-152732380D01*
X155416190Y-152732380D01*
X155940000Y-152732380D02*
X155940000Y-152970476D01*
X155701904Y-152875238D02*
X155940000Y-152970476D01*
X156178095Y-152875238D01*
X155797142Y-153160952D02*
X155940000Y-152970476D01*
X156082857Y-153160952D01*
X156701904Y-152732380D02*
X156701904Y-152970476D01*
X156463809Y-152875238D02*
X156701904Y-152970476D01*
X156940000Y-152875238D01*
X156559047Y-153160952D02*
X156701904Y-152970476D01*
X156844761Y-153160952D01*
X58356666Y-153732380D02*
X58023333Y-153256190D01*
X57785238Y-153732380D02*
X57785238Y-152732380D01*
X58166190Y-152732380D01*
X58261428Y-152780000D01*
X58309047Y-152827619D01*
X58356666Y-152922857D01*
X58356666Y-153065714D01*
X58309047Y-153160952D01*
X58261428Y-153208571D01*
X58166190Y-153256190D01*
X57785238Y-153256190D01*
X58785238Y-153208571D02*
X59118571Y-153208571D01*
X59261428Y-153732380D02*
X58785238Y-153732380D01*
X58785238Y-152732380D01*
X59261428Y-152732380D01*
X60023333Y-153208571D02*
X59690000Y-153208571D01*
X59690000Y-153732380D02*
X59690000Y-152732380D01*
X60166190Y-152732380D01*
X60690000Y-152732380D02*
X60690000Y-152970476D01*
X60451904Y-152875238D02*
X60690000Y-152970476D01*
X60928095Y-152875238D01*
X60547142Y-153160952D02*
X60690000Y-152970476D01*
X60832857Y-153160952D01*
X61451904Y-152732380D02*
X61451904Y-152970476D01*
X61213809Y-152875238D02*
X61451904Y-152970476D01*
X61690000Y-152875238D01*
X61309047Y-153160952D02*
X61451904Y-152970476D01*
X61594761Y-153160952D01*
%TO.C,Screw_Terminal1*%
X63370642Y-45263347D02*
X63418358Y-45120198D01*
X63418358Y-44881617D01*
X63370642Y-44786185D01*
X63322926Y-44738469D01*
X63227493Y-44690753D01*
X63132061Y-44690753D01*
X63036629Y-44738469D01*
X62988913Y-44786185D01*
X62941196Y-44881617D01*
X62893480Y-45072482D01*
X62845764Y-45167914D01*
X62798048Y-45215630D01*
X62702616Y-45263347D01*
X62607183Y-45263347D01*
X62511751Y-45215630D01*
X62464035Y-45167914D01*
X62416319Y-45072482D01*
X62416319Y-44833901D01*
X62464035Y-44690753D01*
X63370642Y-43831862D02*
X63418358Y-43927295D01*
X63418358Y-44118159D01*
X63370642Y-44213591D01*
X63322926Y-44261308D01*
X63227493Y-44309024D01*
X62941196Y-44309024D01*
X62845764Y-44261308D01*
X62798048Y-44213591D01*
X62750332Y-44118159D01*
X62750332Y-43927295D01*
X62798048Y-43831862D01*
X63418358Y-43402417D02*
X62750332Y-43402417D01*
X62941196Y-43402417D02*
X62845764Y-43354701D01*
X62798048Y-43306985D01*
X62750332Y-43211552D01*
X62750332Y-43116120D01*
X63370642Y-42400378D02*
X63418358Y-42495810D01*
X63418358Y-42686675D01*
X63370642Y-42782107D01*
X63275209Y-42829823D01*
X62893480Y-42829823D01*
X62798048Y-42782107D01*
X62750332Y-42686675D01*
X62750332Y-42495810D01*
X62798048Y-42400378D01*
X62893480Y-42352662D01*
X62988913Y-42352662D01*
X63084345Y-42829823D01*
X62750332Y-42018649D02*
X63418358Y-41827784D01*
X62941196Y-41636920D01*
X63418358Y-41446055D01*
X62750332Y-41255191D01*
X63513790Y-41112042D02*
X63513790Y-40348584D01*
X62416319Y-40253152D02*
X62416319Y-39680558D01*
X63418358Y-39966855D02*
X62416319Y-39966855D01*
X63370642Y-38964816D02*
X63418358Y-39060248D01*
X63418358Y-39251113D01*
X63370642Y-39346545D01*
X63275209Y-39394261D01*
X62893480Y-39394261D01*
X62798048Y-39346545D01*
X62750332Y-39251113D01*
X62750332Y-39060248D01*
X62798048Y-38964816D01*
X62893480Y-38917100D01*
X62988913Y-38917100D01*
X63084345Y-39394261D01*
X63418358Y-38487654D02*
X62750332Y-38487654D01*
X62941196Y-38487654D02*
X62845764Y-38439938D01*
X62798048Y-38392222D01*
X62750332Y-38296790D01*
X62750332Y-38201357D01*
X63418358Y-37867344D02*
X62750332Y-37867344D01*
X62845764Y-37867344D02*
X62798048Y-37819628D01*
X62750332Y-37724196D01*
X62750332Y-37581048D01*
X62798048Y-37485615D01*
X62893480Y-37437899D01*
X63418358Y-37437899D01*
X62893480Y-37437899D02*
X62798048Y-37390183D01*
X62750332Y-37294751D01*
X62750332Y-37151602D01*
X62798048Y-37056170D01*
X62893480Y-37008454D01*
X63418358Y-37008454D01*
X63418358Y-36531292D02*
X62750332Y-36531292D01*
X62416319Y-36531292D02*
X62464035Y-36579009D01*
X62511751Y-36531292D01*
X62464035Y-36483576D01*
X62416319Y-36531292D01*
X62511751Y-36531292D01*
X62750332Y-36054131D02*
X63418358Y-36054131D01*
X62845764Y-36054131D02*
X62798048Y-36006415D01*
X62750332Y-35910983D01*
X62750332Y-35767834D01*
X62798048Y-35672402D01*
X62893480Y-35624686D01*
X63418358Y-35624686D01*
X63418358Y-34718079D02*
X62893480Y-34718079D01*
X62798048Y-34765795D01*
X62750332Y-34861227D01*
X62750332Y-35052092D01*
X62798048Y-35147524D01*
X63370642Y-34718079D02*
X63418358Y-34813511D01*
X63418358Y-35052092D01*
X63370642Y-35147524D01*
X63275209Y-35195240D01*
X63179777Y-35195240D01*
X63084345Y-35147524D01*
X63036629Y-35052092D01*
X63036629Y-34813511D01*
X62988913Y-34718079D01*
X63418358Y-34097769D02*
X63370642Y-34193201D01*
X63275209Y-34240918D01*
X62416319Y-34240918D01*
X63418358Y-33191162D02*
X63418358Y-33763756D01*
X63418358Y-33477459D02*
X62416319Y-33477459D01*
X62559467Y-33572892D01*
X62654900Y-33668324D01*
X62702616Y-33763756D01*
%TO.C,U1*%
X136398095Y-50252380D02*
X136398095Y-51061904D01*
X136445714Y-51157142D01*
X136493333Y-51204761D01*
X136588571Y-51252380D01*
X136779047Y-51252380D01*
X136874285Y-51204761D01*
X136921904Y-51157142D01*
X136969523Y-51061904D01*
X136969523Y-50252380D01*
X137969523Y-51252380D02*
X137398095Y-51252380D01*
X137683809Y-51252380D02*
X137683809Y-50252380D01*
X137588571Y-50395238D01*
X137493333Y-50490476D01*
X137398095Y-50538095D01*
X141064761Y-77323809D02*
X141179047Y-77361904D01*
X141369523Y-77361904D01*
X141445714Y-77323809D01*
X141483809Y-77285714D01*
X141521904Y-77209523D01*
X141521904Y-77133333D01*
X141483809Y-77057142D01*
X141445714Y-77019047D01*
X141369523Y-76980952D01*
X141217142Y-76942857D01*
X141140952Y-76904761D01*
X141102857Y-76866666D01*
X141064761Y-76790476D01*
X141064761Y-76714285D01*
X141102857Y-76638095D01*
X141140952Y-76600000D01*
X141217142Y-76561904D01*
X141407619Y-76561904D01*
X141521904Y-76600000D01*
X141788571Y-76561904D02*
X141979047Y-77361904D01*
X142131428Y-76790476D01*
X142283809Y-77361904D01*
X142474285Y-76561904D01*
X142779047Y-77361904D02*
X142779047Y-76561904D01*
X142969523Y-76561904D01*
X143083809Y-76600000D01*
X143160000Y-76676190D01*
X143198095Y-76752380D01*
X143236190Y-76904761D01*
X143236190Y-77019047D01*
X143198095Y-77171428D01*
X143160000Y-77247619D01*
X143083809Y-77323809D01*
X142969523Y-77361904D01*
X142779047Y-77361904D01*
X143579047Y-77361904D02*
X143579047Y-76561904D01*
X144112380Y-76561904D02*
X144264761Y-76561904D01*
X144340952Y-76600000D01*
X144417142Y-76676190D01*
X144455238Y-76828571D01*
X144455238Y-77095238D01*
X144417142Y-77247619D01*
X144340952Y-77323809D01*
X144264761Y-77361904D01*
X144112380Y-77361904D01*
X144036190Y-77323809D01*
X143960000Y-77247619D01*
X143921904Y-77095238D01*
X143921904Y-76828571D01*
X143960000Y-76676190D01*
X144036190Y-76600000D01*
X144112380Y-76561904D01*
X129650476Y-77323809D02*
X129764761Y-77361904D01*
X129955238Y-77361904D01*
X130031428Y-77323809D01*
X130069523Y-77285714D01*
X130107619Y-77209523D01*
X130107619Y-77133333D01*
X130069523Y-77057142D01*
X130031428Y-77019047D01*
X129955238Y-76980952D01*
X129802857Y-76942857D01*
X129726666Y-76904761D01*
X129688571Y-76866666D01*
X129650476Y-76790476D01*
X129650476Y-76714285D01*
X129688571Y-76638095D01*
X129726666Y-76600000D01*
X129802857Y-76561904D01*
X129993333Y-76561904D01*
X130107619Y-76600000D01*
X130374285Y-76561904D02*
X130564761Y-77361904D01*
X130717142Y-76790476D01*
X130869523Y-77361904D01*
X131060000Y-76561904D01*
X131821904Y-77285714D02*
X131783809Y-77323809D01*
X131669523Y-77361904D01*
X131593333Y-77361904D01*
X131479047Y-77323809D01*
X131402857Y-77247619D01*
X131364761Y-77171428D01*
X131326666Y-77019047D01*
X131326666Y-76904761D01*
X131364761Y-76752380D01*
X131402857Y-76676190D01*
X131479047Y-76600000D01*
X131593333Y-76561904D01*
X131669523Y-76561904D01*
X131783809Y-76600000D01*
X131821904Y-76638095D01*
X132545714Y-77361904D02*
X132164761Y-77361904D01*
X132164761Y-76561904D01*
X132812380Y-77361904D02*
X132812380Y-76561904D01*
X133269523Y-77361904D02*
X132926666Y-76904761D01*
X133269523Y-76561904D02*
X132812380Y-77019047D01*
X149311597Y-45540964D02*
X149580971Y-45271590D01*
X149419346Y-45756463D02*
X149042223Y-45002216D01*
X149796470Y-45379340D01*
X149742595Y-44355719D02*
X149661783Y-44382656D01*
X149580971Y-44463468D01*
X149527096Y-44571218D01*
X149527096Y-44678967D01*
X149554033Y-44759780D01*
X149634845Y-44894467D01*
X149715658Y-44975279D01*
X149850345Y-45056091D01*
X149931157Y-45083028D01*
X150038906Y-45083028D01*
X150146656Y-45029154D01*
X150200531Y-44975279D01*
X150254406Y-44867529D01*
X150254406Y-44813654D01*
X150065844Y-44625093D01*
X149958094Y-44732842D01*
X150550717Y-44625093D02*
X149985032Y-44059407D01*
X150873966Y-44301844D01*
X150308280Y-43736158D01*
X151143340Y-44032470D02*
X150577654Y-43466784D01*
X150712341Y-43332097D01*
X150820091Y-43278223D01*
X150927841Y-43278223D01*
X151008653Y-43305160D01*
X151143340Y-43385972D01*
X151224152Y-43466784D01*
X151304964Y-43601471D01*
X151331902Y-43682284D01*
X151331902Y-43790033D01*
X151278027Y-43897783D01*
X151143340Y-44032470D01*
X149246158Y-31898155D02*
X149165346Y-31925093D01*
X149084534Y-32005905D01*
X149030659Y-32113654D01*
X149030659Y-32221404D01*
X149057597Y-32302216D01*
X149138409Y-32436903D01*
X149219221Y-32517715D01*
X149353908Y-32598528D01*
X149434720Y-32625465D01*
X149542470Y-32625465D01*
X149650219Y-32571590D01*
X149704094Y-32517715D01*
X149757969Y-32409966D01*
X149757969Y-32356091D01*
X149569407Y-32167529D01*
X149461658Y-32275279D01*
X150054280Y-32167529D02*
X149488595Y-31601844D01*
X150377529Y-31844280D01*
X149811844Y-31278595D01*
X150646903Y-31574906D02*
X150081218Y-31009221D01*
X150215905Y-30874534D01*
X150323654Y-30820659D01*
X150431404Y-30820659D01*
X150512216Y-30847597D01*
X150646903Y-30928409D01*
X150727715Y-31009221D01*
X150808528Y-31143908D01*
X150835465Y-31224720D01*
X150835465Y-31332470D01*
X150781590Y-31440219D01*
X150646903Y-31574906D01*
X149246158Y-57298155D02*
X149165346Y-57325093D01*
X149084534Y-57405905D01*
X149030659Y-57513654D01*
X149030659Y-57621404D01*
X149057597Y-57702216D01*
X149138409Y-57836903D01*
X149219221Y-57917715D01*
X149353908Y-57998528D01*
X149434720Y-58025465D01*
X149542470Y-58025465D01*
X149650219Y-57971590D01*
X149704094Y-57917715D01*
X149757969Y-57809966D01*
X149757969Y-57756091D01*
X149569407Y-57567529D01*
X149461658Y-57675279D01*
X150054280Y-57567529D02*
X149488595Y-57001844D01*
X150377529Y-57244280D01*
X149811844Y-56678595D01*
X150646903Y-56974906D02*
X150081218Y-56409221D01*
X150215905Y-56274534D01*
X150323654Y-56220659D01*
X150431404Y-56220659D01*
X150512216Y-56247597D01*
X150646903Y-56328409D01*
X150727715Y-56409221D01*
X150808528Y-56543908D01*
X150835465Y-56624720D01*
X150835465Y-56732470D01*
X150781590Y-56840219D01*
X150646903Y-56974906D01*
X149246158Y-69998155D02*
X149165346Y-70025093D01*
X149084534Y-70105905D01*
X149030659Y-70213654D01*
X149030659Y-70321404D01*
X149057597Y-70402216D01*
X149138409Y-70536903D01*
X149219221Y-70617715D01*
X149353908Y-70698528D01*
X149434720Y-70725465D01*
X149542470Y-70725465D01*
X149650219Y-70671590D01*
X149704094Y-70617715D01*
X149757969Y-70509966D01*
X149757969Y-70456091D01*
X149569407Y-70267529D01*
X149461658Y-70375279D01*
X150054280Y-70267529D02*
X149488595Y-69701844D01*
X150377529Y-69944280D01*
X149811844Y-69378595D01*
X150646903Y-69674906D02*
X150081218Y-69109221D01*
X150215905Y-68974534D01*
X150323654Y-68920659D01*
X150431404Y-68920659D01*
X150512216Y-68947597D01*
X150646903Y-69028409D01*
X150727715Y-69109221D01*
X150808528Y-69243908D01*
X150835465Y-69324720D01*
X150835465Y-69432470D01*
X150781590Y-69540219D01*
X150646903Y-69674906D01*
X123646158Y-69998155D02*
X123565346Y-70025093D01*
X123484534Y-70105905D01*
X123430659Y-70213654D01*
X123430659Y-70321404D01*
X123457597Y-70402216D01*
X123538409Y-70536903D01*
X123619221Y-70617715D01*
X123753908Y-70698528D01*
X123834720Y-70725465D01*
X123942470Y-70725465D01*
X124050219Y-70671590D01*
X124104094Y-70617715D01*
X124157969Y-70509966D01*
X124157969Y-70456091D01*
X123969407Y-70267529D01*
X123861658Y-70375279D01*
X124454280Y-70267529D02*
X123888595Y-69701844D01*
X124777529Y-69944280D01*
X124211844Y-69378595D01*
X125046903Y-69674906D02*
X124481218Y-69109221D01*
X124615905Y-68974534D01*
X124723654Y-68920659D01*
X124831404Y-68920659D01*
X124912216Y-68947597D01*
X125046903Y-69028409D01*
X125127715Y-69109221D01*
X125208528Y-69243908D01*
X125235465Y-69324720D01*
X125235465Y-69432470D01*
X125181590Y-69540219D01*
X125046903Y-69674906D01*
X123646158Y-57298155D02*
X123565346Y-57325093D01*
X123484534Y-57405905D01*
X123430659Y-57513654D01*
X123430659Y-57621404D01*
X123457597Y-57702216D01*
X123538409Y-57836903D01*
X123619221Y-57917715D01*
X123753908Y-57998528D01*
X123834720Y-58025465D01*
X123942470Y-58025465D01*
X124050219Y-57971590D01*
X124104094Y-57917715D01*
X124157969Y-57809966D01*
X124157969Y-57756091D01*
X123969407Y-57567529D01*
X123861658Y-57675279D01*
X124454280Y-57567529D02*
X123888595Y-57001844D01*
X124777529Y-57244280D01*
X124211844Y-56678595D01*
X125046903Y-56974906D02*
X124481218Y-56409221D01*
X124615905Y-56274534D01*
X124723654Y-56220659D01*
X124831404Y-56220659D01*
X124912216Y-56247597D01*
X125046903Y-56328409D01*
X125127715Y-56409221D01*
X125208528Y-56543908D01*
X125235465Y-56624720D01*
X125235465Y-56732470D01*
X125181590Y-56840219D01*
X125046903Y-56974906D01*
X123646158Y-44598155D02*
X123565346Y-44625093D01*
X123484534Y-44705905D01*
X123430659Y-44813654D01*
X123430659Y-44921404D01*
X123457597Y-45002216D01*
X123538409Y-45136903D01*
X123619221Y-45217715D01*
X123753908Y-45298528D01*
X123834720Y-45325465D01*
X123942470Y-45325465D01*
X124050219Y-45271590D01*
X124104094Y-45217715D01*
X124157969Y-45109966D01*
X124157969Y-45056091D01*
X123969407Y-44867529D01*
X123861658Y-44975279D01*
X124454280Y-44867529D02*
X123888595Y-44301844D01*
X124777529Y-44544280D01*
X124211844Y-43978595D01*
X125046903Y-44274906D02*
X124481218Y-43709221D01*
X124615905Y-43574534D01*
X124723654Y-43520659D01*
X124831404Y-43520659D01*
X124912216Y-43547597D01*
X125046903Y-43628409D01*
X125127715Y-43709221D01*
X125208528Y-43843908D01*
X125235465Y-43924720D01*
X125235465Y-44032470D01*
X125181590Y-44140219D01*
X125046903Y-44274906D01*
X123646158Y-31898155D02*
X123565346Y-31925093D01*
X123484534Y-32005905D01*
X123430659Y-32113654D01*
X123430659Y-32221404D01*
X123457597Y-32302216D01*
X123538409Y-32436903D01*
X123619221Y-32517715D01*
X123753908Y-32598528D01*
X123834720Y-32625465D01*
X123942470Y-32625465D01*
X124050219Y-32571590D01*
X124104094Y-32517715D01*
X124157969Y-32409966D01*
X124157969Y-32356091D01*
X123969407Y-32167529D01*
X123861658Y-32275279D01*
X124454280Y-32167529D02*
X123888595Y-31601844D01*
X124777529Y-31844280D01*
X124211844Y-31278595D01*
X125046903Y-31574906D02*
X124481218Y-31009221D01*
X124615905Y-30874534D01*
X124723654Y-30820659D01*
X124831404Y-30820659D01*
X124912216Y-30847597D01*
X125046903Y-30928409D01*
X125127715Y-31009221D01*
X125208528Y-31143908D01*
X125235465Y-31224720D01*
X125235465Y-31332470D01*
X125181590Y-31440219D01*
X125046903Y-31574906D01*
X149113129Y-27327309D02*
X149867377Y-27704433D01*
X149490253Y-26950186D01*
X150136751Y-26842436D02*
X150244500Y-26788561D01*
X150298375Y-26788561D01*
X150379187Y-26815499D01*
X150460000Y-26896311D01*
X150486937Y-26977123D01*
X150486937Y-27030998D01*
X150460000Y-27111810D01*
X150244500Y-27327309D01*
X149678815Y-26761624D01*
X149867377Y-26573062D01*
X149948189Y-26546125D01*
X150002064Y-26546125D01*
X150082876Y-26573062D01*
X150136751Y-26626937D01*
X150163688Y-26707749D01*
X150163688Y-26761624D01*
X150136751Y-26842436D01*
X149948189Y-27030998D01*
X150244500Y-26195938D02*
X150702436Y-26653874D01*
X150783248Y-26680812D01*
X150837123Y-26680812D01*
X150917935Y-26653874D01*
X151025685Y-26546125D01*
X151052622Y-26465312D01*
X151052622Y-26411438D01*
X151025685Y-26330625D01*
X150567749Y-25872690D01*
X151348934Y-26169001D02*
X151456683Y-26115126D01*
X151591370Y-25980439D01*
X151618308Y-25899627D01*
X151618308Y-25845752D01*
X151591370Y-25764940D01*
X151537496Y-25711065D01*
X151456683Y-25684128D01*
X151402809Y-25684128D01*
X151321996Y-25711065D01*
X151187309Y-25791877D01*
X151106497Y-25818815D01*
X151052622Y-25818815D01*
X150971810Y-25791877D01*
X150917935Y-25738003D01*
X150890998Y-25657190D01*
X150890998Y-25603316D01*
X150917935Y-25522503D01*
X151052622Y-25387816D01*
X151160372Y-25333942D01*
X149080473Y-29869966D02*
X149834720Y-30247089D01*
X149457597Y-29492842D01*
X150157969Y-29869966D02*
X150265719Y-29816091D01*
X150400406Y-29681404D01*
X150427343Y-29600592D01*
X150427343Y-29546717D01*
X150400406Y-29465905D01*
X150346531Y-29412030D01*
X150265719Y-29385093D01*
X150211844Y-29385093D01*
X150131032Y-29412030D01*
X149996345Y-29492842D01*
X149915532Y-29519780D01*
X149861658Y-29519780D01*
X149780845Y-29492842D01*
X149726971Y-29438967D01*
X149700033Y-29358155D01*
X149700033Y-29304280D01*
X149726971Y-29223468D01*
X149861658Y-29088781D01*
X149969407Y-29034906D01*
X150588967Y-28954094D02*
X150858341Y-29223468D01*
X150104094Y-28846345D02*
X150588967Y-28954094D01*
X150481218Y-28469221D01*
X151181590Y-28846345D02*
X151289340Y-28792470D01*
X151424027Y-28657783D01*
X151450964Y-28576971D01*
X151450964Y-28523096D01*
X151424027Y-28442284D01*
X151370152Y-28388409D01*
X151289340Y-28361471D01*
X151235465Y-28361471D01*
X151154653Y-28388409D01*
X151019966Y-28469221D01*
X150939154Y-28496158D01*
X150885279Y-28496158D01*
X150804467Y-28469221D01*
X150750592Y-28415346D01*
X150723654Y-28334534D01*
X150723654Y-28280659D01*
X150750592Y-28199847D01*
X150885279Y-28065160D01*
X150993028Y-28011285D01*
X149082131Y-34758308D02*
X149432317Y-34408122D01*
X149459255Y-34812183D01*
X149540067Y-34731370D01*
X149620879Y-34704433D01*
X149674754Y-34704433D01*
X149755566Y-34731370D01*
X149890253Y-34866057D01*
X149917190Y-34946870D01*
X149917190Y-35000744D01*
X149890253Y-35081557D01*
X149728629Y-35243181D01*
X149647816Y-35270118D01*
X149593942Y-35270118D01*
X149593942Y-34246497D02*
X150348189Y-34623621D01*
X149971065Y-33869374D01*
X150105752Y-33734687D02*
X150455938Y-33384500D01*
X150482876Y-33788561D01*
X150563688Y-33707749D01*
X150644500Y-33680812D01*
X150698375Y-33680812D01*
X150779187Y-33707749D01*
X150913874Y-33842436D01*
X150940812Y-33923248D01*
X150940812Y-33977123D01*
X150913874Y-34057935D01*
X150752250Y-34219560D01*
X150671438Y-34246497D01*
X150617563Y-34246497D01*
X151183248Y-33896311D02*
X151614247Y-33465312D01*
X151398748Y-32980439D02*
X151587309Y-32791877D01*
X151964433Y-33007377D02*
X151695059Y-33276751D01*
X151129374Y-32711065D01*
X151398748Y-32441691D01*
X152206870Y-32764940D02*
X151641184Y-32199255D01*
X152530118Y-32441691D01*
X151964433Y-31876006D01*
X149049847Y-37290592D02*
X149400033Y-36940406D01*
X149426971Y-37344467D01*
X149507783Y-37263654D01*
X149588595Y-37236717D01*
X149642470Y-37236717D01*
X149723282Y-37263654D01*
X149857969Y-37398341D01*
X149884906Y-37479154D01*
X149884906Y-37533028D01*
X149857969Y-37613841D01*
X149696345Y-37775465D01*
X149615532Y-37802402D01*
X149561658Y-37802402D01*
X149561658Y-36778781D02*
X150315905Y-37155905D01*
X149938781Y-36401658D01*
X150073468Y-36266971D02*
X150423654Y-35916784D01*
X150450592Y-36320845D01*
X150531404Y-36240033D01*
X150612216Y-36213096D01*
X150666091Y-36213096D01*
X150746903Y-36240033D01*
X150881590Y-36374720D01*
X150908528Y-36455532D01*
X150908528Y-36509407D01*
X150881590Y-36590219D01*
X150719966Y-36751844D01*
X150639154Y-36778781D01*
X150585279Y-36778781D01*
X149314788Y-40333773D02*
X149584162Y-40064399D01*
X149422537Y-40549272D02*
X149045414Y-39795025D01*
X149799661Y-40172149D01*
X149988223Y-39983587D02*
X149422537Y-39417902D01*
X149557224Y-39283215D01*
X149664974Y-39229340D01*
X149772723Y-39229340D01*
X149853536Y-39256277D01*
X149988223Y-39337089D01*
X150069035Y-39417902D01*
X150149847Y-39552589D01*
X150176784Y-39633401D01*
X150176784Y-39741150D01*
X150122910Y-39848900D01*
X149988223Y-39983587D01*
X150823282Y-39040778D02*
X150823282Y-39094653D01*
X150769407Y-39202402D01*
X150715532Y-39256277D01*
X150607783Y-39310152D01*
X150500033Y-39310152D01*
X150419221Y-39283215D01*
X150284534Y-39202402D01*
X150203722Y-39121590D01*
X150122910Y-38986903D01*
X150095972Y-38906091D01*
X150095972Y-38798341D01*
X150149847Y-38690592D01*
X150203722Y-38636717D01*
X150311471Y-38582842D01*
X150365346Y-38582842D01*
X151038781Y-39040778D02*
X151469780Y-38609780D01*
X150904094Y-37936345D02*
X151658341Y-38313468D01*
X151281218Y-37559221D01*
X152358714Y-37613096D02*
X151900778Y-37532284D01*
X152035465Y-37936345D02*
X151469780Y-37370659D01*
X151685279Y-37155160D01*
X151766091Y-37128223D01*
X151819966Y-37128223D01*
X151900778Y-37155160D01*
X151981590Y-37235972D01*
X152008528Y-37316784D01*
X152008528Y-37370659D01*
X151981590Y-37451471D01*
X151766091Y-37666971D01*
X152304839Y-37074348D02*
X152493401Y-36885786D01*
X152870524Y-37101285D02*
X152601150Y-37370659D01*
X152035465Y-36804974D01*
X152304839Y-36535600D01*
X153005211Y-36373975D02*
X152816650Y-36562537D01*
X153112961Y-36858849D02*
X152547276Y-36293163D01*
X152816650Y-36023789D01*
X149257722Y-42046592D02*
X149176910Y-42073529D01*
X149096097Y-42154341D01*
X149042223Y-42262091D01*
X149042223Y-42369841D01*
X149069160Y-42450653D01*
X149149972Y-42585340D01*
X149230784Y-42666152D01*
X149365471Y-42746964D01*
X149446284Y-42773902D01*
X149554033Y-42773902D01*
X149661783Y-42720027D01*
X149715658Y-42666152D01*
X149769532Y-42558402D01*
X149769532Y-42504528D01*
X149580971Y-42315966D01*
X149473221Y-42423715D01*
X150065844Y-42315966D02*
X149500158Y-41750280D01*
X149715658Y-41534781D01*
X149796470Y-41507844D01*
X149850345Y-41507844D01*
X149931157Y-41534781D01*
X150011969Y-41615593D01*
X150038906Y-41696406D01*
X150038906Y-41750280D01*
X150011969Y-41831093D01*
X149796470Y-42046592D01*
X150092781Y-41265407D02*
X150092781Y-41211532D01*
X150119719Y-41130720D01*
X150254406Y-40996033D01*
X150335218Y-40969096D01*
X150389093Y-40969096D01*
X150469905Y-40996033D01*
X150523780Y-41049908D01*
X150577654Y-41157658D01*
X150577654Y-41804155D01*
X150927841Y-41453969D01*
X150927841Y-40807471D02*
X150847028Y-40834409D01*
X150793154Y-40834409D01*
X150712341Y-40807471D01*
X150685404Y-40780534D01*
X150658467Y-40699722D01*
X150658467Y-40645847D01*
X150685404Y-40565035D01*
X150793154Y-40457285D01*
X150873966Y-40430348D01*
X150927841Y-40430348D01*
X151008653Y-40457285D01*
X151035590Y-40484223D01*
X151062528Y-40565035D01*
X151062528Y-40618910D01*
X151035590Y-40699722D01*
X150927841Y-40807471D01*
X150900903Y-40888284D01*
X150900903Y-40942158D01*
X150927841Y-41022971D01*
X151035590Y-41130720D01*
X151116402Y-41157658D01*
X151170277Y-41157658D01*
X151251089Y-41130720D01*
X151358839Y-41022971D01*
X151385776Y-40942158D01*
X151385776Y-40888284D01*
X151358839Y-40807471D01*
X151251089Y-40699722D01*
X151170277Y-40672784D01*
X151116402Y-40672784D01*
X151035590Y-40699722D01*
X149257722Y-47390592D02*
X149176910Y-47417529D01*
X149096097Y-47498341D01*
X149042223Y-47606091D01*
X149042223Y-47713841D01*
X149069160Y-47794653D01*
X149149972Y-47929340D01*
X149230784Y-48010152D01*
X149365471Y-48090964D01*
X149446284Y-48117902D01*
X149554033Y-48117902D01*
X149661783Y-48064027D01*
X149715658Y-48010152D01*
X149769532Y-47902402D01*
X149769532Y-47848528D01*
X149580971Y-47659966D01*
X149473221Y-47767715D01*
X150065844Y-47659966D02*
X149500158Y-47094280D01*
X149715658Y-46878781D01*
X149796470Y-46851844D01*
X149850345Y-46851844D01*
X149931157Y-46878781D01*
X150011969Y-46959593D01*
X150038906Y-47040406D01*
X150038906Y-47094280D01*
X150011969Y-47175093D01*
X149796470Y-47390592D01*
X150092781Y-46609407D02*
X150092781Y-46555532D01*
X150119719Y-46474720D01*
X150254406Y-46340033D01*
X150335218Y-46313096D01*
X150389093Y-46313096D01*
X150469905Y-46340033D01*
X150523780Y-46393908D01*
X150577654Y-46501658D01*
X150577654Y-47148155D01*
X150927841Y-46797969D01*
X150550717Y-46043722D02*
X150927841Y-45666598D01*
X151251089Y-46474720D01*
X149257722Y-49920592D02*
X149176910Y-49947529D01*
X149096097Y-50028341D01*
X149042223Y-50136091D01*
X149042223Y-50243841D01*
X149069160Y-50324653D01*
X149149972Y-50459340D01*
X149230784Y-50540152D01*
X149365471Y-50620964D01*
X149446284Y-50647902D01*
X149554033Y-50647902D01*
X149661783Y-50594027D01*
X149715658Y-50540152D01*
X149769532Y-50432402D01*
X149769532Y-50378528D01*
X149580971Y-50189966D01*
X149473221Y-50297715D01*
X150065844Y-50189966D02*
X149500158Y-49624280D01*
X149715658Y-49408781D01*
X149796470Y-49381844D01*
X149850345Y-49381844D01*
X149931157Y-49408781D01*
X150011969Y-49489593D01*
X150038906Y-49570406D01*
X150038906Y-49624280D01*
X150011969Y-49705093D01*
X149796470Y-49920592D01*
X150092781Y-49139407D02*
X150092781Y-49085532D01*
X150119719Y-49004720D01*
X150254406Y-48870033D01*
X150335218Y-48843096D01*
X150389093Y-48843096D01*
X150469905Y-48870033D01*
X150523780Y-48923908D01*
X150577654Y-49031658D01*
X150577654Y-49678155D01*
X150927841Y-49327969D01*
X150847028Y-48277410D02*
X150739279Y-48385160D01*
X150712341Y-48465972D01*
X150712341Y-48519847D01*
X150739279Y-48654534D01*
X150820091Y-48789221D01*
X151035590Y-49004720D01*
X151116402Y-49031658D01*
X151170277Y-49031658D01*
X151251089Y-49004720D01*
X151358839Y-48896971D01*
X151385776Y-48816158D01*
X151385776Y-48762284D01*
X151358839Y-48681471D01*
X151224152Y-48546784D01*
X151143340Y-48519847D01*
X151089465Y-48519847D01*
X151008653Y-48546784D01*
X150900903Y-48654534D01*
X150873966Y-48735346D01*
X150873966Y-48789221D01*
X150900903Y-48870033D01*
X149998375Y-52743435D02*
X149540439Y-52662622D01*
X149675126Y-53066683D02*
X149109441Y-52500998D01*
X149324940Y-52285499D01*
X149405752Y-52258561D01*
X149459627Y-52258561D01*
X149540439Y-52285499D01*
X149621251Y-52366311D01*
X149648189Y-52447123D01*
X149648189Y-52500998D01*
X149621251Y-52581810D01*
X149405752Y-52797309D01*
X149675126Y-51935312D02*
X150133062Y-52393248D01*
X150213874Y-52420186D01*
X150267749Y-52420186D01*
X150348561Y-52393248D01*
X150456311Y-52285499D01*
X150483248Y-52204687D01*
X150483248Y-52150812D01*
X150456311Y-52069999D01*
X149998375Y-51612064D01*
X150833435Y-51908375D02*
X150267749Y-51342690D01*
X151156683Y-51585126D01*
X150590998Y-51019441D01*
X149257722Y-55000592D02*
X149176910Y-55027529D01*
X149096097Y-55108341D01*
X149042223Y-55216091D01*
X149042223Y-55323841D01*
X149069160Y-55404653D01*
X149149972Y-55539340D01*
X149230784Y-55620152D01*
X149365471Y-55700964D01*
X149446284Y-55727902D01*
X149554033Y-55727902D01*
X149661783Y-55674027D01*
X149715658Y-55620152D01*
X149769532Y-55512402D01*
X149769532Y-55458528D01*
X149580971Y-55269966D01*
X149473221Y-55377715D01*
X150065844Y-55269966D02*
X149500158Y-54704280D01*
X149715658Y-54488781D01*
X149796470Y-54461844D01*
X149850345Y-54461844D01*
X149931157Y-54488781D01*
X150011969Y-54569593D01*
X150038906Y-54650406D01*
X150038906Y-54704280D01*
X150011969Y-54785093D01*
X149796470Y-55000592D01*
X150092781Y-54219407D02*
X150092781Y-54165532D01*
X150119719Y-54084720D01*
X150254406Y-53950033D01*
X150335218Y-53923096D01*
X150389093Y-53923096D01*
X150469905Y-53950033D01*
X150523780Y-54003908D01*
X150577654Y-54111658D01*
X150577654Y-54758155D01*
X150927841Y-54407969D01*
X150631529Y-53680659D02*
X150631529Y-53626784D01*
X150658467Y-53545972D01*
X150793154Y-53411285D01*
X150873966Y-53384348D01*
X150927841Y-53384348D01*
X151008653Y-53411285D01*
X151062528Y-53465160D01*
X151116402Y-53572910D01*
X151116402Y-54219407D01*
X151466589Y-53869221D01*
X149257722Y-60090592D02*
X149176910Y-60117529D01*
X149096097Y-60198341D01*
X149042223Y-60306091D01*
X149042223Y-60413841D01*
X149069160Y-60494653D01*
X149149972Y-60629340D01*
X149230784Y-60710152D01*
X149365471Y-60790964D01*
X149446284Y-60817902D01*
X149554033Y-60817902D01*
X149661783Y-60764027D01*
X149715658Y-60710152D01*
X149769532Y-60602402D01*
X149769532Y-60548528D01*
X149580971Y-60359966D01*
X149473221Y-60467715D01*
X150065844Y-60359966D02*
X149500158Y-59794280D01*
X149715658Y-59578781D01*
X149796470Y-59551844D01*
X149850345Y-59551844D01*
X149931157Y-59578781D01*
X150011969Y-59659593D01*
X150038906Y-59740406D01*
X150038906Y-59794280D01*
X150011969Y-59875093D01*
X149796470Y-60090592D01*
X150092781Y-59309407D02*
X150092781Y-59255532D01*
X150119719Y-59174720D01*
X150254406Y-59040033D01*
X150335218Y-59013096D01*
X150389093Y-59013096D01*
X150469905Y-59040033D01*
X150523780Y-59093908D01*
X150577654Y-59201658D01*
X150577654Y-59848155D01*
X150927841Y-59497969D01*
X151466589Y-58959221D02*
X151143340Y-59282470D01*
X151304964Y-59120845D02*
X150739279Y-58555160D01*
X150766216Y-58689847D01*
X150766216Y-58797597D01*
X150739279Y-58878409D01*
X149257722Y-62620592D02*
X149176910Y-62647529D01*
X149096097Y-62728341D01*
X149042223Y-62836091D01*
X149042223Y-62943841D01*
X149069160Y-63024653D01*
X149149972Y-63159340D01*
X149230784Y-63240152D01*
X149365471Y-63320964D01*
X149446284Y-63347902D01*
X149554033Y-63347902D01*
X149661783Y-63294027D01*
X149715658Y-63240152D01*
X149769532Y-63132402D01*
X149769532Y-63078528D01*
X149580971Y-62889966D01*
X149473221Y-62997715D01*
X150065844Y-62889966D02*
X149500158Y-62324280D01*
X149715658Y-62108781D01*
X149796470Y-62081844D01*
X149850345Y-62081844D01*
X149931157Y-62108781D01*
X150011969Y-62189593D01*
X150038906Y-62270406D01*
X150038906Y-62324280D01*
X150011969Y-62405093D01*
X149796470Y-62620592D01*
X150092781Y-61839407D02*
X150092781Y-61785532D01*
X150119719Y-61704720D01*
X150254406Y-61570033D01*
X150335218Y-61543096D01*
X150389093Y-61543096D01*
X150469905Y-61570033D01*
X150523780Y-61623908D01*
X150577654Y-61731658D01*
X150577654Y-62378155D01*
X150927841Y-62027969D01*
X150712341Y-61112097D02*
X150766216Y-61058223D01*
X150847028Y-61031285D01*
X150900903Y-61031285D01*
X150981715Y-61058223D01*
X151116402Y-61139035D01*
X151251089Y-61273722D01*
X151331902Y-61408409D01*
X151358839Y-61489221D01*
X151358839Y-61543096D01*
X151331902Y-61623908D01*
X151278027Y-61677783D01*
X151197215Y-61704720D01*
X151143340Y-61704720D01*
X151062528Y-61677783D01*
X150927841Y-61596971D01*
X150793154Y-61462284D01*
X150712341Y-61327597D01*
X150685404Y-61246784D01*
X150685404Y-61192910D01*
X150712341Y-61112097D01*
X149257722Y-65160592D02*
X149176910Y-65187529D01*
X149096097Y-65268341D01*
X149042223Y-65376091D01*
X149042223Y-65483841D01*
X149069160Y-65564653D01*
X149149972Y-65699340D01*
X149230784Y-65780152D01*
X149365471Y-65860964D01*
X149446284Y-65887902D01*
X149554033Y-65887902D01*
X149661783Y-65834027D01*
X149715658Y-65780152D01*
X149769532Y-65672402D01*
X149769532Y-65618528D01*
X149580971Y-65429966D01*
X149473221Y-65537715D01*
X150065844Y-65429966D02*
X149500158Y-64864280D01*
X149715658Y-64648781D01*
X149796470Y-64621844D01*
X149850345Y-64621844D01*
X149931157Y-64648781D01*
X150011969Y-64729593D01*
X150038906Y-64810406D01*
X150038906Y-64864280D01*
X150011969Y-64945093D01*
X149796470Y-65160592D01*
X150927841Y-64567969D02*
X150604592Y-64891218D01*
X150766216Y-64729593D02*
X150200531Y-64163908D01*
X150227468Y-64298595D01*
X150227468Y-64406345D01*
X150200531Y-64487157D01*
X151197215Y-64298595D02*
X151304964Y-64190845D01*
X151331902Y-64110033D01*
X151331902Y-64056158D01*
X151304964Y-63921471D01*
X151224152Y-63786784D01*
X151008653Y-63571285D01*
X150927841Y-63544348D01*
X150873966Y-63544348D01*
X150793154Y-63571285D01*
X150685404Y-63679035D01*
X150658467Y-63759847D01*
X150658467Y-63813722D01*
X150685404Y-63894534D01*
X150820091Y-64029221D01*
X150900903Y-64056158D01*
X150954778Y-64056158D01*
X151035590Y-64029221D01*
X151143340Y-63921471D01*
X151170277Y-63840659D01*
X151170277Y-63786784D01*
X151143340Y-63705972D01*
X149257722Y-67700592D02*
X149176910Y-67727529D01*
X149096097Y-67808341D01*
X149042223Y-67916091D01*
X149042223Y-68023841D01*
X149069160Y-68104653D01*
X149149972Y-68239340D01*
X149230784Y-68320152D01*
X149365471Y-68400964D01*
X149446284Y-68427902D01*
X149554033Y-68427902D01*
X149661783Y-68374027D01*
X149715658Y-68320152D01*
X149769532Y-68212402D01*
X149769532Y-68158528D01*
X149580971Y-67969966D01*
X149473221Y-68077715D01*
X150065844Y-67969966D02*
X149500158Y-67404280D01*
X149715658Y-67188781D01*
X149796470Y-67161844D01*
X149850345Y-67161844D01*
X149931157Y-67188781D01*
X150011969Y-67269593D01*
X150038906Y-67350406D01*
X150038906Y-67404280D01*
X150011969Y-67485093D01*
X149796470Y-67700592D01*
X150927841Y-67107969D02*
X150604592Y-67431218D01*
X150766216Y-67269593D02*
X150200531Y-66703908D01*
X150227468Y-66838595D01*
X150227468Y-66946345D01*
X150200531Y-67027157D01*
X150927841Y-66461471D02*
X150847028Y-66488409D01*
X150793154Y-66488409D01*
X150712341Y-66461471D01*
X150685404Y-66434534D01*
X150658467Y-66353722D01*
X150658467Y-66299847D01*
X150685404Y-66219035D01*
X150793154Y-66111285D01*
X150873966Y-66084348D01*
X150927841Y-66084348D01*
X151008653Y-66111285D01*
X151035590Y-66138223D01*
X151062528Y-66219035D01*
X151062528Y-66272910D01*
X151035590Y-66353722D01*
X150927841Y-66461471D01*
X150900903Y-66542284D01*
X150900903Y-66596158D01*
X150927841Y-66676971D01*
X151035590Y-66784720D01*
X151116402Y-66811658D01*
X151170277Y-66811658D01*
X151251089Y-66784720D01*
X151358839Y-66676971D01*
X151385776Y-66596158D01*
X151385776Y-66542284D01*
X151358839Y-66461471D01*
X151251089Y-66353722D01*
X151170277Y-66326784D01*
X151116402Y-66326784D01*
X151035590Y-66353722D01*
X149257722Y-72780592D02*
X149176910Y-72807529D01*
X149096097Y-72888341D01*
X149042223Y-72996091D01*
X149042223Y-73103841D01*
X149069160Y-73184653D01*
X149149972Y-73319340D01*
X149230784Y-73400152D01*
X149365471Y-73480964D01*
X149446284Y-73507902D01*
X149554033Y-73507902D01*
X149661783Y-73454027D01*
X149715658Y-73400152D01*
X149769532Y-73292402D01*
X149769532Y-73238528D01*
X149580971Y-73049966D01*
X149473221Y-73157715D01*
X150065844Y-73049966D02*
X149500158Y-72484280D01*
X149715658Y-72268781D01*
X149796470Y-72241844D01*
X149850345Y-72241844D01*
X149931157Y-72268781D01*
X150011969Y-72349593D01*
X150038906Y-72430406D01*
X150038906Y-72484280D01*
X150011969Y-72565093D01*
X149796470Y-72780592D01*
X150927841Y-72187969D02*
X150604592Y-72511218D01*
X150766216Y-72349593D02*
X150200531Y-71783908D01*
X150227468Y-71918595D01*
X150227468Y-72026345D01*
X150200531Y-72107157D01*
X150550717Y-71433722D02*
X150927841Y-71056598D01*
X151251089Y-71864720D01*
X149257722Y-75320592D02*
X149176910Y-75347529D01*
X149096097Y-75428341D01*
X149042223Y-75536091D01*
X149042223Y-75643841D01*
X149069160Y-75724653D01*
X149149972Y-75859340D01*
X149230784Y-75940152D01*
X149365471Y-76020964D01*
X149446284Y-76047902D01*
X149554033Y-76047902D01*
X149661783Y-75994027D01*
X149715658Y-75940152D01*
X149769532Y-75832402D01*
X149769532Y-75778528D01*
X149580971Y-75589966D01*
X149473221Y-75697715D01*
X150065844Y-75589966D02*
X149500158Y-75024280D01*
X149715658Y-74808781D01*
X149796470Y-74781844D01*
X149850345Y-74781844D01*
X149931157Y-74808781D01*
X150011969Y-74889593D01*
X150038906Y-74970406D01*
X150038906Y-75024280D01*
X150011969Y-75105093D01*
X149796470Y-75320592D01*
X150927841Y-74727969D02*
X150604592Y-75051218D01*
X150766216Y-74889593D02*
X150200531Y-74323908D01*
X150227468Y-74458595D01*
X150227468Y-74566345D01*
X150200531Y-74647157D01*
X150847028Y-73677410D02*
X150739279Y-73785160D01*
X150712341Y-73865972D01*
X150712341Y-73919847D01*
X150739279Y-74054534D01*
X150820091Y-74189221D01*
X151035590Y-74404720D01*
X151116402Y-74431658D01*
X151170277Y-74431658D01*
X151251089Y-74404720D01*
X151358839Y-74296971D01*
X151385776Y-74216158D01*
X151385776Y-74162284D01*
X151358839Y-74081471D01*
X151224152Y-73946784D01*
X151143340Y-73919847D01*
X151089465Y-73919847D01*
X151008653Y-73946784D01*
X150900903Y-74054534D01*
X150873966Y-74135346D01*
X150873966Y-74189221D01*
X150900903Y-74270033D01*
X123149722Y-75320592D02*
X123068910Y-75347529D01*
X122988097Y-75428341D01*
X122934223Y-75536091D01*
X122934223Y-75643841D01*
X122961160Y-75724653D01*
X123041972Y-75859340D01*
X123122784Y-75940152D01*
X123257471Y-76020964D01*
X123338284Y-76047902D01*
X123446033Y-76047902D01*
X123553783Y-75994027D01*
X123607658Y-75940152D01*
X123661532Y-75832402D01*
X123661532Y-75778528D01*
X123472971Y-75589966D01*
X123365221Y-75697715D01*
X123957844Y-75589966D02*
X123392158Y-75024280D01*
X123607658Y-74808781D01*
X123688470Y-74781844D01*
X123742345Y-74781844D01*
X123823157Y-74808781D01*
X123903969Y-74889593D01*
X123930906Y-74970406D01*
X123930906Y-75024280D01*
X123903969Y-75105093D01*
X123688470Y-75320592D01*
X124819841Y-74727969D02*
X124496592Y-75051218D01*
X124658216Y-74889593D02*
X124092531Y-74323908D01*
X124119468Y-74458595D01*
X124119468Y-74566345D01*
X124092531Y-74647157D01*
X124765966Y-73650473D02*
X124496592Y-73919847D01*
X124739028Y-74216158D01*
X124739028Y-74162284D01*
X124765966Y-74081471D01*
X124900653Y-73946784D01*
X124981465Y-73919847D01*
X125035340Y-73919847D01*
X125116152Y-73946784D01*
X125250839Y-74081471D01*
X125277776Y-74162284D01*
X125277776Y-74216158D01*
X125250839Y-74296971D01*
X125116152Y-74431658D01*
X125035340Y-74458595D01*
X124981465Y-74458595D01*
X123103722Y-72780592D02*
X123022910Y-72807529D01*
X122942097Y-72888341D01*
X122888223Y-72996091D01*
X122888223Y-73103841D01*
X122915160Y-73184653D01*
X122995972Y-73319340D01*
X123076784Y-73400152D01*
X123211471Y-73480964D01*
X123292284Y-73507902D01*
X123400033Y-73507902D01*
X123507783Y-73454027D01*
X123561658Y-73400152D01*
X123615532Y-73292402D01*
X123615532Y-73238528D01*
X123426971Y-73049966D01*
X123319221Y-73157715D01*
X123911844Y-73049966D02*
X123346158Y-72484280D01*
X123561658Y-72268781D01*
X123642470Y-72241844D01*
X123696345Y-72241844D01*
X123777157Y-72268781D01*
X123857969Y-72349593D01*
X123884906Y-72430406D01*
X123884906Y-72484280D01*
X123857969Y-72565093D01*
X123642470Y-72780592D01*
X124773841Y-72187969D02*
X124450592Y-72511218D01*
X124612216Y-72349593D02*
X124046531Y-71783908D01*
X124073468Y-71918595D01*
X124073468Y-72026345D01*
X124046531Y-72107157D01*
X124881590Y-71325972D02*
X125258714Y-71703096D01*
X124531404Y-71245160D02*
X124800778Y-71783908D01*
X125150964Y-71433722D01*
X123149722Y-67700592D02*
X123068910Y-67727529D01*
X122988097Y-67808341D01*
X122934223Y-67916091D01*
X122934223Y-68023841D01*
X122961160Y-68104653D01*
X123041972Y-68239340D01*
X123122784Y-68320152D01*
X123257471Y-68400964D01*
X123338284Y-68427902D01*
X123446033Y-68427902D01*
X123553783Y-68374027D01*
X123607658Y-68320152D01*
X123661532Y-68212402D01*
X123661532Y-68158528D01*
X123472971Y-67969966D01*
X123365221Y-68077715D01*
X123957844Y-67969966D02*
X123392158Y-67404280D01*
X123607658Y-67188781D01*
X123688470Y-67161844D01*
X123742345Y-67161844D01*
X123823157Y-67188781D01*
X123903969Y-67269593D01*
X123930906Y-67350406D01*
X123930906Y-67404280D01*
X123903969Y-67485093D01*
X123688470Y-67700592D01*
X124819841Y-67107969D02*
X124496592Y-67431218D01*
X124658216Y-67269593D02*
X124092531Y-66703908D01*
X124119468Y-66838595D01*
X124119468Y-66946345D01*
X124092531Y-67027157D01*
X124442717Y-66353722D02*
X124792903Y-66003536D01*
X124819841Y-66407597D01*
X124900653Y-66326784D01*
X124981465Y-66299847D01*
X125035340Y-66299847D01*
X125116152Y-66326784D01*
X125250839Y-66461471D01*
X125277776Y-66542284D01*
X125277776Y-66596158D01*
X125250839Y-66676971D01*
X125089215Y-66838595D01*
X125008402Y-66865532D01*
X124954528Y-66865532D01*
X123003722Y-65160592D02*
X122922910Y-65187529D01*
X122842097Y-65268341D01*
X122788223Y-65376091D01*
X122788223Y-65483841D01*
X122815160Y-65564653D01*
X122895972Y-65699340D01*
X122976784Y-65780152D01*
X123111471Y-65860964D01*
X123192284Y-65887902D01*
X123300033Y-65887902D01*
X123407783Y-65834027D01*
X123461658Y-65780152D01*
X123515532Y-65672402D01*
X123515532Y-65618528D01*
X123326971Y-65429966D01*
X123219221Y-65537715D01*
X123811844Y-65429966D02*
X123246158Y-64864280D01*
X123461658Y-64648781D01*
X123542470Y-64621844D01*
X123596345Y-64621844D01*
X123677157Y-64648781D01*
X123757969Y-64729593D01*
X123784906Y-64810406D01*
X123784906Y-64864280D01*
X123757969Y-64945093D01*
X123542470Y-65160592D01*
X124673841Y-64567969D02*
X124350592Y-64891218D01*
X124512216Y-64729593D02*
X123946531Y-64163908D01*
X123973468Y-64298595D01*
X123973468Y-64406345D01*
X123946531Y-64487157D01*
X124377529Y-63840659D02*
X124377529Y-63786784D01*
X124404467Y-63705972D01*
X124539154Y-63571285D01*
X124619966Y-63544348D01*
X124673841Y-63544348D01*
X124754653Y-63571285D01*
X124808528Y-63625160D01*
X124862402Y-63732910D01*
X124862402Y-64379407D01*
X125212589Y-64029221D01*
X123003722Y-62620592D02*
X122922910Y-62647529D01*
X122842097Y-62728341D01*
X122788223Y-62836091D01*
X122788223Y-62943841D01*
X122815160Y-63024653D01*
X122895972Y-63159340D01*
X122976784Y-63240152D01*
X123111471Y-63320964D01*
X123192284Y-63347902D01*
X123300033Y-63347902D01*
X123407783Y-63294027D01*
X123461658Y-63240152D01*
X123515532Y-63132402D01*
X123515532Y-63078528D01*
X123326971Y-62889966D01*
X123219221Y-62997715D01*
X123811844Y-62889966D02*
X123246158Y-62324280D01*
X123461658Y-62108781D01*
X123542470Y-62081844D01*
X123596345Y-62081844D01*
X123677157Y-62108781D01*
X123757969Y-62189593D01*
X123784906Y-62270406D01*
X123784906Y-62324280D01*
X123757969Y-62405093D01*
X123542470Y-62620592D01*
X124673841Y-62027969D02*
X124350592Y-62351218D01*
X124512216Y-62189593D02*
X123946531Y-61623908D01*
X123973468Y-61758595D01*
X123973468Y-61866345D01*
X123946531Y-61947157D01*
X125212589Y-61489221D02*
X124889340Y-61812470D01*
X125050964Y-61650845D02*
X124485279Y-61085160D01*
X124512216Y-61219847D01*
X124512216Y-61327597D01*
X124485279Y-61408409D01*
X123149722Y-60080592D02*
X123068910Y-60107529D01*
X122988097Y-60188341D01*
X122934223Y-60296091D01*
X122934223Y-60403841D01*
X122961160Y-60484653D01*
X123041972Y-60619340D01*
X123122784Y-60700152D01*
X123257471Y-60780964D01*
X123338284Y-60807902D01*
X123446033Y-60807902D01*
X123553783Y-60754027D01*
X123607658Y-60700152D01*
X123661532Y-60592402D01*
X123661532Y-60538528D01*
X123472971Y-60349966D01*
X123365221Y-60457715D01*
X123957844Y-60349966D02*
X123392158Y-59784280D01*
X123607658Y-59568781D01*
X123688470Y-59541844D01*
X123742345Y-59541844D01*
X123823157Y-59568781D01*
X123903969Y-59649593D01*
X123930906Y-59730406D01*
X123930906Y-59784280D01*
X123903969Y-59865093D01*
X123688470Y-60080592D01*
X124819841Y-59487969D02*
X124496592Y-59811218D01*
X124658216Y-59649593D02*
X124092531Y-59083908D01*
X124119468Y-59218595D01*
X124119468Y-59326345D01*
X124092531Y-59407157D01*
X124604341Y-58572097D02*
X124658216Y-58518223D01*
X124739028Y-58491285D01*
X124792903Y-58491285D01*
X124873715Y-58518223D01*
X125008402Y-58599035D01*
X125143089Y-58733722D01*
X125223902Y-58868409D01*
X125250839Y-58949221D01*
X125250839Y-59003096D01*
X125223902Y-59083908D01*
X125170027Y-59137783D01*
X125089215Y-59164720D01*
X125035340Y-59164720D01*
X124954528Y-59137783D01*
X124819841Y-59056971D01*
X124685154Y-58922284D01*
X124604341Y-58787597D01*
X124577404Y-58706784D01*
X124577404Y-58652910D01*
X124604341Y-58572097D01*
X123673096Y-54731218D02*
X123592284Y-54758155D01*
X123511471Y-54838967D01*
X123457597Y-54946717D01*
X123457597Y-55054467D01*
X123484534Y-55135279D01*
X123565346Y-55269966D01*
X123646158Y-55350778D01*
X123780845Y-55431590D01*
X123861658Y-55458528D01*
X123969407Y-55458528D01*
X124077157Y-55404653D01*
X124131032Y-55350778D01*
X124184906Y-55243028D01*
X124184906Y-55189154D01*
X123996345Y-55000592D01*
X123888595Y-55108341D01*
X124481218Y-55000592D02*
X123915532Y-54434906D01*
X124131032Y-54219407D01*
X124211844Y-54192470D01*
X124265719Y-54192470D01*
X124346531Y-54219407D01*
X124427343Y-54300219D01*
X124454280Y-54381032D01*
X124454280Y-54434906D01*
X124427343Y-54515719D01*
X124211844Y-54731218D01*
X125073841Y-54407969D02*
X125181590Y-54300219D01*
X125208528Y-54219407D01*
X125208528Y-54165532D01*
X125181590Y-54030845D01*
X125100778Y-53896158D01*
X124885279Y-53680659D01*
X124804467Y-53653722D01*
X124750592Y-53653722D01*
X124669780Y-53680659D01*
X124562030Y-53788409D01*
X124535093Y-53869221D01*
X124535093Y-53923096D01*
X124562030Y-54003908D01*
X124696717Y-54138595D01*
X124777529Y-54165532D01*
X124831404Y-54165532D01*
X124912216Y-54138595D01*
X125019966Y-54030845D01*
X125046903Y-53950033D01*
X125046903Y-53896158D01*
X125019966Y-53815346D01*
X123673096Y-52191218D02*
X123592284Y-52218155D01*
X123511471Y-52298967D01*
X123457597Y-52406717D01*
X123457597Y-52514467D01*
X123484534Y-52595279D01*
X123565346Y-52729966D01*
X123646158Y-52810778D01*
X123780845Y-52891590D01*
X123861658Y-52918528D01*
X123969407Y-52918528D01*
X124077157Y-52864653D01*
X124131032Y-52810778D01*
X124184906Y-52703028D01*
X124184906Y-52649154D01*
X123996345Y-52460592D01*
X123888595Y-52568341D01*
X124481218Y-52460592D02*
X123915532Y-51894906D01*
X124131032Y-51679407D01*
X124211844Y-51652470D01*
X124265719Y-51652470D01*
X124346531Y-51679407D01*
X124427343Y-51760219D01*
X124454280Y-51841032D01*
X124454280Y-51894906D01*
X124427343Y-51975719D01*
X124211844Y-52191218D01*
X124804467Y-51490845D02*
X124723654Y-51517783D01*
X124669780Y-51517783D01*
X124588967Y-51490845D01*
X124562030Y-51463908D01*
X124535093Y-51383096D01*
X124535093Y-51329221D01*
X124562030Y-51248409D01*
X124669780Y-51140659D01*
X124750592Y-51113722D01*
X124804467Y-51113722D01*
X124885279Y-51140659D01*
X124912216Y-51167597D01*
X124939154Y-51248409D01*
X124939154Y-51302284D01*
X124912216Y-51383096D01*
X124804467Y-51490845D01*
X124777529Y-51571658D01*
X124777529Y-51625532D01*
X124804467Y-51706345D01*
X124912216Y-51814094D01*
X124993028Y-51841032D01*
X125046903Y-51841032D01*
X125127715Y-51814094D01*
X125235465Y-51706345D01*
X125262402Y-51625532D01*
X125262402Y-51571658D01*
X125235465Y-51490845D01*
X125127715Y-51383096D01*
X125046903Y-51356158D01*
X124993028Y-51356158D01*
X124912216Y-51383096D01*
X123773096Y-49621218D02*
X123692284Y-49648155D01*
X123611471Y-49728967D01*
X123557597Y-49836717D01*
X123557597Y-49944467D01*
X123584534Y-50025279D01*
X123665346Y-50159966D01*
X123746158Y-50240778D01*
X123880845Y-50321590D01*
X123961658Y-50348528D01*
X124069407Y-50348528D01*
X124177157Y-50294653D01*
X124231032Y-50240778D01*
X124284906Y-50133028D01*
X124284906Y-50079154D01*
X124096345Y-49890592D01*
X123988595Y-49998341D01*
X124581218Y-49890592D02*
X124015532Y-49324906D01*
X124231032Y-49109407D01*
X124311844Y-49082470D01*
X124365719Y-49082470D01*
X124446531Y-49109407D01*
X124527343Y-49190219D01*
X124554280Y-49271032D01*
X124554280Y-49324906D01*
X124527343Y-49405719D01*
X124311844Y-49621218D01*
X124527343Y-48813096D02*
X124904467Y-48435972D01*
X125227715Y-49244094D01*
X123673096Y-47111218D02*
X123592284Y-47138155D01*
X123511471Y-47218967D01*
X123457597Y-47326717D01*
X123457597Y-47434467D01*
X123484534Y-47515279D01*
X123565346Y-47649966D01*
X123646158Y-47730778D01*
X123780845Y-47811590D01*
X123861658Y-47838528D01*
X123969407Y-47838528D01*
X124077157Y-47784653D01*
X124131032Y-47730778D01*
X124184906Y-47623028D01*
X124184906Y-47569154D01*
X123996345Y-47380592D01*
X123888595Y-47488341D01*
X124481218Y-47380592D02*
X123915532Y-46814906D01*
X124131032Y-46599407D01*
X124211844Y-46572470D01*
X124265719Y-46572470D01*
X124346531Y-46599407D01*
X124427343Y-46680219D01*
X124454280Y-46761032D01*
X124454280Y-46814906D01*
X124427343Y-46895719D01*
X124211844Y-47111218D01*
X124723654Y-46006784D02*
X124615905Y-46114534D01*
X124588967Y-46195346D01*
X124588967Y-46249221D01*
X124615905Y-46383908D01*
X124696717Y-46518595D01*
X124912216Y-46734094D01*
X124993028Y-46761032D01*
X125046903Y-46761032D01*
X125127715Y-46734094D01*
X125235465Y-46626345D01*
X125262402Y-46545532D01*
X125262402Y-46491658D01*
X125235465Y-46410845D01*
X125100778Y-46276158D01*
X125019966Y-46249221D01*
X124966091Y-46249221D01*
X124885279Y-46276158D01*
X124777529Y-46383908D01*
X124750592Y-46464720D01*
X124750592Y-46518595D01*
X124777529Y-46599407D01*
X123673096Y-42031218D02*
X123592284Y-42058155D01*
X123511471Y-42138967D01*
X123457597Y-42246717D01*
X123457597Y-42354467D01*
X123484534Y-42435279D01*
X123565346Y-42569966D01*
X123646158Y-42650778D01*
X123780845Y-42731590D01*
X123861658Y-42758528D01*
X123969407Y-42758528D01*
X124077157Y-42704653D01*
X124131032Y-42650778D01*
X124184906Y-42543028D01*
X124184906Y-42489154D01*
X123996345Y-42300592D01*
X123888595Y-42408341D01*
X124481218Y-42300592D02*
X123915532Y-41734906D01*
X124131032Y-41519407D01*
X124211844Y-41492470D01*
X124265719Y-41492470D01*
X124346531Y-41519407D01*
X124427343Y-41600219D01*
X124454280Y-41681032D01*
X124454280Y-41734906D01*
X124427343Y-41815719D01*
X124211844Y-42031218D01*
X124750592Y-40899847D02*
X124481218Y-41169221D01*
X124723654Y-41465532D01*
X124723654Y-41411658D01*
X124750592Y-41330845D01*
X124885279Y-41196158D01*
X124966091Y-41169221D01*
X125019966Y-41169221D01*
X125100778Y-41196158D01*
X125235465Y-41330845D01*
X125262402Y-41411658D01*
X125262402Y-41465532D01*
X125235465Y-41546345D01*
X125100778Y-41681032D01*
X125019966Y-41707969D01*
X124966091Y-41707969D01*
X123673096Y-39491218D02*
X123592284Y-39518155D01*
X123511471Y-39598967D01*
X123457597Y-39706717D01*
X123457597Y-39814467D01*
X123484534Y-39895279D01*
X123565346Y-40029966D01*
X123646158Y-40110778D01*
X123780845Y-40191590D01*
X123861658Y-40218528D01*
X123969407Y-40218528D01*
X124077157Y-40164653D01*
X124131032Y-40110778D01*
X124184906Y-40003028D01*
X124184906Y-39949154D01*
X123996345Y-39760592D01*
X123888595Y-39868341D01*
X124481218Y-39760592D02*
X123915532Y-39194906D01*
X124131032Y-38979407D01*
X124211844Y-38952470D01*
X124265719Y-38952470D01*
X124346531Y-38979407D01*
X124427343Y-39060219D01*
X124454280Y-39141032D01*
X124454280Y-39194906D01*
X124427343Y-39275719D01*
X124211844Y-39491218D01*
X124912216Y-38575346D02*
X125289340Y-38952470D01*
X124562030Y-38494534D02*
X124831404Y-39033282D01*
X125181590Y-38683096D01*
X123673096Y-36951218D02*
X123592284Y-36978155D01*
X123511471Y-37058967D01*
X123457597Y-37166717D01*
X123457597Y-37274467D01*
X123484534Y-37355279D01*
X123565346Y-37489966D01*
X123646158Y-37570778D01*
X123780845Y-37651590D01*
X123861658Y-37678528D01*
X123969407Y-37678528D01*
X124077157Y-37624653D01*
X124131032Y-37570778D01*
X124184906Y-37463028D01*
X124184906Y-37409154D01*
X123996345Y-37220592D01*
X123888595Y-37328341D01*
X124481218Y-37220592D02*
X123915532Y-36654906D01*
X124131032Y-36439407D01*
X124211844Y-36412470D01*
X124265719Y-36412470D01*
X124346531Y-36439407D01*
X124427343Y-36520219D01*
X124454280Y-36601032D01*
X124454280Y-36654906D01*
X124427343Y-36735719D01*
X124211844Y-36951218D01*
X124427343Y-36143096D02*
X124777529Y-35792910D01*
X124804467Y-36196971D01*
X124885279Y-36116158D01*
X124966091Y-36089221D01*
X125019966Y-36089221D01*
X125100778Y-36116158D01*
X125235465Y-36250845D01*
X125262402Y-36331658D01*
X125262402Y-36385532D01*
X125235465Y-36466345D01*
X125073841Y-36627969D01*
X124993028Y-36654906D01*
X124939154Y-36654906D01*
X123673096Y-26791218D02*
X123592284Y-26818155D01*
X123511471Y-26898967D01*
X123457597Y-27006717D01*
X123457597Y-27114467D01*
X123484534Y-27195279D01*
X123565346Y-27329966D01*
X123646158Y-27410778D01*
X123780845Y-27491590D01*
X123861658Y-27518528D01*
X123969407Y-27518528D01*
X124077157Y-27464653D01*
X124131032Y-27410778D01*
X124184906Y-27303028D01*
X124184906Y-27249154D01*
X123996345Y-27060592D01*
X123888595Y-27168341D01*
X124481218Y-27060592D02*
X123915532Y-26494906D01*
X124131032Y-26279407D01*
X124211844Y-26252470D01*
X124265719Y-26252470D01*
X124346531Y-26279407D01*
X124427343Y-26360219D01*
X124454280Y-26441032D01*
X124454280Y-26494906D01*
X124427343Y-26575719D01*
X124211844Y-26791218D01*
X124588967Y-25821471D02*
X124642842Y-25767597D01*
X124723654Y-25740659D01*
X124777529Y-25740659D01*
X124858341Y-25767597D01*
X124993028Y-25848409D01*
X125127715Y-25983096D01*
X125208528Y-26117783D01*
X125235465Y-26198595D01*
X125235465Y-26252470D01*
X125208528Y-26333282D01*
X125154653Y-26387157D01*
X125073841Y-26414094D01*
X125019966Y-26414094D01*
X124939154Y-26387157D01*
X124804467Y-26306345D01*
X124669780Y-26171658D01*
X124588967Y-26036971D01*
X124562030Y-25956158D01*
X124562030Y-25902284D01*
X124588967Y-25821471D01*
X123573096Y-34411218D02*
X123492284Y-34438155D01*
X123411471Y-34518967D01*
X123357597Y-34626717D01*
X123357597Y-34734467D01*
X123384534Y-34815279D01*
X123465346Y-34949966D01*
X123546158Y-35030778D01*
X123680845Y-35111590D01*
X123761658Y-35138528D01*
X123869407Y-35138528D01*
X123977157Y-35084653D01*
X124031032Y-35030778D01*
X124084906Y-34923028D01*
X124084906Y-34869154D01*
X123896345Y-34680592D01*
X123788595Y-34788341D01*
X124381218Y-34680592D02*
X123815532Y-34114906D01*
X124031032Y-33899407D01*
X124111844Y-33872470D01*
X124165719Y-33872470D01*
X124246531Y-33899407D01*
X124327343Y-33980219D01*
X124354280Y-34061032D01*
X124354280Y-34114906D01*
X124327343Y-34195719D01*
X124111844Y-34411218D01*
X124408155Y-33630033D02*
X124408155Y-33576158D01*
X124435093Y-33495346D01*
X124569780Y-33360659D01*
X124650592Y-33333722D01*
X124704467Y-33333722D01*
X124785279Y-33360659D01*
X124839154Y-33414534D01*
X124893028Y-33522284D01*
X124893028Y-34168781D01*
X125243215Y-33818595D01*
X123573096Y-29321218D02*
X123492284Y-29348155D01*
X123411471Y-29428967D01*
X123357597Y-29536717D01*
X123357597Y-29644467D01*
X123384534Y-29725279D01*
X123465346Y-29859966D01*
X123546158Y-29940778D01*
X123680845Y-30021590D01*
X123761658Y-30048528D01*
X123869407Y-30048528D01*
X123977157Y-29994653D01*
X124031032Y-29940778D01*
X124084906Y-29833028D01*
X124084906Y-29779154D01*
X123896345Y-29590592D01*
X123788595Y-29698341D01*
X124381218Y-29590592D02*
X123815532Y-29024906D01*
X124031032Y-28809407D01*
X124111844Y-28782470D01*
X124165719Y-28782470D01*
X124246531Y-28809407D01*
X124327343Y-28890219D01*
X124354280Y-28971032D01*
X124354280Y-29024906D01*
X124327343Y-29105719D01*
X124111844Y-29321218D01*
X125243215Y-28728595D02*
X124919966Y-29051844D01*
X125081590Y-28890219D02*
X124515905Y-28324534D01*
X124542842Y-28459221D01*
X124542842Y-28566971D01*
X124515905Y-28647783D01*
%TO.C,VR1*%
X114122333Y-37828333D02*
X115522333Y-37361666D01*
X114122333Y-36895000D01*
X115522333Y-35628333D02*
X114855666Y-36095000D01*
X115522333Y-36428333D02*
X114122333Y-36428333D01*
X114122333Y-35895000D01*
X114189000Y-35761666D01*
X114255666Y-35695000D01*
X114389000Y-35628333D01*
X114589000Y-35628333D01*
X114722333Y-35695000D01*
X114789000Y-35761666D01*
X114855666Y-35895000D01*
X114855666Y-36428333D01*
X115522333Y-34295000D02*
X115522333Y-35095000D01*
X115522333Y-34695000D02*
X114122333Y-34695000D01*
X114322333Y-34828333D01*
X114455666Y-34961666D01*
X114522333Y-35095000D01*
%TO.C,J5*%
X110156666Y-63432380D02*
X110156666Y-64146666D01*
X110109047Y-64289523D01*
X110013809Y-64384761D01*
X109870952Y-64432380D01*
X109775714Y-64432380D01*
X111109047Y-63432380D02*
X110632857Y-63432380D01*
X110585238Y-63908571D01*
X110632857Y-63860952D01*
X110728095Y-63813333D01*
X110966190Y-63813333D01*
X111061428Y-63860952D01*
X111109047Y-63908571D01*
X111156666Y-64003809D01*
X111156666Y-64241904D01*
X111109047Y-64337142D01*
X111061428Y-64384761D01*
X110966190Y-64432380D01*
X110728095Y-64432380D01*
X110632857Y-64384761D01*
X110585238Y-64337142D01*
%TO.C,J3*%
X94813333Y-41629904D02*
X94813333Y-42201333D01*
X94775238Y-42315619D01*
X94699047Y-42391809D01*
X94584761Y-42429904D01*
X94508571Y-42429904D01*
X95118095Y-41629904D02*
X95613333Y-41629904D01*
X95346666Y-41934666D01*
X95460952Y-41934666D01*
X95537142Y-41972761D01*
X95575238Y-42010857D01*
X95613333Y-42087047D01*
X95613333Y-42277523D01*
X95575238Y-42353714D01*
X95537142Y-42391809D01*
X95460952Y-42429904D01*
X95232380Y-42429904D01*
X95156190Y-42391809D01*
X95118095Y-42353714D01*
%TO.C,J2*%
X132012380Y-112363333D02*
X132726666Y-112363333D01*
X132869523Y-112410952D01*
X132964761Y-112506190D01*
X133012380Y-112649047D01*
X133012380Y-112744285D01*
X132107619Y-111934761D02*
X132060000Y-111887142D01*
X132012380Y-111791904D01*
X132012380Y-111553809D01*
X132060000Y-111458571D01*
X132107619Y-111410952D01*
X132202857Y-111363333D01*
X132298095Y-111363333D01*
X132440952Y-111410952D01*
X133012380Y-111982380D01*
X133012380Y-111363333D01*
%TO.C,U2*%
X126207380Y-95526904D02*
X127016904Y-95526904D01*
X127112142Y-95479285D01*
X127159761Y-95431666D01*
X127207380Y-95336428D01*
X127207380Y-95145952D01*
X127159761Y-95050714D01*
X127112142Y-95003095D01*
X127016904Y-94955476D01*
X126207380Y-94955476D01*
X126302619Y-94526904D02*
X126255000Y-94479285D01*
X126207380Y-94384047D01*
X126207380Y-94145952D01*
X126255000Y-94050714D01*
X126302619Y-94003095D01*
X126397857Y-93955476D01*
X126493095Y-93955476D01*
X126635952Y-94003095D01*
X127207380Y-94574523D01*
X127207380Y-93955476D01*
%TD*%
M02*
