%FSLAX45Y45*%
G04 Gerber Fmt 4.5, Leading zero omitted, Abs format (unit mm)*
G04 Created by KiCad (PCBNEW (5.1.10)-1) date 2021-09-21 16:53:33*
%MOMM*%
%LPD*%
G01*
G04 APERTURE LIST*
%TA.AperFunction,Profile*%
%ADD10C,0.500000*%
%TD*%
%ADD11C,0.200000*%
%ADD12C,0.300000*%
G04 APERTURE END LIST*
D10*
X5460000Y-2170000D02*
G75*
G02*
X6005350Y-1649871I534817J-14789D01*
G01*
X5980129Y-16135350D02*
G75*
G02*
X5460000Y-15590000I14789J534817D01*
G01*
X15360000Y-1650000D02*
G75*
G02*
X15880129Y-2195350I-14789J-534817D01*
G01*
X15865350Y-15610000D02*
G75*
G02*
X15320000Y-16130129I-534817J14789D01*
G01*
X5460000Y-15590000D02*
X5460000Y-2170000D01*
X15320000Y-16130129D02*
X5980129Y-16135350D01*
X15880129Y-2195350D02*
X15865350Y-15610000D01*
X6005350Y-1649871D02*
X15360000Y-1650000D01*
D11*
X6760000Y-15480000D02*
X6800000Y-15520000D01*
X6800000Y-15480000D02*
X6760000Y-15520000D01*
X8940000Y-14920000D02*
X8980000Y-14960000D01*
X8980000Y-14920000D02*
X8940000Y-14960000D01*
X9821265Y-11758735D02*
X9861265Y-11798735D01*
X9861265Y-11758735D02*
X9821265Y-11798735D01*
X9900000Y-12560000D02*
X9940000Y-12600000D01*
X9940000Y-12560000D02*
X9900000Y-12600000D01*
X10280000Y-5580000D02*
X10320000Y-5620000D01*
X10320000Y-5580000D02*
X10280000Y-5620000D01*
X10478735Y-5281265D02*
X10518735Y-5321265D01*
X10518735Y-5281265D02*
X10478735Y-5321265D01*
X11480000Y-5980000D02*
X11520000Y-6020000D01*
X11520000Y-5980000D02*
X11480000Y-6020000D01*
X11581265Y-5978735D02*
X11621265Y-6018735D01*
X11621265Y-5978735D02*
X11581265Y-6018735D01*
X11752500Y-6565148D02*
X11792500Y-6605148D01*
X11792500Y-6565148D02*
X11752500Y-6605148D01*
X11760000Y-9360000D02*
X11800000Y-9400000D01*
X11800000Y-9360000D02*
X11760000Y-9400000D01*
X12160000Y-14220000D02*
X12200000Y-14260000D01*
X12200000Y-14220000D02*
X12160000Y-14260000D01*
X14260000Y-8080000D02*
X14300000Y-8120000D01*
X14300000Y-8080000D02*
X14260000Y-8120000D01*
X14307500Y-10187531D02*
X14347500Y-10227531D01*
X14347500Y-10187531D02*
X14307500Y-10227531D01*
X15152500Y-6820000D02*
X15192500Y-6860000D01*
X15192500Y-6820000D02*
X15152500Y-6860000D01*
X15160000Y-9320000D02*
X15200000Y-9360000D01*
X15200000Y-9320000D02*
X15160000Y-9360000D01*
X15230000Y-13250000D02*
X15270000Y-13290000D01*
X15270000Y-13250000D02*
X15230000Y-13290000D01*
X9740000Y-11000000D02*
G75*
G03*
X9740000Y-11000000I-40000J0D01*
G01*
X9740000Y-11200000D02*
G75*
G03*
X9740000Y-11200000I-40000J0D01*
G01*
X9740000Y-11400000D02*
G75*
G03*
X9740000Y-11400000I-40000J0D01*
G01*
X9740000Y-11600000D02*
G75*
G03*
X9740000Y-11600000I-40000J0D01*
G01*
X9940000Y-11000000D02*
G75*
G03*
X9940000Y-11000000I-40000J0D01*
G01*
X9940000Y-11200000D02*
G75*
G03*
X9940000Y-11200000I-40000J0D01*
G01*
X9940000Y-11400000D02*
G75*
G03*
X9940000Y-11400000I-40000J0D01*
G01*
X9940000Y-11600000D02*
G75*
G03*
X9940000Y-11600000I-40000J0D01*
G01*
X10340000Y-4400000D02*
G75*
G03*
X10340000Y-4400000I-40000J0D01*
G01*
X10340000Y-4600000D02*
G75*
G03*
X10340000Y-4600000I-40000J0D01*
G01*
X10340000Y-4800000D02*
G75*
G03*
X10340000Y-4800000I-40000J0D01*
G01*
X10340000Y-5000000D02*
G75*
G03*
X10340000Y-5000000I-40000J0D01*
G01*
X10340000Y-5200000D02*
G75*
G03*
X10340000Y-5200000I-40000J0D01*
G01*
X10340000Y-5400000D02*
G75*
G03*
X10340000Y-5400000I-40000J0D01*
G01*
X10390000Y-13500000D02*
G75*
G03*
X10390000Y-13500000I-40000J0D01*
G01*
X10390000Y-14000000D02*
G75*
G03*
X10390000Y-14000000I-40000J0D01*
G01*
X11740000Y-13740000D02*
G75*
G03*
X11740000Y-13740000I-40000J0D01*
G01*
X12240000Y-13740000D02*
G75*
G03*
X12240000Y-13740000I-40000J0D01*
G01*
X8350000Y-14683000D02*
X8350000Y-14775000D01*
X8304000Y-14729000D02*
X8396000Y-14729000D01*
X8600000Y-14683000D02*
X8600000Y-14775000D01*
X8554000Y-14729000D02*
X8646000Y-14729000D01*
X8800000Y-14683000D02*
X8800000Y-14775000D01*
X8754000Y-14729000D02*
X8846000Y-14729000D01*
X9050000Y-14683000D02*
X9050000Y-14775000D01*
X9004000Y-14729000D02*
X9096000Y-14729000D01*
X12847063Y-3573063D02*
X12847063Y-3500937D01*
X12774937Y-3500937D01*
X12774937Y-3573063D01*
X12847063Y-3573063D01*
X12847063Y-3827063D02*
X12847063Y-3754937D01*
X12774937Y-3754937D01*
X12774937Y-3827063D01*
X12847063Y-3827063D01*
X12847063Y-4081063D02*
X12847063Y-4008937D01*
X12774937Y-4008937D01*
X12774937Y-4081063D01*
X12847063Y-4081063D01*
X12847063Y-4335063D02*
X12847063Y-4262937D01*
X12774937Y-4262937D01*
X12774937Y-4335063D01*
X12847063Y-4335063D01*
X12847063Y-4589063D02*
X12847063Y-4516937D01*
X12774937Y-4516937D01*
X12774937Y-4589063D01*
X12847063Y-4589063D01*
X12847063Y-4843063D02*
X12847063Y-4770937D01*
X12774937Y-4770937D01*
X12774937Y-4843063D01*
X12847063Y-4843063D01*
X12847063Y-5097063D02*
X12847063Y-5024937D01*
X12774937Y-5024937D01*
X12774937Y-5097063D01*
X12847063Y-5097063D01*
X12847063Y-5351063D02*
X12847063Y-5278937D01*
X12774937Y-5278937D01*
X12774937Y-5351063D01*
X12847063Y-5351063D01*
X12847063Y-5605063D02*
X12847063Y-5532937D01*
X12774937Y-5532937D01*
X12774937Y-5605063D01*
X12847063Y-5605063D01*
X12847063Y-5859063D02*
X12847063Y-5786937D01*
X12774937Y-5786937D01*
X12774937Y-5859063D01*
X12847063Y-5859063D01*
X12847063Y-6113063D02*
X12847063Y-6040937D01*
X12774937Y-6040937D01*
X12774937Y-6113063D01*
X12847063Y-6113063D01*
X12847063Y-6367063D02*
X12847063Y-6294937D01*
X12774937Y-6294937D01*
X12774937Y-6367063D01*
X12847063Y-6367063D01*
X12847063Y-6621063D02*
X12847063Y-6548937D01*
X12774937Y-6548937D01*
X12774937Y-6621063D01*
X12847063Y-6621063D01*
X12847063Y-6875063D02*
X12847063Y-6802937D01*
X12774937Y-6802937D01*
X12774937Y-6875063D01*
X12847063Y-6875063D01*
X12847063Y-7129063D02*
X12847063Y-7056937D01*
X12774937Y-7056937D01*
X12774937Y-7129063D01*
X12847063Y-7129063D01*
X12847063Y-7383063D02*
X12847063Y-7310937D01*
X12774937Y-7310937D01*
X12774937Y-7383063D01*
X12847063Y-7383063D01*
X12847063Y-7637063D02*
X12847063Y-7564937D01*
X12774937Y-7564937D01*
X12774937Y-7637063D01*
X12847063Y-7637063D01*
X12847063Y-7891063D02*
X12847063Y-7818937D01*
X12774937Y-7818937D01*
X12774937Y-7891063D01*
X12847063Y-7891063D01*
X12847063Y-8145063D02*
X12847063Y-8072937D01*
X12774937Y-8072937D01*
X12774937Y-8145063D01*
X12847063Y-8145063D01*
X12847063Y-8399063D02*
X12847063Y-8326937D01*
X12774937Y-8326937D01*
X12774937Y-8399063D01*
X12847063Y-8399063D01*
X13482063Y-8376063D02*
X13482063Y-8303937D01*
X13409937Y-8303937D01*
X13409937Y-8376063D01*
X13482063Y-8376063D01*
X13736063Y-8376063D02*
X13736063Y-8303937D01*
X13663937Y-8303937D01*
X13663937Y-8376063D01*
X13736063Y-8376063D01*
X13990063Y-8376063D02*
X13990063Y-8303937D01*
X13917937Y-8303937D01*
X13917937Y-8376063D01*
X13990063Y-8376063D01*
X14625063Y-3573063D02*
X14625063Y-3500937D01*
X14552937Y-3500937D01*
X14552937Y-3573063D01*
X14625063Y-3573063D01*
X14625063Y-3827063D02*
X14625063Y-3754937D01*
X14552937Y-3754937D01*
X14552937Y-3827063D01*
X14625063Y-3827063D01*
X14625063Y-4081063D02*
X14625063Y-4008937D01*
X14552937Y-4008937D01*
X14552937Y-4081063D01*
X14625063Y-4081063D01*
X14625063Y-4335063D02*
X14625063Y-4262937D01*
X14552937Y-4262937D01*
X14552937Y-4335063D01*
X14625063Y-4335063D01*
X14625063Y-4589063D02*
X14625063Y-4516937D01*
X14552937Y-4516937D01*
X14552937Y-4589063D01*
X14625063Y-4589063D01*
X14625063Y-4843063D02*
X14625063Y-4770937D01*
X14552937Y-4770937D01*
X14552937Y-4843063D01*
X14625063Y-4843063D01*
X14625063Y-5097063D02*
X14625063Y-5024937D01*
X14552937Y-5024937D01*
X14552937Y-5097063D01*
X14625063Y-5097063D01*
X14625063Y-5351063D02*
X14625063Y-5278937D01*
X14552937Y-5278937D01*
X14552937Y-5351063D01*
X14625063Y-5351063D01*
X14625063Y-5605063D02*
X14625063Y-5532937D01*
X14552937Y-5532937D01*
X14552937Y-5605063D01*
X14625063Y-5605063D01*
X14625063Y-5859063D02*
X14625063Y-5786937D01*
X14552937Y-5786937D01*
X14552937Y-5859063D01*
X14625063Y-5859063D01*
X14625063Y-6113063D02*
X14625063Y-6040937D01*
X14552937Y-6040937D01*
X14552937Y-6113063D01*
X14625063Y-6113063D01*
X14625063Y-6367063D02*
X14625063Y-6294937D01*
X14552937Y-6294937D01*
X14552937Y-6367063D01*
X14625063Y-6367063D01*
X14625063Y-6621063D02*
X14625063Y-6548937D01*
X14552937Y-6548937D01*
X14552937Y-6621063D01*
X14625063Y-6621063D01*
X14625063Y-6875063D02*
X14625063Y-6802937D01*
X14552937Y-6802937D01*
X14552937Y-6875063D01*
X14625063Y-6875063D01*
X14625063Y-7129063D02*
X14625063Y-7056937D01*
X14552937Y-7056937D01*
X14552937Y-7129063D01*
X14625063Y-7129063D01*
X14625063Y-7383063D02*
X14625063Y-7310937D01*
X14552937Y-7310937D01*
X14552937Y-7383063D01*
X14625063Y-7383063D01*
X14625063Y-7637063D02*
X14625063Y-7564937D01*
X14552937Y-7564937D01*
X14552937Y-7637063D01*
X14625063Y-7637063D01*
X14625063Y-7891063D02*
X14625063Y-7818937D01*
X14552937Y-7818937D01*
X14552937Y-7891063D01*
X14625063Y-7891063D01*
X14625063Y-8145063D02*
X14625063Y-8072937D01*
X14552937Y-8072937D01*
X14552937Y-8145063D01*
X14625063Y-8145063D01*
X14625063Y-8399063D02*
X14625063Y-8326937D01*
X14552937Y-8326937D01*
X14552937Y-8399063D01*
X14625063Y-8399063D01*
X6500000Y-15555000D02*
X6555000Y-15500000D01*
X6500000Y-15445000D01*
X6445000Y-15500000D01*
X6500000Y-15555000D01*
X7008000Y-15555000D02*
X7063000Y-15500000D01*
X7008000Y-15445000D01*
X6953000Y-15500000D01*
X7008000Y-15555000D01*
X15040000Y-12851000D02*
X15095000Y-12796000D01*
X15040000Y-12741000D01*
X14985000Y-12796000D01*
X15040000Y-12851000D01*
X15040000Y-13359000D02*
X15095000Y-13304000D01*
X15040000Y-13249000D01*
X14985000Y-13304000D01*
X15040000Y-13359000D01*
X15100000Y-9755000D02*
X15155000Y-9700000D01*
X15100000Y-9645000D01*
X15045000Y-9700000D01*
X15100000Y-9755000D01*
X15100000Y-10009000D02*
X15155000Y-9954000D01*
X15100000Y-9899000D01*
X15045000Y-9954000D01*
X15100000Y-10009000D01*
X15100000Y-10263000D02*
X15155000Y-10208000D01*
X15100000Y-10153000D01*
X15045000Y-10208000D01*
X15100000Y-10263000D01*
X15100000Y-10517000D02*
X15155000Y-10462000D01*
X15100000Y-10407000D01*
X15045000Y-10462000D01*
X15100000Y-10517000D01*
X15100000Y-10771000D02*
X15155000Y-10716000D01*
X15100000Y-10661000D01*
X15045000Y-10716000D01*
X15100000Y-10771000D01*
X15100000Y-11025000D02*
X15155000Y-10970000D01*
X15100000Y-10915000D01*
X15045000Y-10970000D01*
X15100000Y-11025000D01*
X15100000Y-11279000D02*
X15155000Y-11224000D01*
X15100000Y-11169000D01*
X15045000Y-11224000D01*
X15100000Y-11279000D01*
X7930000Y-14887000D02*
X8156000Y-15113000D01*
X8156000Y-14887000D02*
X7930000Y-15113000D01*
X8156000Y-15000000D02*
G75*
G03*
X8156000Y-15000000I-113000J0D01*
G01*
X9244000Y-14887000D02*
X9470000Y-15113000D01*
X9470000Y-14887000D02*
X9244000Y-15113000D01*
X9470000Y-15000000D02*
G75*
G03*
X9470000Y-15000000I-113000J0D01*
G01*
D12*
X5721325Y-16626064D02*
X5721325Y-16326064D01*
X5792753Y-16326064D01*
X5835610Y-16340350D01*
X5864182Y-16368921D01*
X5878468Y-16397493D01*
X5892753Y-16454636D01*
X5892753Y-16497493D01*
X5878468Y-16554636D01*
X5864182Y-16583207D01*
X5835610Y-16611778D01*
X5792753Y-16626064D01*
X5721325Y-16626064D01*
X6021325Y-16626064D02*
X6021325Y-16426064D01*
X6021325Y-16483207D02*
X6035610Y-16454636D01*
X6049896Y-16440350D01*
X6078468Y-16426064D01*
X6107039Y-16426064D01*
X6207039Y-16626064D02*
X6207039Y-16426064D01*
X6207039Y-16326064D02*
X6192753Y-16340350D01*
X6207039Y-16354636D01*
X6221325Y-16340350D01*
X6207039Y-16326064D01*
X6207039Y-16354636D01*
X6392753Y-16626064D02*
X6364182Y-16611778D01*
X6349896Y-16583207D01*
X6349896Y-16326064D01*
X6549896Y-16626064D02*
X6521325Y-16611778D01*
X6507039Y-16583207D01*
X6507039Y-16326064D01*
X6892753Y-16626064D02*
X6892753Y-16326064D01*
X6992753Y-16540350D01*
X7092753Y-16326064D01*
X7092753Y-16626064D01*
X7364182Y-16626064D02*
X7364182Y-16468921D01*
X7349896Y-16440350D01*
X7321325Y-16426064D01*
X7264182Y-16426064D01*
X7235610Y-16440350D01*
X7364182Y-16611778D02*
X7335610Y-16626064D01*
X7264182Y-16626064D01*
X7235610Y-16611778D01*
X7221325Y-16583207D01*
X7221325Y-16554636D01*
X7235610Y-16526064D01*
X7264182Y-16511778D01*
X7335610Y-16511778D01*
X7364182Y-16497493D01*
X7507039Y-16426064D02*
X7507039Y-16726064D01*
X7507039Y-16440350D02*
X7535610Y-16426064D01*
X7592753Y-16426064D01*
X7621325Y-16440350D01*
X7635610Y-16454636D01*
X7649896Y-16483207D01*
X7649896Y-16568921D01*
X7635610Y-16597493D01*
X7621325Y-16611778D01*
X7592753Y-16626064D01*
X7535610Y-16626064D01*
X7507039Y-16611778D01*
X7778468Y-16597493D02*
X7792753Y-16611778D01*
X7778468Y-16626064D01*
X7764182Y-16611778D01*
X7778468Y-16597493D01*
X7778468Y-16626064D01*
X7778468Y-16440350D02*
X7792753Y-16454636D01*
X7778468Y-16468921D01*
X7764182Y-16454636D01*
X7778468Y-16440350D01*
X7778468Y-16468921D01*
X5394896Y-17100350D02*
X5434896Y-17140350D01*
X5434896Y-17100350D02*
X5394896Y-17140350D01*
X5778468Y-16956064D02*
X5807039Y-16956064D01*
X5835610Y-16970350D01*
X5849896Y-16984636D01*
X5864182Y-17013207D01*
X5878468Y-17070350D01*
X5878468Y-17141779D01*
X5864182Y-17198921D01*
X5849896Y-17227493D01*
X5835610Y-17241779D01*
X5807039Y-17256064D01*
X5778468Y-17256064D01*
X5749896Y-17241779D01*
X5735610Y-17227493D01*
X5721325Y-17198921D01*
X5707039Y-17141779D01*
X5707039Y-17070350D01*
X5721325Y-17013207D01*
X5735610Y-16984636D01*
X5749896Y-16970350D01*
X5778468Y-16956064D01*
X6007039Y-17227493D02*
X6021325Y-17241779D01*
X6007039Y-17256064D01*
X5992753Y-17241779D01*
X6007039Y-17227493D01*
X6007039Y-17256064D01*
X6278468Y-17056064D02*
X6278468Y-17256064D01*
X6207039Y-16941779D02*
X6135610Y-17156064D01*
X6321325Y-17156064D01*
X6492753Y-16956064D02*
X6521325Y-16956064D01*
X6549896Y-16970350D01*
X6564182Y-16984636D01*
X6578468Y-17013207D01*
X6592753Y-17070350D01*
X6592753Y-17141779D01*
X6578468Y-17198921D01*
X6564182Y-17227493D01*
X6549896Y-17241779D01*
X6521325Y-17256064D01*
X6492753Y-17256064D01*
X6464182Y-17241779D01*
X6449896Y-17227493D01*
X6435610Y-17198921D01*
X6421325Y-17141779D01*
X6421325Y-17070350D01*
X6435610Y-17013207D01*
X6449896Y-16984636D01*
X6464182Y-16970350D01*
X6492753Y-16956064D01*
X6778468Y-16956064D02*
X6807039Y-16956064D01*
X6835610Y-16970350D01*
X6849896Y-16984636D01*
X6864182Y-17013207D01*
X6878468Y-17070350D01*
X6878468Y-17141779D01*
X6864182Y-17198921D01*
X6849896Y-17227493D01*
X6835610Y-17241779D01*
X6807039Y-17256064D01*
X6778468Y-17256064D01*
X6749896Y-17241779D01*
X6735610Y-17227493D01*
X6721325Y-17198921D01*
X6707039Y-17141779D01*
X6707039Y-17070350D01*
X6721325Y-17013207D01*
X6735610Y-16984636D01*
X6749896Y-16970350D01*
X6778468Y-16956064D01*
X7007039Y-17256064D02*
X7007039Y-17056064D01*
X7007039Y-17084636D02*
X7021325Y-17070350D01*
X7049896Y-17056064D01*
X7092753Y-17056064D01*
X7121325Y-17070350D01*
X7135610Y-17098921D01*
X7135610Y-17256064D01*
X7135610Y-17098921D02*
X7149896Y-17070350D01*
X7178468Y-17056064D01*
X7221325Y-17056064D01*
X7249896Y-17070350D01*
X7264182Y-17098921D01*
X7264182Y-17256064D01*
X7407039Y-17256064D02*
X7407039Y-17056064D01*
X7407039Y-17084636D02*
X7421325Y-17070350D01*
X7449896Y-17056064D01*
X7492753Y-17056064D01*
X7521325Y-17070350D01*
X7535610Y-17098921D01*
X7535610Y-17256064D01*
X7535610Y-17098921D02*
X7549896Y-17070350D01*
X7578468Y-17056064D01*
X7621325Y-17056064D01*
X7649896Y-17070350D01*
X7664182Y-17098921D01*
X7664182Y-17256064D01*
X8249896Y-16941779D02*
X7992753Y-17327493D01*
X8635610Y-16956064D02*
X8664182Y-16956064D01*
X8692753Y-16970350D01*
X8707039Y-16984636D01*
X8721325Y-17013207D01*
X8735610Y-17070350D01*
X8735610Y-17141779D01*
X8721325Y-17198921D01*
X8707039Y-17227493D01*
X8692753Y-17241779D01*
X8664182Y-17256064D01*
X8635610Y-17256064D01*
X8607039Y-17241779D01*
X8592753Y-17227493D01*
X8578468Y-17198921D01*
X8564182Y-17141779D01*
X8564182Y-17070350D01*
X8578468Y-17013207D01*
X8592753Y-16984636D01*
X8607039Y-16970350D01*
X8635610Y-16956064D01*
X8864182Y-17227493D02*
X8878468Y-17241779D01*
X8864182Y-17256064D01*
X8849896Y-17241779D01*
X8864182Y-17227493D01*
X8864182Y-17256064D01*
X9064182Y-16956064D02*
X9092753Y-16956064D01*
X9121325Y-16970350D01*
X9135610Y-16984636D01*
X9149896Y-17013207D01*
X9164182Y-17070350D01*
X9164182Y-17141779D01*
X9149896Y-17198921D01*
X9135610Y-17227493D01*
X9121325Y-17241779D01*
X9092753Y-17256064D01*
X9064182Y-17256064D01*
X9035610Y-17241779D01*
X9021325Y-17227493D01*
X9007039Y-17198921D01*
X8992753Y-17141779D01*
X8992753Y-17070350D01*
X9007039Y-17013207D01*
X9021325Y-16984636D01*
X9035610Y-16970350D01*
X9064182Y-16956064D01*
X9449896Y-17256064D02*
X9278468Y-17256064D01*
X9364182Y-17256064D02*
X9364182Y-16956064D01*
X9335610Y-16998921D01*
X9307039Y-17027493D01*
X9278468Y-17041779D01*
X9721325Y-16956064D02*
X9578468Y-16956064D01*
X9564182Y-17098921D01*
X9578468Y-17084636D01*
X9607039Y-17070350D01*
X9678468Y-17070350D01*
X9707039Y-17084636D01*
X9721325Y-17098921D01*
X9735610Y-17127493D01*
X9735610Y-17198921D01*
X9721325Y-17227493D01*
X9707039Y-17241779D01*
X9678468Y-17256064D01*
X9607039Y-17256064D01*
X9578468Y-17241779D01*
X9564182Y-17227493D01*
X9835610Y-16956064D02*
X10035610Y-16956064D01*
X9907039Y-17256064D01*
X10135610Y-16956064D02*
X10135610Y-17013207D01*
X10249896Y-16956064D02*
X10249896Y-17013207D01*
X10692753Y-17370350D02*
X10678468Y-17356064D01*
X10649896Y-17313207D01*
X10635610Y-17284636D01*
X10621325Y-17241779D01*
X10607039Y-17170350D01*
X10607039Y-17113207D01*
X10621325Y-17041779D01*
X10635610Y-16998921D01*
X10649896Y-16970350D01*
X10678468Y-16927493D01*
X10692753Y-16913207D01*
X10964182Y-17256064D02*
X10792753Y-17256064D01*
X10878468Y-17256064D02*
X10878468Y-16956064D01*
X10849896Y-16998921D01*
X10821325Y-17027493D01*
X10792753Y-17041779D01*
X11221325Y-16956064D02*
X11164182Y-16956064D01*
X11135610Y-16970350D01*
X11121325Y-16984636D01*
X11092753Y-17027493D01*
X11078468Y-17084636D01*
X11078468Y-17198921D01*
X11092753Y-17227493D01*
X11107039Y-17241779D01*
X11135610Y-17256064D01*
X11192753Y-17256064D01*
X11221325Y-17241779D01*
X11235610Y-17227493D01*
X11249896Y-17198921D01*
X11249896Y-17127493D01*
X11235610Y-17098921D01*
X11221325Y-17084636D01*
X11192753Y-17070350D01*
X11135610Y-17070350D01*
X11107039Y-17084636D01*
X11092753Y-17098921D01*
X11078468Y-17127493D01*
X11607039Y-17256064D02*
X11607039Y-16956064D01*
X11735610Y-17256064D02*
X11735610Y-17098921D01*
X11721325Y-17070350D01*
X11692753Y-17056064D01*
X11649896Y-17056064D01*
X11621325Y-17070350D01*
X11607039Y-17084636D01*
X11921325Y-17256064D02*
X11892753Y-17241779D01*
X11878468Y-17227493D01*
X11864182Y-17198921D01*
X11864182Y-17113207D01*
X11878468Y-17084636D01*
X11892753Y-17070350D01*
X11921325Y-17056064D01*
X11964182Y-17056064D01*
X11992753Y-17070350D01*
X12007039Y-17084636D01*
X12021325Y-17113207D01*
X12021325Y-17198921D01*
X12007039Y-17227493D01*
X11992753Y-17241779D01*
X11964182Y-17256064D01*
X11921325Y-17256064D01*
X12192753Y-17256064D02*
X12164182Y-17241779D01*
X12149896Y-17213207D01*
X12149896Y-16956064D01*
X12421325Y-17241779D02*
X12392753Y-17256064D01*
X12335610Y-17256064D01*
X12307039Y-17241779D01*
X12292753Y-17213207D01*
X12292753Y-17098921D01*
X12307039Y-17070350D01*
X12335610Y-17056064D01*
X12392753Y-17056064D01*
X12421325Y-17070350D01*
X12435610Y-17098921D01*
X12435610Y-17127493D01*
X12292753Y-17156064D01*
X12549896Y-17241779D02*
X12578468Y-17256064D01*
X12635610Y-17256064D01*
X12664182Y-17241779D01*
X12678468Y-17213207D01*
X12678468Y-17198921D01*
X12664182Y-17170350D01*
X12635610Y-17156064D01*
X12592753Y-17156064D01*
X12564182Y-17141779D01*
X12549896Y-17113207D01*
X12549896Y-17098921D01*
X12564182Y-17070350D01*
X12592753Y-17056064D01*
X12635610Y-17056064D01*
X12664182Y-17070350D01*
X12778468Y-17370350D02*
X12792753Y-17356064D01*
X12821325Y-17313207D01*
X12835610Y-17284636D01*
X12849896Y-17241779D01*
X12864182Y-17170350D01*
X12864182Y-17113207D01*
X12849896Y-17041779D01*
X12835610Y-16998921D01*
X12821325Y-16970350D01*
X12792753Y-16927493D01*
X12778468Y-16913207D01*
X5434896Y-17516350D02*
G75*
G03*
X5434896Y-17516350I-40000J0D01*
G01*
X5778468Y-17352064D02*
X5807039Y-17352064D01*
X5835610Y-17366350D01*
X5849896Y-17380636D01*
X5864182Y-17409207D01*
X5878468Y-17466350D01*
X5878468Y-17537779D01*
X5864182Y-17594921D01*
X5849896Y-17623493D01*
X5835610Y-17637779D01*
X5807039Y-17652064D01*
X5778468Y-17652064D01*
X5749896Y-17637779D01*
X5735610Y-17623493D01*
X5721325Y-17594921D01*
X5707039Y-17537779D01*
X5707039Y-17466350D01*
X5721325Y-17409207D01*
X5735610Y-17380636D01*
X5749896Y-17366350D01*
X5778468Y-17352064D01*
X6007039Y-17623493D02*
X6021325Y-17637779D01*
X6007039Y-17652064D01*
X5992753Y-17637779D01*
X6007039Y-17623493D01*
X6007039Y-17652064D01*
X6192753Y-17480636D02*
X6164182Y-17466350D01*
X6149896Y-17452064D01*
X6135610Y-17423493D01*
X6135610Y-17409207D01*
X6149896Y-17380636D01*
X6164182Y-17366350D01*
X6192753Y-17352064D01*
X6249896Y-17352064D01*
X6278468Y-17366350D01*
X6292753Y-17380636D01*
X6307039Y-17409207D01*
X6307039Y-17423493D01*
X6292753Y-17452064D01*
X6278468Y-17466350D01*
X6249896Y-17480636D01*
X6192753Y-17480636D01*
X6164182Y-17494921D01*
X6149896Y-17509207D01*
X6135610Y-17537779D01*
X6135610Y-17594921D01*
X6149896Y-17623493D01*
X6164182Y-17637779D01*
X6192753Y-17652064D01*
X6249896Y-17652064D01*
X6278468Y-17637779D01*
X6292753Y-17623493D01*
X6307039Y-17594921D01*
X6307039Y-17537779D01*
X6292753Y-17509207D01*
X6278468Y-17494921D01*
X6249896Y-17480636D01*
X6492753Y-17352064D02*
X6521325Y-17352064D01*
X6549896Y-17366350D01*
X6564182Y-17380636D01*
X6578468Y-17409207D01*
X6592753Y-17466350D01*
X6592753Y-17537779D01*
X6578468Y-17594921D01*
X6564182Y-17623493D01*
X6549896Y-17637779D01*
X6521325Y-17652064D01*
X6492753Y-17652064D01*
X6464182Y-17637779D01*
X6449896Y-17623493D01*
X6435610Y-17594921D01*
X6421325Y-17537779D01*
X6421325Y-17466350D01*
X6435610Y-17409207D01*
X6449896Y-17380636D01*
X6464182Y-17366350D01*
X6492753Y-17352064D01*
X6778468Y-17352064D02*
X6807039Y-17352064D01*
X6835610Y-17366350D01*
X6849896Y-17380636D01*
X6864182Y-17409207D01*
X6878468Y-17466350D01*
X6878468Y-17537779D01*
X6864182Y-17594921D01*
X6849896Y-17623493D01*
X6835610Y-17637779D01*
X6807039Y-17652064D01*
X6778468Y-17652064D01*
X6749896Y-17637779D01*
X6735610Y-17623493D01*
X6721325Y-17594921D01*
X6707039Y-17537779D01*
X6707039Y-17466350D01*
X6721325Y-17409207D01*
X6735610Y-17380636D01*
X6749896Y-17366350D01*
X6778468Y-17352064D01*
X7007039Y-17652064D02*
X7007039Y-17452064D01*
X7007039Y-17480636D02*
X7021325Y-17466350D01*
X7049896Y-17452064D01*
X7092753Y-17452064D01*
X7121325Y-17466350D01*
X7135610Y-17494921D01*
X7135610Y-17652064D01*
X7135610Y-17494921D02*
X7149896Y-17466350D01*
X7178468Y-17452064D01*
X7221325Y-17452064D01*
X7249896Y-17466350D01*
X7264182Y-17494921D01*
X7264182Y-17652064D01*
X7407039Y-17652064D02*
X7407039Y-17452064D01*
X7407039Y-17480636D02*
X7421325Y-17466350D01*
X7449896Y-17452064D01*
X7492753Y-17452064D01*
X7521325Y-17466350D01*
X7535610Y-17494921D01*
X7535610Y-17652064D01*
X7535610Y-17494921D02*
X7549896Y-17466350D01*
X7578468Y-17452064D01*
X7621325Y-17452064D01*
X7649896Y-17466350D01*
X7664182Y-17494921D01*
X7664182Y-17652064D01*
X8249896Y-17337779D02*
X7992753Y-17723493D01*
X8635610Y-17352064D02*
X8664182Y-17352064D01*
X8692753Y-17366350D01*
X8707039Y-17380636D01*
X8721325Y-17409207D01*
X8735610Y-17466350D01*
X8735610Y-17537779D01*
X8721325Y-17594921D01*
X8707039Y-17623493D01*
X8692753Y-17637779D01*
X8664182Y-17652064D01*
X8635610Y-17652064D01*
X8607039Y-17637779D01*
X8592753Y-17623493D01*
X8578468Y-17594921D01*
X8564182Y-17537779D01*
X8564182Y-17466350D01*
X8578468Y-17409207D01*
X8592753Y-17380636D01*
X8607039Y-17366350D01*
X8635610Y-17352064D01*
X8864182Y-17623493D02*
X8878468Y-17637779D01*
X8864182Y-17652064D01*
X8849896Y-17637779D01*
X8864182Y-17623493D01*
X8864182Y-17652064D01*
X9064182Y-17352064D02*
X9092753Y-17352064D01*
X9121325Y-17366350D01*
X9135610Y-17380636D01*
X9149896Y-17409207D01*
X9164182Y-17466350D01*
X9164182Y-17537779D01*
X9149896Y-17594921D01*
X9135610Y-17623493D01*
X9121325Y-17637779D01*
X9092753Y-17652064D01*
X9064182Y-17652064D01*
X9035610Y-17637779D01*
X9021325Y-17623493D01*
X9007039Y-17594921D01*
X8992753Y-17537779D01*
X8992753Y-17466350D01*
X9007039Y-17409207D01*
X9021325Y-17380636D01*
X9035610Y-17366350D01*
X9064182Y-17352064D01*
X9264182Y-17352064D02*
X9449896Y-17352064D01*
X9349896Y-17466350D01*
X9392753Y-17466350D01*
X9421325Y-17480636D01*
X9435610Y-17494921D01*
X9449896Y-17523493D01*
X9449896Y-17594921D01*
X9435610Y-17623493D01*
X9421325Y-17637779D01*
X9392753Y-17652064D01*
X9307039Y-17652064D01*
X9278468Y-17637779D01*
X9264182Y-17623493D01*
X9735610Y-17652064D02*
X9564182Y-17652064D01*
X9649896Y-17652064D02*
X9649896Y-17352064D01*
X9621325Y-17394921D01*
X9592753Y-17423493D01*
X9564182Y-17437779D01*
X10007039Y-17352064D02*
X9864182Y-17352064D01*
X9849896Y-17494921D01*
X9864182Y-17480636D01*
X9892753Y-17466350D01*
X9964182Y-17466350D01*
X9992753Y-17480636D01*
X10007039Y-17494921D01*
X10021325Y-17523493D01*
X10021325Y-17594921D01*
X10007039Y-17623493D01*
X9992753Y-17637779D01*
X9964182Y-17652064D01*
X9892753Y-17652064D01*
X9864182Y-17637779D01*
X9849896Y-17623493D01*
X10135610Y-17352064D02*
X10135610Y-17409207D01*
X10249896Y-17352064D02*
X10249896Y-17409207D01*
X10692753Y-17766350D02*
X10678468Y-17752064D01*
X10649896Y-17709207D01*
X10635610Y-17680636D01*
X10621325Y-17637779D01*
X10607039Y-17566350D01*
X10607039Y-17509207D01*
X10621325Y-17437779D01*
X10635610Y-17394921D01*
X10649896Y-17366350D01*
X10678468Y-17323493D01*
X10692753Y-17309207D01*
X10964182Y-17652064D02*
X10792753Y-17652064D01*
X10878468Y-17652064D02*
X10878468Y-17352064D01*
X10849896Y-17394921D01*
X10821325Y-17423493D01*
X10792753Y-17437779D01*
X11135610Y-17480636D02*
X11107039Y-17466350D01*
X11092753Y-17452064D01*
X11078468Y-17423493D01*
X11078468Y-17409207D01*
X11092753Y-17380636D01*
X11107039Y-17366350D01*
X11135610Y-17352064D01*
X11192753Y-17352064D01*
X11221325Y-17366350D01*
X11235610Y-17380636D01*
X11249896Y-17409207D01*
X11249896Y-17423493D01*
X11235610Y-17452064D01*
X11221325Y-17466350D01*
X11192753Y-17480636D01*
X11135610Y-17480636D01*
X11107039Y-17494921D01*
X11092753Y-17509207D01*
X11078468Y-17537779D01*
X11078468Y-17594921D01*
X11092753Y-17623493D01*
X11107039Y-17637779D01*
X11135610Y-17652064D01*
X11192753Y-17652064D01*
X11221325Y-17637779D01*
X11235610Y-17623493D01*
X11249896Y-17594921D01*
X11249896Y-17537779D01*
X11235610Y-17509207D01*
X11221325Y-17494921D01*
X11192753Y-17480636D01*
X11607039Y-17652064D02*
X11607039Y-17352064D01*
X11735610Y-17652064D02*
X11735610Y-17494921D01*
X11721325Y-17466350D01*
X11692753Y-17452064D01*
X11649896Y-17452064D01*
X11621325Y-17466350D01*
X11607039Y-17480636D01*
X11921325Y-17652064D02*
X11892753Y-17637779D01*
X11878468Y-17623493D01*
X11864182Y-17594921D01*
X11864182Y-17509207D01*
X11878468Y-17480636D01*
X11892753Y-17466350D01*
X11921325Y-17452064D01*
X11964182Y-17452064D01*
X11992753Y-17466350D01*
X12007039Y-17480636D01*
X12021325Y-17509207D01*
X12021325Y-17594921D01*
X12007039Y-17623493D01*
X11992753Y-17637779D01*
X11964182Y-17652064D01*
X11921325Y-17652064D01*
X12192753Y-17652064D02*
X12164182Y-17637779D01*
X12149896Y-17609207D01*
X12149896Y-17352064D01*
X12421325Y-17637779D02*
X12392753Y-17652064D01*
X12335610Y-17652064D01*
X12307039Y-17637779D01*
X12292753Y-17609207D01*
X12292753Y-17494921D01*
X12307039Y-17466350D01*
X12335610Y-17452064D01*
X12392753Y-17452064D01*
X12421325Y-17466350D01*
X12435610Y-17494921D01*
X12435610Y-17523493D01*
X12292753Y-17552064D01*
X12549896Y-17637779D02*
X12578468Y-17652064D01*
X12635610Y-17652064D01*
X12664182Y-17637779D01*
X12678468Y-17609207D01*
X12678468Y-17594921D01*
X12664182Y-17566350D01*
X12635610Y-17552064D01*
X12592753Y-17552064D01*
X12564182Y-17537779D01*
X12549896Y-17509207D01*
X12549896Y-17494921D01*
X12564182Y-17466350D01*
X12592753Y-17452064D01*
X12635610Y-17452064D01*
X12664182Y-17466350D01*
X12778468Y-17766350D02*
X12792753Y-17752064D01*
X12821325Y-17709207D01*
X12835610Y-17680636D01*
X12849896Y-17637779D01*
X12864182Y-17566350D01*
X12864182Y-17509207D01*
X12849896Y-17437779D01*
X12835610Y-17394921D01*
X12821325Y-17366350D01*
X12792753Y-17323493D01*
X12778468Y-17309207D01*
X5388896Y-17866350D02*
X5388896Y-17958350D01*
X5342896Y-17912350D02*
X5434896Y-17912350D01*
X5778468Y-17748064D02*
X5807039Y-17748064D01*
X5835610Y-17762350D01*
X5849896Y-17776636D01*
X5864182Y-17805207D01*
X5878468Y-17862350D01*
X5878468Y-17933779D01*
X5864182Y-17990921D01*
X5849896Y-18019493D01*
X5835610Y-18033779D01*
X5807039Y-18048064D01*
X5778468Y-18048064D01*
X5749896Y-18033779D01*
X5735610Y-18019493D01*
X5721325Y-17990921D01*
X5707039Y-17933779D01*
X5707039Y-17862350D01*
X5721325Y-17805207D01*
X5735610Y-17776636D01*
X5749896Y-17762350D01*
X5778468Y-17748064D01*
X6007039Y-18019493D02*
X6021325Y-18033779D01*
X6007039Y-18048064D01*
X5992753Y-18033779D01*
X6007039Y-18019493D01*
X6007039Y-18048064D01*
X6164182Y-18048064D02*
X6221325Y-18048064D01*
X6249896Y-18033779D01*
X6264182Y-18019493D01*
X6292753Y-17976636D01*
X6307039Y-17919493D01*
X6307039Y-17805207D01*
X6292753Y-17776636D01*
X6278468Y-17762350D01*
X6249896Y-17748064D01*
X6192753Y-17748064D01*
X6164182Y-17762350D01*
X6149896Y-17776636D01*
X6135610Y-17805207D01*
X6135610Y-17876636D01*
X6149896Y-17905207D01*
X6164182Y-17919493D01*
X6192753Y-17933779D01*
X6249896Y-17933779D01*
X6278468Y-17919493D01*
X6292753Y-17905207D01*
X6307039Y-17876636D01*
X6421325Y-17776636D02*
X6435610Y-17762350D01*
X6464182Y-17748064D01*
X6535610Y-17748064D01*
X6564182Y-17762350D01*
X6578468Y-17776636D01*
X6592753Y-17805207D01*
X6592753Y-17833779D01*
X6578468Y-17876636D01*
X6407039Y-18048064D01*
X6592753Y-18048064D01*
X6778468Y-17748064D02*
X6807039Y-17748064D01*
X6835610Y-17762350D01*
X6849896Y-17776636D01*
X6864182Y-17805207D01*
X6878468Y-17862350D01*
X6878468Y-17933779D01*
X6864182Y-17990921D01*
X6849896Y-18019493D01*
X6835610Y-18033779D01*
X6807039Y-18048064D01*
X6778468Y-18048064D01*
X6749896Y-18033779D01*
X6735610Y-18019493D01*
X6721325Y-17990921D01*
X6707039Y-17933779D01*
X6707039Y-17862350D01*
X6721325Y-17805207D01*
X6735610Y-17776636D01*
X6749896Y-17762350D01*
X6778468Y-17748064D01*
X7007039Y-18048064D02*
X7007039Y-17848064D01*
X7007039Y-17876636D02*
X7021325Y-17862350D01*
X7049896Y-17848064D01*
X7092753Y-17848064D01*
X7121325Y-17862350D01*
X7135610Y-17890921D01*
X7135610Y-18048064D01*
X7135610Y-17890921D02*
X7149896Y-17862350D01*
X7178468Y-17848064D01*
X7221325Y-17848064D01*
X7249896Y-17862350D01*
X7264182Y-17890921D01*
X7264182Y-18048064D01*
X7407039Y-18048064D02*
X7407039Y-17848064D01*
X7407039Y-17876636D02*
X7421325Y-17862350D01*
X7449896Y-17848064D01*
X7492753Y-17848064D01*
X7521325Y-17862350D01*
X7535610Y-17890921D01*
X7535610Y-18048064D01*
X7535610Y-17890921D02*
X7549896Y-17862350D01*
X7578468Y-17848064D01*
X7621325Y-17848064D01*
X7649896Y-17862350D01*
X7664182Y-17890921D01*
X7664182Y-18048064D01*
X8249896Y-17733779D02*
X7992753Y-18119493D01*
X8635610Y-17748064D02*
X8664182Y-17748064D01*
X8692753Y-17762350D01*
X8707039Y-17776636D01*
X8721325Y-17805207D01*
X8735610Y-17862350D01*
X8735610Y-17933779D01*
X8721325Y-17990921D01*
X8707039Y-18019493D01*
X8692753Y-18033779D01*
X8664182Y-18048064D01*
X8635610Y-18048064D01*
X8607039Y-18033779D01*
X8592753Y-18019493D01*
X8578468Y-17990921D01*
X8564182Y-17933779D01*
X8564182Y-17862350D01*
X8578468Y-17805207D01*
X8592753Y-17776636D01*
X8607039Y-17762350D01*
X8635610Y-17748064D01*
X8864182Y-18019493D02*
X8878468Y-18033779D01*
X8864182Y-18048064D01*
X8849896Y-18033779D01*
X8864182Y-18019493D01*
X8864182Y-18048064D01*
X9064182Y-17748064D02*
X9092753Y-17748064D01*
X9121325Y-17762350D01*
X9135610Y-17776636D01*
X9149896Y-17805207D01*
X9164182Y-17862350D01*
X9164182Y-17933779D01*
X9149896Y-17990921D01*
X9135610Y-18019493D01*
X9121325Y-18033779D01*
X9092753Y-18048064D01*
X9064182Y-18048064D01*
X9035610Y-18033779D01*
X9021325Y-18019493D01*
X9007039Y-17990921D01*
X8992753Y-17933779D01*
X8992753Y-17862350D01*
X9007039Y-17805207D01*
X9021325Y-17776636D01*
X9035610Y-17762350D01*
X9064182Y-17748064D01*
X9264182Y-17748064D02*
X9449896Y-17748064D01*
X9349896Y-17862350D01*
X9392753Y-17862350D01*
X9421325Y-17876636D01*
X9435610Y-17890921D01*
X9449896Y-17919493D01*
X9449896Y-17990921D01*
X9435610Y-18019493D01*
X9421325Y-18033779D01*
X9392753Y-18048064D01*
X9307039Y-18048064D01*
X9278468Y-18033779D01*
X9264182Y-18019493D01*
X9707039Y-17748064D02*
X9649896Y-17748064D01*
X9621325Y-17762350D01*
X9607039Y-17776636D01*
X9578468Y-17819493D01*
X9564182Y-17876636D01*
X9564182Y-17990921D01*
X9578468Y-18019493D01*
X9592753Y-18033779D01*
X9621325Y-18048064D01*
X9678468Y-18048064D01*
X9707039Y-18033779D01*
X9721325Y-18019493D01*
X9735610Y-17990921D01*
X9735610Y-17919493D01*
X9721325Y-17890921D01*
X9707039Y-17876636D01*
X9678468Y-17862350D01*
X9621325Y-17862350D01*
X9592753Y-17876636D01*
X9578468Y-17890921D01*
X9564182Y-17919493D01*
X9849896Y-17776636D02*
X9864182Y-17762350D01*
X9892753Y-17748064D01*
X9964182Y-17748064D01*
X9992753Y-17762350D01*
X10007039Y-17776636D01*
X10021325Y-17805207D01*
X10021325Y-17833779D01*
X10007039Y-17876636D01*
X9835610Y-18048064D01*
X10021325Y-18048064D01*
X10135610Y-17748064D02*
X10135610Y-17805207D01*
X10249896Y-17748064D02*
X10249896Y-17805207D01*
X10692753Y-18162350D02*
X10678468Y-18148064D01*
X10649896Y-18105207D01*
X10635610Y-18076636D01*
X10621325Y-18033779D01*
X10607039Y-17962350D01*
X10607039Y-17905207D01*
X10621325Y-17833779D01*
X10635610Y-17790921D01*
X10649896Y-17762350D01*
X10678468Y-17719493D01*
X10692753Y-17705207D01*
X10935610Y-17848064D02*
X10935610Y-18048064D01*
X10864182Y-17733779D02*
X10792753Y-17948064D01*
X10978468Y-17948064D01*
X11321325Y-18048064D02*
X11321325Y-17748064D01*
X11449896Y-18048064D02*
X11449896Y-17890921D01*
X11435610Y-17862350D01*
X11407039Y-17848064D01*
X11364182Y-17848064D01*
X11335610Y-17862350D01*
X11321325Y-17876636D01*
X11635610Y-18048064D02*
X11607039Y-18033779D01*
X11592753Y-18019493D01*
X11578468Y-17990921D01*
X11578468Y-17905207D01*
X11592753Y-17876636D01*
X11607039Y-17862350D01*
X11635610Y-17848064D01*
X11678468Y-17848064D01*
X11707039Y-17862350D01*
X11721325Y-17876636D01*
X11735610Y-17905207D01*
X11735610Y-17990921D01*
X11721325Y-18019493D01*
X11707039Y-18033779D01*
X11678468Y-18048064D01*
X11635610Y-18048064D01*
X11907039Y-18048064D02*
X11878468Y-18033779D01*
X11864182Y-18005207D01*
X11864182Y-17748064D01*
X12135610Y-18033779D02*
X12107039Y-18048064D01*
X12049896Y-18048064D01*
X12021325Y-18033779D01*
X12007039Y-18005207D01*
X12007039Y-17890921D01*
X12021325Y-17862350D01*
X12049896Y-17848064D01*
X12107039Y-17848064D01*
X12135610Y-17862350D01*
X12149896Y-17890921D01*
X12149896Y-17919493D01*
X12007039Y-17948064D01*
X12264182Y-18033779D02*
X12292753Y-18048064D01*
X12349896Y-18048064D01*
X12378468Y-18033779D01*
X12392753Y-18005207D01*
X12392753Y-17990921D01*
X12378468Y-17962350D01*
X12349896Y-17948064D01*
X12307039Y-17948064D01*
X12278468Y-17933779D01*
X12264182Y-17905207D01*
X12264182Y-17890921D01*
X12278468Y-17862350D01*
X12307039Y-17848064D01*
X12349896Y-17848064D01*
X12378468Y-17862350D01*
X12492753Y-18162350D02*
X12507039Y-18148064D01*
X12535610Y-18105207D01*
X12549896Y-18076636D01*
X12564182Y-18033779D01*
X12578468Y-17962350D01*
X12578468Y-17905207D01*
X12564182Y-17833779D01*
X12549896Y-17790921D01*
X12535610Y-17762350D01*
X12507039Y-17719493D01*
X12492753Y-17705207D01*
X5419959Y-18344413D02*
X5419959Y-18272287D01*
X5347833Y-18272287D01*
X5347833Y-18344413D01*
X5419959Y-18344413D01*
X5878468Y-18444064D02*
X5707039Y-18444064D01*
X5792753Y-18444064D02*
X5792753Y-18144064D01*
X5764182Y-18186921D01*
X5735610Y-18215493D01*
X5707039Y-18229779D01*
X6007039Y-18415493D02*
X6021325Y-18429779D01*
X6007039Y-18444064D01*
X5992753Y-18429779D01*
X6007039Y-18415493D01*
X6007039Y-18444064D01*
X6207039Y-18144064D02*
X6235610Y-18144064D01*
X6264182Y-18158350D01*
X6278468Y-18172636D01*
X6292753Y-18201207D01*
X6307039Y-18258350D01*
X6307039Y-18329779D01*
X6292753Y-18386921D01*
X6278468Y-18415493D01*
X6264182Y-18429779D01*
X6235610Y-18444064D01*
X6207039Y-18444064D01*
X6178468Y-18429779D01*
X6164182Y-18415493D01*
X6149896Y-18386921D01*
X6135610Y-18329779D01*
X6135610Y-18258350D01*
X6149896Y-18201207D01*
X6164182Y-18172636D01*
X6178468Y-18158350D01*
X6207039Y-18144064D01*
X6421325Y-18172636D02*
X6435610Y-18158350D01*
X6464182Y-18144064D01*
X6535610Y-18144064D01*
X6564182Y-18158350D01*
X6578468Y-18172636D01*
X6592753Y-18201207D01*
X6592753Y-18229779D01*
X6578468Y-18272636D01*
X6407039Y-18444064D01*
X6592753Y-18444064D01*
X6778468Y-18144064D02*
X6807039Y-18144064D01*
X6835610Y-18158350D01*
X6849896Y-18172636D01*
X6864182Y-18201207D01*
X6878468Y-18258350D01*
X6878468Y-18329779D01*
X6864182Y-18386921D01*
X6849896Y-18415493D01*
X6835610Y-18429779D01*
X6807039Y-18444064D01*
X6778468Y-18444064D01*
X6749896Y-18429779D01*
X6735610Y-18415493D01*
X6721325Y-18386921D01*
X6707039Y-18329779D01*
X6707039Y-18258350D01*
X6721325Y-18201207D01*
X6735610Y-18172636D01*
X6749896Y-18158350D01*
X6778468Y-18144064D01*
X7007039Y-18444064D02*
X7007039Y-18244064D01*
X7007039Y-18272636D02*
X7021325Y-18258350D01*
X7049896Y-18244064D01*
X7092753Y-18244064D01*
X7121325Y-18258350D01*
X7135610Y-18286921D01*
X7135610Y-18444064D01*
X7135610Y-18286921D02*
X7149896Y-18258350D01*
X7178468Y-18244064D01*
X7221325Y-18244064D01*
X7249896Y-18258350D01*
X7264182Y-18286921D01*
X7264182Y-18444064D01*
X7407039Y-18444064D02*
X7407039Y-18244064D01*
X7407039Y-18272636D02*
X7421325Y-18258350D01*
X7449896Y-18244064D01*
X7492753Y-18244064D01*
X7521325Y-18258350D01*
X7535610Y-18286921D01*
X7535610Y-18444064D01*
X7535610Y-18286921D02*
X7549896Y-18258350D01*
X7578468Y-18244064D01*
X7621325Y-18244064D01*
X7649896Y-18258350D01*
X7664182Y-18286921D01*
X7664182Y-18444064D01*
X8249896Y-18129779D02*
X7992753Y-18515493D01*
X8635610Y-18144064D02*
X8664182Y-18144064D01*
X8692753Y-18158350D01*
X8707039Y-18172636D01*
X8721325Y-18201207D01*
X8735610Y-18258350D01*
X8735610Y-18329779D01*
X8721325Y-18386921D01*
X8707039Y-18415493D01*
X8692753Y-18429779D01*
X8664182Y-18444064D01*
X8635610Y-18444064D01*
X8607039Y-18429779D01*
X8592753Y-18415493D01*
X8578468Y-18386921D01*
X8564182Y-18329779D01*
X8564182Y-18258350D01*
X8578468Y-18201207D01*
X8592753Y-18172636D01*
X8607039Y-18158350D01*
X8635610Y-18144064D01*
X8864182Y-18415493D02*
X8878468Y-18429779D01*
X8864182Y-18444064D01*
X8849896Y-18429779D01*
X8864182Y-18415493D01*
X8864182Y-18444064D01*
X9064182Y-18144064D02*
X9092753Y-18144064D01*
X9121325Y-18158350D01*
X9135610Y-18172636D01*
X9149896Y-18201207D01*
X9164182Y-18258350D01*
X9164182Y-18329779D01*
X9149896Y-18386921D01*
X9135610Y-18415493D01*
X9121325Y-18429779D01*
X9092753Y-18444064D01*
X9064182Y-18444064D01*
X9035610Y-18429779D01*
X9021325Y-18415493D01*
X9007039Y-18386921D01*
X8992753Y-18329779D01*
X8992753Y-18258350D01*
X9007039Y-18201207D01*
X9021325Y-18172636D01*
X9035610Y-18158350D01*
X9064182Y-18144064D01*
X9421325Y-18244064D02*
X9421325Y-18444064D01*
X9349896Y-18129779D02*
X9278468Y-18344064D01*
X9464182Y-18344064D01*
X9635610Y-18144064D02*
X9664182Y-18144064D01*
X9692753Y-18158350D01*
X9707039Y-18172636D01*
X9721325Y-18201207D01*
X9735610Y-18258350D01*
X9735610Y-18329779D01*
X9721325Y-18386921D01*
X9707039Y-18415493D01*
X9692753Y-18429779D01*
X9664182Y-18444064D01*
X9635610Y-18444064D01*
X9607039Y-18429779D01*
X9592753Y-18415493D01*
X9578468Y-18386921D01*
X9564182Y-18329779D01*
X9564182Y-18258350D01*
X9578468Y-18201207D01*
X9592753Y-18172636D01*
X9607039Y-18158350D01*
X9635610Y-18144064D01*
X9849896Y-18172636D02*
X9864182Y-18158350D01*
X9892753Y-18144064D01*
X9964182Y-18144064D01*
X9992753Y-18158350D01*
X10007039Y-18172636D01*
X10021325Y-18201207D01*
X10021325Y-18229779D01*
X10007039Y-18272636D01*
X9835610Y-18444064D01*
X10021325Y-18444064D01*
X10135610Y-18144064D02*
X10135610Y-18201207D01*
X10249896Y-18144064D02*
X10249896Y-18201207D01*
X10692753Y-18558350D02*
X10678468Y-18544064D01*
X10649896Y-18501207D01*
X10635610Y-18472636D01*
X10621325Y-18429779D01*
X10607039Y-18358350D01*
X10607039Y-18301207D01*
X10621325Y-18229779D01*
X10635610Y-18186921D01*
X10649896Y-18158350D01*
X10678468Y-18115493D01*
X10692753Y-18101207D01*
X10935610Y-18244064D02*
X10935610Y-18444064D01*
X10864182Y-18129779D02*
X10792753Y-18344064D01*
X10978468Y-18344064D01*
X11064182Y-18144064D02*
X11249896Y-18144064D01*
X11149896Y-18258350D01*
X11192753Y-18258350D01*
X11221325Y-18272636D01*
X11235610Y-18286921D01*
X11249896Y-18315493D01*
X11249896Y-18386921D01*
X11235610Y-18415493D01*
X11221325Y-18429779D01*
X11192753Y-18444064D01*
X11107039Y-18444064D01*
X11078468Y-18429779D01*
X11064182Y-18415493D01*
X11607039Y-18444064D02*
X11607039Y-18144064D01*
X11735610Y-18444064D02*
X11735610Y-18286921D01*
X11721325Y-18258350D01*
X11692753Y-18244064D01*
X11649896Y-18244064D01*
X11621325Y-18258350D01*
X11607039Y-18272636D01*
X11921325Y-18444064D02*
X11892753Y-18429779D01*
X11878468Y-18415493D01*
X11864182Y-18386921D01*
X11864182Y-18301207D01*
X11878468Y-18272636D01*
X11892753Y-18258350D01*
X11921325Y-18244064D01*
X11964182Y-18244064D01*
X11992753Y-18258350D01*
X12007039Y-18272636D01*
X12021325Y-18301207D01*
X12021325Y-18386921D01*
X12007039Y-18415493D01*
X11992753Y-18429779D01*
X11964182Y-18444064D01*
X11921325Y-18444064D01*
X12192753Y-18444064D02*
X12164182Y-18429779D01*
X12149896Y-18401207D01*
X12149896Y-18144064D01*
X12421325Y-18429779D02*
X12392753Y-18444064D01*
X12335610Y-18444064D01*
X12307039Y-18429779D01*
X12292753Y-18401207D01*
X12292753Y-18286921D01*
X12307039Y-18258350D01*
X12335610Y-18244064D01*
X12392753Y-18244064D01*
X12421325Y-18258350D01*
X12435610Y-18286921D01*
X12435610Y-18315493D01*
X12292753Y-18344064D01*
X12549896Y-18429779D02*
X12578468Y-18444064D01*
X12635610Y-18444064D01*
X12664182Y-18429779D01*
X12678468Y-18401207D01*
X12678468Y-18386921D01*
X12664182Y-18358350D01*
X12635610Y-18344064D01*
X12592753Y-18344064D01*
X12564182Y-18329779D01*
X12549896Y-18301207D01*
X12549896Y-18286921D01*
X12564182Y-18258350D01*
X12592753Y-18244064D01*
X12635610Y-18244064D01*
X12664182Y-18258350D01*
X12778468Y-18558350D02*
X12792753Y-18544064D01*
X12821325Y-18501207D01*
X12835610Y-18472636D01*
X12849896Y-18429779D01*
X12864182Y-18358350D01*
X12864182Y-18301207D01*
X12849896Y-18229779D01*
X12835610Y-18186921D01*
X12821325Y-18158350D01*
X12792753Y-18115493D01*
X12778468Y-18101207D01*
X5379896Y-18759350D02*
X5434896Y-18704350D01*
X5379896Y-18649350D01*
X5324896Y-18704350D01*
X5379896Y-18759350D01*
X5878468Y-18840064D02*
X5707039Y-18840064D01*
X5792753Y-18840064D02*
X5792753Y-18540064D01*
X5764182Y-18582921D01*
X5735610Y-18611493D01*
X5707039Y-18625779D01*
X6007039Y-18811493D02*
X6021325Y-18825779D01*
X6007039Y-18840064D01*
X5992753Y-18825779D01*
X6007039Y-18811493D01*
X6007039Y-18840064D01*
X6307039Y-18840064D02*
X6135610Y-18840064D01*
X6221325Y-18840064D02*
X6221325Y-18540064D01*
X6192753Y-18582921D01*
X6164182Y-18611493D01*
X6135610Y-18625779D01*
X6492753Y-18540064D02*
X6521325Y-18540064D01*
X6549896Y-18554350D01*
X6564182Y-18568636D01*
X6578468Y-18597207D01*
X6592753Y-18654350D01*
X6592753Y-18725779D01*
X6578468Y-18782921D01*
X6564182Y-18811493D01*
X6549896Y-18825779D01*
X6521325Y-18840064D01*
X6492753Y-18840064D01*
X6464182Y-18825779D01*
X6449896Y-18811493D01*
X6435610Y-18782921D01*
X6421325Y-18725779D01*
X6421325Y-18654350D01*
X6435610Y-18597207D01*
X6449896Y-18568636D01*
X6464182Y-18554350D01*
X6492753Y-18540064D01*
X6778468Y-18540064D02*
X6807039Y-18540064D01*
X6835610Y-18554350D01*
X6849896Y-18568636D01*
X6864182Y-18597207D01*
X6878468Y-18654350D01*
X6878468Y-18725779D01*
X6864182Y-18782921D01*
X6849896Y-18811493D01*
X6835610Y-18825779D01*
X6807039Y-18840064D01*
X6778468Y-18840064D01*
X6749896Y-18825779D01*
X6735610Y-18811493D01*
X6721325Y-18782921D01*
X6707039Y-18725779D01*
X6707039Y-18654350D01*
X6721325Y-18597207D01*
X6735610Y-18568636D01*
X6749896Y-18554350D01*
X6778468Y-18540064D01*
X7007039Y-18840064D02*
X7007039Y-18640064D01*
X7007039Y-18668636D02*
X7021325Y-18654350D01*
X7049896Y-18640064D01*
X7092753Y-18640064D01*
X7121325Y-18654350D01*
X7135610Y-18682921D01*
X7135610Y-18840064D01*
X7135610Y-18682921D02*
X7149896Y-18654350D01*
X7178468Y-18640064D01*
X7221325Y-18640064D01*
X7249896Y-18654350D01*
X7264182Y-18682921D01*
X7264182Y-18840064D01*
X7407039Y-18840064D02*
X7407039Y-18640064D01*
X7407039Y-18668636D02*
X7421325Y-18654350D01*
X7449896Y-18640064D01*
X7492753Y-18640064D01*
X7521325Y-18654350D01*
X7535610Y-18682921D01*
X7535610Y-18840064D01*
X7535610Y-18682921D02*
X7549896Y-18654350D01*
X7578468Y-18640064D01*
X7621325Y-18640064D01*
X7649896Y-18654350D01*
X7664182Y-18682921D01*
X7664182Y-18840064D01*
X8249896Y-18525779D02*
X7992753Y-18911493D01*
X8635610Y-18540064D02*
X8664182Y-18540064D01*
X8692753Y-18554350D01*
X8707039Y-18568636D01*
X8721325Y-18597207D01*
X8735610Y-18654350D01*
X8735610Y-18725779D01*
X8721325Y-18782921D01*
X8707039Y-18811493D01*
X8692753Y-18825779D01*
X8664182Y-18840064D01*
X8635610Y-18840064D01*
X8607039Y-18825779D01*
X8592753Y-18811493D01*
X8578468Y-18782921D01*
X8564182Y-18725779D01*
X8564182Y-18654350D01*
X8578468Y-18597207D01*
X8592753Y-18568636D01*
X8607039Y-18554350D01*
X8635610Y-18540064D01*
X8864182Y-18811493D02*
X8878468Y-18825779D01*
X8864182Y-18840064D01*
X8849896Y-18825779D01*
X8864182Y-18811493D01*
X8864182Y-18840064D01*
X9064182Y-18540064D02*
X9092753Y-18540064D01*
X9121325Y-18554350D01*
X9135610Y-18568636D01*
X9149896Y-18597207D01*
X9164182Y-18654350D01*
X9164182Y-18725779D01*
X9149896Y-18782921D01*
X9135610Y-18811493D01*
X9121325Y-18825779D01*
X9092753Y-18840064D01*
X9064182Y-18840064D01*
X9035610Y-18825779D01*
X9021325Y-18811493D01*
X9007039Y-18782921D01*
X8992753Y-18725779D01*
X8992753Y-18654350D01*
X9007039Y-18597207D01*
X9021325Y-18568636D01*
X9035610Y-18554350D01*
X9064182Y-18540064D01*
X9421325Y-18640064D02*
X9421325Y-18840064D01*
X9349896Y-18525779D02*
X9278468Y-18740064D01*
X9464182Y-18740064D01*
X9549896Y-18540064D02*
X9735610Y-18540064D01*
X9635610Y-18654350D01*
X9678468Y-18654350D01*
X9707039Y-18668636D01*
X9721325Y-18682921D01*
X9735610Y-18711493D01*
X9735610Y-18782921D01*
X9721325Y-18811493D01*
X9707039Y-18825779D01*
X9678468Y-18840064D01*
X9592753Y-18840064D01*
X9564182Y-18825779D01*
X9549896Y-18811493D01*
X9835610Y-18540064D02*
X10021325Y-18540064D01*
X9921325Y-18654350D01*
X9964182Y-18654350D01*
X9992753Y-18668636D01*
X10007039Y-18682921D01*
X10021325Y-18711493D01*
X10021325Y-18782921D01*
X10007039Y-18811493D01*
X9992753Y-18825779D01*
X9964182Y-18840064D01*
X9878468Y-18840064D01*
X9849896Y-18825779D01*
X9835610Y-18811493D01*
X10135610Y-18540064D02*
X10135610Y-18597207D01*
X10249896Y-18540064D02*
X10249896Y-18597207D01*
X10692753Y-18954350D02*
X10678468Y-18940064D01*
X10649896Y-18897207D01*
X10635610Y-18868636D01*
X10621325Y-18825779D01*
X10607039Y-18754350D01*
X10607039Y-18697207D01*
X10621325Y-18625779D01*
X10635610Y-18582921D01*
X10649896Y-18554350D01*
X10678468Y-18511493D01*
X10692753Y-18497207D01*
X10964182Y-18840064D02*
X10792753Y-18840064D01*
X10878468Y-18840064D02*
X10878468Y-18540064D01*
X10849896Y-18582921D01*
X10821325Y-18611493D01*
X10792753Y-18625779D01*
X11249896Y-18840064D02*
X11078468Y-18840064D01*
X11164182Y-18840064D02*
X11164182Y-18540064D01*
X11135610Y-18582921D01*
X11107039Y-18611493D01*
X11078468Y-18625779D01*
X11607039Y-18840064D02*
X11607039Y-18540064D01*
X11735610Y-18840064D02*
X11735610Y-18682921D01*
X11721325Y-18654350D01*
X11692753Y-18640064D01*
X11649896Y-18640064D01*
X11621325Y-18654350D01*
X11607039Y-18668636D01*
X11921325Y-18840064D02*
X11892753Y-18825779D01*
X11878468Y-18811493D01*
X11864182Y-18782921D01*
X11864182Y-18697207D01*
X11878468Y-18668636D01*
X11892753Y-18654350D01*
X11921325Y-18640064D01*
X11964182Y-18640064D01*
X11992753Y-18654350D01*
X12007039Y-18668636D01*
X12021325Y-18697207D01*
X12021325Y-18782921D01*
X12007039Y-18811493D01*
X11992753Y-18825779D01*
X11964182Y-18840064D01*
X11921325Y-18840064D01*
X12192753Y-18840064D02*
X12164182Y-18825779D01*
X12149896Y-18797207D01*
X12149896Y-18540064D01*
X12421325Y-18825779D02*
X12392753Y-18840064D01*
X12335610Y-18840064D01*
X12307039Y-18825779D01*
X12292753Y-18797207D01*
X12292753Y-18682921D01*
X12307039Y-18654350D01*
X12335610Y-18640064D01*
X12392753Y-18640064D01*
X12421325Y-18654350D01*
X12435610Y-18682921D01*
X12435610Y-18711493D01*
X12292753Y-18740064D01*
X12549896Y-18825779D02*
X12578468Y-18840064D01*
X12635610Y-18840064D01*
X12664182Y-18825779D01*
X12678468Y-18797207D01*
X12678468Y-18782921D01*
X12664182Y-18754350D01*
X12635610Y-18740064D01*
X12592753Y-18740064D01*
X12564182Y-18725779D01*
X12549896Y-18697207D01*
X12549896Y-18682921D01*
X12564182Y-18654350D01*
X12592753Y-18640064D01*
X12635610Y-18640064D01*
X12664182Y-18654350D01*
X12778468Y-18954350D02*
X12792753Y-18940064D01*
X12821325Y-18897207D01*
X12835610Y-18868636D01*
X12849896Y-18825779D01*
X12864182Y-18754350D01*
X12864182Y-18697207D01*
X12849896Y-18625779D01*
X12835610Y-18582921D01*
X12821325Y-18554350D01*
X12792753Y-18511493D01*
X12778468Y-18497207D01*
X5208896Y-18987350D02*
X5434896Y-19213350D01*
X5434896Y-18987350D02*
X5208896Y-19213350D01*
X5434896Y-19100350D02*
G75*
G03*
X5434896Y-19100350I-113000J0D01*
G01*
X5707039Y-18964636D02*
X5721325Y-18950350D01*
X5749896Y-18936064D01*
X5821325Y-18936064D01*
X5849896Y-18950350D01*
X5864182Y-18964636D01*
X5878468Y-18993207D01*
X5878468Y-19021779D01*
X5864182Y-19064636D01*
X5692753Y-19236064D01*
X5878468Y-19236064D01*
X6007039Y-19207493D02*
X6021325Y-19221779D01*
X6007039Y-19236064D01*
X5992753Y-19221779D01*
X6007039Y-19207493D01*
X6007039Y-19236064D01*
X6135610Y-18964636D02*
X6149896Y-18950350D01*
X6178468Y-18936064D01*
X6249896Y-18936064D01*
X6278468Y-18950350D01*
X6292753Y-18964636D01*
X6307039Y-18993207D01*
X6307039Y-19021779D01*
X6292753Y-19064636D01*
X6121325Y-19236064D01*
X6307039Y-19236064D01*
X6564182Y-18936064D02*
X6507039Y-18936064D01*
X6478468Y-18950350D01*
X6464182Y-18964636D01*
X6435610Y-19007493D01*
X6421325Y-19064636D01*
X6421325Y-19178921D01*
X6435610Y-19207493D01*
X6449896Y-19221779D01*
X6478468Y-19236064D01*
X6535610Y-19236064D01*
X6564182Y-19221779D01*
X6578468Y-19207493D01*
X6592753Y-19178921D01*
X6592753Y-19107493D01*
X6578468Y-19078921D01*
X6564182Y-19064636D01*
X6535610Y-19050350D01*
X6478468Y-19050350D01*
X6449896Y-19064636D01*
X6435610Y-19078921D01*
X6421325Y-19107493D01*
X6778468Y-18936064D02*
X6807039Y-18936064D01*
X6835610Y-18950350D01*
X6849896Y-18964636D01*
X6864182Y-18993207D01*
X6878468Y-19050350D01*
X6878468Y-19121779D01*
X6864182Y-19178921D01*
X6849896Y-19207493D01*
X6835610Y-19221779D01*
X6807039Y-19236064D01*
X6778468Y-19236064D01*
X6749896Y-19221779D01*
X6735610Y-19207493D01*
X6721325Y-19178921D01*
X6707039Y-19121779D01*
X6707039Y-19050350D01*
X6721325Y-18993207D01*
X6735610Y-18964636D01*
X6749896Y-18950350D01*
X6778468Y-18936064D01*
X7007039Y-19236064D02*
X7007039Y-19036064D01*
X7007039Y-19064636D02*
X7021325Y-19050350D01*
X7049896Y-19036064D01*
X7092753Y-19036064D01*
X7121325Y-19050350D01*
X7135610Y-19078921D01*
X7135610Y-19236064D01*
X7135610Y-19078921D02*
X7149896Y-19050350D01*
X7178468Y-19036064D01*
X7221325Y-19036064D01*
X7249896Y-19050350D01*
X7264182Y-19078921D01*
X7264182Y-19236064D01*
X7407039Y-19236064D02*
X7407039Y-19036064D01*
X7407039Y-19064636D02*
X7421325Y-19050350D01*
X7449896Y-19036064D01*
X7492753Y-19036064D01*
X7521325Y-19050350D01*
X7535610Y-19078921D01*
X7535610Y-19236064D01*
X7535610Y-19078921D02*
X7549896Y-19050350D01*
X7578468Y-19036064D01*
X7621325Y-19036064D01*
X7649896Y-19050350D01*
X7664182Y-19078921D01*
X7664182Y-19236064D01*
X8249896Y-18921779D02*
X7992753Y-19307493D01*
X8635610Y-18936064D02*
X8664182Y-18936064D01*
X8692753Y-18950350D01*
X8707039Y-18964636D01*
X8721325Y-18993207D01*
X8735610Y-19050350D01*
X8735610Y-19121779D01*
X8721325Y-19178921D01*
X8707039Y-19207493D01*
X8692753Y-19221779D01*
X8664182Y-19236064D01*
X8635610Y-19236064D01*
X8607039Y-19221779D01*
X8592753Y-19207493D01*
X8578468Y-19178921D01*
X8564182Y-19121779D01*
X8564182Y-19050350D01*
X8578468Y-18993207D01*
X8592753Y-18964636D01*
X8607039Y-18950350D01*
X8635610Y-18936064D01*
X8864182Y-19207493D02*
X8878468Y-19221779D01*
X8864182Y-19236064D01*
X8849896Y-19221779D01*
X8864182Y-19207493D01*
X8864182Y-19236064D01*
X9064182Y-18936064D02*
X9092753Y-18936064D01*
X9121325Y-18950350D01*
X9135610Y-18964636D01*
X9149896Y-18993207D01*
X9164182Y-19050350D01*
X9164182Y-19121779D01*
X9149896Y-19178921D01*
X9135610Y-19207493D01*
X9121325Y-19221779D01*
X9092753Y-19236064D01*
X9064182Y-19236064D01*
X9035610Y-19221779D01*
X9021325Y-19207493D01*
X9007039Y-19178921D01*
X8992753Y-19121779D01*
X8992753Y-19050350D01*
X9007039Y-18993207D01*
X9021325Y-18964636D01*
X9035610Y-18950350D01*
X9064182Y-18936064D01*
X9335610Y-19064636D02*
X9307039Y-19050350D01*
X9292753Y-19036064D01*
X9278468Y-19007493D01*
X9278468Y-18993207D01*
X9292753Y-18964636D01*
X9307039Y-18950350D01*
X9335610Y-18936064D01*
X9392753Y-18936064D01*
X9421325Y-18950350D01*
X9435610Y-18964636D01*
X9449896Y-18993207D01*
X9449896Y-19007493D01*
X9435610Y-19036064D01*
X9421325Y-19050350D01*
X9392753Y-19064636D01*
X9335610Y-19064636D01*
X9307039Y-19078921D01*
X9292753Y-19093207D01*
X9278468Y-19121779D01*
X9278468Y-19178921D01*
X9292753Y-19207493D01*
X9307039Y-19221779D01*
X9335610Y-19236064D01*
X9392753Y-19236064D01*
X9421325Y-19221779D01*
X9435610Y-19207493D01*
X9449896Y-19178921D01*
X9449896Y-19121779D01*
X9435610Y-19093207D01*
X9421325Y-19078921D01*
X9392753Y-19064636D01*
X9592753Y-19236064D02*
X9649896Y-19236064D01*
X9678468Y-19221779D01*
X9692753Y-19207493D01*
X9721325Y-19164636D01*
X9735610Y-19107493D01*
X9735610Y-18993207D01*
X9721325Y-18964636D01*
X9707039Y-18950350D01*
X9678468Y-18936064D01*
X9621325Y-18936064D01*
X9592753Y-18950350D01*
X9578468Y-18964636D01*
X9564182Y-18993207D01*
X9564182Y-19064636D01*
X9578468Y-19093207D01*
X9592753Y-19107493D01*
X9621325Y-19121779D01*
X9678468Y-19121779D01*
X9707039Y-19107493D01*
X9721325Y-19093207D01*
X9735610Y-19064636D01*
X9921325Y-18936064D02*
X9949896Y-18936064D01*
X9978468Y-18950350D01*
X9992753Y-18964636D01*
X10007039Y-18993207D01*
X10021325Y-19050350D01*
X10021325Y-19121779D01*
X10007039Y-19178921D01*
X9992753Y-19207493D01*
X9978468Y-19221779D01*
X9949896Y-19236064D01*
X9921325Y-19236064D01*
X9892753Y-19221779D01*
X9878468Y-19207493D01*
X9864182Y-19178921D01*
X9849896Y-19121779D01*
X9849896Y-19050350D01*
X9864182Y-18993207D01*
X9878468Y-18964636D01*
X9892753Y-18950350D01*
X9921325Y-18936064D01*
X10135610Y-18936064D02*
X10135610Y-18993207D01*
X10249896Y-18936064D02*
X10249896Y-18993207D01*
X10692753Y-19350350D02*
X10678468Y-19336064D01*
X10649896Y-19293207D01*
X10635610Y-19264636D01*
X10621325Y-19221779D01*
X10607039Y-19150350D01*
X10607039Y-19093207D01*
X10621325Y-19021779D01*
X10635610Y-18978921D01*
X10649896Y-18950350D01*
X10678468Y-18907493D01*
X10692753Y-18893207D01*
X10792753Y-18964636D02*
X10807039Y-18950350D01*
X10835610Y-18936064D01*
X10907039Y-18936064D01*
X10935610Y-18950350D01*
X10949896Y-18964636D01*
X10964182Y-18993207D01*
X10964182Y-19021779D01*
X10949896Y-19064636D01*
X10778468Y-19236064D01*
X10964182Y-19236064D01*
X11321325Y-19236064D02*
X11321325Y-18936064D01*
X11449896Y-19236064D02*
X11449896Y-19078921D01*
X11435610Y-19050350D01*
X11407039Y-19036064D01*
X11364182Y-19036064D01*
X11335610Y-19050350D01*
X11321325Y-19064636D01*
X11635610Y-19236064D02*
X11607039Y-19221779D01*
X11592753Y-19207493D01*
X11578468Y-19178921D01*
X11578468Y-19093207D01*
X11592753Y-19064636D01*
X11607039Y-19050350D01*
X11635610Y-19036064D01*
X11678468Y-19036064D01*
X11707039Y-19050350D01*
X11721325Y-19064636D01*
X11735610Y-19093207D01*
X11735610Y-19178921D01*
X11721325Y-19207493D01*
X11707039Y-19221779D01*
X11678468Y-19236064D01*
X11635610Y-19236064D01*
X11907039Y-19236064D02*
X11878468Y-19221779D01*
X11864182Y-19193207D01*
X11864182Y-18936064D01*
X12135610Y-19221779D02*
X12107039Y-19236064D01*
X12049896Y-19236064D01*
X12021325Y-19221779D01*
X12007039Y-19193207D01*
X12007039Y-19078921D01*
X12021325Y-19050350D01*
X12049896Y-19036064D01*
X12107039Y-19036064D01*
X12135610Y-19050350D01*
X12149896Y-19078921D01*
X12149896Y-19107493D01*
X12007039Y-19136064D01*
X12264182Y-19221779D02*
X12292753Y-19236064D01*
X12349896Y-19236064D01*
X12378468Y-19221779D01*
X12392753Y-19193207D01*
X12392753Y-19178921D01*
X12378468Y-19150350D01*
X12349896Y-19136064D01*
X12307039Y-19136064D01*
X12278468Y-19121779D01*
X12264182Y-19093207D01*
X12264182Y-19078921D01*
X12278468Y-19050350D01*
X12307039Y-19036064D01*
X12349896Y-19036064D01*
X12378468Y-19050350D01*
X12492753Y-19350350D02*
X12507039Y-19336064D01*
X12535610Y-19293207D01*
X12549896Y-19264636D01*
X12564182Y-19221779D01*
X12578468Y-19150350D01*
X12578468Y-19093207D01*
X12564182Y-19021779D01*
X12549896Y-18978921D01*
X12535610Y-18950350D01*
X12507039Y-18907493D01*
X12492753Y-18893207D01*
M02*
