%TF.GenerationSoftware,KiCad,Pcbnew,(5.1.10)-1*%
%TF.CreationDate,2021-09-21T16:53:37-04:00*%
%TF.ProjectId,CC_PCB_V1,43435f50-4342-45f5-9631-2e6b69636164,09/18/2021*%
%TF.SameCoordinates,Original*%
%TF.FileFunction,Copper,L2,Bot*%
%TF.FilePolarity,Positive*%
%FSLAX46Y46*%
G04 Gerber Fmt 4.6, Leading zero omitted, Abs format (unit mm)*
G04 Created by KiCad (PCBNEW (5.1.10)-1) date 2021-09-21 16:53:37*
%MOMM*%
%LPD*%
G01*
G04 APERTURE LIST*
%TA.AperFunction,ComponentPad*%
%ADD10C,1.650000*%
%TD*%
%TA.AperFunction,ComponentPad*%
%ADD11R,1.650000X1.650000*%
%TD*%
%TA.AperFunction,ComponentPad*%
%ADD12C,3.276000*%
%TD*%
%TA.AperFunction,ComponentPad*%
%ADD13C,1.428000*%
%TD*%
%TA.AperFunction,ComponentPad*%
%ADD14R,1.428000X1.428000*%
%TD*%
%TA.AperFunction,ComponentPad*%
%ADD15O,1.700000X1.700000*%
%TD*%
%TA.AperFunction,ComponentPad*%
%ADD16R,1.700000X1.700000*%
%TD*%
%TA.AperFunction,ComponentPad*%
%ADD17C,1.600000*%
%TD*%
%TA.AperFunction,ComponentPad*%
%ADD18R,1.600000X1.600000*%
%TD*%
%TA.AperFunction,ComponentPad*%
%ADD19C,2.100000*%
%TD*%
%TA.AperFunction,ComponentPad*%
%ADD20R,2.100000X2.100000*%
%TD*%
%TA.AperFunction,ComponentPad*%
%ADD21O,1.350000X1.350000*%
%TD*%
%TA.AperFunction,ComponentPad*%
%ADD22R,1.350000X1.350000*%
%TD*%
%TA.AperFunction,ViaPad*%
%ADD23C,0.800000*%
%TD*%
%TA.AperFunction,Conductor*%
%ADD24C,0.250000*%
%TD*%
%TA.AperFunction,Conductor*%
%ADD25C,0.254000*%
%TD*%
%TA.AperFunction,Conductor*%
%ADD26C,0.100000*%
%TD*%
G04 APERTURE END LIST*
D10*
%TO.P,Screw_Terminal2,2*%
%TO.N,GND*%
X150400000Y-133040000D03*
D11*
%TO.P,Screw_Terminal2,1*%
%TO.N,+3.3V*%
X150400000Y-127960000D03*
%TD*%
D12*
%TO.P,J3,S2*%
%TO.N,Net-(J3-PadS1)*%
X93570000Y-150000000D03*
%TO.P,J3,S1*%
X80430000Y-150000000D03*
D13*
%TO.P,J3,4*%
%TO.N,GND*%
X90500000Y-147290000D03*
%TO.P,J3,3*%
%TO.N,Net-(J3-Pad3)*%
X88000000Y-147290000D03*
%TO.P,J3,2*%
%TO.N,Net-(J3-Pad2)*%
X86000000Y-147290000D03*
D14*
%TO.P,J3,1*%
%TO.N,+5V*%
X83500000Y-147290000D03*
%TD*%
D15*
%TO.P,U1,43*%
%TO.N,Net-(U1-Pad43)*%
X139540000Y-83400000D03*
D16*
%TO.P,U1,42*%
%TO.N,Net-(U1-Pad42)*%
X137000000Y-83400000D03*
D15*
%TO.P,U1,41*%
%TO.N,Net-(U1-Pad41)*%
X134460000Y-83400000D03*
%TO.P,U1,40*%
%TO.N,Net-(U1-Pad40)*%
X145890000Y-35370000D03*
%TO.P,U1,39*%
%TO.N,+3.3V*%
X145890000Y-37910000D03*
D16*
%TO.P,U1,38*%
%TO.N,Net-(U1-Pad38)*%
X145890000Y-40450000D03*
D15*
%TO.P,U1,37*%
%TO.N,Net-(U1-Pad37)*%
X145890000Y-42990000D03*
%TO.P,U1,36*%
%TO.N,3.3V*%
X145890000Y-45530000D03*
%TO.P,U1,35*%
%TO.N,Net-(U1-Pad35)*%
X145890000Y-48070000D03*
%TO.P,U1,34*%
%TO.N,GP28*%
X145890000Y-50610000D03*
D16*
%TO.P,U1,33*%
%TO.N,Net-(U1-Pad33)*%
X145890000Y-53150000D03*
D15*
%TO.P,U1,32*%
%TO.N,GP27*%
X145890000Y-55690000D03*
%TO.P,U1,31*%
%TO.N,GP26*%
X145890000Y-58230000D03*
%TO.P,U1,30*%
%TO.N,Net-(U1-Pad30)*%
X145890000Y-60770000D03*
%TO.P,U1,29*%
%TO.N,GP22*%
X145890000Y-63310000D03*
D16*
%TO.P,U1,28*%
%TO.N,Net-(U1-Pad28)*%
X145890000Y-65850000D03*
D15*
%TO.P,U1,27*%
%TO.N,GP21*%
X145890000Y-68390000D03*
%TO.P,U1,26*%
%TO.N,Net-(U1-Pad26)*%
X145890000Y-70930000D03*
%TO.P,U1,25*%
%TO.N,Net-(U1-Pad25)*%
X145890000Y-73470000D03*
%TO.P,U1,24*%
%TO.N,Net-(U1-Pad24)*%
X145890000Y-76010000D03*
D16*
%TO.P,U1,23*%
%TO.N,Net-(U1-Pad23)*%
X145890000Y-78550000D03*
D15*
%TO.P,U1,22*%
%TO.N,GP17*%
X145890000Y-81090000D03*
%TO.P,U1,21*%
%TO.N,Net-(U1-Pad21)*%
X145890000Y-83630000D03*
%TO.P,U1,20*%
%TO.N,Net-(U1-Pad20)*%
X128110000Y-83630000D03*
%TO.P,U1,19*%
%TO.N,GP14*%
X128110000Y-81090000D03*
D16*
%TO.P,U1,18*%
%TO.N,GND*%
X128110000Y-78550000D03*
D15*
%TO.P,U1,17*%
%TO.N,GP13*%
X128110000Y-76010000D03*
%TO.P,U1,16*%
%TO.N,GP12*%
X128110000Y-73470000D03*
%TO.P,U1,15*%
%TO.N,GP11*%
X128110000Y-70930000D03*
%TO.P,U1,14*%
%TO.N,GP10*%
X128110000Y-68390000D03*
D16*
%TO.P,U1,13*%
%TO.N,Net-(U1-Pad13)*%
X128110000Y-65850000D03*
D15*
%TO.P,U1,12*%
%TO.N,Net-(U1-Pad12)*%
X128110000Y-63310000D03*
%TO.P,U1,11*%
%TO.N,Net-(U1-Pad11)*%
X128110000Y-60770000D03*
%TO.P,U1,10*%
%TO.N,GP7*%
X128110000Y-58230000D03*
%TO.P,U1,9*%
%TO.N,GP6*%
X128110000Y-55690000D03*
D16*
%TO.P,U1,8*%
%TO.N,Net-(U1-Pad8)*%
X128110000Y-53150000D03*
D15*
%TO.P,U1,7*%
%TO.N,Net-(U1-Pad7)*%
X128110000Y-50610000D03*
%TO.P,U1,6*%
%TO.N,GP4*%
X128110000Y-48070000D03*
%TO.P,U1,5*%
%TO.N,Net-(U1-Pad5)*%
X128110000Y-45530000D03*
%TO.P,U1,4*%
%TO.N,Net-(U1-Pad4)*%
X128110000Y-42990000D03*
D16*
%TO.P,U1,3*%
%TO.N,Net-(U1-Pad3)*%
X128110000Y-40450000D03*
D15*
%TO.P,U1,2*%
%TO.N,Net-(U1-Pad2)*%
X128110000Y-37910000D03*
%TO.P,U1,1*%
%TO.N,Net-(U1-Pad1)*%
X128110000Y-35370000D03*
%TD*%
D17*
%TO.P,C2,2*%
%TO.N,GND*%
X103500000Y-135000000D03*
D18*
%TO.P,C2,1*%
%TO.N,+5V*%
X103500000Y-140000000D03*
%TD*%
D17*
%TO.P,C1,2*%
%TO.N,GND*%
X122000000Y-137400000D03*
D18*
%TO.P,C1,1*%
%TO.N,+3.3V*%
X117000000Y-137400000D03*
%TD*%
D19*
%TO.P,J1,7*%
%TO.N,GP27*%
X151000000Y-112240000D03*
%TO.P,J1,6*%
%TO.N,GP26*%
X151000000Y-109700000D03*
%TO.P,J1,5*%
%TO.N,GP22*%
X151000000Y-107160000D03*
%TO.P,J1,4*%
%TO.N,GP21*%
X151000000Y-104620000D03*
%TO.P,J1,3*%
%TO.N,GP13*%
X151000000Y-102080000D03*
%TO.P,J1,2*%
%TO.N,GP12*%
X151000000Y-99540000D03*
D20*
%TO.P,J1,1*%
%TO.N,3.3V*%
X151000000Y-97000000D03*
%TD*%
D10*
%TO.P,Screw_Terminal1,2*%
%TO.N,GND*%
X65000000Y-155000000D03*
D11*
%TO.P,Screw_Terminal1,1*%
%TO.N,+5V*%
X70080000Y-155000000D03*
%TD*%
D21*
%TO.P,J5,6*%
%TO.N,+5V*%
X103000000Y-44000000D03*
%TO.P,J5,5*%
%TO.N,Net-(J5-Pad5)*%
X103000000Y-46000000D03*
%TO.P,J5,4*%
%TO.N,Net-(J5-Pad4)*%
X103000000Y-48000000D03*
%TO.P,J5,3*%
%TO.N,GP11*%
X103000000Y-50000000D03*
%TO.P,J5,2*%
%TO.N,GP10*%
X103000000Y-52000000D03*
D22*
%TO.P,J5,1*%
%TO.N,GND*%
X103000000Y-54000000D03*
%TD*%
D21*
%TO.P,J2,8*%
%TO.N,Net-(J2-Pad8)*%
X97000000Y-110000000D03*
%TO.P,J2,7*%
%TO.N,GP7*%
X99000000Y-110000000D03*
%TO.P,J2,6*%
%TO.N,GP4*%
X97000000Y-112000000D03*
%TO.P,J2,5*%
%TO.N,GP6*%
X99000000Y-112000000D03*
%TO.P,J2,4*%
%TO.N,GP14*%
X97000000Y-114000000D03*
%TO.P,J2,3*%
%TO.N,GP17*%
X99000000Y-114000000D03*
%TO.P,J2,2*%
%TO.N,+3.3V*%
X97000000Y-116000000D03*
D22*
%TO.P,J2,1*%
%TO.N,GND*%
X99000000Y-116000000D03*
%TD*%
D23*
%TO.N,GP4*%
X117725000Y-65851485D03*
%TO.N,GP7*%
X117800000Y-93800000D03*
%TO.N,GP6*%
X116012653Y-59987347D03*
%TO.N,GP14*%
X98412653Y-117787347D03*
%TO.N,GND*%
X121800000Y-142400000D03*
X67800000Y-155000000D03*
X89600000Y-149400000D03*
X99200000Y-125800000D03*
X152500000Y-132700000D03*
X103000000Y-56000000D03*
%TO.N,GP17*%
X142800000Y-81000000D03*
%TO.N,GP21*%
X151725000Y-68400000D03*
%TO.N,GP13*%
X143275000Y-102075305D03*
%TO.N,GP12*%
X151800000Y-93400000D03*
%TO.N,GP10*%
X104987347Y-53012653D03*
X115000000Y-60000000D03*
%TD*%
D24*
%TO.N,GP4*%
X122000000Y-61576485D02*
X117725000Y-65851485D01*
X122000000Y-51000000D02*
X122000000Y-61576485D01*
X124930000Y-48070000D02*
X122000000Y-51000000D01*
X128110000Y-48070000D02*
X124930000Y-48070000D01*
%TO.N,GP7*%
X124770000Y-60230000D02*
X117800000Y-67200000D01*
X124770000Y-58230000D02*
X124770000Y-60230000D01*
X117800000Y-67200000D02*
X117800000Y-93800000D01*
X128110000Y-58230000D02*
X124770000Y-58230000D01*
%TO.N,GP6*%
X116000000Y-95000000D02*
X99000000Y-112000000D01*
X116000000Y-60565685D02*
X116000000Y-95000000D01*
X116012653Y-60553032D02*
X116000000Y-60565685D01*
X116012653Y-59987347D02*
X116012653Y-60553032D01*
%TO.N,GP14*%
X95800000Y-115200000D02*
X97000000Y-114000000D01*
X95800000Y-116600000D02*
X95800000Y-115200000D01*
X96987347Y-117787347D02*
X95800000Y-116600000D01*
X98412653Y-117787347D02*
X96987347Y-117787347D01*
%TO.N,GND*%
X121800000Y-137600000D02*
X122000000Y-137400000D01*
X121800000Y-142400000D02*
X121800000Y-137600000D01*
X99200000Y-116200000D02*
X99000000Y-116000000D01*
X99200000Y-125800000D02*
X99200000Y-116200000D01*
%TO.N,GP17*%
X145800000Y-81000000D02*
X145890000Y-81090000D01*
X142800000Y-81000000D02*
X145800000Y-81000000D01*
%TO.N,GP27*%
X152800000Y-110440000D02*
X151000000Y-112240000D01*
X152800000Y-59800000D02*
X152800000Y-110440000D01*
X148690000Y-55690000D02*
X152800000Y-59800000D01*
X145890000Y-55690000D02*
X148690000Y-55690000D01*
%TO.N,GP21*%
X145900000Y-68400000D02*
X145890000Y-68390000D01*
X151725000Y-68400000D02*
X145900000Y-68400000D01*
%TO.N,GP13*%
X143279695Y-102080000D02*
X143275000Y-102075305D01*
X151000000Y-102080000D02*
X143279695Y-102080000D01*
%TO.N,GP12*%
X128110000Y-73470000D02*
X128110000Y-73510000D01*
X131870000Y-73470000D02*
X128110000Y-73470000D01*
X151800000Y-93400000D02*
X131870000Y-73470000D01*
%TO.N,+3.3V*%
X117000000Y-47000000D02*
X117000000Y-137400000D01*
X124800000Y-39200000D02*
X117000000Y-47000000D01*
X129600000Y-39200000D02*
X124800000Y-39200000D01*
X130200000Y-39800000D02*
X129600000Y-39200000D01*
X141000000Y-39800000D02*
X130200000Y-39800000D01*
X142890000Y-37910000D02*
X141000000Y-39800000D01*
X145890000Y-37910000D02*
X142890000Y-37910000D01*
%TO.N,GP10*%
X108012653Y-53012653D02*
X115000000Y-60000000D01*
X104987347Y-53012653D02*
X108012653Y-53012653D01*
%TO.N,Net-(J3-PadS1)*%
X91932001Y-151637999D02*
X93570000Y-150000000D01*
X82067999Y-151637999D02*
X91932001Y-151637999D01*
X80430000Y-150000000D02*
X82067999Y-151637999D01*
%TD*%
D25*
%TO.N,GND*%
X153549086Y-17384999D02*
X154348063Y-17477217D01*
X155093462Y-17699203D01*
X155788984Y-18047252D01*
X156413506Y-18510791D01*
X156948042Y-19075731D01*
X157376359Y-19724912D01*
X157685443Y-20438615D01*
X157866306Y-21196858D01*
X157916256Y-21981177D01*
X157768555Y-156048608D01*
X157676282Y-156848064D01*
X157454298Y-157593457D01*
X157106248Y-158288982D01*
X156642710Y-158913503D01*
X156077767Y-159448042D01*
X155428587Y-159876359D01*
X154714884Y-160185443D01*
X153956641Y-160366306D01*
X153171595Y-160416302D01*
X59851947Y-160468471D01*
X59053222Y-160376282D01*
X58307829Y-160154298D01*
X57612304Y-159806248D01*
X56987783Y-159342710D01*
X56453244Y-158777767D01*
X56024927Y-158128587D01*
X55715843Y-157414884D01*
X55534980Y-156656641D01*
X55493834Y-156010551D01*
X64169054Y-156010551D01*
X64243663Y-156257073D01*
X64503439Y-156380473D01*
X64782297Y-156450823D01*
X65069521Y-156465417D01*
X65354074Y-156423697D01*
X65625020Y-156327265D01*
X65756337Y-156257073D01*
X65830946Y-156010551D01*
X65000000Y-155179605D01*
X64169054Y-156010551D01*
X55493834Y-156010551D01*
X55485000Y-155871844D01*
X55485000Y-155069521D01*
X63534583Y-155069521D01*
X63576303Y-155354074D01*
X63672735Y-155625020D01*
X63742927Y-155756337D01*
X63989449Y-155830946D01*
X64820395Y-155000000D01*
X65179605Y-155000000D01*
X66010551Y-155830946D01*
X66257073Y-155756337D01*
X66380473Y-155496561D01*
X66450823Y-155217703D01*
X66465417Y-154930479D01*
X66423697Y-154645926D01*
X66327265Y-154374980D01*
X66257073Y-154243663D01*
X66030198Y-154175000D01*
X68616928Y-154175000D01*
X68616928Y-155825000D01*
X68629188Y-155949482D01*
X68665498Y-156069180D01*
X68724463Y-156179494D01*
X68803815Y-156276185D01*
X68900506Y-156355537D01*
X69010820Y-156414502D01*
X69130518Y-156450812D01*
X69255000Y-156463072D01*
X70905000Y-156463072D01*
X71029482Y-156450812D01*
X71149180Y-156414502D01*
X71259494Y-156355537D01*
X71356185Y-156276185D01*
X71435537Y-156179494D01*
X71494502Y-156069180D01*
X71530812Y-155949482D01*
X71543072Y-155825000D01*
X71543072Y-154175000D01*
X71530812Y-154050518D01*
X71494502Y-153930820D01*
X71435537Y-153820506D01*
X71356185Y-153723815D01*
X71259494Y-153644463D01*
X71149180Y-153585498D01*
X71029482Y-153549188D01*
X70905000Y-153536928D01*
X69255000Y-153536928D01*
X69130518Y-153549188D01*
X69010820Y-153585498D01*
X68900506Y-153644463D01*
X68803815Y-153723815D01*
X68724463Y-153820506D01*
X68665498Y-153930820D01*
X68629188Y-154050518D01*
X68616928Y-154175000D01*
X66030198Y-154175000D01*
X66010551Y-154169054D01*
X65179605Y-155000000D01*
X64820395Y-155000000D01*
X63989449Y-154169054D01*
X63742927Y-154243663D01*
X63619527Y-154503439D01*
X63549177Y-154782297D01*
X63534583Y-155069521D01*
X55485000Y-155069521D01*
X55485000Y-153989449D01*
X64169054Y-153989449D01*
X65000000Y-154820395D01*
X65830946Y-153989449D01*
X65756337Y-153742927D01*
X65496561Y-153619527D01*
X65217703Y-153549177D01*
X64930479Y-153534583D01*
X64645926Y-153576303D01*
X64374980Y-153672735D01*
X64243663Y-153742927D01*
X64169054Y-153989449D01*
X55485000Y-153989449D01*
X55485000Y-149776129D01*
X78157000Y-149776129D01*
X78157000Y-150223871D01*
X78244350Y-150663010D01*
X78415694Y-151076669D01*
X78664446Y-151448953D01*
X78981047Y-151765554D01*
X79353331Y-152014306D01*
X79766990Y-152185650D01*
X80206129Y-152273000D01*
X80653871Y-152273000D01*
X81093010Y-152185650D01*
X81409678Y-152054481D01*
X81504204Y-152149007D01*
X81527998Y-152178000D01*
X81556991Y-152201794D01*
X81556995Y-152201798D01*
X81627684Y-152259810D01*
X81643723Y-152272973D01*
X81775752Y-152343545D01*
X81919013Y-152387002D01*
X82030666Y-152397999D01*
X82030675Y-152397999D01*
X82067998Y-152401675D01*
X82105321Y-152397999D01*
X91894679Y-152397999D01*
X91932001Y-152401675D01*
X91969323Y-152397999D01*
X91969334Y-152397999D01*
X92080987Y-152387002D01*
X92224248Y-152343545D01*
X92356277Y-152272973D01*
X92472002Y-152178000D01*
X92495804Y-152148997D01*
X92590321Y-152054481D01*
X92906990Y-152185650D01*
X93346129Y-152273000D01*
X93793871Y-152273000D01*
X94233010Y-152185650D01*
X94646669Y-152014306D01*
X95018953Y-151765554D01*
X95335554Y-151448953D01*
X95584306Y-151076669D01*
X95755650Y-150663010D01*
X95843000Y-150223871D01*
X95843000Y-149776129D01*
X95755650Y-149336990D01*
X95584306Y-148923331D01*
X95335554Y-148551047D01*
X95018953Y-148234446D01*
X94646669Y-147985694D01*
X94233010Y-147814350D01*
X93793871Y-147727000D01*
X93346129Y-147727000D01*
X92906990Y-147814350D01*
X92493331Y-147985694D01*
X92121047Y-148234446D01*
X91804446Y-148551047D01*
X91555694Y-148923331D01*
X91384350Y-149336990D01*
X91297000Y-149776129D01*
X91297000Y-150223871D01*
X91384350Y-150663010D01*
X91473402Y-150877999D01*
X82526598Y-150877999D01*
X82615650Y-150663010D01*
X82703000Y-150223871D01*
X82703000Y-149776129D01*
X82615650Y-149336990D01*
X82444306Y-148923331D01*
X82195554Y-148551047D01*
X81878953Y-148234446D01*
X81506669Y-147985694D01*
X81093010Y-147814350D01*
X80653871Y-147727000D01*
X80206129Y-147727000D01*
X79766990Y-147814350D01*
X79353331Y-147985694D01*
X78981047Y-148234446D01*
X78664446Y-148551047D01*
X78415694Y-148923331D01*
X78244350Y-149336990D01*
X78157000Y-149776129D01*
X55485000Y-149776129D01*
X55485000Y-146576000D01*
X82147928Y-146576000D01*
X82147928Y-148004000D01*
X82160188Y-148128482D01*
X82196498Y-148248180D01*
X82255463Y-148358494D01*
X82334815Y-148455185D01*
X82431506Y-148534537D01*
X82541820Y-148593502D01*
X82661518Y-148629812D01*
X82786000Y-148642072D01*
X84214000Y-148642072D01*
X84338482Y-148629812D01*
X84458180Y-148593502D01*
X84568494Y-148534537D01*
X84665185Y-148455185D01*
X84744537Y-148358494D01*
X84803502Y-148248180D01*
X84839812Y-148128482D01*
X84852072Y-148004000D01*
X84852072Y-148000140D01*
X84952163Y-148149937D01*
X85140063Y-148337837D01*
X85361009Y-148485468D01*
X85606511Y-148587158D01*
X85867135Y-148639000D01*
X86132865Y-148639000D01*
X86393489Y-148587158D01*
X86638991Y-148485468D01*
X86859937Y-148337837D01*
X87000000Y-148197774D01*
X87140063Y-148337837D01*
X87361009Y-148485468D01*
X87606511Y-148587158D01*
X87867135Y-148639000D01*
X88132865Y-148639000D01*
X88393489Y-148587158D01*
X88638991Y-148485468D01*
X88859937Y-148337837D01*
X88976501Y-148221273D01*
X89748332Y-148221273D01*
X89809491Y-148456470D01*
X90050326Y-148568768D01*
X90308441Y-148631924D01*
X90573919Y-148643511D01*
X90836555Y-148603082D01*
X91086258Y-148512193D01*
X91190509Y-148456470D01*
X91251668Y-148221273D01*
X90500000Y-147469605D01*
X89748332Y-148221273D01*
X88976501Y-148221273D01*
X89047837Y-148149937D01*
X89195468Y-147928991D01*
X89249511Y-147798519D01*
X89277807Y-147876258D01*
X89333530Y-147980509D01*
X89568727Y-148041668D01*
X90320395Y-147290000D01*
X90679605Y-147290000D01*
X91431273Y-148041668D01*
X91666470Y-147980509D01*
X91778768Y-147739674D01*
X91841924Y-147481559D01*
X91853511Y-147216081D01*
X91813082Y-146953445D01*
X91722193Y-146703742D01*
X91666470Y-146599491D01*
X91431273Y-146538332D01*
X90679605Y-147290000D01*
X90320395Y-147290000D01*
X89568727Y-146538332D01*
X89333530Y-146599491D01*
X89249116Y-146780526D01*
X89195468Y-146651009D01*
X89047837Y-146430063D01*
X88976501Y-146358727D01*
X89748332Y-146358727D01*
X90500000Y-147110395D01*
X91251668Y-146358727D01*
X91190509Y-146123530D01*
X90949674Y-146011232D01*
X90691559Y-145948076D01*
X90426081Y-145936489D01*
X90163445Y-145976918D01*
X89913742Y-146067807D01*
X89809491Y-146123530D01*
X89748332Y-146358727D01*
X88976501Y-146358727D01*
X88859937Y-146242163D01*
X88638991Y-146094532D01*
X88393489Y-145992842D01*
X88132865Y-145941000D01*
X87867135Y-145941000D01*
X87606511Y-145992842D01*
X87361009Y-146094532D01*
X87140063Y-146242163D01*
X87000000Y-146382226D01*
X86859937Y-146242163D01*
X86638991Y-146094532D01*
X86393489Y-145992842D01*
X86132865Y-145941000D01*
X85867135Y-145941000D01*
X85606511Y-145992842D01*
X85361009Y-146094532D01*
X85140063Y-146242163D01*
X84952163Y-146430063D01*
X84852072Y-146579860D01*
X84852072Y-146576000D01*
X84839812Y-146451518D01*
X84803502Y-146331820D01*
X84744537Y-146221506D01*
X84665185Y-146124815D01*
X84568494Y-146045463D01*
X84458180Y-145986498D01*
X84338482Y-145950188D01*
X84214000Y-145937928D01*
X82786000Y-145937928D01*
X82661518Y-145950188D01*
X82541820Y-145986498D01*
X82431506Y-146045463D01*
X82334815Y-146124815D01*
X82255463Y-146221506D01*
X82196498Y-146331820D01*
X82160188Y-146451518D01*
X82147928Y-146576000D01*
X55485000Y-146576000D01*
X55485000Y-143789721D01*
X57865000Y-143789721D01*
X57865000Y-144210279D01*
X57947047Y-144622756D01*
X58107988Y-145011302D01*
X58341637Y-145360983D01*
X58639017Y-145658363D01*
X58988698Y-145892012D01*
X59377244Y-146052953D01*
X59789721Y-146135000D01*
X60210279Y-146135000D01*
X60622756Y-146052953D01*
X61011302Y-145892012D01*
X61360983Y-145658363D01*
X61658363Y-145360983D01*
X61892012Y-145011302D01*
X62052953Y-144622756D01*
X62135000Y-144210279D01*
X62135000Y-143789721D01*
X150865000Y-143789721D01*
X150865000Y-144210279D01*
X150947047Y-144622756D01*
X151107988Y-145011302D01*
X151341637Y-145360983D01*
X151639017Y-145658363D01*
X151988698Y-145892012D01*
X152377244Y-146052953D01*
X152789721Y-146135000D01*
X153210279Y-146135000D01*
X153622756Y-146052953D01*
X154011302Y-145892012D01*
X154360983Y-145658363D01*
X154658363Y-145360983D01*
X154892012Y-145011302D01*
X155052953Y-144622756D01*
X155135000Y-144210279D01*
X155135000Y-143789721D01*
X155052953Y-143377244D01*
X154892012Y-142988698D01*
X154658363Y-142639017D01*
X154360983Y-142341637D01*
X154011302Y-142107988D01*
X153622756Y-141947047D01*
X153210279Y-141865000D01*
X152789721Y-141865000D01*
X152377244Y-141947047D01*
X151988698Y-142107988D01*
X151639017Y-142341637D01*
X151341637Y-142639017D01*
X151107988Y-142988698D01*
X150947047Y-143377244D01*
X150865000Y-143789721D01*
X62135000Y-143789721D01*
X62052953Y-143377244D01*
X61892012Y-142988698D01*
X61658363Y-142639017D01*
X61360983Y-142341637D01*
X61011302Y-142107988D01*
X60622756Y-141947047D01*
X60210279Y-141865000D01*
X59789721Y-141865000D01*
X59377244Y-141947047D01*
X58988698Y-142107988D01*
X58639017Y-142341637D01*
X58341637Y-142639017D01*
X58107988Y-142988698D01*
X57947047Y-143377244D01*
X57865000Y-143789721D01*
X55485000Y-143789721D01*
X55485000Y-139200000D01*
X102061928Y-139200000D01*
X102061928Y-140800000D01*
X102074188Y-140924482D01*
X102110498Y-141044180D01*
X102169463Y-141154494D01*
X102248815Y-141251185D01*
X102345506Y-141330537D01*
X102455820Y-141389502D01*
X102575518Y-141425812D01*
X102700000Y-141438072D01*
X104300000Y-141438072D01*
X104424482Y-141425812D01*
X104544180Y-141389502D01*
X104654494Y-141330537D01*
X104751185Y-141251185D01*
X104830537Y-141154494D01*
X104889502Y-141044180D01*
X104925812Y-140924482D01*
X104938072Y-140800000D01*
X104938072Y-139200000D01*
X104925812Y-139075518D01*
X104889502Y-138955820D01*
X104830537Y-138845506D01*
X104751185Y-138748815D01*
X104654494Y-138669463D01*
X104544180Y-138610498D01*
X104424482Y-138574188D01*
X104300000Y-138561928D01*
X102700000Y-138561928D01*
X102575518Y-138574188D01*
X102455820Y-138610498D01*
X102345506Y-138669463D01*
X102248815Y-138748815D01*
X102169463Y-138845506D01*
X102110498Y-138955820D01*
X102074188Y-139075518D01*
X102061928Y-139200000D01*
X55485000Y-139200000D01*
X55485000Y-135992702D01*
X102686903Y-135992702D01*
X102758486Y-136236671D01*
X103013996Y-136357571D01*
X103288184Y-136426300D01*
X103570512Y-136440217D01*
X103850130Y-136398787D01*
X104116292Y-136303603D01*
X104241514Y-136236671D01*
X104313097Y-135992702D01*
X103500000Y-135179605D01*
X102686903Y-135992702D01*
X55485000Y-135992702D01*
X55485000Y-135070512D01*
X102059783Y-135070512D01*
X102101213Y-135350130D01*
X102196397Y-135616292D01*
X102263329Y-135741514D01*
X102507298Y-135813097D01*
X103320395Y-135000000D01*
X103679605Y-135000000D01*
X104492702Y-135813097D01*
X104736671Y-135741514D01*
X104857571Y-135486004D01*
X104926300Y-135211816D01*
X104940217Y-134929488D01*
X104898787Y-134649870D01*
X104803603Y-134383708D01*
X104736671Y-134258486D01*
X104492702Y-134186903D01*
X103679605Y-135000000D01*
X103320395Y-135000000D01*
X102507298Y-134186903D01*
X102263329Y-134258486D01*
X102142429Y-134513996D01*
X102073700Y-134788184D01*
X102059783Y-135070512D01*
X55485000Y-135070512D01*
X55485000Y-134007298D01*
X102686903Y-134007298D01*
X103500000Y-134820395D01*
X104313097Y-134007298D01*
X104241514Y-133763329D01*
X103986004Y-133642429D01*
X103711816Y-133573700D01*
X103429488Y-133559783D01*
X103149870Y-133601213D01*
X102883708Y-133696397D01*
X102758486Y-133763329D01*
X102686903Y-134007298D01*
X55485000Y-134007298D01*
X55485000Y-115200000D01*
X95036324Y-115200000D01*
X95040001Y-115237332D01*
X95040000Y-116562677D01*
X95036324Y-116600000D01*
X95040000Y-116637322D01*
X95040000Y-116637332D01*
X95050997Y-116748985D01*
X95087749Y-116870142D01*
X95094454Y-116892246D01*
X95165026Y-117024276D01*
X95204871Y-117072826D01*
X95259999Y-117140001D01*
X95289003Y-117163804D01*
X96423548Y-118298350D01*
X96447346Y-118327348D01*
X96563071Y-118422321D01*
X96695100Y-118492893D01*
X96838361Y-118536350D01*
X96950014Y-118547347D01*
X96950023Y-118547347D01*
X96987346Y-118551023D01*
X97024669Y-118547347D01*
X97708942Y-118547347D01*
X97752879Y-118591284D01*
X97922397Y-118704552D01*
X98110755Y-118782573D01*
X98310714Y-118822347D01*
X98514592Y-118822347D01*
X98714551Y-118782573D01*
X98902909Y-118704552D01*
X99072427Y-118591284D01*
X99216590Y-118447121D01*
X99329858Y-118277603D01*
X99407879Y-118089245D01*
X99447653Y-117889286D01*
X99447653Y-117685408D01*
X99407879Y-117485449D01*
X99335367Y-117310392D01*
X99675000Y-117313072D01*
X99799482Y-117300812D01*
X99919180Y-117264502D01*
X100029494Y-117205537D01*
X100126185Y-117126185D01*
X100205537Y-117029494D01*
X100264502Y-116919180D01*
X100300812Y-116799482D01*
X100313072Y-116675000D01*
X100310000Y-116285750D01*
X100151250Y-116127000D01*
X99127000Y-116127000D01*
X99127000Y-116147000D01*
X98873000Y-116147000D01*
X98873000Y-116127000D01*
X98853000Y-116127000D01*
X98853000Y-115873000D01*
X98873000Y-115873000D01*
X98873000Y-115853000D01*
X99127000Y-115853000D01*
X99127000Y-115873000D01*
X100151250Y-115873000D01*
X100310000Y-115714250D01*
X100313072Y-115325000D01*
X100300812Y-115200518D01*
X100264502Y-115080820D01*
X100205537Y-114970506D01*
X100126185Y-114873815D01*
X100039303Y-114802513D01*
X100160907Y-114620518D01*
X100259658Y-114382113D01*
X100310000Y-114129024D01*
X100310000Y-113870976D01*
X100259658Y-113617887D01*
X100160907Y-113379482D01*
X100017544Y-113164923D01*
X99852621Y-113000000D01*
X100017544Y-112835077D01*
X100160907Y-112620518D01*
X100259658Y-112382113D01*
X100310000Y-112129024D01*
X100310000Y-111870976D01*
X100292385Y-111782416D01*
X116240001Y-95834801D01*
X116240001Y-135961928D01*
X116200000Y-135961928D01*
X116075518Y-135974188D01*
X115955820Y-136010498D01*
X115845506Y-136069463D01*
X115748815Y-136148815D01*
X115669463Y-136245506D01*
X115610498Y-136355820D01*
X115574188Y-136475518D01*
X115561928Y-136600000D01*
X115561928Y-138200000D01*
X115574188Y-138324482D01*
X115610498Y-138444180D01*
X115669463Y-138554494D01*
X115748815Y-138651185D01*
X115845506Y-138730537D01*
X115955820Y-138789502D01*
X116075518Y-138825812D01*
X116200000Y-138838072D01*
X117800000Y-138838072D01*
X117924482Y-138825812D01*
X118044180Y-138789502D01*
X118154494Y-138730537D01*
X118251185Y-138651185D01*
X118330537Y-138554494D01*
X118389502Y-138444180D01*
X118405117Y-138392702D01*
X121186903Y-138392702D01*
X121258486Y-138636671D01*
X121513996Y-138757571D01*
X121788184Y-138826300D01*
X122070512Y-138840217D01*
X122350130Y-138798787D01*
X122616292Y-138703603D01*
X122741514Y-138636671D01*
X122813097Y-138392702D01*
X122000000Y-137579605D01*
X121186903Y-138392702D01*
X118405117Y-138392702D01*
X118425812Y-138324482D01*
X118438072Y-138200000D01*
X118438072Y-137470512D01*
X120559783Y-137470512D01*
X120601213Y-137750130D01*
X120696397Y-138016292D01*
X120763329Y-138141514D01*
X121007298Y-138213097D01*
X121820395Y-137400000D01*
X122179605Y-137400000D01*
X122992702Y-138213097D01*
X123236671Y-138141514D01*
X123357571Y-137886004D01*
X123426300Y-137611816D01*
X123440217Y-137329488D01*
X123398787Y-137049870D01*
X123303603Y-136783708D01*
X123236671Y-136658486D01*
X122992702Y-136586903D01*
X122179605Y-137400000D01*
X121820395Y-137400000D01*
X121007298Y-136586903D01*
X120763329Y-136658486D01*
X120642429Y-136913996D01*
X120573700Y-137188184D01*
X120559783Y-137470512D01*
X118438072Y-137470512D01*
X118438072Y-136600000D01*
X118425812Y-136475518D01*
X118405118Y-136407298D01*
X121186903Y-136407298D01*
X122000000Y-137220395D01*
X122813097Y-136407298D01*
X122741514Y-136163329D01*
X122486004Y-136042429D01*
X122211816Y-135973700D01*
X121929488Y-135959783D01*
X121649870Y-136001213D01*
X121383708Y-136096397D01*
X121258486Y-136163329D01*
X121186903Y-136407298D01*
X118405118Y-136407298D01*
X118389502Y-136355820D01*
X118330537Y-136245506D01*
X118251185Y-136148815D01*
X118154494Y-136069463D01*
X118044180Y-136010498D01*
X117924482Y-135974188D01*
X117800000Y-135961928D01*
X117760000Y-135961928D01*
X117760000Y-134050551D01*
X149569054Y-134050551D01*
X149643663Y-134297073D01*
X149903439Y-134420473D01*
X150182297Y-134490823D01*
X150469521Y-134505417D01*
X150754074Y-134463697D01*
X151025020Y-134367265D01*
X151156337Y-134297073D01*
X151230946Y-134050551D01*
X150400000Y-133219605D01*
X149569054Y-134050551D01*
X117760000Y-134050551D01*
X117760000Y-133109521D01*
X148934583Y-133109521D01*
X148976303Y-133394074D01*
X149072735Y-133665020D01*
X149142927Y-133796337D01*
X149389449Y-133870946D01*
X150220395Y-133040000D01*
X150579605Y-133040000D01*
X151410551Y-133870946D01*
X151657073Y-133796337D01*
X151780473Y-133536561D01*
X151850823Y-133257703D01*
X151865417Y-132970479D01*
X151823697Y-132685926D01*
X151727265Y-132414980D01*
X151657073Y-132283663D01*
X151410551Y-132209054D01*
X150579605Y-133040000D01*
X150220395Y-133040000D01*
X149389449Y-132209054D01*
X149142927Y-132283663D01*
X149019527Y-132543439D01*
X148949177Y-132822297D01*
X148934583Y-133109521D01*
X117760000Y-133109521D01*
X117760000Y-132029449D01*
X149569054Y-132029449D01*
X150400000Y-132860395D01*
X151230946Y-132029449D01*
X151156337Y-131782927D01*
X150896561Y-131659527D01*
X150617703Y-131589177D01*
X150330479Y-131574583D01*
X150045926Y-131616303D01*
X149774980Y-131712735D01*
X149643663Y-131782927D01*
X149569054Y-132029449D01*
X117760000Y-132029449D01*
X117760000Y-127135000D01*
X148936928Y-127135000D01*
X148936928Y-128785000D01*
X148949188Y-128909482D01*
X148985498Y-129029180D01*
X149044463Y-129139494D01*
X149123815Y-129236185D01*
X149220506Y-129315537D01*
X149330820Y-129374502D01*
X149450518Y-129410812D01*
X149575000Y-129423072D01*
X151225000Y-129423072D01*
X151349482Y-129410812D01*
X151469180Y-129374502D01*
X151579494Y-129315537D01*
X151676185Y-129236185D01*
X151755537Y-129139494D01*
X151814502Y-129029180D01*
X151850812Y-128909482D01*
X151863072Y-128785000D01*
X151863072Y-127135000D01*
X151850812Y-127010518D01*
X151814502Y-126890820D01*
X151755537Y-126780506D01*
X151676185Y-126683815D01*
X151579494Y-126604463D01*
X151469180Y-126545498D01*
X151349482Y-126509188D01*
X151225000Y-126496928D01*
X149575000Y-126496928D01*
X149450518Y-126509188D01*
X149330820Y-126545498D01*
X149220506Y-126604463D01*
X149123815Y-126683815D01*
X149044463Y-126780506D01*
X148985498Y-126890820D01*
X148949188Y-127010518D01*
X148936928Y-127135000D01*
X117760000Y-127135000D01*
X117760000Y-94835000D01*
X117901939Y-94835000D01*
X118101898Y-94795226D01*
X118290256Y-94717205D01*
X118459774Y-94603937D01*
X118603937Y-94459774D01*
X118717205Y-94290256D01*
X118795226Y-94101898D01*
X118835000Y-93901939D01*
X118835000Y-93698061D01*
X118795226Y-93498102D01*
X118717205Y-93309744D01*
X118603937Y-93140226D01*
X118560000Y-93096289D01*
X118560000Y-79400000D01*
X126621928Y-79400000D01*
X126634188Y-79524482D01*
X126670498Y-79644180D01*
X126729463Y-79754494D01*
X126808815Y-79851185D01*
X126905506Y-79930537D01*
X127015820Y-79989502D01*
X127088380Y-80011513D01*
X126956525Y-80143368D01*
X126794010Y-80386589D01*
X126682068Y-80656842D01*
X126625000Y-80943740D01*
X126625000Y-81236260D01*
X126682068Y-81523158D01*
X126794010Y-81793411D01*
X126956525Y-82036632D01*
X127163368Y-82243475D01*
X127337760Y-82360000D01*
X127163368Y-82476525D01*
X126956525Y-82683368D01*
X126794010Y-82926589D01*
X126682068Y-83196842D01*
X126625000Y-83483740D01*
X126625000Y-83776260D01*
X126682068Y-84063158D01*
X126794010Y-84333411D01*
X126956525Y-84576632D01*
X127163368Y-84783475D01*
X127406589Y-84945990D01*
X127676842Y-85057932D01*
X127963740Y-85115000D01*
X128256260Y-85115000D01*
X128543158Y-85057932D01*
X128813411Y-84945990D01*
X129056632Y-84783475D01*
X129263475Y-84576632D01*
X129425990Y-84333411D01*
X129537932Y-84063158D01*
X129595000Y-83776260D01*
X129595000Y-83483740D01*
X129537932Y-83196842D01*
X129425990Y-82926589D01*
X129263475Y-82683368D01*
X129056632Y-82476525D01*
X128882240Y-82360000D01*
X129056632Y-82243475D01*
X129263475Y-82036632D01*
X129425990Y-81793411D01*
X129537932Y-81523158D01*
X129595000Y-81236260D01*
X129595000Y-80943740D01*
X129537932Y-80656842D01*
X129425990Y-80386589D01*
X129263475Y-80143368D01*
X129131620Y-80011513D01*
X129204180Y-79989502D01*
X129314494Y-79930537D01*
X129411185Y-79851185D01*
X129490537Y-79754494D01*
X129549502Y-79644180D01*
X129585812Y-79524482D01*
X129598072Y-79400000D01*
X129595000Y-78835750D01*
X129436250Y-78677000D01*
X128237000Y-78677000D01*
X128237000Y-78697000D01*
X127983000Y-78697000D01*
X127983000Y-78677000D01*
X126783750Y-78677000D01*
X126625000Y-78835750D01*
X126621928Y-79400000D01*
X118560000Y-79400000D01*
X118560000Y-67514801D01*
X125281003Y-60793799D01*
X125310001Y-60770001D01*
X125404974Y-60654276D01*
X125475546Y-60522247D01*
X125519003Y-60378986D01*
X125530000Y-60267333D01*
X125533677Y-60230000D01*
X125530000Y-60192667D01*
X125530000Y-58990000D01*
X126831822Y-58990000D01*
X126956525Y-59176632D01*
X127163368Y-59383475D01*
X127337760Y-59500000D01*
X127163368Y-59616525D01*
X126956525Y-59823368D01*
X126794010Y-60066589D01*
X126682068Y-60336842D01*
X126625000Y-60623740D01*
X126625000Y-60916260D01*
X126682068Y-61203158D01*
X126794010Y-61473411D01*
X126956525Y-61716632D01*
X127163368Y-61923475D01*
X127337760Y-62040000D01*
X127163368Y-62156525D01*
X126956525Y-62363368D01*
X126794010Y-62606589D01*
X126682068Y-62876842D01*
X126625000Y-63163740D01*
X126625000Y-63456260D01*
X126682068Y-63743158D01*
X126794010Y-64013411D01*
X126956525Y-64256632D01*
X127088380Y-64388487D01*
X127015820Y-64410498D01*
X126905506Y-64469463D01*
X126808815Y-64548815D01*
X126729463Y-64645506D01*
X126670498Y-64755820D01*
X126634188Y-64875518D01*
X126621928Y-65000000D01*
X126621928Y-66700000D01*
X126634188Y-66824482D01*
X126670498Y-66944180D01*
X126729463Y-67054494D01*
X126808815Y-67151185D01*
X126905506Y-67230537D01*
X127015820Y-67289502D01*
X127088380Y-67311513D01*
X126956525Y-67443368D01*
X126794010Y-67686589D01*
X126682068Y-67956842D01*
X126625000Y-68243740D01*
X126625000Y-68536260D01*
X126682068Y-68823158D01*
X126794010Y-69093411D01*
X126956525Y-69336632D01*
X127163368Y-69543475D01*
X127337760Y-69660000D01*
X127163368Y-69776525D01*
X126956525Y-69983368D01*
X126794010Y-70226589D01*
X126682068Y-70496842D01*
X126625000Y-70783740D01*
X126625000Y-71076260D01*
X126682068Y-71363158D01*
X126794010Y-71633411D01*
X126956525Y-71876632D01*
X127163368Y-72083475D01*
X127337760Y-72200000D01*
X127163368Y-72316525D01*
X126956525Y-72523368D01*
X126794010Y-72766589D01*
X126682068Y-73036842D01*
X126625000Y-73323740D01*
X126625000Y-73616260D01*
X126682068Y-73903158D01*
X126794010Y-74173411D01*
X126956525Y-74416632D01*
X127163368Y-74623475D01*
X127337760Y-74740000D01*
X127163368Y-74856525D01*
X126956525Y-75063368D01*
X126794010Y-75306589D01*
X126682068Y-75576842D01*
X126625000Y-75863740D01*
X126625000Y-76156260D01*
X126682068Y-76443158D01*
X126794010Y-76713411D01*
X126956525Y-76956632D01*
X127088380Y-77088487D01*
X127015820Y-77110498D01*
X126905506Y-77169463D01*
X126808815Y-77248815D01*
X126729463Y-77345506D01*
X126670498Y-77455820D01*
X126634188Y-77575518D01*
X126621928Y-77700000D01*
X126625000Y-78264250D01*
X126783750Y-78423000D01*
X127983000Y-78423000D01*
X127983000Y-78403000D01*
X128237000Y-78403000D01*
X128237000Y-78423000D01*
X129436250Y-78423000D01*
X129595000Y-78264250D01*
X129598072Y-77700000D01*
X129585812Y-77575518D01*
X129549502Y-77455820D01*
X129490537Y-77345506D01*
X129411185Y-77248815D01*
X129314494Y-77169463D01*
X129204180Y-77110498D01*
X129131620Y-77088487D01*
X129263475Y-76956632D01*
X129425990Y-76713411D01*
X129537932Y-76443158D01*
X129595000Y-76156260D01*
X129595000Y-75863740D01*
X129537932Y-75576842D01*
X129425990Y-75306589D01*
X129263475Y-75063368D01*
X129056632Y-74856525D01*
X128882240Y-74740000D01*
X129056632Y-74623475D01*
X129263475Y-74416632D01*
X129388178Y-74230000D01*
X131555199Y-74230000D01*
X139265673Y-81940474D01*
X139106842Y-81972068D01*
X138836589Y-82084010D01*
X138593368Y-82246525D01*
X138461513Y-82378380D01*
X138439502Y-82305820D01*
X138380537Y-82195506D01*
X138301185Y-82098815D01*
X138204494Y-82019463D01*
X138094180Y-81960498D01*
X137974482Y-81924188D01*
X137850000Y-81911928D01*
X136150000Y-81911928D01*
X136025518Y-81924188D01*
X135905820Y-81960498D01*
X135795506Y-82019463D01*
X135698815Y-82098815D01*
X135619463Y-82195506D01*
X135560498Y-82305820D01*
X135538487Y-82378380D01*
X135406632Y-82246525D01*
X135163411Y-82084010D01*
X134893158Y-81972068D01*
X134606260Y-81915000D01*
X134313740Y-81915000D01*
X134026842Y-81972068D01*
X133756589Y-82084010D01*
X133513368Y-82246525D01*
X133306525Y-82453368D01*
X133144010Y-82696589D01*
X133032068Y-82966842D01*
X132975000Y-83253740D01*
X132975000Y-83546260D01*
X133032068Y-83833158D01*
X133144010Y-84103411D01*
X133306525Y-84346632D01*
X133513368Y-84553475D01*
X133756589Y-84715990D01*
X134026842Y-84827932D01*
X134313740Y-84885000D01*
X134606260Y-84885000D01*
X134893158Y-84827932D01*
X135163411Y-84715990D01*
X135406632Y-84553475D01*
X135538487Y-84421620D01*
X135560498Y-84494180D01*
X135619463Y-84604494D01*
X135698815Y-84701185D01*
X135795506Y-84780537D01*
X135905820Y-84839502D01*
X136025518Y-84875812D01*
X136150000Y-84888072D01*
X137850000Y-84888072D01*
X137974482Y-84875812D01*
X138094180Y-84839502D01*
X138204494Y-84780537D01*
X138301185Y-84701185D01*
X138380537Y-84604494D01*
X138439502Y-84494180D01*
X138461513Y-84421620D01*
X138593368Y-84553475D01*
X138836589Y-84715990D01*
X139106842Y-84827932D01*
X139393740Y-84885000D01*
X139686260Y-84885000D01*
X139973158Y-84827932D01*
X140243411Y-84715990D01*
X140486632Y-84553475D01*
X140693475Y-84346632D01*
X140855990Y-84103411D01*
X140967932Y-83833158D01*
X140999526Y-83674327D01*
X150765000Y-93439802D01*
X150765000Y-93501939D01*
X150804774Y-93701898D01*
X150882795Y-93890256D01*
X150996063Y-94059774D01*
X151140226Y-94203937D01*
X151309744Y-94317205D01*
X151498102Y-94395226D01*
X151698061Y-94435000D01*
X151901939Y-94435000D01*
X152040001Y-94407538D01*
X152040001Y-95311928D01*
X149950000Y-95311928D01*
X149825518Y-95324188D01*
X149705820Y-95360498D01*
X149595506Y-95419463D01*
X149498815Y-95498815D01*
X149419463Y-95595506D01*
X149360498Y-95705820D01*
X149324188Y-95825518D01*
X149311928Y-95950000D01*
X149311928Y-98050000D01*
X149324188Y-98174482D01*
X149360498Y-98294180D01*
X149419463Y-98404494D01*
X149498815Y-98501185D01*
X149595506Y-98580537D01*
X149609546Y-98588042D01*
X149506772Y-98741853D01*
X149379754Y-99048504D01*
X149315000Y-99374042D01*
X149315000Y-99705958D01*
X149379754Y-100031496D01*
X149506772Y-100338147D01*
X149691175Y-100614125D01*
X149887050Y-100810000D01*
X149691175Y-101005875D01*
X149506772Y-101281853D01*
X149490971Y-101320000D01*
X143983406Y-101320000D01*
X143934774Y-101271368D01*
X143765256Y-101158100D01*
X143576898Y-101080079D01*
X143376939Y-101040305D01*
X143173061Y-101040305D01*
X142973102Y-101080079D01*
X142784744Y-101158100D01*
X142615226Y-101271368D01*
X142471063Y-101415531D01*
X142357795Y-101585049D01*
X142279774Y-101773407D01*
X142240000Y-101973366D01*
X142240000Y-102177244D01*
X142279774Y-102377203D01*
X142357795Y-102565561D01*
X142471063Y-102735079D01*
X142615226Y-102879242D01*
X142784744Y-102992510D01*
X142973102Y-103070531D01*
X143173061Y-103110305D01*
X143376939Y-103110305D01*
X143576898Y-103070531D01*
X143765256Y-102992510D01*
X143934774Y-102879242D01*
X143974016Y-102840000D01*
X149490971Y-102840000D01*
X149506772Y-102878147D01*
X149691175Y-103154125D01*
X149887050Y-103350000D01*
X149691175Y-103545875D01*
X149506772Y-103821853D01*
X149379754Y-104128504D01*
X149315000Y-104454042D01*
X149315000Y-104785958D01*
X149379754Y-105111496D01*
X149506772Y-105418147D01*
X149691175Y-105694125D01*
X149887050Y-105890000D01*
X149691175Y-106085875D01*
X149506772Y-106361853D01*
X149379754Y-106668504D01*
X149315000Y-106994042D01*
X149315000Y-107325958D01*
X149379754Y-107651496D01*
X149506772Y-107958147D01*
X149691175Y-108234125D01*
X149887050Y-108430000D01*
X149691175Y-108625875D01*
X149506772Y-108901853D01*
X149379754Y-109208504D01*
X149315000Y-109534042D01*
X149315000Y-109865958D01*
X149379754Y-110191496D01*
X149506772Y-110498147D01*
X149691175Y-110774125D01*
X149887050Y-110970000D01*
X149691175Y-111165875D01*
X149506772Y-111441853D01*
X149379754Y-111748504D01*
X149315000Y-112074042D01*
X149315000Y-112405958D01*
X149379754Y-112731496D01*
X149506772Y-113038147D01*
X149691175Y-113314125D01*
X149925875Y-113548825D01*
X150201853Y-113733228D01*
X150508504Y-113860246D01*
X150834042Y-113925000D01*
X151165958Y-113925000D01*
X151491496Y-113860246D01*
X151798147Y-113733228D01*
X152074125Y-113548825D01*
X152308825Y-113314125D01*
X152493228Y-113038147D01*
X152620246Y-112731496D01*
X152685000Y-112405958D01*
X152685000Y-112074042D01*
X152620246Y-111748504D01*
X152604445Y-111710357D01*
X153311008Y-111003795D01*
X153340001Y-110980001D01*
X153363795Y-110951008D01*
X153363799Y-110951004D01*
X153434973Y-110864277D01*
X153434974Y-110864276D01*
X153505546Y-110732247D01*
X153549003Y-110588986D01*
X153560000Y-110477333D01*
X153560000Y-110477324D01*
X153563676Y-110440001D01*
X153560000Y-110402678D01*
X153560000Y-59837325D01*
X153563676Y-59800000D01*
X153560000Y-59762675D01*
X153560000Y-59762667D01*
X153549003Y-59651014D01*
X153505546Y-59507753D01*
X153434974Y-59375724D01*
X153340001Y-59259999D01*
X153311004Y-59236202D01*
X149253804Y-55179003D01*
X149230001Y-55149999D01*
X149114276Y-55055026D01*
X148982247Y-54984454D01*
X148838986Y-54940997D01*
X148727333Y-54930000D01*
X148727322Y-54930000D01*
X148690000Y-54926324D01*
X148652678Y-54930000D01*
X147168178Y-54930000D01*
X147043475Y-54743368D01*
X146911620Y-54611513D01*
X146984180Y-54589502D01*
X147094494Y-54530537D01*
X147191185Y-54451185D01*
X147270537Y-54354494D01*
X147329502Y-54244180D01*
X147365812Y-54124482D01*
X147378072Y-54000000D01*
X147378072Y-52300000D01*
X147365812Y-52175518D01*
X147329502Y-52055820D01*
X147270537Y-51945506D01*
X147191185Y-51848815D01*
X147094494Y-51769463D01*
X146984180Y-51710498D01*
X146911620Y-51688487D01*
X147043475Y-51556632D01*
X147205990Y-51313411D01*
X147317932Y-51043158D01*
X147375000Y-50756260D01*
X147375000Y-50463740D01*
X147317932Y-50176842D01*
X147205990Y-49906589D01*
X147043475Y-49663368D01*
X146836632Y-49456525D01*
X146662240Y-49340000D01*
X146836632Y-49223475D01*
X147043475Y-49016632D01*
X147205990Y-48773411D01*
X147317932Y-48503158D01*
X147375000Y-48216260D01*
X147375000Y-47923740D01*
X147317932Y-47636842D01*
X147205990Y-47366589D01*
X147043475Y-47123368D01*
X146836632Y-46916525D01*
X146662240Y-46800000D01*
X146836632Y-46683475D01*
X147043475Y-46476632D01*
X147205990Y-46233411D01*
X147317932Y-45963158D01*
X147375000Y-45676260D01*
X147375000Y-45383740D01*
X147317932Y-45096842D01*
X147205990Y-44826589D01*
X147043475Y-44583368D01*
X146836632Y-44376525D01*
X146662240Y-44260000D01*
X146836632Y-44143475D01*
X147043475Y-43936632D01*
X147205990Y-43693411D01*
X147317932Y-43423158D01*
X147375000Y-43136260D01*
X147375000Y-42843740D01*
X147317932Y-42556842D01*
X147205990Y-42286589D01*
X147043475Y-42043368D01*
X146911620Y-41911513D01*
X146984180Y-41889502D01*
X147094494Y-41830537D01*
X147191185Y-41751185D01*
X147270537Y-41654494D01*
X147329502Y-41544180D01*
X147365812Y-41424482D01*
X147378072Y-41300000D01*
X147378072Y-39600000D01*
X147365812Y-39475518D01*
X147329502Y-39355820D01*
X147270537Y-39245506D01*
X147191185Y-39148815D01*
X147094494Y-39069463D01*
X146984180Y-39010498D01*
X146911620Y-38988487D01*
X147043475Y-38856632D01*
X147205990Y-38613411D01*
X147317932Y-38343158D01*
X147375000Y-38056260D01*
X147375000Y-37763740D01*
X147317932Y-37476842D01*
X147205990Y-37206589D01*
X147043475Y-36963368D01*
X146836632Y-36756525D01*
X146662240Y-36640000D01*
X146836632Y-36523475D01*
X147043475Y-36316632D01*
X147205990Y-36073411D01*
X147317932Y-35803158D01*
X147375000Y-35516260D01*
X147375000Y-35223740D01*
X147317932Y-34936842D01*
X147205990Y-34666589D01*
X147043475Y-34423368D01*
X146836632Y-34216525D01*
X146593411Y-34054010D01*
X146323158Y-33942068D01*
X146036260Y-33885000D01*
X145743740Y-33885000D01*
X145456842Y-33942068D01*
X145186589Y-34054010D01*
X144943368Y-34216525D01*
X144736525Y-34423368D01*
X144574010Y-34666589D01*
X144462068Y-34936842D01*
X144405000Y-35223740D01*
X144405000Y-35516260D01*
X144462068Y-35803158D01*
X144574010Y-36073411D01*
X144736525Y-36316632D01*
X144943368Y-36523475D01*
X145117760Y-36640000D01*
X144943368Y-36756525D01*
X144736525Y-36963368D01*
X144611822Y-37150000D01*
X142927325Y-37150000D01*
X142890000Y-37146324D01*
X142852675Y-37150000D01*
X142852667Y-37150000D01*
X142741014Y-37160997D01*
X142597753Y-37204454D01*
X142465724Y-37275026D01*
X142349999Y-37369999D01*
X142326201Y-37398997D01*
X140732426Y-38992773D01*
X140756775Y-38933989D01*
X140810000Y-38666411D01*
X140810000Y-38393589D01*
X140756775Y-38126011D01*
X140652371Y-37873957D01*
X140500799Y-37647114D01*
X140307886Y-37454201D01*
X140081043Y-37302629D01*
X139828989Y-37198225D01*
X139561411Y-37145000D01*
X139288589Y-37145000D01*
X139021011Y-37198225D01*
X138768957Y-37302629D01*
X138542114Y-37454201D01*
X138349201Y-37647114D01*
X138197629Y-37873957D01*
X138093225Y-38126011D01*
X138040000Y-38393589D01*
X138040000Y-38666411D01*
X138093225Y-38933989D01*
X138137136Y-39040000D01*
X135862864Y-39040000D01*
X135906775Y-38933989D01*
X135960000Y-38666411D01*
X135960000Y-38393589D01*
X135906775Y-38126011D01*
X135802371Y-37873957D01*
X135650799Y-37647114D01*
X135457886Y-37454201D01*
X135231043Y-37302629D01*
X134978989Y-37198225D01*
X134711411Y-37145000D01*
X134438589Y-37145000D01*
X134171011Y-37198225D01*
X133918957Y-37302629D01*
X133692114Y-37454201D01*
X133499201Y-37647114D01*
X133347629Y-37873957D01*
X133243225Y-38126011D01*
X133190000Y-38393589D01*
X133190000Y-38666411D01*
X133243225Y-38933989D01*
X133287136Y-39040000D01*
X130514802Y-39040000D01*
X130163803Y-38689002D01*
X130140001Y-38659999D01*
X130024276Y-38565026D01*
X129892247Y-38494454D01*
X129748986Y-38450997D01*
X129637333Y-38440000D01*
X129637322Y-38440000D01*
X129600000Y-38436324D01*
X129562678Y-38440000D01*
X129497819Y-38440000D01*
X129537932Y-38343158D01*
X129595000Y-38056260D01*
X129595000Y-37763740D01*
X129537932Y-37476842D01*
X129425990Y-37206589D01*
X129263475Y-36963368D01*
X129056632Y-36756525D01*
X128882240Y-36640000D01*
X129056632Y-36523475D01*
X129263475Y-36316632D01*
X129425990Y-36073411D01*
X129537932Y-35803158D01*
X129595000Y-35516260D01*
X129595000Y-35348816D01*
X132740000Y-35348816D01*
X132740000Y-35651184D01*
X132798989Y-35947743D01*
X132914701Y-36227095D01*
X133082688Y-36478505D01*
X133296495Y-36692312D01*
X133547905Y-36860299D01*
X133827257Y-36976011D01*
X134123816Y-37035000D01*
X134426184Y-37035000D01*
X134722743Y-36976011D01*
X135002095Y-36860299D01*
X135253505Y-36692312D01*
X135467312Y-36478505D01*
X135635299Y-36227095D01*
X135751011Y-35947743D01*
X135810000Y-35651184D01*
X135810000Y-35348816D01*
X138190000Y-35348816D01*
X138190000Y-35651184D01*
X138248989Y-35947743D01*
X138364701Y-36227095D01*
X138532688Y-36478505D01*
X138746495Y-36692312D01*
X138997905Y-36860299D01*
X139277257Y-36976011D01*
X139573816Y-37035000D01*
X139876184Y-37035000D01*
X140172743Y-36976011D01*
X140452095Y-36860299D01*
X140703505Y-36692312D01*
X140917312Y-36478505D01*
X141085299Y-36227095D01*
X141201011Y-35947743D01*
X141260000Y-35651184D01*
X141260000Y-35348816D01*
X141201011Y-35052257D01*
X141085299Y-34772905D01*
X140917312Y-34521495D01*
X140703505Y-34307688D01*
X140452095Y-34139701D01*
X140172743Y-34023989D01*
X139876184Y-33965000D01*
X139573816Y-33965000D01*
X139277257Y-34023989D01*
X138997905Y-34139701D01*
X138746495Y-34307688D01*
X138532688Y-34521495D01*
X138364701Y-34772905D01*
X138248989Y-35052257D01*
X138190000Y-35348816D01*
X135810000Y-35348816D01*
X135751011Y-35052257D01*
X135635299Y-34772905D01*
X135467312Y-34521495D01*
X135253505Y-34307688D01*
X135002095Y-34139701D01*
X134722743Y-34023989D01*
X134426184Y-33965000D01*
X134123816Y-33965000D01*
X133827257Y-34023989D01*
X133547905Y-34139701D01*
X133296495Y-34307688D01*
X133082688Y-34521495D01*
X132914701Y-34772905D01*
X132798989Y-35052257D01*
X132740000Y-35348816D01*
X129595000Y-35348816D01*
X129595000Y-35223740D01*
X129537932Y-34936842D01*
X129425990Y-34666589D01*
X129263475Y-34423368D01*
X129056632Y-34216525D01*
X128813411Y-34054010D01*
X128543158Y-33942068D01*
X128256260Y-33885000D01*
X127963740Y-33885000D01*
X127676842Y-33942068D01*
X127406589Y-34054010D01*
X127163368Y-34216525D01*
X126956525Y-34423368D01*
X126794010Y-34666589D01*
X126682068Y-34936842D01*
X126625000Y-35223740D01*
X126625000Y-35516260D01*
X126682068Y-35803158D01*
X126794010Y-36073411D01*
X126956525Y-36316632D01*
X127163368Y-36523475D01*
X127337760Y-36640000D01*
X127163368Y-36756525D01*
X126956525Y-36963368D01*
X126794010Y-37206589D01*
X126682068Y-37476842D01*
X126625000Y-37763740D01*
X126625000Y-38056260D01*
X126682068Y-38343158D01*
X126722181Y-38440000D01*
X124837325Y-38440000D01*
X124800000Y-38436324D01*
X124762675Y-38440000D01*
X124762667Y-38440000D01*
X124651014Y-38450997D01*
X124507753Y-38494454D01*
X124375724Y-38565026D01*
X124259999Y-38659999D01*
X124236201Y-38688997D01*
X116489003Y-46436196D01*
X116459999Y-46459999D01*
X116404871Y-46527174D01*
X116365026Y-46575724D01*
X116303944Y-46690000D01*
X116294454Y-46707754D01*
X116250997Y-46851015D01*
X116240000Y-46962668D01*
X116240000Y-46962678D01*
X116236324Y-47000000D01*
X116240000Y-47037322D01*
X116240000Y-58977292D01*
X116114592Y-58952347D01*
X115910714Y-58952347D01*
X115710755Y-58992121D01*
X115522397Y-59070142D01*
X115496858Y-59087206D01*
X115490256Y-59082795D01*
X115301898Y-59004774D01*
X115101939Y-58965000D01*
X115039802Y-58965000D01*
X108576457Y-52501656D01*
X108552654Y-52472652D01*
X108436929Y-52377679D01*
X108304900Y-52307107D01*
X108161639Y-52263650D01*
X108049986Y-52252653D01*
X108049975Y-52252653D01*
X108012653Y-52248977D01*
X107975331Y-52252653D01*
X105691058Y-52252653D01*
X105647121Y-52208716D01*
X105477603Y-52095448D01*
X105289245Y-52017427D01*
X105089286Y-51977653D01*
X104885408Y-51977653D01*
X104685449Y-52017427D01*
X104497091Y-52095448D01*
X104327573Y-52208716D01*
X104285849Y-52250440D01*
X104310000Y-52129024D01*
X104310000Y-51870976D01*
X104259658Y-51617887D01*
X104160907Y-51379482D01*
X104017544Y-51164923D01*
X103852621Y-51000000D01*
X104017544Y-50835077D01*
X104160907Y-50620518D01*
X104259658Y-50382113D01*
X104310000Y-50129024D01*
X104310000Y-49870976D01*
X104259658Y-49617887D01*
X104160907Y-49379482D01*
X104017544Y-49164923D01*
X103852621Y-49000000D01*
X104017544Y-48835077D01*
X104160907Y-48620518D01*
X104259658Y-48382113D01*
X104310000Y-48129024D01*
X104310000Y-47870976D01*
X104259658Y-47617887D01*
X104160907Y-47379482D01*
X104017544Y-47164923D01*
X103852621Y-47000000D01*
X104017544Y-46835077D01*
X104160907Y-46620518D01*
X104259658Y-46382113D01*
X104310000Y-46129024D01*
X104310000Y-45870976D01*
X104259658Y-45617887D01*
X104160907Y-45379482D01*
X104017544Y-45164923D01*
X103852621Y-45000000D01*
X104017544Y-44835077D01*
X104160907Y-44620518D01*
X104259658Y-44382113D01*
X104310000Y-44129024D01*
X104310000Y-43870976D01*
X104259658Y-43617887D01*
X104160907Y-43379482D01*
X104017544Y-43164923D01*
X103835077Y-42982456D01*
X103620518Y-42839093D01*
X103382113Y-42740342D01*
X103129024Y-42690000D01*
X102870976Y-42690000D01*
X102617887Y-42740342D01*
X102379482Y-42839093D01*
X102164923Y-42982456D01*
X101982456Y-43164923D01*
X101839093Y-43379482D01*
X101740342Y-43617887D01*
X101690000Y-43870976D01*
X101690000Y-44129024D01*
X101740342Y-44382113D01*
X101839093Y-44620518D01*
X101982456Y-44835077D01*
X102147379Y-45000000D01*
X101982456Y-45164923D01*
X101839093Y-45379482D01*
X101740342Y-45617887D01*
X101690000Y-45870976D01*
X101690000Y-46129024D01*
X101740342Y-46382113D01*
X101839093Y-46620518D01*
X101982456Y-46835077D01*
X102147379Y-47000000D01*
X101982456Y-47164923D01*
X101839093Y-47379482D01*
X101740342Y-47617887D01*
X101690000Y-47870976D01*
X101690000Y-48129024D01*
X101740342Y-48382113D01*
X101839093Y-48620518D01*
X101982456Y-48835077D01*
X102147379Y-49000000D01*
X101982456Y-49164923D01*
X101839093Y-49379482D01*
X101740342Y-49617887D01*
X101690000Y-49870976D01*
X101690000Y-50129024D01*
X101740342Y-50382113D01*
X101839093Y-50620518D01*
X101982456Y-50835077D01*
X102147379Y-51000000D01*
X101982456Y-51164923D01*
X101839093Y-51379482D01*
X101740342Y-51617887D01*
X101690000Y-51870976D01*
X101690000Y-52129024D01*
X101740342Y-52382113D01*
X101839093Y-52620518D01*
X101960697Y-52802513D01*
X101873815Y-52873815D01*
X101794463Y-52970506D01*
X101735498Y-53080820D01*
X101699188Y-53200518D01*
X101686928Y-53325000D01*
X101690000Y-53714250D01*
X101848750Y-53873000D01*
X102873000Y-53873000D01*
X102873000Y-53853000D01*
X103127000Y-53853000D01*
X103127000Y-53873000D01*
X104151250Y-53873000D01*
X104267617Y-53756634D01*
X104327573Y-53816590D01*
X104497091Y-53929858D01*
X104685449Y-54007879D01*
X104885408Y-54047653D01*
X105089286Y-54047653D01*
X105289245Y-54007879D01*
X105477603Y-53929858D01*
X105647121Y-53816590D01*
X105691058Y-53772653D01*
X107697852Y-53772653D01*
X113965000Y-60039802D01*
X113965000Y-60101939D01*
X114004774Y-60301898D01*
X114082795Y-60490256D01*
X114196063Y-60659774D01*
X114340226Y-60803937D01*
X114509744Y-60917205D01*
X114698102Y-60995226D01*
X114898061Y-61035000D01*
X115101939Y-61035000D01*
X115240000Y-61007538D01*
X115240001Y-94685197D01*
X100267564Y-109657635D01*
X100259658Y-109617887D01*
X100160907Y-109379482D01*
X100017544Y-109164923D01*
X99835077Y-108982456D01*
X99620518Y-108839093D01*
X99382113Y-108740342D01*
X99129024Y-108690000D01*
X98870976Y-108690000D01*
X98617887Y-108740342D01*
X98379482Y-108839093D01*
X98164923Y-108982456D01*
X98000000Y-109147379D01*
X97835077Y-108982456D01*
X97620518Y-108839093D01*
X97382113Y-108740342D01*
X97129024Y-108690000D01*
X96870976Y-108690000D01*
X96617887Y-108740342D01*
X96379482Y-108839093D01*
X96164923Y-108982456D01*
X95982456Y-109164923D01*
X95839093Y-109379482D01*
X95740342Y-109617887D01*
X95690000Y-109870976D01*
X95690000Y-110129024D01*
X95740342Y-110382113D01*
X95839093Y-110620518D01*
X95982456Y-110835077D01*
X96147379Y-111000000D01*
X95982456Y-111164923D01*
X95839093Y-111379482D01*
X95740342Y-111617887D01*
X95690000Y-111870976D01*
X95690000Y-112129024D01*
X95740342Y-112382113D01*
X95839093Y-112620518D01*
X95982456Y-112835077D01*
X96147379Y-113000000D01*
X95982456Y-113164923D01*
X95839093Y-113379482D01*
X95740342Y-113617887D01*
X95690000Y-113870976D01*
X95690000Y-114129024D01*
X95707615Y-114217583D01*
X95288998Y-114636201D01*
X95260000Y-114659999D01*
X95236202Y-114688997D01*
X95236201Y-114688998D01*
X95165026Y-114775724D01*
X95094454Y-114907754D01*
X95050998Y-115051015D01*
X95036324Y-115200000D01*
X55485000Y-115200000D01*
X55485000Y-54675000D01*
X101686928Y-54675000D01*
X101699188Y-54799482D01*
X101735498Y-54919180D01*
X101794463Y-55029494D01*
X101873815Y-55126185D01*
X101970506Y-55205537D01*
X102080820Y-55264502D01*
X102200518Y-55300812D01*
X102325000Y-55313072D01*
X102714250Y-55310000D01*
X102873000Y-55151250D01*
X102873000Y-54127000D01*
X103127000Y-54127000D01*
X103127000Y-55151250D01*
X103285750Y-55310000D01*
X103675000Y-55313072D01*
X103799482Y-55300812D01*
X103919180Y-55264502D01*
X104029494Y-55205537D01*
X104126185Y-55126185D01*
X104205537Y-55029494D01*
X104264502Y-54919180D01*
X104300812Y-54799482D01*
X104313072Y-54675000D01*
X104310000Y-54285750D01*
X104151250Y-54127000D01*
X103127000Y-54127000D01*
X102873000Y-54127000D01*
X101848750Y-54127000D01*
X101690000Y-54285750D01*
X101686928Y-54675000D01*
X55485000Y-54675000D01*
X55485000Y-21789721D01*
X57865000Y-21789721D01*
X57865000Y-22210279D01*
X57947047Y-22622756D01*
X58107988Y-23011302D01*
X58341637Y-23360983D01*
X58639017Y-23658363D01*
X58988698Y-23892012D01*
X59377244Y-24052953D01*
X59789721Y-24135000D01*
X60210279Y-24135000D01*
X60622756Y-24052953D01*
X61011302Y-23892012D01*
X61360983Y-23658363D01*
X61658363Y-23360983D01*
X61892012Y-23011302D01*
X62052953Y-22622756D01*
X62135000Y-22210279D01*
X62135000Y-21789721D01*
X151865000Y-21789721D01*
X151865000Y-22210279D01*
X151947047Y-22622756D01*
X152107988Y-23011302D01*
X152341637Y-23360983D01*
X152639017Y-23658363D01*
X152988698Y-23892012D01*
X153377244Y-24052953D01*
X153789721Y-24135000D01*
X154210279Y-24135000D01*
X154622756Y-24052953D01*
X155011302Y-23892012D01*
X155360983Y-23658363D01*
X155658363Y-23360983D01*
X155892012Y-23011302D01*
X156052953Y-22622756D01*
X156135000Y-22210279D01*
X156135000Y-21789721D01*
X156052953Y-21377244D01*
X155892012Y-20988698D01*
X155658363Y-20639017D01*
X155360983Y-20341637D01*
X155011302Y-20107988D01*
X154622756Y-19947047D01*
X154210279Y-19865000D01*
X153789721Y-19865000D01*
X153377244Y-19947047D01*
X152988698Y-20107988D01*
X152639017Y-20341637D01*
X152341637Y-20639017D01*
X152107988Y-20988698D01*
X151947047Y-21377244D01*
X151865000Y-21789721D01*
X62135000Y-21789721D01*
X62052953Y-21377244D01*
X61892012Y-20988698D01*
X61658363Y-20639017D01*
X61360983Y-20341637D01*
X61011302Y-20107988D01*
X60622756Y-19947047D01*
X60210279Y-19865000D01*
X59789721Y-19865000D01*
X59377244Y-19947047D01*
X58988698Y-20107988D01*
X58639017Y-20341637D01*
X58341637Y-20639017D01*
X58107988Y-20988698D01*
X57947047Y-21377244D01*
X57865000Y-21789721D01*
X55485000Y-21789721D01*
X55485000Y-21750902D01*
X55577217Y-20951937D01*
X55799203Y-20206538D01*
X56147252Y-19511016D01*
X56610791Y-18886494D01*
X57175731Y-18351958D01*
X57824912Y-17923641D01*
X58538615Y-17614557D01*
X59296858Y-17433694D01*
X60081656Y-17383714D01*
X153549086Y-17384999D01*
%TA.AperFunction,Conductor*%
D26*
G36*
X153549086Y-17384999D02*
G01*
X154348063Y-17477217D01*
X155093462Y-17699203D01*
X155788984Y-18047252D01*
X156413506Y-18510791D01*
X156948042Y-19075731D01*
X157376359Y-19724912D01*
X157685443Y-20438615D01*
X157866306Y-21196858D01*
X157916256Y-21981177D01*
X157768555Y-156048608D01*
X157676282Y-156848064D01*
X157454298Y-157593457D01*
X157106248Y-158288982D01*
X156642710Y-158913503D01*
X156077767Y-159448042D01*
X155428587Y-159876359D01*
X154714884Y-160185443D01*
X153956641Y-160366306D01*
X153171595Y-160416302D01*
X59851947Y-160468471D01*
X59053222Y-160376282D01*
X58307829Y-160154298D01*
X57612304Y-159806248D01*
X56987783Y-159342710D01*
X56453244Y-158777767D01*
X56024927Y-158128587D01*
X55715843Y-157414884D01*
X55534980Y-156656641D01*
X55493834Y-156010551D01*
X64169054Y-156010551D01*
X64243663Y-156257073D01*
X64503439Y-156380473D01*
X64782297Y-156450823D01*
X65069521Y-156465417D01*
X65354074Y-156423697D01*
X65625020Y-156327265D01*
X65756337Y-156257073D01*
X65830946Y-156010551D01*
X65000000Y-155179605D01*
X64169054Y-156010551D01*
X55493834Y-156010551D01*
X55485000Y-155871844D01*
X55485000Y-155069521D01*
X63534583Y-155069521D01*
X63576303Y-155354074D01*
X63672735Y-155625020D01*
X63742927Y-155756337D01*
X63989449Y-155830946D01*
X64820395Y-155000000D01*
X65179605Y-155000000D01*
X66010551Y-155830946D01*
X66257073Y-155756337D01*
X66380473Y-155496561D01*
X66450823Y-155217703D01*
X66465417Y-154930479D01*
X66423697Y-154645926D01*
X66327265Y-154374980D01*
X66257073Y-154243663D01*
X66030198Y-154175000D01*
X68616928Y-154175000D01*
X68616928Y-155825000D01*
X68629188Y-155949482D01*
X68665498Y-156069180D01*
X68724463Y-156179494D01*
X68803815Y-156276185D01*
X68900506Y-156355537D01*
X69010820Y-156414502D01*
X69130518Y-156450812D01*
X69255000Y-156463072D01*
X70905000Y-156463072D01*
X71029482Y-156450812D01*
X71149180Y-156414502D01*
X71259494Y-156355537D01*
X71356185Y-156276185D01*
X71435537Y-156179494D01*
X71494502Y-156069180D01*
X71530812Y-155949482D01*
X71543072Y-155825000D01*
X71543072Y-154175000D01*
X71530812Y-154050518D01*
X71494502Y-153930820D01*
X71435537Y-153820506D01*
X71356185Y-153723815D01*
X71259494Y-153644463D01*
X71149180Y-153585498D01*
X71029482Y-153549188D01*
X70905000Y-153536928D01*
X69255000Y-153536928D01*
X69130518Y-153549188D01*
X69010820Y-153585498D01*
X68900506Y-153644463D01*
X68803815Y-153723815D01*
X68724463Y-153820506D01*
X68665498Y-153930820D01*
X68629188Y-154050518D01*
X68616928Y-154175000D01*
X66030198Y-154175000D01*
X66010551Y-154169054D01*
X65179605Y-155000000D01*
X64820395Y-155000000D01*
X63989449Y-154169054D01*
X63742927Y-154243663D01*
X63619527Y-154503439D01*
X63549177Y-154782297D01*
X63534583Y-155069521D01*
X55485000Y-155069521D01*
X55485000Y-153989449D01*
X64169054Y-153989449D01*
X65000000Y-154820395D01*
X65830946Y-153989449D01*
X65756337Y-153742927D01*
X65496561Y-153619527D01*
X65217703Y-153549177D01*
X64930479Y-153534583D01*
X64645926Y-153576303D01*
X64374980Y-153672735D01*
X64243663Y-153742927D01*
X64169054Y-153989449D01*
X55485000Y-153989449D01*
X55485000Y-149776129D01*
X78157000Y-149776129D01*
X78157000Y-150223871D01*
X78244350Y-150663010D01*
X78415694Y-151076669D01*
X78664446Y-151448953D01*
X78981047Y-151765554D01*
X79353331Y-152014306D01*
X79766990Y-152185650D01*
X80206129Y-152273000D01*
X80653871Y-152273000D01*
X81093010Y-152185650D01*
X81409678Y-152054481D01*
X81504204Y-152149007D01*
X81527998Y-152178000D01*
X81556991Y-152201794D01*
X81556995Y-152201798D01*
X81627684Y-152259810D01*
X81643723Y-152272973D01*
X81775752Y-152343545D01*
X81919013Y-152387002D01*
X82030666Y-152397999D01*
X82030675Y-152397999D01*
X82067998Y-152401675D01*
X82105321Y-152397999D01*
X91894679Y-152397999D01*
X91932001Y-152401675D01*
X91969323Y-152397999D01*
X91969334Y-152397999D01*
X92080987Y-152387002D01*
X92224248Y-152343545D01*
X92356277Y-152272973D01*
X92472002Y-152178000D01*
X92495804Y-152148997D01*
X92590321Y-152054481D01*
X92906990Y-152185650D01*
X93346129Y-152273000D01*
X93793871Y-152273000D01*
X94233010Y-152185650D01*
X94646669Y-152014306D01*
X95018953Y-151765554D01*
X95335554Y-151448953D01*
X95584306Y-151076669D01*
X95755650Y-150663010D01*
X95843000Y-150223871D01*
X95843000Y-149776129D01*
X95755650Y-149336990D01*
X95584306Y-148923331D01*
X95335554Y-148551047D01*
X95018953Y-148234446D01*
X94646669Y-147985694D01*
X94233010Y-147814350D01*
X93793871Y-147727000D01*
X93346129Y-147727000D01*
X92906990Y-147814350D01*
X92493331Y-147985694D01*
X92121047Y-148234446D01*
X91804446Y-148551047D01*
X91555694Y-148923331D01*
X91384350Y-149336990D01*
X91297000Y-149776129D01*
X91297000Y-150223871D01*
X91384350Y-150663010D01*
X91473402Y-150877999D01*
X82526598Y-150877999D01*
X82615650Y-150663010D01*
X82703000Y-150223871D01*
X82703000Y-149776129D01*
X82615650Y-149336990D01*
X82444306Y-148923331D01*
X82195554Y-148551047D01*
X81878953Y-148234446D01*
X81506669Y-147985694D01*
X81093010Y-147814350D01*
X80653871Y-147727000D01*
X80206129Y-147727000D01*
X79766990Y-147814350D01*
X79353331Y-147985694D01*
X78981047Y-148234446D01*
X78664446Y-148551047D01*
X78415694Y-148923331D01*
X78244350Y-149336990D01*
X78157000Y-149776129D01*
X55485000Y-149776129D01*
X55485000Y-146576000D01*
X82147928Y-146576000D01*
X82147928Y-148004000D01*
X82160188Y-148128482D01*
X82196498Y-148248180D01*
X82255463Y-148358494D01*
X82334815Y-148455185D01*
X82431506Y-148534537D01*
X82541820Y-148593502D01*
X82661518Y-148629812D01*
X82786000Y-148642072D01*
X84214000Y-148642072D01*
X84338482Y-148629812D01*
X84458180Y-148593502D01*
X84568494Y-148534537D01*
X84665185Y-148455185D01*
X84744537Y-148358494D01*
X84803502Y-148248180D01*
X84839812Y-148128482D01*
X84852072Y-148004000D01*
X84852072Y-148000140D01*
X84952163Y-148149937D01*
X85140063Y-148337837D01*
X85361009Y-148485468D01*
X85606511Y-148587158D01*
X85867135Y-148639000D01*
X86132865Y-148639000D01*
X86393489Y-148587158D01*
X86638991Y-148485468D01*
X86859937Y-148337837D01*
X87000000Y-148197774D01*
X87140063Y-148337837D01*
X87361009Y-148485468D01*
X87606511Y-148587158D01*
X87867135Y-148639000D01*
X88132865Y-148639000D01*
X88393489Y-148587158D01*
X88638991Y-148485468D01*
X88859937Y-148337837D01*
X88976501Y-148221273D01*
X89748332Y-148221273D01*
X89809491Y-148456470D01*
X90050326Y-148568768D01*
X90308441Y-148631924D01*
X90573919Y-148643511D01*
X90836555Y-148603082D01*
X91086258Y-148512193D01*
X91190509Y-148456470D01*
X91251668Y-148221273D01*
X90500000Y-147469605D01*
X89748332Y-148221273D01*
X88976501Y-148221273D01*
X89047837Y-148149937D01*
X89195468Y-147928991D01*
X89249511Y-147798519D01*
X89277807Y-147876258D01*
X89333530Y-147980509D01*
X89568727Y-148041668D01*
X90320395Y-147290000D01*
X90679605Y-147290000D01*
X91431273Y-148041668D01*
X91666470Y-147980509D01*
X91778768Y-147739674D01*
X91841924Y-147481559D01*
X91853511Y-147216081D01*
X91813082Y-146953445D01*
X91722193Y-146703742D01*
X91666470Y-146599491D01*
X91431273Y-146538332D01*
X90679605Y-147290000D01*
X90320395Y-147290000D01*
X89568727Y-146538332D01*
X89333530Y-146599491D01*
X89249116Y-146780526D01*
X89195468Y-146651009D01*
X89047837Y-146430063D01*
X88976501Y-146358727D01*
X89748332Y-146358727D01*
X90500000Y-147110395D01*
X91251668Y-146358727D01*
X91190509Y-146123530D01*
X90949674Y-146011232D01*
X90691559Y-145948076D01*
X90426081Y-145936489D01*
X90163445Y-145976918D01*
X89913742Y-146067807D01*
X89809491Y-146123530D01*
X89748332Y-146358727D01*
X88976501Y-146358727D01*
X88859937Y-146242163D01*
X88638991Y-146094532D01*
X88393489Y-145992842D01*
X88132865Y-145941000D01*
X87867135Y-145941000D01*
X87606511Y-145992842D01*
X87361009Y-146094532D01*
X87140063Y-146242163D01*
X87000000Y-146382226D01*
X86859937Y-146242163D01*
X86638991Y-146094532D01*
X86393489Y-145992842D01*
X86132865Y-145941000D01*
X85867135Y-145941000D01*
X85606511Y-145992842D01*
X85361009Y-146094532D01*
X85140063Y-146242163D01*
X84952163Y-146430063D01*
X84852072Y-146579860D01*
X84852072Y-146576000D01*
X84839812Y-146451518D01*
X84803502Y-146331820D01*
X84744537Y-146221506D01*
X84665185Y-146124815D01*
X84568494Y-146045463D01*
X84458180Y-145986498D01*
X84338482Y-145950188D01*
X84214000Y-145937928D01*
X82786000Y-145937928D01*
X82661518Y-145950188D01*
X82541820Y-145986498D01*
X82431506Y-146045463D01*
X82334815Y-146124815D01*
X82255463Y-146221506D01*
X82196498Y-146331820D01*
X82160188Y-146451518D01*
X82147928Y-146576000D01*
X55485000Y-146576000D01*
X55485000Y-143789721D01*
X57865000Y-143789721D01*
X57865000Y-144210279D01*
X57947047Y-144622756D01*
X58107988Y-145011302D01*
X58341637Y-145360983D01*
X58639017Y-145658363D01*
X58988698Y-145892012D01*
X59377244Y-146052953D01*
X59789721Y-146135000D01*
X60210279Y-146135000D01*
X60622756Y-146052953D01*
X61011302Y-145892012D01*
X61360983Y-145658363D01*
X61658363Y-145360983D01*
X61892012Y-145011302D01*
X62052953Y-144622756D01*
X62135000Y-144210279D01*
X62135000Y-143789721D01*
X150865000Y-143789721D01*
X150865000Y-144210279D01*
X150947047Y-144622756D01*
X151107988Y-145011302D01*
X151341637Y-145360983D01*
X151639017Y-145658363D01*
X151988698Y-145892012D01*
X152377244Y-146052953D01*
X152789721Y-146135000D01*
X153210279Y-146135000D01*
X153622756Y-146052953D01*
X154011302Y-145892012D01*
X154360983Y-145658363D01*
X154658363Y-145360983D01*
X154892012Y-145011302D01*
X155052953Y-144622756D01*
X155135000Y-144210279D01*
X155135000Y-143789721D01*
X155052953Y-143377244D01*
X154892012Y-142988698D01*
X154658363Y-142639017D01*
X154360983Y-142341637D01*
X154011302Y-142107988D01*
X153622756Y-141947047D01*
X153210279Y-141865000D01*
X152789721Y-141865000D01*
X152377244Y-141947047D01*
X151988698Y-142107988D01*
X151639017Y-142341637D01*
X151341637Y-142639017D01*
X151107988Y-142988698D01*
X150947047Y-143377244D01*
X150865000Y-143789721D01*
X62135000Y-143789721D01*
X62052953Y-143377244D01*
X61892012Y-142988698D01*
X61658363Y-142639017D01*
X61360983Y-142341637D01*
X61011302Y-142107988D01*
X60622756Y-141947047D01*
X60210279Y-141865000D01*
X59789721Y-141865000D01*
X59377244Y-141947047D01*
X58988698Y-142107988D01*
X58639017Y-142341637D01*
X58341637Y-142639017D01*
X58107988Y-142988698D01*
X57947047Y-143377244D01*
X57865000Y-143789721D01*
X55485000Y-143789721D01*
X55485000Y-139200000D01*
X102061928Y-139200000D01*
X102061928Y-140800000D01*
X102074188Y-140924482D01*
X102110498Y-141044180D01*
X102169463Y-141154494D01*
X102248815Y-141251185D01*
X102345506Y-141330537D01*
X102455820Y-141389502D01*
X102575518Y-141425812D01*
X102700000Y-141438072D01*
X104300000Y-141438072D01*
X104424482Y-141425812D01*
X104544180Y-141389502D01*
X104654494Y-141330537D01*
X104751185Y-141251185D01*
X104830537Y-141154494D01*
X104889502Y-141044180D01*
X104925812Y-140924482D01*
X104938072Y-140800000D01*
X104938072Y-139200000D01*
X104925812Y-139075518D01*
X104889502Y-138955820D01*
X104830537Y-138845506D01*
X104751185Y-138748815D01*
X104654494Y-138669463D01*
X104544180Y-138610498D01*
X104424482Y-138574188D01*
X104300000Y-138561928D01*
X102700000Y-138561928D01*
X102575518Y-138574188D01*
X102455820Y-138610498D01*
X102345506Y-138669463D01*
X102248815Y-138748815D01*
X102169463Y-138845506D01*
X102110498Y-138955820D01*
X102074188Y-139075518D01*
X102061928Y-139200000D01*
X55485000Y-139200000D01*
X55485000Y-135992702D01*
X102686903Y-135992702D01*
X102758486Y-136236671D01*
X103013996Y-136357571D01*
X103288184Y-136426300D01*
X103570512Y-136440217D01*
X103850130Y-136398787D01*
X104116292Y-136303603D01*
X104241514Y-136236671D01*
X104313097Y-135992702D01*
X103500000Y-135179605D01*
X102686903Y-135992702D01*
X55485000Y-135992702D01*
X55485000Y-135070512D01*
X102059783Y-135070512D01*
X102101213Y-135350130D01*
X102196397Y-135616292D01*
X102263329Y-135741514D01*
X102507298Y-135813097D01*
X103320395Y-135000000D01*
X103679605Y-135000000D01*
X104492702Y-135813097D01*
X104736671Y-135741514D01*
X104857571Y-135486004D01*
X104926300Y-135211816D01*
X104940217Y-134929488D01*
X104898787Y-134649870D01*
X104803603Y-134383708D01*
X104736671Y-134258486D01*
X104492702Y-134186903D01*
X103679605Y-135000000D01*
X103320395Y-135000000D01*
X102507298Y-134186903D01*
X102263329Y-134258486D01*
X102142429Y-134513996D01*
X102073700Y-134788184D01*
X102059783Y-135070512D01*
X55485000Y-135070512D01*
X55485000Y-134007298D01*
X102686903Y-134007298D01*
X103500000Y-134820395D01*
X104313097Y-134007298D01*
X104241514Y-133763329D01*
X103986004Y-133642429D01*
X103711816Y-133573700D01*
X103429488Y-133559783D01*
X103149870Y-133601213D01*
X102883708Y-133696397D01*
X102758486Y-133763329D01*
X102686903Y-134007298D01*
X55485000Y-134007298D01*
X55485000Y-115200000D01*
X95036324Y-115200000D01*
X95040001Y-115237332D01*
X95040000Y-116562677D01*
X95036324Y-116600000D01*
X95040000Y-116637322D01*
X95040000Y-116637332D01*
X95050997Y-116748985D01*
X95087749Y-116870142D01*
X95094454Y-116892246D01*
X95165026Y-117024276D01*
X95204871Y-117072826D01*
X95259999Y-117140001D01*
X95289003Y-117163804D01*
X96423548Y-118298350D01*
X96447346Y-118327348D01*
X96563071Y-118422321D01*
X96695100Y-118492893D01*
X96838361Y-118536350D01*
X96950014Y-118547347D01*
X96950023Y-118547347D01*
X96987346Y-118551023D01*
X97024669Y-118547347D01*
X97708942Y-118547347D01*
X97752879Y-118591284D01*
X97922397Y-118704552D01*
X98110755Y-118782573D01*
X98310714Y-118822347D01*
X98514592Y-118822347D01*
X98714551Y-118782573D01*
X98902909Y-118704552D01*
X99072427Y-118591284D01*
X99216590Y-118447121D01*
X99329858Y-118277603D01*
X99407879Y-118089245D01*
X99447653Y-117889286D01*
X99447653Y-117685408D01*
X99407879Y-117485449D01*
X99335367Y-117310392D01*
X99675000Y-117313072D01*
X99799482Y-117300812D01*
X99919180Y-117264502D01*
X100029494Y-117205537D01*
X100126185Y-117126185D01*
X100205537Y-117029494D01*
X100264502Y-116919180D01*
X100300812Y-116799482D01*
X100313072Y-116675000D01*
X100310000Y-116285750D01*
X100151250Y-116127000D01*
X99127000Y-116127000D01*
X99127000Y-116147000D01*
X98873000Y-116147000D01*
X98873000Y-116127000D01*
X98853000Y-116127000D01*
X98853000Y-115873000D01*
X98873000Y-115873000D01*
X98873000Y-115853000D01*
X99127000Y-115853000D01*
X99127000Y-115873000D01*
X100151250Y-115873000D01*
X100310000Y-115714250D01*
X100313072Y-115325000D01*
X100300812Y-115200518D01*
X100264502Y-115080820D01*
X100205537Y-114970506D01*
X100126185Y-114873815D01*
X100039303Y-114802513D01*
X100160907Y-114620518D01*
X100259658Y-114382113D01*
X100310000Y-114129024D01*
X100310000Y-113870976D01*
X100259658Y-113617887D01*
X100160907Y-113379482D01*
X100017544Y-113164923D01*
X99852621Y-113000000D01*
X100017544Y-112835077D01*
X100160907Y-112620518D01*
X100259658Y-112382113D01*
X100310000Y-112129024D01*
X100310000Y-111870976D01*
X100292385Y-111782416D01*
X116240001Y-95834801D01*
X116240001Y-135961928D01*
X116200000Y-135961928D01*
X116075518Y-135974188D01*
X115955820Y-136010498D01*
X115845506Y-136069463D01*
X115748815Y-136148815D01*
X115669463Y-136245506D01*
X115610498Y-136355820D01*
X115574188Y-136475518D01*
X115561928Y-136600000D01*
X115561928Y-138200000D01*
X115574188Y-138324482D01*
X115610498Y-138444180D01*
X115669463Y-138554494D01*
X115748815Y-138651185D01*
X115845506Y-138730537D01*
X115955820Y-138789502D01*
X116075518Y-138825812D01*
X116200000Y-138838072D01*
X117800000Y-138838072D01*
X117924482Y-138825812D01*
X118044180Y-138789502D01*
X118154494Y-138730537D01*
X118251185Y-138651185D01*
X118330537Y-138554494D01*
X118389502Y-138444180D01*
X118405117Y-138392702D01*
X121186903Y-138392702D01*
X121258486Y-138636671D01*
X121513996Y-138757571D01*
X121788184Y-138826300D01*
X122070512Y-138840217D01*
X122350130Y-138798787D01*
X122616292Y-138703603D01*
X122741514Y-138636671D01*
X122813097Y-138392702D01*
X122000000Y-137579605D01*
X121186903Y-138392702D01*
X118405117Y-138392702D01*
X118425812Y-138324482D01*
X118438072Y-138200000D01*
X118438072Y-137470512D01*
X120559783Y-137470512D01*
X120601213Y-137750130D01*
X120696397Y-138016292D01*
X120763329Y-138141514D01*
X121007298Y-138213097D01*
X121820395Y-137400000D01*
X122179605Y-137400000D01*
X122992702Y-138213097D01*
X123236671Y-138141514D01*
X123357571Y-137886004D01*
X123426300Y-137611816D01*
X123440217Y-137329488D01*
X123398787Y-137049870D01*
X123303603Y-136783708D01*
X123236671Y-136658486D01*
X122992702Y-136586903D01*
X122179605Y-137400000D01*
X121820395Y-137400000D01*
X121007298Y-136586903D01*
X120763329Y-136658486D01*
X120642429Y-136913996D01*
X120573700Y-137188184D01*
X120559783Y-137470512D01*
X118438072Y-137470512D01*
X118438072Y-136600000D01*
X118425812Y-136475518D01*
X118405118Y-136407298D01*
X121186903Y-136407298D01*
X122000000Y-137220395D01*
X122813097Y-136407298D01*
X122741514Y-136163329D01*
X122486004Y-136042429D01*
X122211816Y-135973700D01*
X121929488Y-135959783D01*
X121649870Y-136001213D01*
X121383708Y-136096397D01*
X121258486Y-136163329D01*
X121186903Y-136407298D01*
X118405118Y-136407298D01*
X118389502Y-136355820D01*
X118330537Y-136245506D01*
X118251185Y-136148815D01*
X118154494Y-136069463D01*
X118044180Y-136010498D01*
X117924482Y-135974188D01*
X117800000Y-135961928D01*
X117760000Y-135961928D01*
X117760000Y-134050551D01*
X149569054Y-134050551D01*
X149643663Y-134297073D01*
X149903439Y-134420473D01*
X150182297Y-134490823D01*
X150469521Y-134505417D01*
X150754074Y-134463697D01*
X151025020Y-134367265D01*
X151156337Y-134297073D01*
X151230946Y-134050551D01*
X150400000Y-133219605D01*
X149569054Y-134050551D01*
X117760000Y-134050551D01*
X117760000Y-133109521D01*
X148934583Y-133109521D01*
X148976303Y-133394074D01*
X149072735Y-133665020D01*
X149142927Y-133796337D01*
X149389449Y-133870946D01*
X150220395Y-133040000D01*
X150579605Y-133040000D01*
X151410551Y-133870946D01*
X151657073Y-133796337D01*
X151780473Y-133536561D01*
X151850823Y-133257703D01*
X151865417Y-132970479D01*
X151823697Y-132685926D01*
X151727265Y-132414980D01*
X151657073Y-132283663D01*
X151410551Y-132209054D01*
X150579605Y-133040000D01*
X150220395Y-133040000D01*
X149389449Y-132209054D01*
X149142927Y-132283663D01*
X149019527Y-132543439D01*
X148949177Y-132822297D01*
X148934583Y-133109521D01*
X117760000Y-133109521D01*
X117760000Y-132029449D01*
X149569054Y-132029449D01*
X150400000Y-132860395D01*
X151230946Y-132029449D01*
X151156337Y-131782927D01*
X150896561Y-131659527D01*
X150617703Y-131589177D01*
X150330479Y-131574583D01*
X150045926Y-131616303D01*
X149774980Y-131712735D01*
X149643663Y-131782927D01*
X149569054Y-132029449D01*
X117760000Y-132029449D01*
X117760000Y-127135000D01*
X148936928Y-127135000D01*
X148936928Y-128785000D01*
X148949188Y-128909482D01*
X148985498Y-129029180D01*
X149044463Y-129139494D01*
X149123815Y-129236185D01*
X149220506Y-129315537D01*
X149330820Y-129374502D01*
X149450518Y-129410812D01*
X149575000Y-129423072D01*
X151225000Y-129423072D01*
X151349482Y-129410812D01*
X151469180Y-129374502D01*
X151579494Y-129315537D01*
X151676185Y-129236185D01*
X151755537Y-129139494D01*
X151814502Y-129029180D01*
X151850812Y-128909482D01*
X151863072Y-128785000D01*
X151863072Y-127135000D01*
X151850812Y-127010518D01*
X151814502Y-126890820D01*
X151755537Y-126780506D01*
X151676185Y-126683815D01*
X151579494Y-126604463D01*
X151469180Y-126545498D01*
X151349482Y-126509188D01*
X151225000Y-126496928D01*
X149575000Y-126496928D01*
X149450518Y-126509188D01*
X149330820Y-126545498D01*
X149220506Y-126604463D01*
X149123815Y-126683815D01*
X149044463Y-126780506D01*
X148985498Y-126890820D01*
X148949188Y-127010518D01*
X148936928Y-127135000D01*
X117760000Y-127135000D01*
X117760000Y-94835000D01*
X117901939Y-94835000D01*
X118101898Y-94795226D01*
X118290256Y-94717205D01*
X118459774Y-94603937D01*
X118603937Y-94459774D01*
X118717205Y-94290256D01*
X118795226Y-94101898D01*
X118835000Y-93901939D01*
X118835000Y-93698061D01*
X118795226Y-93498102D01*
X118717205Y-93309744D01*
X118603937Y-93140226D01*
X118560000Y-93096289D01*
X118560000Y-79400000D01*
X126621928Y-79400000D01*
X126634188Y-79524482D01*
X126670498Y-79644180D01*
X126729463Y-79754494D01*
X126808815Y-79851185D01*
X126905506Y-79930537D01*
X127015820Y-79989502D01*
X127088380Y-80011513D01*
X126956525Y-80143368D01*
X126794010Y-80386589D01*
X126682068Y-80656842D01*
X126625000Y-80943740D01*
X126625000Y-81236260D01*
X126682068Y-81523158D01*
X126794010Y-81793411D01*
X126956525Y-82036632D01*
X127163368Y-82243475D01*
X127337760Y-82360000D01*
X127163368Y-82476525D01*
X126956525Y-82683368D01*
X126794010Y-82926589D01*
X126682068Y-83196842D01*
X126625000Y-83483740D01*
X126625000Y-83776260D01*
X126682068Y-84063158D01*
X126794010Y-84333411D01*
X126956525Y-84576632D01*
X127163368Y-84783475D01*
X127406589Y-84945990D01*
X127676842Y-85057932D01*
X127963740Y-85115000D01*
X128256260Y-85115000D01*
X128543158Y-85057932D01*
X128813411Y-84945990D01*
X129056632Y-84783475D01*
X129263475Y-84576632D01*
X129425990Y-84333411D01*
X129537932Y-84063158D01*
X129595000Y-83776260D01*
X129595000Y-83483740D01*
X129537932Y-83196842D01*
X129425990Y-82926589D01*
X129263475Y-82683368D01*
X129056632Y-82476525D01*
X128882240Y-82360000D01*
X129056632Y-82243475D01*
X129263475Y-82036632D01*
X129425990Y-81793411D01*
X129537932Y-81523158D01*
X129595000Y-81236260D01*
X129595000Y-80943740D01*
X129537932Y-80656842D01*
X129425990Y-80386589D01*
X129263475Y-80143368D01*
X129131620Y-80011513D01*
X129204180Y-79989502D01*
X129314494Y-79930537D01*
X129411185Y-79851185D01*
X129490537Y-79754494D01*
X129549502Y-79644180D01*
X129585812Y-79524482D01*
X129598072Y-79400000D01*
X129595000Y-78835750D01*
X129436250Y-78677000D01*
X128237000Y-78677000D01*
X128237000Y-78697000D01*
X127983000Y-78697000D01*
X127983000Y-78677000D01*
X126783750Y-78677000D01*
X126625000Y-78835750D01*
X126621928Y-79400000D01*
X118560000Y-79400000D01*
X118560000Y-67514801D01*
X125281003Y-60793799D01*
X125310001Y-60770001D01*
X125404974Y-60654276D01*
X125475546Y-60522247D01*
X125519003Y-60378986D01*
X125530000Y-60267333D01*
X125533677Y-60230000D01*
X125530000Y-60192667D01*
X125530000Y-58990000D01*
X126831822Y-58990000D01*
X126956525Y-59176632D01*
X127163368Y-59383475D01*
X127337760Y-59500000D01*
X127163368Y-59616525D01*
X126956525Y-59823368D01*
X126794010Y-60066589D01*
X126682068Y-60336842D01*
X126625000Y-60623740D01*
X126625000Y-60916260D01*
X126682068Y-61203158D01*
X126794010Y-61473411D01*
X126956525Y-61716632D01*
X127163368Y-61923475D01*
X127337760Y-62040000D01*
X127163368Y-62156525D01*
X126956525Y-62363368D01*
X126794010Y-62606589D01*
X126682068Y-62876842D01*
X126625000Y-63163740D01*
X126625000Y-63456260D01*
X126682068Y-63743158D01*
X126794010Y-64013411D01*
X126956525Y-64256632D01*
X127088380Y-64388487D01*
X127015820Y-64410498D01*
X126905506Y-64469463D01*
X126808815Y-64548815D01*
X126729463Y-64645506D01*
X126670498Y-64755820D01*
X126634188Y-64875518D01*
X126621928Y-65000000D01*
X126621928Y-66700000D01*
X126634188Y-66824482D01*
X126670498Y-66944180D01*
X126729463Y-67054494D01*
X126808815Y-67151185D01*
X126905506Y-67230537D01*
X127015820Y-67289502D01*
X127088380Y-67311513D01*
X126956525Y-67443368D01*
X126794010Y-67686589D01*
X126682068Y-67956842D01*
X126625000Y-68243740D01*
X126625000Y-68536260D01*
X126682068Y-68823158D01*
X126794010Y-69093411D01*
X126956525Y-69336632D01*
X127163368Y-69543475D01*
X127337760Y-69660000D01*
X127163368Y-69776525D01*
X126956525Y-69983368D01*
X126794010Y-70226589D01*
X126682068Y-70496842D01*
X126625000Y-70783740D01*
X126625000Y-71076260D01*
X126682068Y-71363158D01*
X126794010Y-71633411D01*
X126956525Y-71876632D01*
X127163368Y-72083475D01*
X127337760Y-72200000D01*
X127163368Y-72316525D01*
X126956525Y-72523368D01*
X126794010Y-72766589D01*
X126682068Y-73036842D01*
X126625000Y-73323740D01*
X126625000Y-73616260D01*
X126682068Y-73903158D01*
X126794010Y-74173411D01*
X126956525Y-74416632D01*
X127163368Y-74623475D01*
X127337760Y-74740000D01*
X127163368Y-74856525D01*
X126956525Y-75063368D01*
X126794010Y-75306589D01*
X126682068Y-75576842D01*
X126625000Y-75863740D01*
X126625000Y-76156260D01*
X126682068Y-76443158D01*
X126794010Y-76713411D01*
X126956525Y-76956632D01*
X127088380Y-77088487D01*
X127015820Y-77110498D01*
X126905506Y-77169463D01*
X126808815Y-77248815D01*
X126729463Y-77345506D01*
X126670498Y-77455820D01*
X126634188Y-77575518D01*
X126621928Y-77700000D01*
X126625000Y-78264250D01*
X126783750Y-78423000D01*
X127983000Y-78423000D01*
X127983000Y-78403000D01*
X128237000Y-78403000D01*
X128237000Y-78423000D01*
X129436250Y-78423000D01*
X129595000Y-78264250D01*
X129598072Y-77700000D01*
X129585812Y-77575518D01*
X129549502Y-77455820D01*
X129490537Y-77345506D01*
X129411185Y-77248815D01*
X129314494Y-77169463D01*
X129204180Y-77110498D01*
X129131620Y-77088487D01*
X129263475Y-76956632D01*
X129425990Y-76713411D01*
X129537932Y-76443158D01*
X129595000Y-76156260D01*
X129595000Y-75863740D01*
X129537932Y-75576842D01*
X129425990Y-75306589D01*
X129263475Y-75063368D01*
X129056632Y-74856525D01*
X128882240Y-74740000D01*
X129056632Y-74623475D01*
X129263475Y-74416632D01*
X129388178Y-74230000D01*
X131555199Y-74230000D01*
X139265673Y-81940474D01*
X139106842Y-81972068D01*
X138836589Y-82084010D01*
X138593368Y-82246525D01*
X138461513Y-82378380D01*
X138439502Y-82305820D01*
X138380537Y-82195506D01*
X138301185Y-82098815D01*
X138204494Y-82019463D01*
X138094180Y-81960498D01*
X137974482Y-81924188D01*
X137850000Y-81911928D01*
X136150000Y-81911928D01*
X136025518Y-81924188D01*
X135905820Y-81960498D01*
X135795506Y-82019463D01*
X135698815Y-82098815D01*
X135619463Y-82195506D01*
X135560498Y-82305820D01*
X135538487Y-82378380D01*
X135406632Y-82246525D01*
X135163411Y-82084010D01*
X134893158Y-81972068D01*
X134606260Y-81915000D01*
X134313740Y-81915000D01*
X134026842Y-81972068D01*
X133756589Y-82084010D01*
X133513368Y-82246525D01*
X133306525Y-82453368D01*
X133144010Y-82696589D01*
X133032068Y-82966842D01*
X132975000Y-83253740D01*
X132975000Y-83546260D01*
X133032068Y-83833158D01*
X133144010Y-84103411D01*
X133306525Y-84346632D01*
X133513368Y-84553475D01*
X133756589Y-84715990D01*
X134026842Y-84827932D01*
X134313740Y-84885000D01*
X134606260Y-84885000D01*
X134893158Y-84827932D01*
X135163411Y-84715990D01*
X135406632Y-84553475D01*
X135538487Y-84421620D01*
X135560498Y-84494180D01*
X135619463Y-84604494D01*
X135698815Y-84701185D01*
X135795506Y-84780537D01*
X135905820Y-84839502D01*
X136025518Y-84875812D01*
X136150000Y-84888072D01*
X137850000Y-84888072D01*
X137974482Y-84875812D01*
X138094180Y-84839502D01*
X138204494Y-84780537D01*
X138301185Y-84701185D01*
X138380537Y-84604494D01*
X138439502Y-84494180D01*
X138461513Y-84421620D01*
X138593368Y-84553475D01*
X138836589Y-84715990D01*
X139106842Y-84827932D01*
X139393740Y-84885000D01*
X139686260Y-84885000D01*
X139973158Y-84827932D01*
X140243411Y-84715990D01*
X140486632Y-84553475D01*
X140693475Y-84346632D01*
X140855990Y-84103411D01*
X140967932Y-83833158D01*
X140999526Y-83674327D01*
X150765000Y-93439802D01*
X150765000Y-93501939D01*
X150804774Y-93701898D01*
X150882795Y-93890256D01*
X150996063Y-94059774D01*
X151140226Y-94203937D01*
X151309744Y-94317205D01*
X151498102Y-94395226D01*
X151698061Y-94435000D01*
X151901939Y-94435000D01*
X152040001Y-94407538D01*
X152040001Y-95311928D01*
X149950000Y-95311928D01*
X149825518Y-95324188D01*
X149705820Y-95360498D01*
X149595506Y-95419463D01*
X149498815Y-95498815D01*
X149419463Y-95595506D01*
X149360498Y-95705820D01*
X149324188Y-95825518D01*
X149311928Y-95950000D01*
X149311928Y-98050000D01*
X149324188Y-98174482D01*
X149360498Y-98294180D01*
X149419463Y-98404494D01*
X149498815Y-98501185D01*
X149595506Y-98580537D01*
X149609546Y-98588042D01*
X149506772Y-98741853D01*
X149379754Y-99048504D01*
X149315000Y-99374042D01*
X149315000Y-99705958D01*
X149379754Y-100031496D01*
X149506772Y-100338147D01*
X149691175Y-100614125D01*
X149887050Y-100810000D01*
X149691175Y-101005875D01*
X149506772Y-101281853D01*
X149490971Y-101320000D01*
X143983406Y-101320000D01*
X143934774Y-101271368D01*
X143765256Y-101158100D01*
X143576898Y-101080079D01*
X143376939Y-101040305D01*
X143173061Y-101040305D01*
X142973102Y-101080079D01*
X142784744Y-101158100D01*
X142615226Y-101271368D01*
X142471063Y-101415531D01*
X142357795Y-101585049D01*
X142279774Y-101773407D01*
X142240000Y-101973366D01*
X142240000Y-102177244D01*
X142279774Y-102377203D01*
X142357795Y-102565561D01*
X142471063Y-102735079D01*
X142615226Y-102879242D01*
X142784744Y-102992510D01*
X142973102Y-103070531D01*
X143173061Y-103110305D01*
X143376939Y-103110305D01*
X143576898Y-103070531D01*
X143765256Y-102992510D01*
X143934774Y-102879242D01*
X143974016Y-102840000D01*
X149490971Y-102840000D01*
X149506772Y-102878147D01*
X149691175Y-103154125D01*
X149887050Y-103350000D01*
X149691175Y-103545875D01*
X149506772Y-103821853D01*
X149379754Y-104128504D01*
X149315000Y-104454042D01*
X149315000Y-104785958D01*
X149379754Y-105111496D01*
X149506772Y-105418147D01*
X149691175Y-105694125D01*
X149887050Y-105890000D01*
X149691175Y-106085875D01*
X149506772Y-106361853D01*
X149379754Y-106668504D01*
X149315000Y-106994042D01*
X149315000Y-107325958D01*
X149379754Y-107651496D01*
X149506772Y-107958147D01*
X149691175Y-108234125D01*
X149887050Y-108430000D01*
X149691175Y-108625875D01*
X149506772Y-108901853D01*
X149379754Y-109208504D01*
X149315000Y-109534042D01*
X149315000Y-109865958D01*
X149379754Y-110191496D01*
X149506772Y-110498147D01*
X149691175Y-110774125D01*
X149887050Y-110970000D01*
X149691175Y-111165875D01*
X149506772Y-111441853D01*
X149379754Y-111748504D01*
X149315000Y-112074042D01*
X149315000Y-112405958D01*
X149379754Y-112731496D01*
X149506772Y-113038147D01*
X149691175Y-113314125D01*
X149925875Y-113548825D01*
X150201853Y-113733228D01*
X150508504Y-113860246D01*
X150834042Y-113925000D01*
X151165958Y-113925000D01*
X151491496Y-113860246D01*
X151798147Y-113733228D01*
X152074125Y-113548825D01*
X152308825Y-113314125D01*
X152493228Y-113038147D01*
X152620246Y-112731496D01*
X152685000Y-112405958D01*
X152685000Y-112074042D01*
X152620246Y-111748504D01*
X152604445Y-111710357D01*
X153311008Y-111003795D01*
X153340001Y-110980001D01*
X153363795Y-110951008D01*
X153363799Y-110951004D01*
X153434973Y-110864277D01*
X153434974Y-110864276D01*
X153505546Y-110732247D01*
X153549003Y-110588986D01*
X153560000Y-110477333D01*
X153560000Y-110477324D01*
X153563676Y-110440001D01*
X153560000Y-110402678D01*
X153560000Y-59837325D01*
X153563676Y-59800000D01*
X153560000Y-59762675D01*
X153560000Y-59762667D01*
X153549003Y-59651014D01*
X153505546Y-59507753D01*
X153434974Y-59375724D01*
X153340001Y-59259999D01*
X153311004Y-59236202D01*
X149253804Y-55179003D01*
X149230001Y-55149999D01*
X149114276Y-55055026D01*
X148982247Y-54984454D01*
X148838986Y-54940997D01*
X148727333Y-54930000D01*
X148727322Y-54930000D01*
X148690000Y-54926324D01*
X148652678Y-54930000D01*
X147168178Y-54930000D01*
X147043475Y-54743368D01*
X146911620Y-54611513D01*
X146984180Y-54589502D01*
X147094494Y-54530537D01*
X147191185Y-54451185D01*
X147270537Y-54354494D01*
X147329502Y-54244180D01*
X147365812Y-54124482D01*
X147378072Y-54000000D01*
X147378072Y-52300000D01*
X147365812Y-52175518D01*
X147329502Y-52055820D01*
X147270537Y-51945506D01*
X147191185Y-51848815D01*
X147094494Y-51769463D01*
X146984180Y-51710498D01*
X146911620Y-51688487D01*
X147043475Y-51556632D01*
X147205990Y-51313411D01*
X147317932Y-51043158D01*
X147375000Y-50756260D01*
X147375000Y-50463740D01*
X147317932Y-50176842D01*
X147205990Y-49906589D01*
X147043475Y-49663368D01*
X146836632Y-49456525D01*
X146662240Y-49340000D01*
X146836632Y-49223475D01*
X147043475Y-49016632D01*
X147205990Y-48773411D01*
X147317932Y-48503158D01*
X147375000Y-48216260D01*
X147375000Y-47923740D01*
X147317932Y-47636842D01*
X147205990Y-47366589D01*
X147043475Y-47123368D01*
X146836632Y-46916525D01*
X146662240Y-46800000D01*
X146836632Y-46683475D01*
X147043475Y-46476632D01*
X147205990Y-46233411D01*
X147317932Y-45963158D01*
X147375000Y-45676260D01*
X147375000Y-45383740D01*
X147317932Y-45096842D01*
X147205990Y-44826589D01*
X147043475Y-44583368D01*
X146836632Y-44376525D01*
X146662240Y-44260000D01*
X146836632Y-44143475D01*
X147043475Y-43936632D01*
X147205990Y-43693411D01*
X147317932Y-43423158D01*
X147375000Y-43136260D01*
X147375000Y-42843740D01*
X147317932Y-42556842D01*
X147205990Y-42286589D01*
X147043475Y-42043368D01*
X146911620Y-41911513D01*
X146984180Y-41889502D01*
X147094494Y-41830537D01*
X147191185Y-41751185D01*
X147270537Y-41654494D01*
X147329502Y-41544180D01*
X147365812Y-41424482D01*
X147378072Y-41300000D01*
X147378072Y-39600000D01*
X147365812Y-39475518D01*
X147329502Y-39355820D01*
X147270537Y-39245506D01*
X147191185Y-39148815D01*
X147094494Y-39069463D01*
X146984180Y-39010498D01*
X146911620Y-38988487D01*
X147043475Y-38856632D01*
X147205990Y-38613411D01*
X147317932Y-38343158D01*
X147375000Y-38056260D01*
X147375000Y-37763740D01*
X147317932Y-37476842D01*
X147205990Y-37206589D01*
X147043475Y-36963368D01*
X146836632Y-36756525D01*
X146662240Y-36640000D01*
X146836632Y-36523475D01*
X147043475Y-36316632D01*
X147205990Y-36073411D01*
X147317932Y-35803158D01*
X147375000Y-35516260D01*
X147375000Y-35223740D01*
X147317932Y-34936842D01*
X147205990Y-34666589D01*
X147043475Y-34423368D01*
X146836632Y-34216525D01*
X146593411Y-34054010D01*
X146323158Y-33942068D01*
X146036260Y-33885000D01*
X145743740Y-33885000D01*
X145456842Y-33942068D01*
X145186589Y-34054010D01*
X144943368Y-34216525D01*
X144736525Y-34423368D01*
X144574010Y-34666589D01*
X144462068Y-34936842D01*
X144405000Y-35223740D01*
X144405000Y-35516260D01*
X144462068Y-35803158D01*
X144574010Y-36073411D01*
X144736525Y-36316632D01*
X144943368Y-36523475D01*
X145117760Y-36640000D01*
X144943368Y-36756525D01*
X144736525Y-36963368D01*
X144611822Y-37150000D01*
X142927325Y-37150000D01*
X142890000Y-37146324D01*
X142852675Y-37150000D01*
X142852667Y-37150000D01*
X142741014Y-37160997D01*
X142597753Y-37204454D01*
X142465724Y-37275026D01*
X142349999Y-37369999D01*
X142326201Y-37398997D01*
X140732426Y-38992773D01*
X140756775Y-38933989D01*
X140810000Y-38666411D01*
X140810000Y-38393589D01*
X140756775Y-38126011D01*
X140652371Y-37873957D01*
X140500799Y-37647114D01*
X140307886Y-37454201D01*
X140081043Y-37302629D01*
X139828989Y-37198225D01*
X139561411Y-37145000D01*
X139288589Y-37145000D01*
X139021011Y-37198225D01*
X138768957Y-37302629D01*
X138542114Y-37454201D01*
X138349201Y-37647114D01*
X138197629Y-37873957D01*
X138093225Y-38126011D01*
X138040000Y-38393589D01*
X138040000Y-38666411D01*
X138093225Y-38933989D01*
X138137136Y-39040000D01*
X135862864Y-39040000D01*
X135906775Y-38933989D01*
X135960000Y-38666411D01*
X135960000Y-38393589D01*
X135906775Y-38126011D01*
X135802371Y-37873957D01*
X135650799Y-37647114D01*
X135457886Y-37454201D01*
X135231043Y-37302629D01*
X134978989Y-37198225D01*
X134711411Y-37145000D01*
X134438589Y-37145000D01*
X134171011Y-37198225D01*
X133918957Y-37302629D01*
X133692114Y-37454201D01*
X133499201Y-37647114D01*
X133347629Y-37873957D01*
X133243225Y-38126011D01*
X133190000Y-38393589D01*
X133190000Y-38666411D01*
X133243225Y-38933989D01*
X133287136Y-39040000D01*
X130514802Y-39040000D01*
X130163803Y-38689002D01*
X130140001Y-38659999D01*
X130024276Y-38565026D01*
X129892247Y-38494454D01*
X129748986Y-38450997D01*
X129637333Y-38440000D01*
X129637322Y-38440000D01*
X129600000Y-38436324D01*
X129562678Y-38440000D01*
X129497819Y-38440000D01*
X129537932Y-38343158D01*
X129595000Y-38056260D01*
X129595000Y-37763740D01*
X129537932Y-37476842D01*
X129425990Y-37206589D01*
X129263475Y-36963368D01*
X129056632Y-36756525D01*
X128882240Y-36640000D01*
X129056632Y-36523475D01*
X129263475Y-36316632D01*
X129425990Y-36073411D01*
X129537932Y-35803158D01*
X129595000Y-35516260D01*
X129595000Y-35348816D01*
X132740000Y-35348816D01*
X132740000Y-35651184D01*
X132798989Y-35947743D01*
X132914701Y-36227095D01*
X133082688Y-36478505D01*
X133296495Y-36692312D01*
X133547905Y-36860299D01*
X133827257Y-36976011D01*
X134123816Y-37035000D01*
X134426184Y-37035000D01*
X134722743Y-36976011D01*
X135002095Y-36860299D01*
X135253505Y-36692312D01*
X135467312Y-36478505D01*
X135635299Y-36227095D01*
X135751011Y-35947743D01*
X135810000Y-35651184D01*
X135810000Y-35348816D01*
X138190000Y-35348816D01*
X138190000Y-35651184D01*
X138248989Y-35947743D01*
X138364701Y-36227095D01*
X138532688Y-36478505D01*
X138746495Y-36692312D01*
X138997905Y-36860299D01*
X139277257Y-36976011D01*
X139573816Y-37035000D01*
X139876184Y-37035000D01*
X140172743Y-36976011D01*
X140452095Y-36860299D01*
X140703505Y-36692312D01*
X140917312Y-36478505D01*
X141085299Y-36227095D01*
X141201011Y-35947743D01*
X141260000Y-35651184D01*
X141260000Y-35348816D01*
X141201011Y-35052257D01*
X141085299Y-34772905D01*
X140917312Y-34521495D01*
X140703505Y-34307688D01*
X140452095Y-34139701D01*
X140172743Y-34023989D01*
X139876184Y-33965000D01*
X139573816Y-33965000D01*
X139277257Y-34023989D01*
X138997905Y-34139701D01*
X138746495Y-34307688D01*
X138532688Y-34521495D01*
X138364701Y-34772905D01*
X138248989Y-35052257D01*
X138190000Y-35348816D01*
X135810000Y-35348816D01*
X135751011Y-35052257D01*
X135635299Y-34772905D01*
X135467312Y-34521495D01*
X135253505Y-34307688D01*
X135002095Y-34139701D01*
X134722743Y-34023989D01*
X134426184Y-33965000D01*
X134123816Y-33965000D01*
X133827257Y-34023989D01*
X133547905Y-34139701D01*
X133296495Y-34307688D01*
X133082688Y-34521495D01*
X132914701Y-34772905D01*
X132798989Y-35052257D01*
X132740000Y-35348816D01*
X129595000Y-35348816D01*
X129595000Y-35223740D01*
X129537932Y-34936842D01*
X129425990Y-34666589D01*
X129263475Y-34423368D01*
X129056632Y-34216525D01*
X128813411Y-34054010D01*
X128543158Y-33942068D01*
X128256260Y-33885000D01*
X127963740Y-33885000D01*
X127676842Y-33942068D01*
X127406589Y-34054010D01*
X127163368Y-34216525D01*
X126956525Y-34423368D01*
X126794010Y-34666589D01*
X126682068Y-34936842D01*
X126625000Y-35223740D01*
X126625000Y-35516260D01*
X126682068Y-35803158D01*
X126794010Y-36073411D01*
X126956525Y-36316632D01*
X127163368Y-36523475D01*
X127337760Y-36640000D01*
X127163368Y-36756525D01*
X126956525Y-36963368D01*
X126794010Y-37206589D01*
X126682068Y-37476842D01*
X126625000Y-37763740D01*
X126625000Y-38056260D01*
X126682068Y-38343158D01*
X126722181Y-38440000D01*
X124837325Y-38440000D01*
X124800000Y-38436324D01*
X124762675Y-38440000D01*
X124762667Y-38440000D01*
X124651014Y-38450997D01*
X124507753Y-38494454D01*
X124375724Y-38565026D01*
X124259999Y-38659999D01*
X124236201Y-38688997D01*
X116489003Y-46436196D01*
X116459999Y-46459999D01*
X116404871Y-46527174D01*
X116365026Y-46575724D01*
X116303944Y-46690000D01*
X116294454Y-46707754D01*
X116250997Y-46851015D01*
X116240000Y-46962668D01*
X116240000Y-46962678D01*
X116236324Y-47000000D01*
X116240000Y-47037322D01*
X116240000Y-58977292D01*
X116114592Y-58952347D01*
X115910714Y-58952347D01*
X115710755Y-58992121D01*
X115522397Y-59070142D01*
X115496858Y-59087206D01*
X115490256Y-59082795D01*
X115301898Y-59004774D01*
X115101939Y-58965000D01*
X115039802Y-58965000D01*
X108576457Y-52501656D01*
X108552654Y-52472652D01*
X108436929Y-52377679D01*
X108304900Y-52307107D01*
X108161639Y-52263650D01*
X108049986Y-52252653D01*
X108049975Y-52252653D01*
X108012653Y-52248977D01*
X107975331Y-52252653D01*
X105691058Y-52252653D01*
X105647121Y-52208716D01*
X105477603Y-52095448D01*
X105289245Y-52017427D01*
X105089286Y-51977653D01*
X104885408Y-51977653D01*
X104685449Y-52017427D01*
X104497091Y-52095448D01*
X104327573Y-52208716D01*
X104285849Y-52250440D01*
X104310000Y-52129024D01*
X104310000Y-51870976D01*
X104259658Y-51617887D01*
X104160907Y-51379482D01*
X104017544Y-51164923D01*
X103852621Y-51000000D01*
X104017544Y-50835077D01*
X104160907Y-50620518D01*
X104259658Y-50382113D01*
X104310000Y-50129024D01*
X104310000Y-49870976D01*
X104259658Y-49617887D01*
X104160907Y-49379482D01*
X104017544Y-49164923D01*
X103852621Y-49000000D01*
X104017544Y-48835077D01*
X104160907Y-48620518D01*
X104259658Y-48382113D01*
X104310000Y-48129024D01*
X104310000Y-47870976D01*
X104259658Y-47617887D01*
X104160907Y-47379482D01*
X104017544Y-47164923D01*
X103852621Y-47000000D01*
X104017544Y-46835077D01*
X104160907Y-46620518D01*
X104259658Y-46382113D01*
X104310000Y-46129024D01*
X104310000Y-45870976D01*
X104259658Y-45617887D01*
X104160907Y-45379482D01*
X104017544Y-45164923D01*
X103852621Y-45000000D01*
X104017544Y-44835077D01*
X104160907Y-44620518D01*
X104259658Y-44382113D01*
X104310000Y-44129024D01*
X104310000Y-43870976D01*
X104259658Y-43617887D01*
X104160907Y-43379482D01*
X104017544Y-43164923D01*
X103835077Y-42982456D01*
X103620518Y-42839093D01*
X103382113Y-42740342D01*
X103129024Y-42690000D01*
X102870976Y-42690000D01*
X102617887Y-42740342D01*
X102379482Y-42839093D01*
X102164923Y-42982456D01*
X101982456Y-43164923D01*
X101839093Y-43379482D01*
X101740342Y-43617887D01*
X101690000Y-43870976D01*
X101690000Y-44129024D01*
X101740342Y-44382113D01*
X101839093Y-44620518D01*
X101982456Y-44835077D01*
X102147379Y-45000000D01*
X101982456Y-45164923D01*
X101839093Y-45379482D01*
X101740342Y-45617887D01*
X101690000Y-45870976D01*
X101690000Y-46129024D01*
X101740342Y-46382113D01*
X101839093Y-46620518D01*
X101982456Y-46835077D01*
X102147379Y-47000000D01*
X101982456Y-47164923D01*
X101839093Y-47379482D01*
X101740342Y-47617887D01*
X101690000Y-47870976D01*
X101690000Y-48129024D01*
X101740342Y-48382113D01*
X101839093Y-48620518D01*
X101982456Y-48835077D01*
X102147379Y-49000000D01*
X101982456Y-49164923D01*
X101839093Y-49379482D01*
X101740342Y-49617887D01*
X101690000Y-49870976D01*
X101690000Y-50129024D01*
X101740342Y-50382113D01*
X101839093Y-50620518D01*
X101982456Y-50835077D01*
X102147379Y-51000000D01*
X101982456Y-51164923D01*
X101839093Y-51379482D01*
X101740342Y-51617887D01*
X101690000Y-51870976D01*
X101690000Y-52129024D01*
X101740342Y-52382113D01*
X101839093Y-52620518D01*
X101960697Y-52802513D01*
X101873815Y-52873815D01*
X101794463Y-52970506D01*
X101735498Y-53080820D01*
X101699188Y-53200518D01*
X101686928Y-53325000D01*
X101690000Y-53714250D01*
X101848750Y-53873000D01*
X102873000Y-53873000D01*
X102873000Y-53853000D01*
X103127000Y-53853000D01*
X103127000Y-53873000D01*
X104151250Y-53873000D01*
X104267617Y-53756634D01*
X104327573Y-53816590D01*
X104497091Y-53929858D01*
X104685449Y-54007879D01*
X104885408Y-54047653D01*
X105089286Y-54047653D01*
X105289245Y-54007879D01*
X105477603Y-53929858D01*
X105647121Y-53816590D01*
X105691058Y-53772653D01*
X107697852Y-53772653D01*
X113965000Y-60039802D01*
X113965000Y-60101939D01*
X114004774Y-60301898D01*
X114082795Y-60490256D01*
X114196063Y-60659774D01*
X114340226Y-60803937D01*
X114509744Y-60917205D01*
X114698102Y-60995226D01*
X114898061Y-61035000D01*
X115101939Y-61035000D01*
X115240000Y-61007538D01*
X115240001Y-94685197D01*
X100267564Y-109657635D01*
X100259658Y-109617887D01*
X100160907Y-109379482D01*
X100017544Y-109164923D01*
X99835077Y-108982456D01*
X99620518Y-108839093D01*
X99382113Y-108740342D01*
X99129024Y-108690000D01*
X98870976Y-108690000D01*
X98617887Y-108740342D01*
X98379482Y-108839093D01*
X98164923Y-108982456D01*
X98000000Y-109147379D01*
X97835077Y-108982456D01*
X97620518Y-108839093D01*
X97382113Y-108740342D01*
X97129024Y-108690000D01*
X96870976Y-108690000D01*
X96617887Y-108740342D01*
X96379482Y-108839093D01*
X96164923Y-108982456D01*
X95982456Y-109164923D01*
X95839093Y-109379482D01*
X95740342Y-109617887D01*
X95690000Y-109870976D01*
X95690000Y-110129024D01*
X95740342Y-110382113D01*
X95839093Y-110620518D01*
X95982456Y-110835077D01*
X96147379Y-111000000D01*
X95982456Y-111164923D01*
X95839093Y-111379482D01*
X95740342Y-111617887D01*
X95690000Y-111870976D01*
X95690000Y-112129024D01*
X95740342Y-112382113D01*
X95839093Y-112620518D01*
X95982456Y-112835077D01*
X96147379Y-113000000D01*
X95982456Y-113164923D01*
X95839093Y-113379482D01*
X95740342Y-113617887D01*
X95690000Y-113870976D01*
X95690000Y-114129024D01*
X95707615Y-114217583D01*
X95288998Y-114636201D01*
X95260000Y-114659999D01*
X95236202Y-114688997D01*
X95236201Y-114688998D01*
X95165026Y-114775724D01*
X95094454Y-114907754D01*
X95050998Y-115051015D01*
X95036324Y-115200000D01*
X55485000Y-115200000D01*
X55485000Y-54675000D01*
X101686928Y-54675000D01*
X101699188Y-54799482D01*
X101735498Y-54919180D01*
X101794463Y-55029494D01*
X101873815Y-55126185D01*
X101970506Y-55205537D01*
X102080820Y-55264502D01*
X102200518Y-55300812D01*
X102325000Y-55313072D01*
X102714250Y-55310000D01*
X102873000Y-55151250D01*
X102873000Y-54127000D01*
X103127000Y-54127000D01*
X103127000Y-55151250D01*
X103285750Y-55310000D01*
X103675000Y-55313072D01*
X103799482Y-55300812D01*
X103919180Y-55264502D01*
X104029494Y-55205537D01*
X104126185Y-55126185D01*
X104205537Y-55029494D01*
X104264502Y-54919180D01*
X104300812Y-54799482D01*
X104313072Y-54675000D01*
X104310000Y-54285750D01*
X104151250Y-54127000D01*
X103127000Y-54127000D01*
X102873000Y-54127000D01*
X101848750Y-54127000D01*
X101690000Y-54285750D01*
X101686928Y-54675000D01*
X55485000Y-54675000D01*
X55485000Y-21789721D01*
X57865000Y-21789721D01*
X57865000Y-22210279D01*
X57947047Y-22622756D01*
X58107988Y-23011302D01*
X58341637Y-23360983D01*
X58639017Y-23658363D01*
X58988698Y-23892012D01*
X59377244Y-24052953D01*
X59789721Y-24135000D01*
X60210279Y-24135000D01*
X60622756Y-24052953D01*
X61011302Y-23892012D01*
X61360983Y-23658363D01*
X61658363Y-23360983D01*
X61892012Y-23011302D01*
X62052953Y-22622756D01*
X62135000Y-22210279D01*
X62135000Y-21789721D01*
X151865000Y-21789721D01*
X151865000Y-22210279D01*
X151947047Y-22622756D01*
X152107988Y-23011302D01*
X152341637Y-23360983D01*
X152639017Y-23658363D01*
X152988698Y-23892012D01*
X153377244Y-24052953D01*
X153789721Y-24135000D01*
X154210279Y-24135000D01*
X154622756Y-24052953D01*
X155011302Y-23892012D01*
X155360983Y-23658363D01*
X155658363Y-23360983D01*
X155892012Y-23011302D01*
X156052953Y-22622756D01*
X156135000Y-22210279D01*
X156135000Y-21789721D01*
X156052953Y-21377244D01*
X155892012Y-20988698D01*
X155658363Y-20639017D01*
X155360983Y-20341637D01*
X155011302Y-20107988D01*
X154622756Y-19947047D01*
X154210279Y-19865000D01*
X153789721Y-19865000D01*
X153377244Y-19947047D01*
X152988698Y-20107988D01*
X152639017Y-20341637D01*
X152341637Y-20639017D01*
X152107988Y-20988698D01*
X151947047Y-21377244D01*
X151865000Y-21789721D01*
X62135000Y-21789721D01*
X62052953Y-21377244D01*
X61892012Y-20988698D01*
X61658363Y-20639017D01*
X61360983Y-20341637D01*
X61011302Y-20107988D01*
X60622756Y-19947047D01*
X60210279Y-19865000D01*
X59789721Y-19865000D01*
X59377244Y-19947047D01*
X58988698Y-20107988D01*
X58639017Y-20341637D01*
X58341637Y-20639017D01*
X58107988Y-20988698D01*
X57947047Y-21377244D01*
X57865000Y-21789721D01*
X55485000Y-21789721D01*
X55485000Y-21750902D01*
X55577217Y-20951937D01*
X55799203Y-20206538D01*
X56147252Y-19511016D01*
X56610791Y-18886494D01*
X57175731Y-18351958D01*
X57824912Y-17923641D01*
X58538615Y-17614557D01*
X59296858Y-17433694D01*
X60081656Y-17383714D01*
X153549086Y-17384999D01*
G37*
%TD.AperFunction*%
%TD*%
M02*
