M48
; DRILL file {KiCad (5.1.10)-1} date 09/21/21 16:53:34
; FORMAT={-:-/ absolute / inch / decimal}
; #@! TF.CreationDate,2021-09-21T16:53:34-04:00
; #@! TF.GenerationSoftware,Kicad,Pcbnew,(5.1.10)-1
; #@! TF.FileFunction,Plated,1,2,PTH
FMAT,2
INCH
T1C0.0157
T2C0.0315
T3C0.0362
T4C0.0402
T5C0.0433
T6C0.0890
%
G90
G05
T1
X2.6693Y-6.1024
X3.5276Y-5.8819
X3.8745Y-4.6373
X3.9055Y-4.9528
X4.0551Y-2.2047
X4.1334Y-2.0871
X4.5276Y-2.3622
X4.5674Y-2.3617
X4.6348Y-2.5926
X4.6378Y-3.6929
X4.7953Y-5.6063
X5.622Y-3.189
X5.6407Y-4.0187
X5.9734Y-2.6929
X5.9764Y-3.6772
X6.0039Y-5.2244
T2
X3.8189Y-4.3307
X3.8189Y-4.4094
X3.8189Y-4.4882
X3.8189Y-4.5669
X3.8976Y-4.3307
X3.8976Y-4.4094
X3.8976Y-4.4882
X3.8976Y-4.5669
X4.0551Y-1.7323
X4.0551Y-1.811
X4.0551Y-1.8898
X4.0551Y-1.9685
X4.0551Y-2.0472
X4.0551Y-2.126
X4.0748Y-5.315
X4.0748Y-5.5118
X4.6063Y-5.4094
X4.8031Y-5.4094
T3
X3.2874Y-5.7988
X3.3858Y-5.7988
X3.4646Y-5.7988
X3.563Y-5.7988
T4
X5.0437Y-1.3925
X5.0437Y-1.4925
X5.0437Y-1.5925
X5.0437Y-1.6925
X5.0437Y-1.7925
X5.0437Y-1.8925
X5.0437Y-1.9925
X5.0437Y-2.0925
X5.0437Y-2.1925
X5.0437Y-2.2925
X5.0437Y-2.3925
X5.0437Y-2.4925
X5.0437Y-2.5925
X5.0437Y-2.6925
X5.0437Y-2.7925
X5.0437Y-2.8925
X5.0437Y-2.9925
X5.0437Y-3.0925
X5.0437Y-3.1925
X5.0437Y-3.2925
X5.2937Y-3.2835
X5.3937Y-3.2835
X5.4937Y-3.2835
X5.7437Y-1.3925
X5.7437Y-1.4925
X5.7437Y-1.5925
X5.7437Y-1.6925
X5.7437Y-1.7925
X5.7437Y-1.8925
X5.7437Y-1.9925
X5.7437Y-2.0925
X5.7437Y-2.1925
X5.7437Y-2.2925
X5.7437Y-2.3925
X5.7437Y-2.4925
X5.7437Y-2.5925
X5.7437Y-2.6925
X5.7437Y-2.7925
X5.7437Y-2.8925
X5.7437Y-2.9925
X5.7437Y-3.0925
X5.7437Y-3.1925
X5.7437Y-3.2925
T5
X2.5591Y-6.1024
X2.7591Y-6.1024
X5.9213Y-5.0378
X5.9213Y-5.2378
X5.9449Y-3.8189
X5.9449Y-3.9189
X5.9449Y-4.0189
X5.9449Y-4.1189
X5.9449Y-4.2189
X5.9449Y-4.3189
X5.9449Y-4.4189
T6
X3.1665Y-5.9055
X3.6839Y-5.9055
T0
M30
