%TF.GenerationSoftware,KiCad,Pcbnew,(5.1.10)-1*%
%TF.CreationDate,2021-09-21T16:53:37-04:00*%
%TF.ProjectId,CC_PCB_V1,43435f50-4342-45f5-9631-2e6b69636164,09/18/2021*%
%TF.SameCoordinates,Original*%
%TF.FileFunction,Soldermask,Bot*%
%TF.FilePolarity,Negative*%
%FSLAX46Y46*%
G04 Gerber Fmt 4.6, Leading zero omitted, Abs format (unit mm)*
G04 Created by KiCad (PCBNEW (5.1.10)-1) date 2021-09-21 16:53:37*
%MOMM*%
%LPD*%
G01*
G04 APERTURE LIST*
%ADD10C,3.000000*%
%ADD11C,1.650000*%
%ADD12R,1.650000X1.650000*%
%ADD13C,3.276000*%
%ADD14C,1.428000*%
%ADD15R,1.428000X1.428000*%
%ADD16O,1.700000X1.700000*%
%ADD17R,1.700000X1.700000*%
%ADD18O,1.500000X1.500000*%
%ADD19O,1.800000X1.800000*%
%ADD20C,1.600000*%
%ADD21R,1.600000X1.600000*%
%ADD22C,2.100000*%
%ADD23R,2.100000X2.100000*%
%ADD24O,1.350000X1.350000*%
%ADD25R,1.350000X1.350000*%
G04 APERTURE END LIST*
D10*
%TO.C,H4*%
X153000000Y-144000000D03*
%TD*%
%TO.C,H3*%
X60000000Y-22000000D03*
%TD*%
%TO.C,H2*%
X60000000Y-144000000D03*
%TD*%
%TO.C,H1*%
X154000000Y-22000000D03*
%TD*%
D11*
%TO.C,Screw_Terminal2*%
X150400000Y-133040000D03*
D12*
X150400000Y-127960000D03*
%TD*%
D13*
%TO.C,J3*%
X93570000Y-150000000D03*
X80430000Y-150000000D03*
D14*
X90500000Y-147290000D03*
X88000000Y-147290000D03*
X86000000Y-147290000D03*
D15*
X83500000Y-147290000D03*
%TD*%
D16*
%TO.C,U1*%
X139540000Y-83400000D03*
D17*
X137000000Y-83400000D03*
D16*
X134460000Y-83400000D03*
D18*
X139425000Y-38530000D03*
X134575000Y-38530000D03*
D19*
X139725000Y-35500000D03*
X134275000Y-35500000D03*
D16*
X145890000Y-35370000D03*
X145890000Y-37910000D03*
D17*
X145890000Y-40450000D03*
D16*
X145890000Y-42990000D03*
X145890000Y-45530000D03*
X145890000Y-48070000D03*
X145890000Y-50610000D03*
D17*
X145890000Y-53150000D03*
D16*
X145890000Y-55690000D03*
X145890000Y-58230000D03*
X145890000Y-60770000D03*
X145890000Y-63310000D03*
D17*
X145890000Y-65850000D03*
D16*
X145890000Y-68390000D03*
X145890000Y-70930000D03*
X145890000Y-73470000D03*
X145890000Y-76010000D03*
D17*
X145890000Y-78550000D03*
D16*
X145890000Y-81090000D03*
X145890000Y-83630000D03*
X128110000Y-83630000D03*
X128110000Y-81090000D03*
D17*
X128110000Y-78550000D03*
D16*
X128110000Y-76010000D03*
X128110000Y-73470000D03*
X128110000Y-70930000D03*
X128110000Y-68390000D03*
D17*
X128110000Y-65850000D03*
D16*
X128110000Y-63310000D03*
X128110000Y-60770000D03*
X128110000Y-58230000D03*
X128110000Y-55690000D03*
D17*
X128110000Y-53150000D03*
D16*
X128110000Y-50610000D03*
X128110000Y-48070000D03*
X128110000Y-45530000D03*
X128110000Y-42990000D03*
D17*
X128110000Y-40450000D03*
D16*
X128110000Y-37910000D03*
X128110000Y-35370000D03*
%TD*%
D20*
%TO.C,C2*%
X103500000Y-135000000D03*
D21*
X103500000Y-140000000D03*
%TD*%
D20*
%TO.C,C1*%
X122000000Y-137400000D03*
D21*
X117000000Y-137400000D03*
%TD*%
D22*
%TO.C,J1*%
X151000000Y-112240000D03*
X151000000Y-109700000D03*
X151000000Y-107160000D03*
X151000000Y-104620000D03*
X151000000Y-102080000D03*
X151000000Y-99540000D03*
D23*
X151000000Y-97000000D03*
%TD*%
D11*
%TO.C,Screw_Terminal1*%
X65000000Y-155000000D03*
D12*
X70080000Y-155000000D03*
%TD*%
D24*
%TO.C,J5*%
X103000000Y-44000000D03*
X103000000Y-46000000D03*
X103000000Y-48000000D03*
X103000000Y-50000000D03*
X103000000Y-52000000D03*
D25*
X103000000Y-54000000D03*
%TD*%
D24*
%TO.C,J2*%
X97000000Y-110000000D03*
X99000000Y-110000000D03*
X97000000Y-112000000D03*
X99000000Y-112000000D03*
X97000000Y-114000000D03*
X99000000Y-114000000D03*
X97000000Y-116000000D03*
D25*
X99000000Y-116000000D03*
%TD*%
M02*
