%FSLAX45Y45*%
G04 Gerber Fmt 4.5, Leading zero omitted, Abs format (unit mm)*
G04 Created by KiCad (PCBNEW (5.1.10)-1) date 2021-09-21 16:53:33*
%MOMM*%
%LPD*%
G01*
G04 APERTURE LIST*
%TA.AperFunction,Profile*%
%ADD10C,0.500000*%
%TD*%
%ADD11C,0.200000*%
%ADD12C,0.300000*%
G04 APERTURE END LIST*
D10*
X5460000Y-2170000D02*
G75*
G02*
X6005350Y-1649871I534817J-14789D01*
G01*
X5980129Y-16135350D02*
G75*
G02*
X5460000Y-15590000I14789J534817D01*
G01*
X15360000Y-1650000D02*
G75*
G02*
X15880129Y-2195350I-14789J-534817D01*
G01*
X15865350Y-15610000D02*
G75*
G02*
X15320000Y-16130129I-534817J14789D01*
G01*
X5460000Y-15590000D02*
X5460000Y-2170000D01*
X15320000Y-16130129D02*
X5980129Y-16135350D01*
X15880129Y-2195350D02*
X15865350Y-15610000D01*
X6005350Y-1649871D02*
X15360000Y-1650000D01*
D11*
X13382500Y-3778000D02*
X13532500Y-3928000D01*
X13532500Y-3778000D02*
X13382500Y-3928000D01*
X13867500Y-3778000D02*
X14017500Y-3928000D01*
X14017500Y-3778000D02*
X13867500Y-3928000D01*
X13517500Y-3550000D02*
G75*
G03*
X13517500Y-3550000I-90000J0D01*
G01*
X14062500Y-3550000D02*
G75*
G03*
X14062500Y-3550000I-90000J0D01*
G01*
X6000000Y-2050000D02*
X6000000Y-2350000D01*
X5850000Y-2200000D02*
X6150000Y-2200000D01*
X6000000Y-14250000D02*
X6000000Y-14550000D01*
X5850000Y-14400000D02*
X6150000Y-14400000D01*
X15300000Y-14250000D02*
X15300000Y-14550000D01*
X15150000Y-14400000D02*
X15450000Y-14400000D01*
X15400000Y-2050000D02*
X15400000Y-2350000D01*
X15250000Y-2200000D02*
X15550000Y-2200000D01*
D12*
X5721325Y-16626064D02*
X5721325Y-16326064D01*
X5792753Y-16326064D01*
X5835610Y-16340350D01*
X5864182Y-16368921D01*
X5878468Y-16397493D01*
X5892753Y-16454636D01*
X5892753Y-16497493D01*
X5878468Y-16554636D01*
X5864182Y-16583207D01*
X5835610Y-16611778D01*
X5792753Y-16626064D01*
X5721325Y-16626064D01*
X6021325Y-16626064D02*
X6021325Y-16426064D01*
X6021325Y-16483207D02*
X6035610Y-16454636D01*
X6049896Y-16440350D01*
X6078468Y-16426064D01*
X6107039Y-16426064D01*
X6207039Y-16626064D02*
X6207039Y-16426064D01*
X6207039Y-16326064D02*
X6192753Y-16340350D01*
X6207039Y-16354636D01*
X6221325Y-16340350D01*
X6207039Y-16326064D01*
X6207039Y-16354636D01*
X6392753Y-16626064D02*
X6364182Y-16611778D01*
X6349896Y-16583207D01*
X6349896Y-16326064D01*
X6549896Y-16626064D02*
X6521325Y-16611778D01*
X6507039Y-16583207D01*
X6507039Y-16326064D01*
X6892753Y-16626064D02*
X6892753Y-16326064D01*
X6992753Y-16540350D01*
X7092753Y-16326064D01*
X7092753Y-16626064D01*
X7364182Y-16626064D02*
X7364182Y-16468921D01*
X7349896Y-16440350D01*
X7321325Y-16426064D01*
X7264182Y-16426064D01*
X7235610Y-16440350D01*
X7364182Y-16611778D02*
X7335610Y-16626064D01*
X7264182Y-16626064D01*
X7235610Y-16611778D01*
X7221325Y-16583207D01*
X7221325Y-16554636D01*
X7235610Y-16526064D01*
X7264182Y-16511778D01*
X7335610Y-16511778D01*
X7364182Y-16497493D01*
X7507039Y-16426064D02*
X7507039Y-16726064D01*
X7507039Y-16440350D02*
X7535610Y-16426064D01*
X7592753Y-16426064D01*
X7621325Y-16440350D01*
X7635610Y-16454636D01*
X7649896Y-16483207D01*
X7649896Y-16568921D01*
X7635610Y-16597493D01*
X7621325Y-16611778D01*
X7592753Y-16626064D01*
X7535610Y-16626064D01*
X7507039Y-16611778D01*
X7778468Y-16597493D02*
X7792753Y-16611778D01*
X7778468Y-16626064D01*
X7764182Y-16611778D01*
X7778468Y-16597493D01*
X7778468Y-16626064D01*
X7778468Y-16440350D02*
X7792753Y-16454636D01*
X7778468Y-16468921D01*
X7764182Y-16454636D01*
X7778468Y-16440350D01*
X7778468Y-16468921D01*
X5284896Y-17045350D02*
X5434896Y-17195350D01*
X5434896Y-17045350D02*
X5284896Y-17195350D01*
X5878468Y-17256064D02*
X5707039Y-17256064D01*
X5792753Y-17256064D02*
X5792753Y-16956064D01*
X5764182Y-16998921D01*
X5735610Y-17027493D01*
X5707039Y-17041779D01*
X6007039Y-17227493D02*
X6021325Y-17241779D01*
X6007039Y-17256064D01*
X5992753Y-17241779D01*
X6007039Y-17227493D01*
X6007039Y-17256064D01*
X6292753Y-16956064D02*
X6149896Y-16956064D01*
X6135610Y-17098921D01*
X6149896Y-17084636D01*
X6178468Y-17070350D01*
X6249896Y-17070350D01*
X6278468Y-17084636D01*
X6292753Y-17098921D01*
X6307039Y-17127493D01*
X6307039Y-17198921D01*
X6292753Y-17227493D01*
X6278468Y-17241779D01*
X6249896Y-17256064D01*
X6178468Y-17256064D01*
X6149896Y-17241779D01*
X6135610Y-17227493D01*
X6492753Y-16956064D02*
X6521325Y-16956064D01*
X6549896Y-16970350D01*
X6564182Y-16984636D01*
X6578468Y-17013207D01*
X6592753Y-17070350D01*
X6592753Y-17141779D01*
X6578468Y-17198921D01*
X6564182Y-17227493D01*
X6549896Y-17241779D01*
X6521325Y-17256064D01*
X6492753Y-17256064D01*
X6464182Y-17241779D01*
X6449896Y-17227493D01*
X6435610Y-17198921D01*
X6421325Y-17141779D01*
X6421325Y-17070350D01*
X6435610Y-17013207D01*
X6449896Y-16984636D01*
X6464182Y-16970350D01*
X6492753Y-16956064D01*
X6778468Y-16956064D02*
X6807039Y-16956064D01*
X6835610Y-16970350D01*
X6849896Y-16984636D01*
X6864182Y-17013207D01*
X6878468Y-17070350D01*
X6878468Y-17141779D01*
X6864182Y-17198921D01*
X6849896Y-17227493D01*
X6835610Y-17241779D01*
X6807039Y-17256064D01*
X6778468Y-17256064D01*
X6749896Y-17241779D01*
X6735610Y-17227493D01*
X6721325Y-17198921D01*
X6707039Y-17141779D01*
X6707039Y-17070350D01*
X6721325Y-17013207D01*
X6735610Y-16984636D01*
X6749896Y-16970350D01*
X6778468Y-16956064D01*
X7007039Y-17256064D02*
X7007039Y-17056064D01*
X7007039Y-17084636D02*
X7021325Y-17070350D01*
X7049896Y-17056064D01*
X7092753Y-17056064D01*
X7121325Y-17070350D01*
X7135610Y-17098921D01*
X7135610Y-17256064D01*
X7135610Y-17098921D02*
X7149896Y-17070350D01*
X7178468Y-17056064D01*
X7221325Y-17056064D01*
X7249896Y-17070350D01*
X7264182Y-17098921D01*
X7264182Y-17256064D01*
X7407039Y-17256064D02*
X7407039Y-17056064D01*
X7407039Y-17084636D02*
X7421325Y-17070350D01*
X7449896Y-17056064D01*
X7492753Y-17056064D01*
X7521325Y-17070350D01*
X7535610Y-17098921D01*
X7535610Y-17256064D01*
X7535610Y-17098921D02*
X7549896Y-17070350D01*
X7578468Y-17056064D01*
X7621325Y-17056064D01*
X7649896Y-17070350D01*
X7664182Y-17098921D01*
X7664182Y-17256064D01*
X8249896Y-16941779D02*
X7992753Y-17327493D01*
X8635610Y-16956064D02*
X8664182Y-16956064D01*
X8692753Y-16970350D01*
X8707039Y-16984636D01*
X8721325Y-17013207D01*
X8735610Y-17070350D01*
X8735610Y-17141779D01*
X8721325Y-17198921D01*
X8707039Y-17227493D01*
X8692753Y-17241779D01*
X8664182Y-17256064D01*
X8635610Y-17256064D01*
X8607039Y-17241779D01*
X8592753Y-17227493D01*
X8578468Y-17198921D01*
X8564182Y-17141779D01*
X8564182Y-17070350D01*
X8578468Y-17013207D01*
X8592753Y-16984636D01*
X8607039Y-16970350D01*
X8635610Y-16956064D01*
X8864182Y-17227493D02*
X8878468Y-17241779D01*
X8864182Y-17256064D01*
X8849896Y-17241779D01*
X8864182Y-17227493D01*
X8864182Y-17256064D01*
X9064182Y-16956064D02*
X9092753Y-16956064D01*
X9121325Y-16970350D01*
X9135610Y-16984636D01*
X9149896Y-17013207D01*
X9164182Y-17070350D01*
X9164182Y-17141779D01*
X9149896Y-17198921D01*
X9135610Y-17227493D01*
X9121325Y-17241779D01*
X9092753Y-17256064D01*
X9064182Y-17256064D01*
X9035610Y-17241779D01*
X9021325Y-17227493D01*
X9007039Y-17198921D01*
X8992753Y-17141779D01*
X8992753Y-17070350D01*
X9007039Y-17013207D01*
X9021325Y-16984636D01*
X9035610Y-16970350D01*
X9064182Y-16956064D01*
X9435610Y-16956064D02*
X9292753Y-16956064D01*
X9278468Y-17098921D01*
X9292753Y-17084636D01*
X9321325Y-17070350D01*
X9392753Y-17070350D01*
X9421325Y-17084636D01*
X9435610Y-17098921D01*
X9449896Y-17127493D01*
X9449896Y-17198921D01*
X9435610Y-17227493D01*
X9421325Y-17241779D01*
X9392753Y-17256064D01*
X9321325Y-17256064D01*
X9292753Y-17241779D01*
X9278468Y-17227493D01*
X9592753Y-17256064D02*
X9649896Y-17256064D01*
X9678468Y-17241779D01*
X9692753Y-17227493D01*
X9721325Y-17184636D01*
X9735610Y-17127493D01*
X9735610Y-17013207D01*
X9721325Y-16984636D01*
X9707039Y-16970350D01*
X9678468Y-16956064D01*
X9621325Y-16956064D01*
X9592753Y-16970350D01*
X9578468Y-16984636D01*
X9564182Y-17013207D01*
X9564182Y-17084636D01*
X9578468Y-17113207D01*
X9592753Y-17127493D01*
X9621325Y-17141779D01*
X9678468Y-17141779D01*
X9707039Y-17127493D01*
X9721325Y-17113207D01*
X9735610Y-17084636D01*
X10021325Y-17256064D02*
X9849896Y-17256064D01*
X9935610Y-17256064D02*
X9935610Y-16956064D01*
X9907039Y-16998921D01*
X9878468Y-17027493D01*
X9849896Y-17041779D01*
X10135610Y-16956064D02*
X10135610Y-17013207D01*
X10249896Y-16956064D02*
X10249896Y-17013207D01*
X10692753Y-17370350D02*
X10678468Y-17356064D01*
X10649896Y-17313207D01*
X10635610Y-17284636D01*
X10621325Y-17241779D01*
X10607039Y-17170350D01*
X10607039Y-17113207D01*
X10621325Y-17041779D01*
X10635610Y-16998921D01*
X10649896Y-16970350D01*
X10678468Y-16927493D01*
X10692753Y-16913207D01*
X10792753Y-16984636D02*
X10807039Y-16970350D01*
X10835610Y-16956064D01*
X10907039Y-16956064D01*
X10935610Y-16970350D01*
X10949896Y-16984636D01*
X10964182Y-17013207D01*
X10964182Y-17041779D01*
X10949896Y-17084636D01*
X10778468Y-17256064D01*
X10964182Y-17256064D01*
X11321325Y-17256064D02*
X11321325Y-16956064D01*
X11449896Y-17256064D02*
X11449896Y-17098921D01*
X11435610Y-17070350D01*
X11407039Y-17056064D01*
X11364182Y-17056064D01*
X11335610Y-17070350D01*
X11321325Y-17084636D01*
X11635610Y-17256064D02*
X11607039Y-17241779D01*
X11592753Y-17227493D01*
X11578468Y-17198921D01*
X11578468Y-17113207D01*
X11592753Y-17084636D01*
X11607039Y-17070350D01*
X11635610Y-17056064D01*
X11678468Y-17056064D01*
X11707039Y-17070350D01*
X11721325Y-17084636D01*
X11735610Y-17113207D01*
X11735610Y-17198921D01*
X11721325Y-17227493D01*
X11707039Y-17241779D01*
X11678468Y-17256064D01*
X11635610Y-17256064D01*
X11907039Y-17256064D02*
X11878468Y-17241779D01*
X11864182Y-17213207D01*
X11864182Y-16956064D01*
X12135610Y-17241779D02*
X12107039Y-17256064D01*
X12049896Y-17256064D01*
X12021325Y-17241779D01*
X12007039Y-17213207D01*
X12007039Y-17098921D01*
X12021325Y-17070350D01*
X12049896Y-17056064D01*
X12107039Y-17056064D01*
X12135610Y-17070350D01*
X12149896Y-17098921D01*
X12149896Y-17127493D01*
X12007039Y-17156064D01*
X12264182Y-17241779D02*
X12292753Y-17256064D01*
X12349896Y-17256064D01*
X12378468Y-17241779D01*
X12392753Y-17213207D01*
X12392753Y-17198921D01*
X12378468Y-17170350D01*
X12349896Y-17156064D01*
X12307039Y-17156064D01*
X12278468Y-17141779D01*
X12264182Y-17113207D01*
X12264182Y-17098921D01*
X12278468Y-17070350D01*
X12307039Y-17056064D01*
X12349896Y-17056064D01*
X12378468Y-17070350D01*
X12492753Y-17370350D02*
X12507039Y-17356064D01*
X12535610Y-17313207D01*
X12549896Y-17284636D01*
X12564182Y-17241779D01*
X12578468Y-17170350D01*
X12578468Y-17113207D01*
X12564182Y-17041779D01*
X12549896Y-16998921D01*
X12535610Y-16970350D01*
X12507039Y-16927493D01*
X12492753Y-16913207D01*
X13035610Y-17370350D02*
X13021325Y-17356064D01*
X12992753Y-17313207D01*
X12978468Y-17284636D01*
X12964182Y-17241779D01*
X12949896Y-17170350D01*
X12949896Y-17113207D01*
X12964182Y-17041779D01*
X12978468Y-16998921D01*
X12992753Y-16970350D01*
X13021325Y-16927493D01*
X13035610Y-16913207D01*
X13149896Y-17056064D02*
X13149896Y-17256064D01*
X13149896Y-17084636D02*
X13164182Y-17070350D01*
X13192753Y-17056064D01*
X13235610Y-17056064D01*
X13264182Y-17070350D01*
X13278468Y-17098921D01*
X13278468Y-17256064D01*
X13464182Y-17256064D02*
X13435610Y-17241779D01*
X13421325Y-17227493D01*
X13407039Y-17198921D01*
X13407039Y-17113207D01*
X13421325Y-17084636D01*
X13435610Y-17070350D01*
X13464182Y-17056064D01*
X13507039Y-17056064D01*
X13535610Y-17070350D01*
X13549896Y-17084636D01*
X13564182Y-17113207D01*
X13564182Y-17198921D01*
X13549896Y-17227493D01*
X13535610Y-17241779D01*
X13507039Y-17256064D01*
X13464182Y-17256064D01*
X13649896Y-17056064D02*
X13764182Y-17056064D01*
X13692753Y-16956064D02*
X13692753Y-17213207D01*
X13707039Y-17241779D01*
X13735610Y-17256064D01*
X13764182Y-17256064D01*
X14092753Y-17056064D02*
X14092753Y-17356064D01*
X14092753Y-17070350D02*
X14121325Y-17056064D01*
X14178468Y-17056064D01*
X14207039Y-17070350D01*
X14221325Y-17084636D01*
X14235610Y-17113207D01*
X14235610Y-17198921D01*
X14221325Y-17227493D01*
X14207039Y-17241779D01*
X14178468Y-17256064D01*
X14121325Y-17256064D01*
X14092753Y-17241779D01*
X14407039Y-17256064D02*
X14378468Y-17241779D01*
X14364182Y-17213207D01*
X14364182Y-16956064D01*
X14649896Y-17256064D02*
X14649896Y-17098921D01*
X14635610Y-17070350D01*
X14607039Y-17056064D01*
X14549896Y-17056064D01*
X14521325Y-17070350D01*
X14649896Y-17241779D02*
X14621325Y-17256064D01*
X14549896Y-17256064D01*
X14521325Y-17241779D01*
X14507039Y-17213207D01*
X14507039Y-17184636D01*
X14521325Y-17156064D01*
X14549896Y-17141779D01*
X14621325Y-17141779D01*
X14649896Y-17127493D01*
X14749896Y-17056064D02*
X14864182Y-17056064D01*
X14792753Y-16956064D02*
X14792753Y-17213207D01*
X14807039Y-17241779D01*
X14835610Y-17256064D01*
X14864182Y-17256064D01*
X15078468Y-17241779D02*
X15049896Y-17256064D01*
X14992753Y-17256064D01*
X14964182Y-17241779D01*
X14949896Y-17213207D01*
X14949896Y-17098921D01*
X14964182Y-17070350D01*
X14992753Y-17056064D01*
X15049896Y-17056064D01*
X15078468Y-17070350D01*
X15092753Y-17098921D01*
X15092753Y-17127493D01*
X14949896Y-17156064D01*
X15349896Y-17256064D02*
X15349896Y-16956064D01*
X15349896Y-17241779D02*
X15321325Y-17256064D01*
X15264182Y-17256064D01*
X15235610Y-17241779D01*
X15221325Y-17227493D01*
X15207039Y-17198921D01*
X15207039Y-17113207D01*
X15221325Y-17084636D01*
X15235610Y-17070350D01*
X15264182Y-17056064D01*
X15321325Y-17056064D01*
X15349896Y-17070350D01*
X15464182Y-17370350D02*
X15478468Y-17356064D01*
X15507039Y-17313207D01*
X15521325Y-17284636D01*
X15535610Y-17241779D01*
X15549896Y-17170350D01*
X15549896Y-17113207D01*
X15535610Y-17041779D01*
X15521325Y-16998921D01*
X15507039Y-16970350D01*
X15478468Y-16927493D01*
X15464182Y-16913207D01*
X5434896Y-17516350D02*
G75*
G03*
X5434896Y-17516350I-90000J0D01*
G01*
X5878468Y-17652064D02*
X5707039Y-17652064D01*
X5792753Y-17652064D02*
X5792753Y-17352064D01*
X5764182Y-17394921D01*
X5735610Y-17423493D01*
X5707039Y-17437779D01*
X6007039Y-17623493D02*
X6021325Y-17637779D01*
X6007039Y-17652064D01*
X5992753Y-17637779D01*
X6007039Y-17623493D01*
X6007039Y-17652064D01*
X6192753Y-17480636D02*
X6164182Y-17466350D01*
X6149896Y-17452064D01*
X6135610Y-17423493D01*
X6135610Y-17409207D01*
X6149896Y-17380636D01*
X6164182Y-17366350D01*
X6192753Y-17352064D01*
X6249896Y-17352064D01*
X6278468Y-17366350D01*
X6292753Y-17380636D01*
X6307039Y-17409207D01*
X6307039Y-17423493D01*
X6292753Y-17452064D01*
X6278468Y-17466350D01*
X6249896Y-17480636D01*
X6192753Y-17480636D01*
X6164182Y-17494921D01*
X6149896Y-17509207D01*
X6135610Y-17537779D01*
X6135610Y-17594921D01*
X6149896Y-17623493D01*
X6164182Y-17637779D01*
X6192753Y-17652064D01*
X6249896Y-17652064D01*
X6278468Y-17637779D01*
X6292753Y-17623493D01*
X6307039Y-17594921D01*
X6307039Y-17537779D01*
X6292753Y-17509207D01*
X6278468Y-17494921D01*
X6249896Y-17480636D01*
X6492753Y-17352064D02*
X6521325Y-17352064D01*
X6549896Y-17366350D01*
X6564182Y-17380636D01*
X6578468Y-17409207D01*
X6592753Y-17466350D01*
X6592753Y-17537779D01*
X6578468Y-17594921D01*
X6564182Y-17623493D01*
X6549896Y-17637779D01*
X6521325Y-17652064D01*
X6492753Y-17652064D01*
X6464182Y-17637779D01*
X6449896Y-17623493D01*
X6435610Y-17594921D01*
X6421325Y-17537779D01*
X6421325Y-17466350D01*
X6435610Y-17409207D01*
X6449896Y-17380636D01*
X6464182Y-17366350D01*
X6492753Y-17352064D01*
X6778468Y-17352064D02*
X6807039Y-17352064D01*
X6835610Y-17366350D01*
X6849896Y-17380636D01*
X6864182Y-17409207D01*
X6878468Y-17466350D01*
X6878468Y-17537779D01*
X6864182Y-17594921D01*
X6849896Y-17623493D01*
X6835610Y-17637779D01*
X6807039Y-17652064D01*
X6778468Y-17652064D01*
X6749896Y-17637779D01*
X6735610Y-17623493D01*
X6721325Y-17594921D01*
X6707039Y-17537779D01*
X6707039Y-17466350D01*
X6721325Y-17409207D01*
X6735610Y-17380636D01*
X6749896Y-17366350D01*
X6778468Y-17352064D01*
X7007039Y-17652064D02*
X7007039Y-17452064D01*
X7007039Y-17480636D02*
X7021325Y-17466350D01*
X7049896Y-17452064D01*
X7092753Y-17452064D01*
X7121325Y-17466350D01*
X7135610Y-17494921D01*
X7135610Y-17652064D01*
X7135610Y-17494921D02*
X7149896Y-17466350D01*
X7178468Y-17452064D01*
X7221325Y-17452064D01*
X7249896Y-17466350D01*
X7264182Y-17494921D01*
X7264182Y-17652064D01*
X7407039Y-17652064D02*
X7407039Y-17452064D01*
X7407039Y-17480636D02*
X7421325Y-17466350D01*
X7449896Y-17452064D01*
X7492753Y-17452064D01*
X7521325Y-17466350D01*
X7535610Y-17494921D01*
X7535610Y-17652064D01*
X7535610Y-17494921D02*
X7549896Y-17466350D01*
X7578468Y-17452064D01*
X7621325Y-17452064D01*
X7649896Y-17466350D01*
X7664182Y-17494921D01*
X7664182Y-17652064D01*
X8249896Y-17337779D02*
X7992753Y-17723493D01*
X8635610Y-17352064D02*
X8664182Y-17352064D01*
X8692753Y-17366350D01*
X8707039Y-17380636D01*
X8721325Y-17409207D01*
X8735610Y-17466350D01*
X8735610Y-17537779D01*
X8721325Y-17594921D01*
X8707039Y-17623493D01*
X8692753Y-17637779D01*
X8664182Y-17652064D01*
X8635610Y-17652064D01*
X8607039Y-17637779D01*
X8592753Y-17623493D01*
X8578468Y-17594921D01*
X8564182Y-17537779D01*
X8564182Y-17466350D01*
X8578468Y-17409207D01*
X8592753Y-17380636D01*
X8607039Y-17366350D01*
X8635610Y-17352064D01*
X8864182Y-17623493D02*
X8878468Y-17637779D01*
X8864182Y-17652064D01*
X8849896Y-17637779D01*
X8864182Y-17623493D01*
X8864182Y-17652064D01*
X9064182Y-17352064D02*
X9092753Y-17352064D01*
X9121325Y-17366350D01*
X9135610Y-17380636D01*
X9149896Y-17409207D01*
X9164182Y-17466350D01*
X9164182Y-17537779D01*
X9149896Y-17594921D01*
X9135610Y-17623493D01*
X9121325Y-17637779D01*
X9092753Y-17652064D01*
X9064182Y-17652064D01*
X9035610Y-17637779D01*
X9021325Y-17623493D01*
X9007039Y-17594921D01*
X8992753Y-17537779D01*
X8992753Y-17466350D01*
X9007039Y-17409207D01*
X9021325Y-17380636D01*
X9035610Y-17366350D01*
X9064182Y-17352064D01*
X9264182Y-17352064D02*
X9464182Y-17352064D01*
X9335610Y-17652064D01*
X9635610Y-17352064D02*
X9664182Y-17352064D01*
X9692753Y-17366350D01*
X9707039Y-17380636D01*
X9721325Y-17409207D01*
X9735610Y-17466350D01*
X9735610Y-17537779D01*
X9721325Y-17594921D01*
X9707039Y-17623493D01*
X9692753Y-17637779D01*
X9664182Y-17652064D01*
X9635610Y-17652064D01*
X9607039Y-17637779D01*
X9592753Y-17623493D01*
X9578468Y-17594921D01*
X9564182Y-17537779D01*
X9564182Y-17466350D01*
X9578468Y-17409207D01*
X9592753Y-17380636D01*
X9607039Y-17366350D01*
X9635610Y-17352064D01*
X9878468Y-17652064D02*
X9935610Y-17652064D01*
X9964182Y-17637779D01*
X9978468Y-17623493D01*
X10007039Y-17580636D01*
X10021325Y-17523493D01*
X10021325Y-17409207D01*
X10007039Y-17380636D01*
X9992753Y-17366350D01*
X9964182Y-17352064D01*
X9907039Y-17352064D01*
X9878468Y-17366350D01*
X9864182Y-17380636D01*
X9849896Y-17409207D01*
X9849896Y-17480636D01*
X9864182Y-17509207D01*
X9878468Y-17523493D01*
X9907039Y-17537779D01*
X9964182Y-17537779D01*
X9992753Y-17523493D01*
X10007039Y-17509207D01*
X10021325Y-17480636D01*
X10135610Y-17352064D02*
X10135610Y-17409207D01*
X10249896Y-17352064D02*
X10249896Y-17409207D01*
X10692753Y-17766350D02*
X10678468Y-17752064D01*
X10649896Y-17709207D01*
X10635610Y-17680636D01*
X10621325Y-17637779D01*
X10607039Y-17566350D01*
X10607039Y-17509207D01*
X10621325Y-17437779D01*
X10635610Y-17394921D01*
X10649896Y-17366350D01*
X10678468Y-17323493D01*
X10692753Y-17309207D01*
X10792753Y-17380636D02*
X10807039Y-17366350D01*
X10835610Y-17352064D01*
X10907039Y-17352064D01*
X10935610Y-17366350D01*
X10949896Y-17380636D01*
X10964182Y-17409207D01*
X10964182Y-17437779D01*
X10949896Y-17480636D01*
X10778468Y-17652064D01*
X10964182Y-17652064D01*
X11321325Y-17652064D02*
X11321325Y-17352064D01*
X11449896Y-17652064D02*
X11449896Y-17494921D01*
X11435610Y-17466350D01*
X11407039Y-17452064D01*
X11364182Y-17452064D01*
X11335610Y-17466350D01*
X11321325Y-17480636D01*
X11635610Y-17652064D02*
X11607039Y-17637779D01*
X11592753Y-17623493D01*
X11578468Y-17594921D01*
X11578468Y-17509207D01*
X11592753Y-17480636D01*
X11607039Y-17466350D01*
X11635610Y-17452064D01*
X11678468Y-17452064D01*
X11707039Y-17466350D01*
X11721325Y-17480636D01*
X11735610Y-17509207D01*
X11735610Y-17594921D01*
X11721325Y-17623493D01*
X11707039Y-17637779D01*
X11678468Y-17652064D01*
X11635610Y-17652064D01*
X11907039Y-17652064D02*
X11878468Y-17637779D01*
X11864182Y-17609207D01*
X11864182Y-17352064D01*
X12135610Y-17637779D02*
X12107039Y-17652064D01*
X12049896Y-17652064D01*
X12021325Y-17637779D01*
X12007039Y-17609207D01*
X12007039Y-17494921D01*
X12021325Y-17466350D01*
X12049896Y-17452064D01*
X12107039Y-17452064D01*
X12135610Y-17466350D01*
X12149896Y-17494921D01*
X12149896Y-17523493D01*
X12007039Y-17552064D01*
X12264182Y-17637779D02*
X12292753Y-17652064D01*
X12349896Y-17652064D01*
X12378468Y-17637779D01*
X12392753Y-17609207D01*
X12392753Y-17594921D01*
X12378468Y-17566350D01*
X12349896Y-17552064D01*
X12307039Y-17552064D01*
X12278468Y-17537779D01*
X12264182Y-17509207D01*
X12264182Y-17494921D01*
X12278468Y-17466350D01*
X12307039Y-17452064D01*
X12349896Y-17452064D01*
X12378468Y-17466350D01*
X12492753Y-17766350D02*
X12507039Y-17752064D01*
X12535610Y-17709207D01*
X12549896Y-17680636D01*
X12564182Y-17637779D01*
X12578468Y-17566350D01*
X12578468Y-17509207D01*
X12564182Y-17437779D01*
X12549896Y-17394921D01*
X12535610Y-17366350D01*
X12507039Y-17323493D01*
X12492753Y-17309207D01*
X13035610Y-17766350D02*
X13021325Y-17752064D01*
X12992753Y-17709207D01*
X12978468Y-17680636D01*
X12964182Y-17637779D01*
X12949896Y-17566350D01*
X12949896Y-17509207D01*
X12964182Y-17437779D01*
X12978468Y-17394921D01*
X12992753Y-17366350D01*
X13021325Y-17323493D01*
X13035610Y-17309207D01*
X13149896Y-17452064D02*
X13149896Y-17652064D01*
X13149896Y-17480636D02*
X13164182Y-17466350D01*
X13192753Y-17452064D01*
X13235610Y-17452064D01*
X13264182Y-17466350D01*
X13278468Y-17494921D01*
X13278468Y-17652064D01*
X13464182Y-17652064D02*
X13435610Y-17637779D01*
X13421325Y-17623493D01*
X13407039Y-17594921D01*
X13407039Y-17509207D01*
X13421325Y-17480636D01*
X13435610Y-17466350D01*
X13464182Y-17452064D01*
X13507039Y-17452064D01*
X13535610Y-17466350D01*
X13549896Y-17480636D01*
X13564182Y-17509207D01*
X13564182Y-17594921D01*
X13549896Y-17623493D01*
X13535610Y-17637779D01*
X13507039Y-17652064D01*
X13464182Y-17652064D01*
X13649896Y-17452064D02*
X13764182Y-17452064D01*
X13692753Y-17352064D02*
X13692753Y-17609207D01*
X13707039Y-17637779D01*
X13735610Y-17652064D01*
X13764182Y-17652064D01*
X14092753Y-17452064D02*
X14092753Y-17752064D01*
X14092753Y-17466350D02*
X14121325Y-17452064D01*
X14178468Y-17452064D01*
X14207039Y-17466350D01*
X14221325Y-17480636D01*
X14235610Y-17509207D01*
X14235610Y-17594921D01*
X14221325Y-17623493D01*
X14207039Y-17637779D01*
X14178468Y-17652064D01*
X14121325Y-17652064D01*
X14092753Y-17637779D01*
X14407039Y-17652064D02*
X14378468Y-17637779D01*
X14364182Y-17609207D01*
X14364182Y-17352064D01*
X14649896Y-17652064D02*
X14649896Y-17494921D01*
X14635610Y-17466350D01*
X14607039Y-17452064D01*
X14549896Y-17452064D01*
X14521325Y-17466350D01*
X14649896Y-17637779D02*
X14621325Y-17652064D01*
X14549896Y-17652064D01*
X14521325Y-17637779D01*
X14507039Y-17609207D01*
X14507039Y-17580636D01*
X14521325Y-17552064D01*
X14549896Y-17537779D01*
X14621325Y-17537779D01*
X14649896Y-17523493D01*
X14749896Y-17452064D02*
X14864182Y-17452064D01*
X14792753Y-17352064D02*
X14792753Y-17609207D01*
X14807039Y-17637779D01*
X14835610Y-17652064D01*
X14864182Y-17652064D01*
X15078468Y-17637779D02*
X15049896Y-17652064D01*
X14992753Y-17652064D01*
X14964182Y-17637779D01*
X14949896Y-17609207D01*
X14949896Y-17494921D01*
X14964182Y-17466350D01*
X14992753Y-17452064D01*
X15049896Y-17452064D01*
X15078468Y-17466350D01*
X15092753Y-17494921D01*
X15092753Y-17523493D01*
X14949896Y-17552064D01*
X15349896Y-17652064D02*
X15349896Y-17352064D01*
X15349896Y-17637779D02*
X15321325Y-17652064D01*
X15264182Y-17652064D01*
X15235610Y-17637779D01*
X15221325Y-17623493D01*
X15207039Y-17594921D01*
X15207039Y-17509207D01*
X15221325Y-17480636D01*
X15235610Y-17466350D01*
X15264182Y-17452064D01*
X15321325Y-17452064D01*
X15349896Y-17466350D01*
X15464182Y-17766350D02*
X15478468Y-17752064D01*
X15507039Y-17709207D01*
X15521325Y-17680636D01*
X15535610Y-17637779D01*
X15549896Y-17566350D01*
X15549896Y-17509207D01*
X15535610Y-17437779D01*
X15521325Y-17394921D01*
X15507039Y-17366350D01*
X15478468Y-17323493D01*
X15464182Y-17309207D01*
X5284896Y-17762350D02*
X5284896Y-18062350D01*
X5134896Y-17912350D02*
X5434896Y-17912350D01*
X5692753Y-17748064D02*
X5878468Y-17748064D01*
X5778468Y-17862350D01*
X5821325Y-17862350D01*
X5849896Y-17876636D01*
X5864182Y-17890921D01*
X5878468Y-17919493D01*
X5878468Y-17990921D01*
X5864182Y-18019493D01*
X5849896Y-18033779D01*
X5821325Y-18048064D01*
X5735610Y-18048064D01*
X5707039Y-18033779D01*
X5692753Y-18019493D01*
X6007039Y-18019493D02*
X6021325Y-18033779D01*
X6007039Y-18048064D01*
X5992753Y-18033779D01*
X6007039Y-18019493D01*
X6007039Y-18048064D01*
X6207039Y-17748064D02*
X6235610Y-17748064D01*
X6264182Y-17762350D01*
X6278468Y-17776636D01*
X6292753Y-17805207D01*
X6307039Y-17862350D01*
X6307039Y-17933779D01*
X6292753Y-17990921D01*
X6278468Y-18019493D01*
X6264182Y-18033779D01*
X6235610Y-18048064D01*
X6207039Y-18048064D01*
X6178468Y-18033779D01*
X6164182Y-18019493D01*
X6149896Y-17990921D01*
X6135610Y-17933779D01*
X6135610Y-17862350D01*
X6149896Y-17805207D01*
X6164182Y-17776636D01*
X6178468Y-17762350D01*
X6207039Y-17748064D01*
X6492753Y-17748064D02*
X6521325Y-17748064D01*
X6549896Y-17762350D01*
X6564182Y-17776636D01*
X6578468Y-17805207D01*
X6592753Y-17862350D01*
X6592753Y-17933779D01*
X6578468Y-17990921D01*
X6564182Y-18019493D01*
X6549896Y-18033779D01*
X6521325Y-18048064D01*
X6492753Y-18048064D01*
X6464182Y-18033779D01*
X6449896Y-18019493D01*
X6435610Y-17990921D01*
X6421325Y-17933779D01*
X6421325Y-17862350D01*
X6435610Y-17805207D01*
X6449896Y-17776636D01*
X6464182Y-17762350D01*
X6492753Y-17748064D01*
X6778468Y-17748064D02*
X6807039Y-17748064D01*
X6835610Y-17762350D01*
X6849896Y-17776636D01*
X6864182Y-17805207D01*
X6878468Y-17862350D01*
X6878468Y-17933779D01*
X6864182Y-17990921D01*
X6849896Y-18019493D01*
X6835610Y-18033779D01*
X6807039Y-18048064D01*
X6778468Y-18048064D01*
X6749896Y-18033779D01*
X6735610Y-18019493D01*
X6721325Y-17990921D01*
X6707039Y-17933779D01*
X6707039Y-17862350D01*
X6721325Y-17805207D01*
X6735610Y-17776636D01*
X6749896Y-17762350D01*
X6778468Y-17748064D01*
X7007039Y-18048064D02*
X7007039Y-17848064D01*
X7007039Y-17876636D02*
X7021325Y-17862350D01*
X7049896Y-17848064D01*
X7092753Y-17848064D01*
X7121325Y-17862350D01*
X7135610Y-17890921D01*
X7135610Y-18048064D01*
X7135610Y-17890921D02*
X7149896Y-17862350D01*
X7178468Y-17848064D01*
X7221325Y-17848064D01*
X7249896Y-17862350D01*
X7264182Y-17890921D01*
X7264182Y-18048064D01*
X7407039Y-18048064D02*
X7407039Y-17848064D01*
X7407039Y-17876636D02*
X7421325Y-17862350D01*
X7449896Y-17848064D01*
X7492753Y-17848064D01*
X7521325Y-17862350D01*
X7535610Y-17890921D01*
X7535610Y-18048064D01*
X7535610Y-17890921D02*
X7549896Y-17862350D01*
X7578468Y-17848064D01*
X7621325Y-17848064D01*
X7649896Y-17862350D01*
X7664182Y-17890921D01*
X7664182Y-18048064D01*
X8249896Y-17733779D02*
X7992753Y-18119493D01*
X8635610Y-17748064D02*
X8664182Y-17748064D01*
X8692753Y-17762350D01*
X8707039Y-17776636D01*
X8721325Y-17805207D01*
X8735610Y-17862350D01*
X8735610Y-17933779D01*
X8721325Y-17990921D01*
X8707039Y-18019493D01*
X8692753Y-18033779D01*
X8664182Y-18048064D01*
X8635610Y-18048064D01*
X8607039Y-18033779D01*
X8592753Y-18019493D01*
X8578468Y-17990921D01*
X8564182Y-17933779D01*
X8564182Y-17862350D01*
X8578468Y-17805207D01*
X8592753Y-17776636D01*
X8607039Y-17762350D01*
X8635610Y-17748064D01*
X8864182Y-18019493D02*
X8878468Y-18033779D01*
X8864182Y-18048064D01*
X8849896Y-18033779D01*
X8864182Y-18019493D01*
X8864182Y-18048064D01*
X9164182Y-18048064D02*
X8992753Y-18048064D01*
X9078468Y-18048064D02*
X9078468Y-17748064D01*
X9049896Y-17790921D01*
X9021325Y-17819493D01*
X8992753Y-17833779D01*
X9449896Y-18048064D02*
X9278468Y-18048064D01*
X9364182Y-18048064D02*
X9364182Y-17748064D01*
X9335610Y-17790921D01*
X9307039Y-17819493D01*
X9278468Y-17833779D01*
X9621325Y-17876636D02*
X9592753Y-17862350D01*
X9578468Y-17848064D01*
X9564182Y-17819493D01*
X9564182Y-17805207D01*
X9578468Y-17776636D01*
X9592753Y-17762350D01*
X9621325Y-17748064D01*
X9678468Y-17748064D01*
X9707039Y-17762350D01*
X9721325Y-17776636D01*
X9735610Y-17805207D01*
X9735610Y-17819493D01*
X9721325Y-17848064D01*
X9707039Y-17862350D01*
X9678468Y-17876636D01*
X9621325Y-17876636D01*
X9592753Y-17890921D01*
X9578468Y-17905207D01*
X9564182Y-17933779D01*
X9564182Y-17990921D01*
X9578468Y-18019493D01*
X9592753Y-18033779D01*
X9621325Y-18048064D01*
X9678468Y-18048064D01*
X9707039Y-18033779D01*
X9721325Y-18019493D01*
X9735610Y-17990921D01*
X9735610Y-17933779D01*
X9721325Y-17905207D01*
X9707039Y-17890921D01*
X9678468Y-17876636D01*
X10021325Y-18048064D02*
X9849896Y-18048064D01*
X9935610Y-18048064D02*
X9935610Y-17748064D01*
X9907039Y-17790921D01*
X9878468Y-17819493D01*
X9849896Y-17833779D01*
X10135610Y-17748064D02*
X10135610Y-17805207D01*
X10249896Y-17748064D02*
X10249896Y-17805207D01*
X10692753Y-18162350D02*
X10678468Y-18148064D01*
X10649896Y-18105207D01*
X10635610Y-18076636D01*
X10621325Y-18033779D01*
X10607039Y-17962350D01*
X10607039Y-17905207D01*
X10621325Y-17833779D01*
X10635610Y-17790921D01*
X10649896Y-17762350D01*
X10678468Y-17719493D01*
X10692753Y-17705207D01*
X10935610Y-17848064D02*
X10935610Y-18048064D01*
X10864182Y-17733779D02*
X10792753Y-17948064D01*
X10978468Y-17948064D01*
X11321325Y-18048064D02*
X11321325Y-17748064D01*
X11449896Y-18048064D02*
X11449896Y-17890921D01*
X11435610Y-17862350D01*
X11407039Y-17848064D01*
X11364182Y-17848064D01*
X11335610Y-17862350D01*
X11321325Y-17876636D01*
X11635610Y-18048064D02*
X11607039Y-18033779D01*
X11592753Y-18019493D01*
X11578468Y-17990921D01*
X11578468Y-17905207D01*
X11592753Y-17876636D01*
X11607039Y-17862350D01*
X11635610Y-17848064D01*
X11678468Y-17848064D01*
X11707039Y-17862350D01*
X11721325Y-17876636D01*
X11735610Y-17905207D01*
X11735610Y-17990921D01*
X11721325Y-18019493D01*
X11707039Y-18033779D01*
X11678468Y-18048064D01*
X11635610Y-18048064D01*
X11907039Y-18048064D02*
X11878468Y-18033779D01*
X11864182Y-18005207D01*
X11864182Y-17748064D01*
X12135610Y-18033779D02*
X12107039Y-18048064D01*
X12049896Y-18048064D01*
X12021325Y-18033779D01*
X12007039Y-18005207D01*
X12007039Y-17890921D01*
X12021325Y-17862350D01*
X12049896Y-17848064D01*
X12107039Y-17848064D01*
X12135610Y-17862350D01*
X12149896Y-17890921D01*
X12149896Y-17919493D01*
X12007039Y-17948064D01*
X12264182Y-18033779D02*
X12292753Y-18048064D01*
X12349896Y-18048064D01*
X12378468Y-18033779D01*
X12392753Y-18005207D01*
X12392753Y-17990921D01*
X12378468Y-17962350D01*
X12349896Y-17948064D01*
X12307039Y-17948064D01*
X12278468Y-17933779D01*
X12264182Y-17905207D01*
X12264182Y-17890921D01*
X12278468Y-17862350D01*
X12307039Y-17848064D01*
X12349896Y-17848064D01*
X12378468Y-17862350D01*
X12492753Y-18162350D02*
X12507039Y-18148064D01*
X12535610Y-18105207D01*
X12549896Y-18076636D01*
X12564182Y-18033779D01*
X12578468Y-17962350D01*
X12578468Y-17905207D01*
X12564182Y-17833779D01*
X12549896Y-17790921D01*
X12535610Y-17762350D01*
X12507039Y-17719493D01*
X12492753Y-17705207D01*
X13035610Y-18162350D02*
X13021325Y-18148064D01*
X12992753Y-18105207D01*
X12978468Y-18076636D01*
X12964182Y-18033779D01*
X12949896Y-17962350D01*
X12949896Y-17905207D01*
X12964182Y-17833779D01*
X12978468Y-17790921D01*
X12992753Y-17762350D01*
X13021325Y-17719493D01*
X13035610Y-17705207D01*
X13149896Y-17848064D02*
X13149896Y-18048064D01*
X13149896Y-17876636D02*
X13164182Y-17862350D01*
X13192753Y-17848064D01*
X13235610Y-17848064D01*
X13264182Y-17862350D01*
X13278468Y-17890921D01*
X13278468Y-18048064D01*
X13464182Y-18048064D02*
X13435610Y-18033779D01*
X13421325Y-18019493D01*
X13407039Y-17990921D01*
X13407039Y-17905207D01*
X13421325Y-17876636D01*
X13435610Y-17862350D01*
X13464182Y-17848064D01*
X13507039Y-17848064D01*
X13535610Y-17862350D01*
X13549896Y-17876636D01*
X13564182Y-17905207D01*
X13564182Y-17990921D01*
X13549896Y-18019493D01*
X13535610Y-18033779D01*
X13507039Y-18048064D01*
X13464182Y-18048064D01*
X13649896Y-17848064D02*
X13764182Y-17848064D01*
X13692753Y-17748064D02*
X13692753Y-18005207D01*
X13707039Y-18033779D01*
X13735610Y-18048064D01*
X13764182Y-18048064D01*
X14092753Y-17848064D02*
X14092753Y-18148064D01*
X14092753Y-17862350D02*
X14121325Y-17848064D01*
X14178468Y-17848064D01*
X14207039Y-17862350D01*
X14221325Y-17876636D01*
X14235610Y-17905207D01*
X14235610Y-17990921D01*
X14221325Y-18019493D01*
X14207039Y-18033779D01*
X14178468Y-18048064D01*
X14121325Y-18048064D01*
X14092753Y-18033779D01*
X14407039Y-18048064D02*
X14378468Y-18033779D01*
X14364182Y-18005207D01*
X14364182Y-17748064D01*
X14649896Y-18048064D02*
X14649896Y-17890921D01*
X14635610Y-17862350D01*
X14607039Y-17848064D01*
X14549896Y-17848064D01*
X14521325Y-17862350D01*
X14649896Y-18033779D02*
X14621325Y-18048064D01*
X14549896Y-18048064D01*
X14521325Y-18033779D01*
X14507039Y-18005207D01*
X14507039Y-17976636D01*
X14521325Y-17948064D01*
X14549896Y-17933779D01*
X14621325Y-17933779D01*
X14649896Y-17919493D01*
X14749896Y-17848064D02*
X14864182Y-17848064D01*
X14792753Y-17748064D02*
X14792753Y-18005207D01*
X14807039Y-18033779D01*
X14835610Y-18048064D01*
X14864182Y-18048064D01*
X15078468Y-18033779D02*
X15049896Y-18048064D01*
X14992753Y-18048064D01*
X14964182Y-18033779D01*
X14949896Y-18005207D01*
X14949896Y-17890921D01*
X14964182Y-17862350D01*
X14992753Y-17848064D01*
X15049896Y-17848064D01*
X15078468Y-17862350D01*
X15092753Y-17890921D01*
X15092753Y-17919493D01*
X14949896Y-17948064D01*
X15349896Y-18048064D02*
X15349896Y-17748064D01*
X15349896Y-18033779D02*
X15321325Y-18048064D01*
X15264182Y-18048064D01*
X15235610Y-18033779D01*
X15221325Y-18019493D01*
X15207039Y-17990921D01*
X15207039Y-17905207D01*
X15221325Y-17876636D01*
X15235610Y-17862350D01*
X15264182Y-17848064D01*
X15321325Y-17848064D01*
X15349896Y-17862350D01*
X15464182Y-18162350D02*
X15478468Y-18148064D01*
X15507039Y-18105207D01*
X15521325Y-18076636D01*
X15535610Y-18033779D01*
X15549896Y-17962350D01*
X15549896Y-17905207D01*
X15535610Y-17833779D01*
X15521325Y-17790921D01*
X15507039Y-17762350D01*
X15478468Y-17719493D01*
X15464182Y-17705207D01*
M02*
