%TF.GenerationSoftware,KiCad,Pcbnew,(5.1.10)-1*%
%TF.CreationDate,2021-09-21T16:53:37-04:00*%
%TF.ProjectId,CC_PCB_V1,43435f50-4342-45f5-9631-2e6b69636164,09/18/2021*%
%TF.SameCoordinates,Original*%
%TF.FileFunction,Soldermask,Top*%
%TF.FilePolarity,Negative*%
%FSLAX46Y46*%
G04 Gerber Fmt 4.6, Leading zero omitted, Abs format (unit mm)*
G04 Created by KiCad (PCBNEW (5.1.10)-1) date 2021-09-21 16:53:37*
%MOMM*%
%LPD*%
G01*
G04 APERTURE LIST*
%ADD10C,0.300000*%
%ADD11C,0.500000*%
%ADD12C,3.000000*%
%ADD13C,1.650000*%
%ADD14R,1.650000X1.650000*%
%ADD15C,3.276000*%
%ADD16C,1.428000*%
%ADD17R,1.428000X1.428000*%
%ADD18R,3.098800X1.600200*%
%ADD19R,0.838200X1.600200*%
%ADD20O,1.700000X1.700000*%
%ADD21R,1.700000X3.500000*%
%ADD22R,1.700000X1.700000*%
%ADD23O,1.500000X1.500000*%
%ADD24O,1.800000X1.800000*%
%ADD25R,3.500000X1.700000*%
%ADD26C,1.600000*%
%ADD27R,1.600000X1.600000*%
%ADD28C,2.100000*%
%ADD29R,2.100000X2.100000*%
%ADD30O,1.350000X1.350000*%
%ADD31R,1.350000X1.350000*%
G04 APERTURE END LIST*
D10*
X82785714Y-19078571D02*
X82785714Y-17578571D01*
X83142857Y-17578571D01*
X83357142Y-17650000D01*
X83500000Y-17792857D01*
X83571428Y-17935714D01*
X83642857Y-18221428D01*
X83642857Y-18435714D01*
X83571428Y-18721428D01*
X83500000Y-18864285D01*
X83357142Y-19007142D01*
X83142857Y-19078571D01*
X82785714Y-19078571D01*
X84857142Y-19007142D02*
X84714285Y-19078571D01*
X84428571Y-19078571D01*
X84285714Y-19007142D01*
X84214285Y-18864285D01*
X84214285Y-18292857D01*
X84285714Y-18150000D01*
X84428571Y-18078571D01*
X84714285Y-18078571D01*
X84857142Y-18150000D01*
X84928571Y-18292857D01*
X84928571Y-18435714D01*
X84214285Y-18578571D01*
X85500000Y-19007142D02*
X85642857Y-19078571D01*
X85928571Y-19078571D01*
X86071428Y-19007142D01*
X86142857Y-18864285D01*
X86142857Y-18792857D01*
X86071428Y-18650000D01*
X85928571Y-18578571D01*
X85714285Y-18578571D01*
X85571428Y-18507142D01*
X85500000Y-18364285D01*
X85500000Y-18292857D01*
X85571428Y-18150000D01*
X85714285Y-18078571D01*
X85928571Y-18078571D01*
X86071428Y-18150000D01*
X86785714Y-19078571D02*
X86785714Y-18078571D01*
X86785714Y-17578571D02*
X86714285Y-17650000D01*
X86785714Y-17721428D01*
X86857142Y-17650000D01*
X86785714Y-17578571D01*
X86785714Y-17721428D01*
X88142857Y-18078571D02*
X88142857Y-19292857D01*
X88071428Y-19435714D01*
X88000000Y-19507142D01*
X87857142Y-19578571D01*
X87642857Y-19578571D01*
X87500000Y-19507142D01*
X88142857Y-19007142D02*
X88000000Y-19078571D01*
X87714285Y-19078571D01*
X87571428Y-19007142D01*
X87500000Y-18935714D01*
X87428571Y-18792857D01*
X87428571Y-18364285D01*
X87500000Y-18221428D01*
X87571428Y-18150000D01*
X87714285Y-18078571D01*
X88000000Y-18078571D01*
X88142857Y-18150000D01*
X88857142Y-18078571D02*
X88857142Y-19078571D01*
X88857142Y-18221428D02*
X88928571Y-18150000D01*
X89071428Y-18078571D01*
X89285714Y-18078571D01*
X89428571Y-18150000D01*
X89500000Y-18292857D01*
X89500000Y-19078571D01*
X91357142Y-19078571D02*
X91357142Y-17578571D01*
X91357142Y-18150000D02*
X91500000Y-18078571D01*
X91785714Y-18078571D01*
X91928571Y-18150000D01*
X92000000Y-18221428D01*
X92071428Y-18364285D01*
X92071428Y-18792857D01*
X92000000Y-18935714D01*
X91928571Y-19007142D01*
X91785714Y-19078571D01*
X91500000Y-19078571D01*
X91357142Y-19007142D01*
X92571428Y-18078571D02*
X92928571Y-19078571D01*
X93285714Y-18078571D02*
X92928571Y-19078571D01*
X92785714Y-19435714D01*
X92714285Y-19507142D01*
X92571428Y-19578571D01*
X93857142Y-18935714D02*
X93928571Y-19007142D01*
X93857142Y-19078571D01*
X93785714Y-19007142D01*
X93857142Y-18935714D01*
X93857142Y-19078571D01*
X93857142Y-18150000D02*
X93928571Y-18221428D01*
X93857142Y-18292857D01*
X93785714Y-18221428D01*
X93857142Y-18150000D01*
X93857142Y-18292857D01*
X96142857Y-17578571D02*
X96142857Y-18650000D01*
X96071428Y-18864285D01*
X95928571Y-19007142D01*
X95714285Y-19078571D01*
X95571428Y-19078571D01*
X97500000Y-19078571D02*
X97500000Y-18292857D01*
X97428571Y-18150000D01*
X97285714Y-18078571D01*
X97000000Y-18078571D01*
X96857142Y-18150000D01*
X97500000Y-19007142D02*
X97357142Y-19078571D01*
X97000000Y-19078571D01*
X96857142Y-19007142D01*
X96785714Y-18864285D01*
X96785714Y-18721428D01*
X96857142Y-18578571D01*
X97000000Y-18507142D01*
X97357142Y-18507142D01*
X97500000Y-18435714D01*
X98857142Y-19007142D02*
X98714285Y-19078571D01*
X98428571Y-19078571D01*
X98285714Y-19007142D01*
X98214285Y-18935714D01*
X98142857Y-18792857D01*
X98142857Y-18364285D01*
X98214285Y-18221428D01*
X98285714Y-18150000D01*
X98428571Y-18078571D01*
X98714285Y-18078571D01*
X98857142Y-18150000D01*
X99714285Y-19078571D02*
X99571428Y-19007142D01*
X99500000Y-18935714D01*
X99428571Y-18792857D01*
X99428571Y-18364285D01*
X99500000Y-18221428D01*
X99571428Y-18150000D01*
X99714285Y-18078571D01*
X99928571Y-18078571D01*
X100071428Y-18150000D01*
X100142857Y-18221428D01*
X100214285Y-18364285D01*
X100214285Y-18792857D01*
X100142857Y-18935714D01*
X100071428Y-19007142D01*
X99928571Y-19078571D01*
X99714285Y-19078571D01*
X100857142Y-19078571D02*
X100857142Y-17578571D01*
X100857142Y-18150000D02*
X101000000Y-18078571D01*
X101285714Y-18078571D01*
X101428571Y-18150000D01*
X101500000Y-18221428D01*
X101571428Y-18364285D01*
X101571428Y-18792857D01*
X101500000Y-18935714D01*
X101428571Y-19007142D01*
X101285714Y-19078571D01*
X101000000Y-19078571D01*
X100857142Y-19007142D01*
X104214285Y-19078571D02*
X103714285Y-18364285D01*
X103357142Y-19078571D02*
X103357142Y-17578571D01*
X103928571Y-17578571D01*
X104071428Y-17650000D01*
X104142857Y-17721428D01*
X104214285Y-17864285D01*
X104214285Y-18078571D01*
X104142857Y-18221428D01*
X104071428Y-18292857D01*
X103928571Y-18364285D01*
X103357142Y-18364285D01*
X105071428Y-19078571D02*
X104928571Y-19007142D01*
X104857142Y-18935714D01*
X104785714Y-18792857D01*
X104785714Y-18364285D01*
X104857142Y-18221428D01*
X104928571Y-18150000D01*
X105071428Y-18078571D01*
X105285714Y-18078571D01*
X105428571Y-18150000D01*
X105500000Y-18221428D01*
X105571428Y-18364285D01*
X105571428Y-18792857D01*
X105500000Y-18935714D01*
X105428571Y-19007142D01*
X105285714Y-19078571D01*
X105071428Y-19078571D01*
X106214285Y-19078571D02*
X106214285Y-18078571D01*
X106214285Y-18221428D02*
X106285714Y-18150000D01*
X106428571Y-18078571D01*
X106642857Y-18078571D01*
X106785714Y-18150000D01*
X106857142Y-18292857D01*
X106857142Y-19078571D01*
X106857142Y-18292857D02*
X106928571Y-18150000D01*
X107071428Y-18078571D01*
X107285714Y-18078571D01*
X107428571Y-18150000D01*
X107500000Y-18292857D01*
X107500000Y-19078571D01*
X108785714Y-19007142D02*
X108642857Y-19078571D01*
X108357142Y-19078571D01*
X108214285Y-19007142D01*
X108142857Y-18864285D01*
X108142857Y-18292857D01*
X108214285Y-18150000D01*
X108357142Y-18078571D01*
X108642857Y-18078571D01*
X108785714Y-18150000D01*
X108857142Y-18292857D01*
X108857142Y-18435714D01*
X108142857Y-18578571D01*
X109714285Y-19078571D02*
X109571428Y-19007142D01*
X109500000Y-18935714D01*
X109428571Y-18792857D01*
X109428571Y-18364285D01*
X109500000Y-18221428D01*
X109571428Y-18150000D01*
X109714285Y-18078571D01*
X109928571Y-18078571D01*
X110071428Y-18150000D01*
X110142857Y-18221428D01*
X110214285Y-18364285D01*
X110214285Y-18792857D01*
X110142857Y-18935714D01*
X110071428Y-19007142D01*
X109928571Y-19078571D01*
X109714285Y-19078571D01*
X110928571Y-19007142D02*
X110928571Y-19078571D01*
X110857142Y-19221428D01*
X110785714Y-19292857D01*
X112714285Y-19078571D02*
X112714285Y-17578571D01*
X113071428Y-17578571D01*
X113285714Y-17650000D01*
X113428571Y-17792857D01*
X113500000Y-17935714D01*
X113571428Y-18221428D01*
X113571428Y-18435714D01*
X113500000Y-18721428D01*
X113428571Y-18864285D01*
X113285714Y-19007142D01*
X113071428Y-19078571D01*
X112714285Y-19078571D01*
X114857142Y-19078571D02*
X114857142Y-18292857D01*
X114785714Y-18150000D01*
X114642857Y-18078571D01*
X114357142Y-18078571D01*
X114214285Y-18150000D01*
X114857142Y-19007142D02*
X114714285Y-19078571D01*
X114357142Y-19078571D01*
X114214285Y-19007142D01*
X114142857Y-18864285D01*
X114142857Y-18721428D01*
X114214285Y-18578571D01*
X114357142Y-18507142D01*
X114714285Y-18507142D01*
X114857142Y-18435714D01*
X115571428Y-18078571D02*
X115571428Y-19078571D01*
X115571428Y-18221428D02*
X115642857Y-18150000D01*
X115785714Y-18078571D01*
X116000000Y-18078571D01*
X116142857Y-18150000D01*
X116214285Y-18292857D01*
X116214285Y-19078571D01*
X116928571Y-19078571D02*
X116928571Y-18078571D01*
X116928571Y-17578571D02*
X116857142Y-17650000D01*
X116928571Y-17721428D01*
X117000000Y-17650000D01*
X116928571Y-17578571D01*
X116928571Y-17721428D01*
X118214285Y-19007142D02*
X118071428Y-19078571D01*
X117785714Y-19078571D01*
X117642857Y-19007142D01*
X117571428Y-18864285D01*
X117571428Y-18292857D01*
X117642857Y-18150000D01*
X117785714Y-18078571D01*
X118071428Y-18078571D01*
X118214285Y-18150000D01*
X118285714Y-18292857D01*
X118285714Y-18435714D01*
X117571428Y-18578571D01*
X119142857Y-19078571D02*
X119000000Y-19007142D01*
X118928571Y-18864285D01*
X118928571Y-17578571D01*
X120714285Y-17578571D02*
X121071428Y-19078571D01*
X121357142Y-18007142D01*
X121642857Y-19078571D01*
X122000000Y-17578571D01*
X122571428Y-19078571D02*
X122571428Y-18078571D01*
X122571428Y-17578571D02*
X122500000Y-17650000D01*
X122571428Y-17721428D01*
X122642857Y-17650000D01*
X122571428Y-17578571D01*
X122571428Y-17721428D01*
X123500000Y-19078571D02*
X123357142Y-19007142D01*
X123285714Y-18864285D01*
X123285714Y-17578571D01*
X124714285Y-19007142D02*
X124571428Y-19078571D01*
X124285714Y-19078571D01*
X124142857Y-19007142D01*
X124071428Y-18935714D01*
X124000000Y-18792857D01*
X124000000Y-18364285D01*
X124071428Y-18221428D01*
X124142857Y-18150000D01*
X124285714Y-18078571D01*
X124571428Y-18078571D01*
X124714285Y-18150000D01*
X125214285Y-18078571D02*
X126000000Y-18078571D01*
X125214285Y-19078571D01*
X126000000Y-19078571D01*
X127214285Y-19078571D02*
X127214285Y-18292857D01*
X127142857Y-18150000D01*
X127000000Y-18078571D01*
X126714285Y-18078571D01*
X126571428Y-18150000D01*
X127214285Y-19007142D02*
X127071428Y-19078571D01*
X126714285Y-19078571D01*
X126571428Y-19007142D01*
X126500000Y-18864285D01*
X126500000Y-18721428D01*
X126571428Y-18578571D01*
X126714285Y-18507142D01*
X127071428Y-18507142D01*
X127214285Y-18435714D01*
X127928571Y-19078571D02*
X127928571Y-17578571D01*
X128071428Y-18507142D02*
X128500000Y-19078571D01*
X128500000Y-18078571D02*
X127928571Y-18650000D01*
X129214285Y-19007142D02*
X129214285Y-19078571D01*
X129142857Y-19221428D01*
X129071428Y-19292857D01*
X131000000Y-19078571D02*
X131000000Y-17578571D01*
X131357142Y-17578571D01*
X131571428Y-17650000D01*
X131714285Y-17792857D01*
X131785714Y-17935714D01*
X131857142Y-18221428D01*
X131857142Y-18435714D01*
X131785714Y-18721428D01*
X131714285Y-18864285D01*
X131571428Y-19007142D01*
X131357142Y-19078571D01*
X131000000Y-19078571D01*
X132357142Y-18078571D02*
X132714285Y-19078571D01*
X133071428Y-18078571D02*
X132714285Y-19078571D01*
X132571428Y-19435714D01*
X132500000Y-19507142D01*
X132357142Y-19578571D01*
X133857142Y-19078571D02*
X133714285Y-19007142D01*
X133642857Y-18864285D01*
X133642857Y-17578571D01*
X135071428Y-19078571D02*
X135071428Y-18292857D01*
X135000000Y-18150000D01*
X134857142Y-18078571D01*
X134571428Y-18078571D01*
X134428571Y-18150000D01*
X135071428Y-19007142D02*
X134928571Y-19078571D01*
X134571428Y-19078571D01*
X134428571Y-19007142D01*
X134357142Y-18864285D01*
X134357142Y-18721428D01*
X134428571Y-18578571D01*
X134571428Y-18507142D01*
X134928571Y-18507142D01*
X135071428Y-18435714D01*
X135785714Y-18078571D02*
X135785714Y-19078571D01*
X135785714Y-18221428D02*
X135857142Y-18150000D01*
X136000000Y-18078571D01*
X136214285Y-18078571D01*
X136357142Y-18150000D01*
X136428571Y-18292857D01*
X136428571Y-19078571D01*
X138785714Y-18292857D02*
X139000000Y-18364285D01*
X139071428Y-18435714D01*
X139142857Y-18578571D01*
X139142857Y-18792857D01*
X139071428Y-18935714D01*
X139000000Y-19007142D01*
X138857142Y-19078571D01*
X138285714Y-19078571D01*
X138285714Y-17578571D01*
X138785714Y-17578571D01*
X138928571Y-17650000D01*
X139000000Y-17721428D01*
X139071428Y-17864285D01*
X139071428Y-18007142D01*
X139000000Y-18150000D01*
X138928571Y-18221428D01*
X138785714Y-18292857D01*
X138285714Y-18292857D01*
X140428571Y-19078571D02*
X140428571Y-18292857D01*
X140357142Y-18150000D01*
X140214285Y-18078571D01*
X139928571Y-18078571D01*
X139785714Y-18150000D01*
X140428571Y-19007142D02*
X140285714Y-19078571D01*
X139928571Y-19078571D01*
X139785714Y-19007142D01*
X139714285Y-18864285D01*
X139714285Y-18721428D01*
X139785714Y-18578571D01*
X139928571Y-18507142D01*
X140285714Y-18507142D01*
X140428571Y-18435714D01*
X141357142Y-19078571D02*
X141214285Y-19007142D01*
X141142857Y-18864285D01*
X141142857Y-17578571D01*
X142142857Y-19078571D02*
X142000000Y-19007142D01*
X141928571Y-18864285D01*
X141928571Y-17578571D01*
X142714285Y-19078571D02*
X142714285Y-17578571D01*
X142714285Y-18150000D02*
X142857142Y-18078571D01*
X143142857Y-18078571D01*
X143285714Y-18150000D01*
X143357142Y-18221428D01*
X143428571Y-18364285D01*
X143428571Y-18792857D01*
X143357142Y-18935714D01*
X143285714Y-19007142D01*
X143142857Y-19078571D01*
X142857142Y-19078571D01*
X142714285Y-19007142D01*
X144714285Y-19078571D02*
X144714285Y-18292857D01*
X144642857Y-18150000D01*
X144500000Y-18078571D01*
X144214285Y-18078571D01*
X144071428Y-18150000D01*
X144714285Y-19007142D02*
X144571428Y-19078571D01*
X144214285Y-19078571D01*
X144071428Y-19007142D01*
X144000000Y-18864285D01*
X144000000Y-18721428D01*
X144071428Y-18578571D01*
X144214285Y-18507142D01*
X144571428Y-18507142D01*
X144714285Y-18435714D01*
X146071428Y-19007142D02*
X145928571Y-19078571D01*
X145642857Y-19078571D01*
X145500000Y-19007142D01*
X145428571Y-18935714D01*
X145357142Y-18792857D01*
X145357142Y-18364285D01*
X145428571Y-18221428D01*
X145500000Y-18150000D01*
X145642857Y-18078571D01*
X145928571Y-18078571D01*
X146071428Y-18150000D01*
X146714285Y-19078571D02*
X146714285Y-17578571D01*
X146857142Y-18507142D02*
X147285714Y-19078571D01*
X147285714Y-18078571D02*
X146714285Y-18650000D01*
D11*
X95742857Y-158700000D02*
X97171428Y-158700000D01*
X95457142Y-159557142D02*
X96457142Y-156557142D01*
X97457142Y-159557142D01*
X99742857Y-157557142D02*
X99742857Y-159557142D01*
X98457142Y-157557142D02*
X98457142Y-159128571D01*
X98600000Y-159414285D01*
X98885714Y-159557142D01*
X99314285Y-159557142D01*
X99600000Y-159414285D01*
X99742857Y-159271428D01*
X100742857Y-157557142D02*
X101885714Y-157557142D01*
X101171428Y-156557142D02*
X101171428Y-159128571D01*
X101314285Y-159414285D01*
X101600000Y-159557142D01*
X101885714Y-159557142D01*
X103314285Y-159557142D02*
X103028571Y-159414285D01*
X102885714Y-159271428D01*
X102742857Y-158985714D01*
X102742857Y-158128571D01*
X102885714Y-157842857D01*
X103028571Y-157700000D01*
X103314285Y-157557142D01*
X103742857Y-157557142D01*
X104028571Y-157700000D01*
X104171428Y-157842857D01*
X104314285Y-158128571D01*
X104314285Y-158985714D01*
X104171428Y-159271428D01*
X104028571Y-159414285D01*
X103742857Y-159557142D01*
X103314285Y-159557142D01*
X105600000Y-157557142D02*
X105600000Y-159557142D01*
X105600000Y-157842857D02*
X105742857Y-157700000D01*
X106028571Y-157557142D01*
X106457142Y-157557142D01*
X106742857Y-157700000D01*
X106885714Y-157985714D01*
X106885714Y-159557142D01*
X108742857Y-159557142D02*
X108457142Y-159414285D01*
X108314285Y-159271428D01*
X108171428Y-158985714D01*
X108171428Y-158128571D01*
X108314285Y-157842857D01*
X108457142Y-157700000D01*
X108742857Y-157557142D01*
X109171428Y-157557142D01*
X109457142Y-157700000D01*
X109600000Y-157842857D01*
X109742857Y-158128571D01*
X109742857Y-158985714D01*
X109600000Y-159271428D01*
X109457142Y-159414285D01*
X109171428Y-159557142D01*
X108742857Y-159557142D01*
X111028571Y-159557142D02*
X111028571Y-157557142D01*
X111028571Y-157842857D02*
X111171428Y-157700000D01*
X111457142Y-157557142D01*
X111885714Y-157557142D01*
X112171428Y-157700000D01*
X112314285Y-157985714D01*
X112314285Y-159557142D01*
X112314285Y-157985714D02*
X112457142Y-157700000D01*
X112742857Y-157557142D01*
X113171428Y-157557142D01*
X113457142Y-157700000D01*
X113600000Y-157985714D01*
X113600000Y-159557142D01*
X115457142Y-159557142D02*
X115171428Y-159414285D01*
X115028571Y-159271428D01*
X114885714Y-158985714D01*
X114885714Y-158128571D01*
X115028571Y-157842857D01*
X115171428Y-157700000D01*
X115457142Y-157557142D01*
X115885714Y-157557142D01*
X116171428Y-157700000D01*
X116314285Y-157842857D01*
X116457142Y-158128571D01*
X116457142Y-158985714D01*
X116314285Y-159271428D01*
X116171428Y-159414285D01*
X115885714Y-159557142D01*
X115457142Y-159557142D01*
X119028571Y-157557142D02*
X119028571Y-159557142D01*
X117742857Y-157557142D02*
X117742857Y-159128571D01*
X117885714Y-159414285D01*
X118171428Y-159557142D01*
X118600000Y-159557142D01*
X118885714Y-159414285D01*
X119028571Y-159271428D01*
X120314285Y-159414285D02*
X120600000Y-159557142D01*
X121171428Y-159557142D01*
X121457142Y-159414285D01*
X121600000Y-159128571D01*
X121600000Y-158985714D01*
X121457142Y-158700000D01*
X121171428Y-158557142D01*
X120742857Y-158557142D01*
X120457142Y-158414285D01*
X120314285Y-158128571D01*
X120314285Y-157985714D01*
X120457142Y-157700000D01*
X120742857Y-157557142D01*
X121171428Y-157557142D01*
X121457142Y-157700000D01*
X126885714Y-159271428D02*
X126742857Y-159414285D01*
X126314285Y-159557142D01*
X126028571Y-159557142D01*
X125600000Y-159414285D01*
X125314285Y-159128571D01*
X125171428Y-158842857D01*
X125028571Y-158271428D01*
X125028571Y-157842857D01*
X125171428Y-157271428D01*
X125314285Y-156985714D01*
X125600000Y-156700000D01*
X126028571Y-156557142D01*
X126314285Y-156557142D01*
X126742857Y-156700000D01*
X126885714Y-156842857D01*
X128171428Y-159557142D02*
X128171428Y-157557142D01*
X128171428Y-158128571D02*
X128314285Y-157842857D01*
X128457142Y-157700000D01*
X128742857Y-157557142D01*
X129028571Y-157557142D01*
X131314285Y-159557142D02*
X131314285Y-157985714D01*
X131171428Y-157700000D01*
X130885714Y-157557142D01*
X130314285Y-157557142D01*
X130028571Y-157700000D01*
X131314285Y-159414285D02*
X131028571Y-159557142D01*
X130314285Y-159557142D01*
X130028571Y-159414285D01*
X129885714Y-159128571D01*
X129885714Y-158842857D01*
X130028571Y-158557142D01*
X130314285Y-158414285D01*
X131028571Y-158414285D01*
X131314285Y-158271428D01*
X132457142Y-157557142D02*
X134028571Y-157557142D01*
X132457142Y-159557142D01*
X134028571Y-159557142D01*
X134885714Y-157557142D02*
X135600000Y-159557142D01*
X136314285Y-157557142D02*
X135600000Y-159557142D01*
X135314285Y-160271428D01*
X135171428Y-160414285D01*
X134885714Y-160557142D01*
X141457142Y-159271428D02*
X141314285Y-159414285D01*
X140885714Y-159557142D01*
X140600000Y-159557142D01*
X140171428Y-159414285D01*
X139885714Y-159128571D01*
X139742857Y-158842857D01*
X139600000Y-158271428D01*
X139600000Y-157842857D01*
X139742857Y-157271428D01*
X139885714Y-156985714D01*
X140171428Y-156700000D01*
X140600000Y-156557142D01*
X140885714Y-156557142D01*
X141314285Y-156700000D01*
X141457142Y-156842857D01*
X144028571Y-159557142D02*
X144028571Y-157985714D01*
X143885714Y-157700000D01*
X143600000Y-157557142D01*
X143028571Y-157557142D01*
X142742857Y-157700000D01*
X144028571Y-159414285D02*
X143742857Y-159557142D01*
X143028571Y-159557142D01*
X142742857Y-159414285D01*
X142600000Y-159128571D01*
X142600000Y-158842857D01*
X142742857Y-158557142D01*
X143028571Y-158414285D01*
X143742857Y-158414285D01*
X144028571Y-158271428D01*
X145457142Y-159557142D02*
X145457142Y-157557142D01*
X145457142Y-158128571D02*
X145600000Y-157842857D01*
X145742857Y-157700000D01*
X146028571Y-157557142D01*
X146314285Y-157557142D01*
X146885714Y-157557142D02*
X148028571Y-157557142D01*
X147314285Y-156557142D02*
X147314285Y-159128571D01*
X147457142Y-159414285D01*
X147742857Y-159557142D01*
X148028571Y-159557142D01*
X150885714Y-156557142D02*
X151885714Y-159557142D01*
X152885714Y-156557142D01*
X155457142Y-159557142D02*
X153742857Y-159557142D01*
X154600000Y-159557142D02*
X154600000Y-156557142D01*
X154314285Y-156985714D01*
X154028571Y-157271428D01*
X153742857Y-157414285D01*
D12*
%TO.C,H4*%
X153000000Y-144000000D03*
%TD*%
%TO.C,H3*%
X60000000Y-22000000D03*
%TD*%
%TO.C,H2*%
X60000000Y-144000000D03*
%TD*%
%TO.C,H1*%
X154000000Y-22000000D03*
%TD*%
D13*
%TO.C,Screw_Terminal2*%
X150400000Y-133040000D03*
D14*
X150400000Y-127960000D03*
%TD*%
D15*
%TO.C,J3*%
X93570000Y-150000000D03*
X80430000Y-150000000D03*
D16*
X90500000Y-147290000D03*
X88000000Y-147290000D03*
X86000000Y-147290000D03*
D17*
X83500000Y-147290000D03*
%TD*%
D18*
%TO.C,U2*%
X116000000Y-155200400D03*
D19*
X113688600Y-148799600D03*
X116000000Y-148799600D03*
X118311400Y-148799600D03*
%TD*%
D20*
%TO.C,U1*%
X139540000Y-83400000D03*
D21*
X139540000Y-84300000D03*
D22*
X137000000Y-83400000D03*
D21*
X137000000Y-84300000D03*
D20*
X134460000Y-83400000D03*
D21*
X134460000Y-84300000D03*
D23*
X139425000Y-38530000D03*
X134575000Y-38530000D03*
D24*
X139725000Y-35500000D03*
X134275000Y-35500000D03*
D25*
X146790000Y-83630000D03*
X146790000Y-81090000D03*
X146790000Y-78550000D03*
X146790000Y-76010000D03*
X146790000Y-73470000D03*
X146790000Y-70930000D03*
X146790000Y-68390000D03*
X146790000Y-65850000D03*
X146790000Y-63310000D03*
X146790000Y-60770000D03*
X146790000Y-58230000D03*
X146790000Y-55690000D03*
X146790000Y-53150000D03*
X146790000Y-50610000D03*
X146790000Y-48070000D03*
X146790000Y-45530000D03*
X146790000Y-42990000D03*
X146790000Y-40450000D03*
X146790000Y-37910000D03*
X146790000Y-35370000D03*
X127210000Y-83630000D03*
X127210000Y-81090000D03*
X127210000Y-78550000D03*
X127210000Y-76010000D03*
X127210000Y-73470000D03*
X127210000Y-70930000D03*
X127210000Y-68390000D03*
X127210000Y-65850000D03*
X127210000Y-63310000D03*
X127210000Y-60770000D03*
X127210000Y-58230000D03*
X127210000Y-55690000D03*
X127210000Y-53150000D03*
X127210000Y-50610000D03*
X127210000Y-48070000D03*
X127210000Y-45530000D03*
X127210000Y-42990000D03*
X127210000Y-40450000D03*
X127210000Y-37910000D03*
X127210000Y-35370000D03*
D20*
X145890000Y-35370000D03*
X145890000Y-37910000D03*
D22*
X145890000Y-40450000D03*
D20*
X145890000Y-42990000D03*
X145890000Y-45530000D03*
X145890000Y-48070000D03*
X145890000Y-50610000D03*
D22*
X145890000Y-53150000D03*
D20*
X145890000Y-55690000D03*
X145890000Y-58230000D03*
X145890000Y-60770000D03*
X145890000Y-63310000D03*
D22*
X145890000Y-65850000D03*
D20*
X145890000Y-68390000D03*
X145890000Y-70930000D03*
X145890000Y-73470000D03*
X145890000Y-76010000D03*
D22*
X145890000Y-78550000D03*
D20*
X145890000Y-81090000D03*
X145890000Y-83630000D03*
X128110000Y-83630000D03*
X128110000Y-81090000D03*
D22*
X128110000Y-78550000D03*
D20*
X128110000Y-76010000D03*
X128110000Y-73470000D03*
X128110000Y-70930000D03*
X128110000Y-68390000D03*
D22*
X128110000Y-65850000D03*
D20*
X128110000Y-63310000D03*
X128110000Y-60770000D03*
X128110000Y-58230000D03*
X128110000Y-55690000D03*
D22*
X128110000Y-53150000D03*
D20*
X128110000Y-50610000D03*
X128110000Y-48070000D03*
X128110000Y-45530000D03*
X128110000Y-42990000D03*
D22*
X128110000Y-40450000D03*
D20*
X128110000Y-37910000D03*
X128110000Y-35370000D03*
%TD*%
D26*
%TO.C,C2*%
X103500000Y-135000000D03*
D27*
X103500000Y-140000000D03*
%TD*%
D26*
%TO.C,C1*%
X122000000Y-137400000D03*
D27*
X117000000Y-137400000D03*
%TD*%
D28*
%TO.C,J1*%
X151000000Y-112240000D03*
X151000000Y-109700000D03*
X151000000Y-107160000D03*
X151000000Y-104620000D03*
X151000000Y-102080000D03*
X151000000Y-99540000D03*
D29*
X151000000Y-97000000D03*
%TD*%
D13*
%TO.C,Screw_Terminal1*%
X65000000Y-155000000D03*
D14*
X70080000Y-155000000D03*
%TD*%
D30*
%TO.C,J5*%
X103000000Y-44000000D03*
X103000000Y-46000000D03*
X103000000Y-48000000D03*
X103000000Y-50000000D03*
X103000000Y-52000000D03*
D31*
X103000000Y-54000000D03*
%TD*%
D30*
%TO.C,J2*%
X97000000Y-110000000D03*
X99000000Y-110000000D03*
X97000000Y-112000000D03*
X99000000Y-112000000D03*
X97000000Y-114000000D03*
X99000000Y-114000000D03*
X97000000Y-116000000D03*
D31*
X99000000Y-116000000D03*
%TD*%
M02*
